<svg width="170" height="167" viewBox="0 0 170 167" fill="none" xmlns="http://www.w3.org/2000/svg">
<path fill-rule="evenodd" clip-rule="evenodd" d="M85.2575 147.057C80.7395 147.057 76.3244 146.746 72.1358 146.147C63.5031 144.912 54.385 141.995 46.2845 138.763C32.285 133.18 4.68654 122.111 8.73638 103.581C10.9106 104.555 13.17 105.392 15.4158 105.392C16.3494 105.392 17.2805 105.248 18.2021 104.907C18.273 104.998 18.3442 105.087 18.4143 105.177C19.6303 106.743 20.8501 108.311 22.1521 109.821C22.8042 110.573 23.477 111.309 24.1808 112.016C24.8804 112.721 25.6259 113.409 26.3938 114.031C27.1544 114.665 27.937 115.285 28.7316 115.881C29.5295 116.474 30.3362 117.053 31.1639 117.603C31.4399 117.788 31.7196 117.967 31.9996 118.147C30.5635 117.581 28.8054 117.279 26.9792 117.279C23.6643 117.279 20.1219 118.271 17.8508 120.479C20.4992 121.269 22.8072 121.715 25.3873 121.715C26.0662 121.715 26.7632 121.684 27.491 121.621C29.3139 121.408 32.5959 120.184 33.6141 119.136L33.6921 119.183C34.1199 119.439 34.5579 119.671 34.9989 119.894C35.4347 120.126 35.8889 120.343 36.3378 120.548C37.2383 120.961 38.1535 121.347 39.0869 121.683C40.0179 122.001 40.9761 122.332 41.9701 122.332C41.9712 122.332 41.9723 122.332 41.9735 122.332C40.9806 122.297 40.0439 121.925 39.1223 121.585C38.2037 121.225 37.3032 120.814 36.4174 120.379C35.9729 120.159 35.5376 119.937 35.1079 119.69C34.6733 119.452 34.2451 119.205 33.8267 118.946C33.7746 118.915 33.7245 118.88 33.6721 118.849C35.0894 116.619 35.417 113.858 35.057 111.118C34.8123 107.963 34.4554 105.28 30.8488 101.497C30.3614 106.364 28.908 114.783 32.7343 118.26C32.2676 117.957 31.8059 117.647 31.3494 117.329C30.539 116.765 29.7482 116.174 28.9679 115.569C28.1865 114.963 27.4334 114.33 26.6772 113.689C25.9102 113.058 25.2026 112.395 24.5091 111.688C24.1619 111.333 23.8208 110.971 23.4868 110.602C25.3123 107.927 26.1959 104.314 25.6836 101.194C25.4944 99.4896 25.3184 96.8703 23.3534 94.399C22.4171 96.7245 21.0895 105.688 22.8728 109.904C22.7548 109.77 22.6349 109.639 22.5184 109.503C21.2369 108.001 20.0404 106.423 18.8229 104.856C18.5496 104.507 18.2684 104.166 17.9944 103.819C19.2327 101.368 20.538 94.5773 18.005 90.9605C16.1188 93.4011 15.6725 98.8315 17.4467 103.133C16.6702 102.154 15.8986 101.172 15.1086 100.202L13.2393 97.8901C12.7832 97.3307 12.3403 96.7616 11.8955 96.1947C15.5609 90.522 21.6002 85.9494 23.607 79.4988C28.4161 64.0428 12.5374 54.6742 9.32517 41.0438C7.64326 33.9078 10.7116 30.4902 16.5161 28.1719C16.4701 30.5792 17.1146 33.3027 18.2858 34.9356L18.3785 35.2541L18.6503 36.1152C18.7472 36.4 18.8406 36.681 18.982 36.968C19.1961 37.4542 19.4057 37.9424 19.6198 38.4286C17.7969 35.0094 16.3732 33.2005 12.1273 31.3048C14.3954 35.9217 17.0517 37.2073 19.8576 38.9481C19.9703 39.1954 20.0778 39.4438 20.1976 39.6873C20.59 40.5401 21.0186 41.3744 21.4419 42.2116C19.3555 40.531 16.3845 39.6854 13.4692 39.6854C12.8959 39.6854 12.3249 39.718 11.7628 39.7835C13.8567 42.0234 16.5564 43.5473 19.4479 43.5473C20.2692 43.5473 21.1061 43.4242 21.9493 43.1599C22.7442 44.6473 23.5652 46.1197 24.3888 47.5871C25.2023 49.034 26.0006 50.4931 26.7926 51.9533C23.4367 49.0893 19.0378 46.7926 14.4485 46.7926C14.2103 46.7926 13.9728 46.7987 13.7339 46.8115C17.3065 48.9655 21.235 52.6365 25.6369 52.6365C26.1167 52.6365 26.6015 52.5929 27.093 52.499C27.1476 52.5997 27.2042 52.6986 27.2581 52.7993C28.2038 54.5431 29.1537 56.2911 30.1933 57.993C30.7143 58.842 31.2593 59.6785 31.8387 60.4915C32.4143 61.3011 33.0385 62.1024 33.6955 62.842C34.3431 63.5918 35.0148 64.3314 35.7023 65.049C36.3929 65.7647 37.0951 66.4683 37.8226 67.1465C38.0646 67.3741 38.3122 67.596 38.5588 67.8195C36.5847 66.6368 33.812 65.9169 31.0422 65.9169C28.5789 65.9169 26.1178 66.4861 24.2211 67.8047C27.3595 69.3365 30.0505 70.2389 33.5473 70.5096C33.6559 70.5145 33.7705 70.5172 33.89 70.5172C35.78 70.5172 38.8859 69.8761 39.9915 69.0604L40.0605 69.1191C40.4412 69.4421 40.8351 69.7424 41.235 70.0348C41.6274 70.3351 42.0402 70.6225 42.4495 70.8993C43.2713 71.4541 44.1111 71.9842 44.9777 72.4686C45.8458 72.9355 46.7387 73.4183 47.721 73.5811C46.747 73.3842 45.8835 72.8635 45.0286 72.3777C44.1804 71.8718 43.3587 71.32 42.5555 70.7448C42.1529 70.4547 41.759 70.1654 41.3756 69.8511C40.9851 69.5451 40.6025 69.2316 40.232 68.9074C40.1856 68.8684 40.1415 68.8252 40.0952 68.7862C41.8547 66.8175 42.6263 64.1481 42.7153 61.3856C42.9603 58.5284 43.0515 56.0378 40.8747 52.3793C41.6632 52.2237 42.4672 52.0817 43.2264 51.8984C45.5593 51.0634 47.2159 48.7353 49.2823 48.207C49.6382 48.0862 49.9521 48.0294 50.2186 48.0294C51.2839 48.0294 51.5903 48.9303 50.7614 50.2189C50.1557 51.1248 48.4681 51.6276 47.5559 52.2684C46.4451 52.9568 45.1861 54.2917 43.9 55.0706C46.2419 56.9641 48.1545 56.5699 51.4298 57.0913C52.4927 57.2939 53.184 57.6502 53.9458 57.6502C54.5048 57.6502 55.1019 57.4586 55.9119 56.8732C57.0002 56.0276 57.8739 54.8131 58.3519 53.4347C58.9188 51.9533 59.2543 49.9111 59.1359 48.1907C58.9539 46.9535 58.2908 45.6547 58.4895 44.3906L58.6531 43.9949C61.4108 45.1472 62.7217 50.2454 65.2544 52.2778C66.6099 51.1255 65.7162 49.2662 66.7931 48.2308C67.5899 47.3091 69.9884 47.4295 71.0913 46.7767C73.2836 45.2767 74.226 42.3279 75.0183 39.966C75.1792 39.4863 75.3097 39.0102 75.4261 38.5342C75.4137 38.5339 75.4013 38.5339 75.3892 38.5339C72.0156 38.5339 70.0416 42.0689 66.3943 42.4919C66.3166 42.501 66.2311 42.5055 66.1395 42.5055C63.8741 42.5055 57.5814 39.8006 61.8111 38.488C62.1322 38.3547 62.4741 38.3067 62.8296 38.3067C63.2928 38.3067 63.7791 38.3881 64.2732 38.4695C64.7674 38.5509 65.2691 38.6323 65.7625 38.6323C66.0445 38.6323 66.3238 38.6058 66.5975 38.5373C68.2089 38.329 69.475 37.2781 70.9586 36.5973C72.247 35.9115 74.4529 35.2715 75.9245 34.4891C75.9531 31.1741 75.108 27.9311 73.8924 24.6967C72.9907 25.5821 71.9922 26.514 71.5535 27.2339C69.9104 29.7514 68.1214 30.1664 65.343 31.513C64.4975 32.0152 61.2129 34.7254 59.3429 34.7258C58.7763 34.7258 58.3402 34.4774 58.1404 33.8435C57.4977 31.4854 63.9932 29.9737 65.3626 29.0118C68.2334 27.1904 70.2828 24.1863 72.7235 21.807C72.6779 21.7013 72.6341 21.5957 72.5878 21.4915C71.2414 18.2083 68.8994 15.2891 66.1998 12.8219C64.9932 16.115 64.698 19.7863 62.727 22.7582C61.427 24.6759 58.3002 27.8724 56.0424 28.4165C55.6647 28.5245 55.3759 28.5733 55.1633 28.5733C53.3676 28.5737 56.9644 25.0977 57.7695 24.3551C59.7956 22.3955 60.6614 19.8424 61.283 17.1787C63.0584 14.1136 64.8247 11.066 67.6544 8.70562C71.6703 5.35653 77.1823 3.69751 82.7222 3.69751C90.9828 3.69751 99.3027 7.38893 102.797 14.6691C105.575 20.4562 106.415 27.0885 108.279 33.2482C108.122 33.5746 107.975 33.9044 107.838 34.2384C107.791 34.343 107.748 34.4486 107.702 34.5539C108.25 35.0878 108.778 35.6532 109.3 36.2296C110.368 38.9497 111.761 41.4285 113.464 43.5109C111.564 42.6486 110.172 41.9731 108.872 39.9808C108.433 39.2613 107.435 38.329 106.534 37.4436C105.317 40.678 104.473 43.9214 104.501 47.2364C105.973 48.0188 108.178 48.6584 109.467 49.3446C110.951 50.0254 112.217 51.0759 113.828 51.2846C114.102 51.3531 114.381 51.3796 114.663 51.3796C115.157 51.3796 115.658 51.2982 116.153 51.2168C116.646 51.1354 117.133 51.0536 117.596 51.0536C117.952 51.0536 118.294 51.1017 118.614 51.235C122.844 52.5479 116.553 55.2524 114.287 55.2524C114.195 55.2528 114.11 55.2483 114.032 55.2388C110.385 54.8158 108.41 51.2812 105.037 51.2812C105.024 51.2812 105.013 51.2812 105 51.2812C105.116 51.7575 105.246 52.2335 105.408 52.713C106.2 55.0752 107.142 58.0236 109.335 59.5236C110.437 60.1768 112.836 60.0564 113.633 60.9781C114.709 62.0135 113.816 63.8728 115.171 65.0251C117.704 62.9927 119.015 57.8941 121.773 56.7422L121.936 57.1379C122.135 58.4016 121.472 59.7008 121.29 60.9376C121.171 62.658 121.507 64.7006 122.074 66.182C122.552 67.5608 123.425 68.7753 124.514 69.6205C125.324 70.2059 125.921 70.3975 126.48 70.3975C127.242 70.3975 127.933 70.0412 128.996 69.8386C132.271 69.3172 134.184 69.7114 136.525 67.8179C135.239 67.0394 133.98 65.7037 132.87 65.0157C131.957 64.3749 130.27 63.872 129.664 62.9658C128.836 61.6776 129.142 60.7767 130.206 60.7767C130.473 60.7767 130.787 60.8331 131.143 60.9543C133.21 61.4822 134.866 63.8103 137.199 64.6457C138.042 64.8487 138.939 65.0013 139.809 65.1781C141.341 64.3053 142.919 63.6032 143.811 61.7457C144.312 60.643 144.453 59.4626 144.803 58.361C142.48 59.0957 139.868 59.6524 137.633 59.7747C137.382 59.7989 137.042 59.8171 136.656 59.8171C135.265 59.8171 133.292 59.5834 132.839 58.5739C132.108 56.6963 134.596 56.6797 135.752 56.5672C139.304 56.2559 142.628 56.6448 146.109 55.9299C146.624 55.2373 147.162 54.6003 147.517 53.8354C147.784 53.1871 148.023 52.5085 148.208 51.8246C150.014 53.1545 151.602 54.8862 152.938 57.0171C152.13 59.399 152.227 62.2918 152.956 64.0746L152.831 64.4548L152.544 65.3031C152.443 65.5803 152.339 65.8651 152.211 66.1097L152.207 66.1192L152.205 66.1237C151.786 67.0208 151.391 67.9289 150.936 68.8082C150.592 69.5156 150.222 70.2097 149.852 70.9038C151.082 67.1272 148.91 62.1983 147.049 58.7064C144.734 65.0206 146.779 69.1274 149.255 72.0058C148.881 72.6863 148.511 73.3687 148.125 74.0439L146.655 76.6307C146.033 77.7171 145.431 78.8115 144.823 79.904C145.877 75.3704 144.556 70.0855 142.299 67.9865C140.386 71.9695 142.774 78.4552 144.394 80.6713C144.18 81.0587 143.958 81.4415 143.746 81.8304C142.798 83.575 141.874 85.3279 140.852 87.0195C140.76 87.1725 140.662 87.3221 140.568 87.4736C141.644 83.0218 138.88 74.3957 137.58 72.2542C136.042 75.0137 136.293 77.6274 136.383 79.3398C136.383 82.5022 137.841 85.9225 140.076 88.2627C139.805 88.6812 139.528 89.0947 139.242 89.5014C138.673 90.3122 138.083 91.0828 137.428 91.8307C136.787 92.5873 136.146 93.3345 135.473 94.0604C134.801 94.7848 134.117 95.4975 133.409 96.1863C133.01 96.5745 132.605 96.9562 132.193 97.3319C135.404 93.275 132.605 85.206 131.335 80.4838C128.39 84.8065 128.473 87.513 128.743 90.6659C128.832 93.4284 129.604 96.0974 131.363 98.0665C131.317 98.1055 131.273 98.1483 131.226 98.1877C130.856 98.5115 130.474 98.825 130.084 99.1314C129.699 99.4457 129.306 99.735 128.903 100.025C128.1 100.6 127.278 101.152 126.43 101.658C125.575 102.144 124.712 102.665 123.737 102.861C124.72 102.699 125.613 102.216 126.481 101.749C127.347 101.265 128.187 100.734 129.009 100.18C129.418 99.9028 129.831 99.615 130.224 99.3147C130.623 99.0227 131.017 98.7224 131.398 98.3994L131.467 98.3407C132.573 99.1564 135.679 99.7975 137.569 99.7975C137.688 99.7975 137.803 99.7948 137.912 99.7895C141.408 99.5192 144.099 98.6167 147.237 97.085C145.341 95.766 142.88 95.1972 140.416 95.1972C137.647 95.1972 134.874 95.9171 132.9 97.0997C133.146 96.8763 133.394 96.6544 133.636 96.4268C134.363 95.7486 135.066 95.045 135.757 94.3293C136.444 93.6117 137.115 92.8721 137.763 92.1219C138.42 91.3824 139.044 90.5814 139.62 89.7714C140.199 88.9588 140.744 88.1223 141.266 87.2732C142.305 85.5714 143.255 83.8234 144.201 82.0792C144.255 81.9789 144.312 81.8796 144.366 81.7789C144.857 81.8732 145.342 81.9167 145.822 81.9167C150.224 81.9164 154.152 78.2458 157.725 76.0914C157.486 76.0789 157.249 76.0729 157.011 76.0729C152.422 76.0729 148.022 78.3692 144.666 81.2332C145.458 79.7734 146.256 78.3139 147.07 76.8677C147.894 75.4 148.715 73.9276 149.51 72.4398C150.352 72.7045 151.189 72.8272 152.011 72.8272C154.059 72.8272 156.011 72.063 157.719 70.8209C159.018 78.1897 158.822 86.0213 157.341 93.6772C154.763 95.195 152.109 96.6139 149.255 97.5276C146.35 98.4581 143.189 98.5297 140.438 99.9384C137.921 101.227 135.738 103.071 133.445 104.709C131.202 106.311 128.87 108.012 127.385 110.389C125.861 112.824 124.963 115.592 123.617 118.122C123.882 117.624 126.45 117.535 126.992 117.445C129.96 116.951 132.985 116.868 135.971 116.388C136.396 116.32 137.778 116.035 138.939 115.804C138.731 116.011 138.523 116.215 138.314 116.416C137.544 117.16 136.816 117.871 136.152 118.543C135.825 118.885 135.512 119.213 135.213 119.526C134.924 119.848 134.658 120.164 134.403 120.456C134.278 120.604 134.149 120.741 134.039 120.885C133.929 121.031 133.824 121.171 133.722 121.307C133.519 121.577 133.333 121.825 133.164 122.05C132.85 122.517 132.627 122.903 132.464 123.157C132.304 123.414 132.219 123.552 132.219 123.552L133.234 124.101C133.234 124.101 133.31 123.972 133.452 123.727C133.598 123.485 133.795 123.12 134.077 122.672C134.23 122.455 134.4 122.215 134.585 121.954C134.677 121.823 134.774 121.687 134.874 121.545C134.974 121.404 135.095 121.269 135.211 121.123C135.449 120.835 135.695 120.524 135.966 120.204C136.248 119.891 136.545 119.562 136.855 119.219C137.487 118.54 138.188 117.815 138.939 117.046C139.174 116.807 139.414 116.555 139.656 116.3C139.488 117.181 139.211 118.431 139.038 119.213C138.776 120.676 138.962 122.928 139.187 124.353C139.307 125.558 139.796 126.485 140.26 127.48C138.012 129.784 135.587 131.854 133.004 133.636C119.502 142.948 101.685 147.057 85.2575 147.057ZM10.9596 108.494C10.1646 108.494 9.38925 108.549 8.64253 108.673C12.6102 110.475 16.2375 112.163 19.927 112.163C21.169 112.163 22.4178 111.972 23.69 111.529C20.0845 110.124 15.2522 108.494 10.9596 108.494ZM154.408 83.9302C149.565 83.9314 143.971 86.8677 140.026 89.211C140.685 89.3246 141.327 89.3776 141.958 89.3776C146.37 89.3776 150.172 86.7688 154.408 83.9302ZM17.0502 54.6499C21.2862 57.4889 25.0888 60.0973 29.5009 60.0973C30.1315 60.0973 30.7742 60.0443 31.4331 59.9307C27.4876 57.5878 21.8931 54.6514 17.0502 54.6499ZM17.818 104.418C15.3095 102.906 12.3878 101.716 9.38171 101.308C9.79785 100.114 10.3448 98.8898 11.0327 97.6367C11.228 97.2804 11.4341 96.9297 11.6494 96.5825C12.6633 97.9037 13.6996 99.2064 14.7384 100.504C15.775 101.798 16.7988 103.107 17.818 104.418ZM150.017 71.4916C150.44 70.6543 150.868 69.8204 151.261 68.9672C151.381 68.7241 151.489 68.4757 151.601 68.2284C153.239 67.2124 154.826 66.3513 156.314 64.8922C156.719 66.2335 157.067 67.5953 157.361 68.9782C154.652 69.0911 151.953 69.9318 150.017 71.4916ZM39.2655 68.0516C38.8539 67.6759 38.4491 67.2942 38.0499 66.9061C37.3416 66.2176 36.6571 65.5046 35.9858 64.7805C35.3137 64.0542 34.6721 63.307 34.0302 62.5504C33.3758 61.8025 32.7855 61.0319 32.2164 60.2215C31.9306 59.8144 31.6532 59.4013 31.3829 58.9825C33.6182 56.6422 35.0758 53.2223 35.0758 50.0599C35.1663 48.3475 35.4173 45.7338 33.8787 42.9743C32.5786 45.1154 29.8149 53.7415 30.8903 58.1933C30.7961 58.0418 30.6988 57.8922 30.6061 57.7392C29.5849 56.0477 28.6603 54.2947 27.7131 52.5501C27.5001 52.1608 27.2784 51.7787 27.0643 51.391C28.6841 49.1753 31.0731 42.6895 29.1594 38.7062C26.9023 40.8056 25.5815 46.0901 26.635 50.6241C26.0278 49.5316 25.4254 48.4372 24.8035 47.3504L23.3338 44.7632C22.9474 44.0888 22.5776 43.406 22.2037 42.7259C24.6791 39.8471 26.7243 35.7407 24.4096 29.4261C22.549 32.9183 20.3774 37.8469 21.6066 41.6236C21.2365 40.929 20.8667 40.2353 20.5229 39.5283C20.0672 38.6486 19.6733 37.7405 19.2538 36.8434L19.2523 36.8389L19.247 36.8298C19.1192 36.5848 19.0152 36.3 18.9145 36.0228L18.6273 35.1749L18.5029 34.7947C19.2583 32.9464 19.3344 29.9051 18.4279 27.477C20.4245 26.8151 22.3786 26.5644 24.3116 26.5644C27.0968 26.5644 29.8371 27.0855 32.5907 27.6501C32.7852 28.362 33.0532 29.0887 33.2043 29.8222C35.7796 32.2261 37.6552 35.2662 41.6139 35.5775C42.8581 35.5873 51.7863 36.0179 48.0882 39.256C47.706 39.5734 47.1937 39.7048 46.6049 39.7048C44.2698 39.7051 40.722 37.6379 39.2192 36.8987C36.8965 35.8554 34.7283 34.3808 33.0181 32.4226C32.6374 33.5189 32.0079 34.6327 31.8775 35.8759C31.7037 37.5201 32.2186 39.4071 32.9084 41.0881C33.2639 41.853 33.8014 42.4896 34.3167 43.183C37.7973 43.8979 41.1223 43.509 44.6746 43.8203C45.8303 43.9328 48.3181 43.9491 47.5861 45.827C47.1334 46.8361 45.1616 47.0698 43.7715 47.0698C43.3851 47.0698 43.044 47.0516 42.7925 47.0274C40.5577 46.9054 37.9455 46.3484 35.6228 45.6138C35.9726 46.7153 36.1139 47.8957 36.6153 48.9984C37.3672 50.5654 38.6074 51.3103 39.8965 52.0287C38.558 56.8183 36.2342 64.2223 39.2655 68.0516ZM151.839 67.7089C152.053 67.2223 152.263 66.7338 152.477 66.2475C152.619 65.9605 152.711 65.6799 152.809 65.3959L153.08 64.534L153.173 64.2159C153.882 63.2264 154.399 61.837 154.685 60.3597C154.815 60.6608 154.942 60.9687 155.065 61.2811C155.254 61.7643 155.436 62.2524 155.61 62.7428C153.976 64.0424 152.986 65.5568 151.839 67.7089ZM133.821 52.452C133.232 52.452 132.72 52.3206 132.338 52.0033C130.25 50.175 132.187 49.2416 134.493 48.7739C135.596 48.6224 136.671 48.547 137.716 48.547C139.336 48.547 140.884 48.7284 142.349 49.0905C141.973 49.2878 141.592 49.4729 141.207 49.646C139.703 50.3852 136.156 52.452 133.821 52.452ZM107.894 45.9996C106.881 45.9996 105.999 44.892 107.146 44.1854L107.439 44.1089C107.519 44.088 107.607 44.0782 107.699 44.0782C108.622 44.0782 110.007 45.0491 108.562 45.822C108.347 45.9459 108.117 45.9996 107.894 45.9996ZM72.532 33.2523C72.3085 33.2523 72.0793 33.1986 71.8633 33.0751C70.4189 32.3018 71.8041 31.3313 72.7265 31.3313C72.8192 31.3313 72.9071 31.3407 72.987 31.3616L73.2798 31.4381C74.4261 32.1447 73.5445 33.2523 72.532 33.2523ZM46.9084 31.4074C45.5992 31.4074 43.828 30.3884 44.6991 28.96C45.4971 28.9069 46.2619 28.8361 46.9973 28.7403C47.3422 28.9028 47.6343 29.1485 47.7908 29.4742C48.597 30.8462 47.8801 31.4074 46.9084 31.4074Z" fill="#FFFEFC"/>
<path fill-rule="evenodd" clip-rule="evenodd" d="M11.0871 82.3166C1.43288 82.3166 -0.122 67.5282 9.54915 65.935C10.0625 65.8502 10.5567 65.8101 11.0317 65.8101C20.3164 65.8101 22.119 81.2237 12.1221 82.2616C11.7682 82.2984 11.4218 82.3166 11.0871 82.3166Z" fill="#FFFEFC"/>
<path fill-rule="evenodd" clip-rule="evenodd" d="M138.512 38.5873C139.584 37.906 140.938 37.6614 141.906 36.8162C143.026 35.838 143.473 34.908 144.137 33.6095C144.711 32.6321 145.222 31.4021 145.858 30.3145C145.462 28.938 145.011 27.5774 144.342 26.2081C144.234 26.5671 144.12 26.9223 144.004 27.2567C143.044 30.0718 141.512 32.8479 139.182 34.7035C138.046 35.6245 136.805 36.0603 135.984 36.0607C134.756 36.0607 134.47 35.0833 136.889 33.2933C140.232 30.8557 141.832 28.0595 143.497 24.6244C141.747 21.387 140.203 18.1122 137.844 15.3875C137.817 15.3856 137.789 15.3849 137.762 15.3849C137.598 15.3849 137.433 15.4144 137.268 15.4436C137.102 15.4731 136.937 15.5023 136.774 15.5023C136.745 15.5023 136.717 15.5015 136.688 15.4996C136.434 15.4637 136.168 15.447 135.89 15.447C135.285 15.447 134.63 15.5265 133.952 15.656C133.955 18.8006 134.198 26.4758 132.84 26.4762C132.817 26.4762 132.794 26.4739 132.77 26.4697C131.598 26.2384 131.257 19.8795 131.301 16.3316C129.876 16.761 128.491 17.245 127.363 17.5373C126.867 17.6756 126.397 17.8342 125.94 18.0012C125.554 20.7065 126.226 24.1056 127.234 26.2736C127.966 28.1511 131.815 31.9766 131.083 34.2317C130.793 35.0015 130.455 35.3132 130.099 35.3136C128.72 35.3139 127.063 30.6572 126.894 29.806C126.027 27.151 124.853 24.7611 123.985 22.1054C123.754 21.3469 123.625 20.1177 123.676 18.9922C122.281 19.7034 120.966 20.5483 119.531 21.5059C118.832 21.9558 118.134 22.4394 117.44 22.9465C118.802 26.6924 118.882 31.1552 120.822 34.6793C118.797 33.4955 116.998 32.0648 115.586 30.3278C115.156 28.7324 114.79 27.1094 114.226 25.5692C113.921 25.8483 113.62 26.1335 113.325 26.4239C112.783 24.9955 112.456 23.4172 112.389 21.6726C112.003 11.6007 119.925 7.43213 129.098 7.43213C141.009 7.43213 155.033 14.456 155.737 24.702C156.086 30.1324 152.482 33.8609 147.65 36.113C147.463 35.6108 147.244 35.0916 147.043 34.485C146.906 34.0518 146.781 33.6239 146.66 33.1986C145.883 34.7145 144.998 36.1758 143.967 37.491C142.179 38.017 140.324 38.3798 138.512 38.5873ZM129.476 24.3158C128.12 23.165 128.94 21.011 128.855 19.4675L129.25 19.3031C130.353 19.956 130.875 23.4539 129.476 24.3158Z" fill="#FFFEFC"/>
<path fill-rule="evenodd" clip-rule="evenodd" d="M8.73634 103.581C7.13095 102.861 5.57193 102.068 4.09922 101.482C5.11621 101.258 6.14488 101.155 7.17355 101.155C7.9116 101.155 8.64927 101.208 9.38166 101.308C9.11328 102.078 8.89956 102.835 8.73634 103.581ZM7.83395 97.4387C5.43472 97.4387 3.0551 96.439 1.0151 94.8708C2.33929 94.4895 3.74867 94.2911 5.14222 94.2911C7.2316 94.2911 9.28517 94.7372 10.9584 95.6824C10.4051 94.9258 9.84681 94.1725 9.32173 93.3955C9.16417 93.1751 9.01716 92.9471 8.86601 92.7214C5.81619 91.4634 2.98687 90.63 0 86.4459C4.4969 87.6213 6.19463 89.1728 8.54749 92.2481C8.2565 91.8024 7.97002 91.3536 7.67902 90.9083C7.49395 90.6493 7.35674 90.3884 7.21576 90.1248L6.80792 89.3193L6.66506 89.0205C4.5851 86.9416 3.24093 82.3727 3.85421 79.5845C6.46678 81.5639 7.46304 86.1929 6.85579 88.8452L7.04049 89.2004L7.46153 89.99C7.6059 90.2467 7.75441 90.5107 7.92027 90.7318L7.92667 90.7394L7.92894 90.7439C8.48869 91.5604 9.02508 92.3916 9.61725 93.1853C10.0707 93.8264 10.5483 94.4509 11.0255 95.075C9.20036 91.5502 10.5441 86.3319 11.8133 82.5821C15.121 88.4332 13.7692 92.8199 11.7933 96.0645C11.8273 96.108 11.8612 96.1512 11.8955 96.1947C11.8122 96.3231 11.73 96.4526 11.6493 96.5825C11.6373 96.5666 11.6252 96.5507 11.6131 96.5352C10.379 97.1589 9.10386 97.4387 7.83395 97.4387Z" fill="#EBF4E6"/>
<path fill-rule="evenodd" clip-rule="evenodd" d="M41.97 122.331C40.976 122.331 40.0178 122.001 39.0868 121.683C38.1535 121.347 37.2383 120.961 36.3378 120.548C35.8888 120.343 35.4346 120.126 34.9989 119.894C34.5579 119.671 34.1199 119.439 33.692 119.183L33.614 119.136C32.5959 120.184 29.3139 121.407 27.491 121.621C26.7631 121.684 26.0662 121.715 25.3873 121.715C22.8071 121.715 20.4991 121.268 17.8507 120.479C20.1218 118.271 23.6643 117.279 26.9791 117.279C28.8054 117.279 30.5634 117.58 31.9996 118.147C31.7195 117.967 31.4398 117.788 31.1639 117.603C30.3361 117.053 29.5295 116.474 28.7315 115.881C27.9369 115.285 27.1544 114.665 26.3937 114.031C25.6259 113.409 24.8803 112.721 24.1807 112.016C23.4769 111.309 22.8041 110.573 22.152 109.821C20.8501 108.311 19.6303 106.743 18.4143 105.177C18.3442 105.087 18.2729 104.998 18.202 104.907C17.2804 105.247 16.3494 105.392 15.4157 105.392C13.1699 105.392 10.9105 104.554 8.73633 103.58C8.89954 102.835 9.11327 102.077 9.38165 101.308C12.3877 101.716 15.3094 102.906 17.8179 104.418C16.7987 103.107 15.7749 101.798 14.7383 100.504C13.6995 99.2063 12.6633 97.9036 11.6493 96.5824C11.73 96.4525 11.8122 96.323 11.8955 96.1946C12.3403 96.7615 12.7832 97.3307 13.2393 97.89L15.1085 100.202C15.8986 101.172 16.6702 102.154 17.4467 103.133C15.6724 98.8314 16.1187 93.4011 18.0049 90.9604C20.5379 94.5773 19.2326 101.367 17.9944 103.819C18.2684 104.166 18.5496 104.507 18.8229 104.856C20.0404 106.423 21.2368 108.001 22.5184 109.503C22.6349 109.639 22.7547 109.77 22.8727 109.904C21.0894 105.688 22.417 96.7244 23.3533 94.3989C25.3183 96.8702 25.4943 99.4896 25.6836 101.194C26.1958 104.314 25.3123 107.927 23.4867 110.602C23.8207 110.971 24.1618 111.333 24.509 111.688C25.2026 112.395 25.9101 113.058 26.6772 113.689C27.4333 114.33 28.1864 114.963 28.9678 115.569C29.7481 116.174 30.5389 116.765 31.3493 117.329C31.8058 117.647 32.2676 117.957 32.7342 118.26C28.9079 114.783 30.3614 106.364 30.8488 101.497C34.4553 105.28 34.8123 107.963 35.0569 111.118C35.4169 113.858 35.0893 116.619 33.672 118.849C33.7244 118.88 33.7746 118.915 33.8266 118.946C34.245 119.205 34.6732 119.452 35.1078 119.69C35.5375 119.937 35.9729 120.159 36.4173 120.379C37.3031 120.814 38.2036 121.225 39.1222 121.585C40.0438 121.925 40.9805 122.297 41.9734 122.331C41.9723 122.331 41.9711 122.331 41.97 122.331Z" fill="#EBF3E3"/>
<path fill-rule="evenodd" clip-rule="evenodd" d="M19.927 112.163C16.2375 112.163 12.6102 110.475 8.64258 108.673C9.3893 108.549 10.1647 108.494 10.9596 108.494C15.2522 108.494 20.0846 110.124 23.69 111.529C22.4179 111.972 21.1691 112.163 19.927 112.163Z" fill="#EBF3E3"/>
<path fill-rule="evenodd" clip-rule="evenodd" d="M16.5161 28.1718C16.5376 27.055 16.7076 26.0057 17.0423 25.1658C17.6428 25.7986 18.0996 26.5972 18.428 27.4769C18.4136 27.4814 18.3993 27.486 18.385 27.4909C17.7351 27.7083 17.1109 27.9343 16.5161 28.1718Z" fill="#EBF4E6"/>
<path fill-rule="evenodd" clip-rule="evenodd" d="M47.7209 73.5812C46.7386 73.4183 45.8456 72.9355 44.9775 72.4686C44.1109 71.9843 43.2711 71.4541 42.4494 70.8993C42.04 70.6225 41.6273 70.3351 41.2349 70.0348C40.835 69.7424 40.4411 69.4421 40.0603 69.1191L39.9914 69.0604C38.8858 69.8761 35.7798 70.5172 33.8898 70.5172C33.7703 70.5172 33.6558 70.5146 33.5472 70.5097C30.0503 70.2389 27.3593 69.3365 24.2209 67.8047C26.1177 66.4861 28.5787 65.917 31.0421 65.917C33.8118 65.917 36.5846 66.6368 38.5586 67.8195C38.3121 67.5961 38.0644 67.3741 37.8225 67.1466C37.095 66.4683 36.3927 65.7647 35.7022 65.049C35.0146 64.3314 34.3429 63.5918 33.6953 62.842C33.0383 62.1025 32.4141 61.3012 31.8385 60.4916C31.2592 59.6785 30.7141 58.842 30.1932 57.993C29.1536 56.2912 28.2037 54.5432 27.2579 52.7993C27.204 52.6986 27.1475 52.5998 27.0929 52.499C26.6013 52.5929 26.1166 52.6365 25.6367 52.6365C21.2348 52.6365 17.3064 48.9655 13.7337 46.8116C13.9727 46.7987 14.2102 46.7926 14.4484 46.7926C19.0376 46.7926 23.4365 49.0893 26.7924 51.9533C26.0005 50.4931 25.2021 49.0341 24.3887 47.5871C23.5651 46.1197 22.7441 44.6474 21.9491 43.1599C21.1059 43.4242 20.2691 43.5473 19.4478 43.5473C16.5562 43.5473 13.8566 42.0235 11.7627 39.7835C12.3247 39.718 12.8958 39.6855 13.4691 39.6855C16.3844 39.6855 19.3554 40.5311 21.4418 42.2117C21.0185 41.3744 20.5899 40.5402 20.1975 39.6874C20.0776 39.4439 19.9702 39.1955 19.8575 38.9482C17.0515 37.2074 14.3952 35.9217 12.1272 31.3048C16.373 33.2005 17.7968 35.0095 19.6196 38.4286C19.4055 37.9424 19.196 37.4543 18.9819 36.968C18.8405 36.681 18.747 36.4 18.6501 36.1152L18.3784 35.2541L18.2856 34.9356C17.1145 33.3027 16.4699 30.5792 16.5159 28.1719C17.1107 27.9345 17.7349 27.7084 18.3848 27.4911C18.3991 27.4861 18.4134 27.4816 18.4278 27.4771C19.3343 29.9052 19.2582 32.9464 18.5028 34.7948L18.6272 35.175L18.9144 36.0228C19.015 36.3 19.1191 36.5848 19.2468 36.8298L19.2521 36.8389L19.2536 36.8434C19.6732 37.7405 20.0671 38.6486 20.5228 39.5283C20.8666 40.2353 21.2363 40.9291 21.6065 41.6236C20.3773 37.847 22.5488 32.9184 24.4094 29.4261C26.7242 35.7407 24.6789 39.8472 22.2036 42.7259C22.5775 43.406 22.9473 44.0888 23.3336 44.7633L24.8033 47.3504C25.4253 48.4373 26.0276 49.5317 26.6349 50.6242C25.5813 46.0902 26.9021 40.8056 29.1592 38.7062C31.073 42.6896 28.6839 49.1753 27.0642 51.391C27.2783 51.7788 27.4999 52.1609 27.7129 52.5501C28.6602 54.2948 29.5848 56.0477 30.6059 57.7393C30.6987 57.8923 30.7959 58.0418 30.8901 58.1933C29.8147 53.7415 32.5785 45.1154 33.8785 42.9743C35.4172 45.7338 35.1662 48.3475 35.0757 50.0599C35.0757 53.2223 33.6181 56.6422 31.3828 58.9825C31.6531 59.4013 31.9305 59.8145 32.2162 60.2215C32.7854 61.0319 33.3757 61.8026 34.0301 62.5505C34.672 63.3071 35.3135 64.0542 35.9856 64.7805C36.657 65.5046 37.3415 66.2176 38.0497 66.9061C38.4489 67.2942 38.8538 67.676 39.2654 68.0516C36.234 64.2224 38.5579 56.8183 39.8964 52.0287C40.1357 52.162 40.3766 52.2945 40.6163 52.4309C40.7019 52.4134 40.7882 52.3964 40.8745 52.3794C43.0514 56.0378 42.9601 58.5284 42.7151 61.3856C42.6262 64.1481 41.8546 66.8175 40.095 68.7863C40.1414 68.8253 40.1855 68.8684 40.2319 68.9074C40.6024 69.2316 40.985 69.5451 41.3755 69.8511C41.7588 70.1654 42.1527 70.4547 42.5553 70.7448C43.3586 71.32 44.1803 71.8718 45.0284 72.3777C45.8833 72.8636 46.7469 73.3843 47.7209 73.5812Z" fill="#EBF3E3"/>
<path fill-rule="evenodd" clip-rule="evenodd" d="M29.501 60.0973C25.0889 60.0973 21.2863 57.4889 17.0503 54.6499C21.8932 54.6514 27.4878 57.5877 31.4332 59.9307C30.7743 60.0443 30.1316 60.0973 29.501 60.0973Z" fill="#EBF3E3"/>
<path fill-rule="evenodd" clip-rule="evenodd" d="M157.719 70.821C157.61 70.2037 157.491 69.5888 157.361 68.9783C157.57 68.9696 157.78 68.9654 157.989 68.9654C158.562 68.9654 159.133 68.998 159.695 69.0635C159.085 69.7171 158.422 70.3094 157.719 70.821ZM156.313 64.8923C156.095 64.169 155.861 63.4525 155.61 62.7429C156.572 61.978 157.758 61.2872 159.331 60.5851C158.387 62.5074 157.375 63.8521 156.313 64.8923ZM154.685 60.3598C154.163 59.1537 153.58 58.04 152.938 57.0172C153.271 56.0356 153.757 55.1408 154.416 54.4463C155.035 55.9997 155.091 58.2676 154.685 60.3598Z" fill="#EBF4E6"/>
<path fill-rule="evenodd" clip-rule="evenodd" d="M123.737 102.861C124.712 102.665 125.575 102.144 126.43 101.658C127.278 101.152 128.1 100.6 128.903 100.025C129.305 99.735 129.699 99.4457 130.083 99.1314C130.474 98.825 130.856 98.5115 131.226 98.1877C131.273 98.1483 131.317 98.1055 131.363 98.0665C129.604 96.0974 128.832 93.4284 128.743 90.6659C128.473 87.513 128.389 84.8065 131.335 80.4838C132.605 85.206 135.404 93.275 132.193 97.3319C132.604 96.9562 133.01 96.5745 133.408 96.1864C134.117 95.4975 134.801 94.7848 135.473 94.0604C136.145 93.3345 136.787 92.5873 137.428 91.8307C138.083 91.0828 138.673 90.3122 139.242 89.5014C139.528 89.0947 139.805 88.6812 140.076 88.2628C137.841 85.9225 136.383 82.5022 136.383 79.3398C136.292 77.6274 136.041 75.0137 137.58 72.2542C138.88 74.3957 141.643 83.0218 140.568 87.4736C140.662 87.3221 140.76 87.1725 140.852 87.0195C141.873 85.3279 142.798 83.575 143.746 81.8304C143.958 81.4415 144.18 81.0587 144.394 80.6713C142.774 78.4552 140.386 71.9695 142.299 67.9865C144.556 70.0855 145.877 75.3704 144.823 79.904C145.431 78.8115 146.033 77.7171 146.655 76.6307L148.125 74.0439C148.511 73.3687 148.881 72.6863 149.255 72.0058C146.779 69.1274 144.734 65.0206 147.049 58.7064C148.91 62.1983 151.082 67.1272 149.852 70.9038C150.222 70.2097 150.592 69.5156 150.935 68.8082C151.391 67.9289 151.785 67.0208 152.205 66.1237L152.206 66.1192L152.211 66.1097C152.339 65.8651 152.443 65.5803 152.544 65.3031L152.831 64.4548L152.956 64.0746C152.227 62.2918 152.13 59.399 152.938 57.0171C153.58 58.0399 154.163 59.1536 154.685 60.3597C154.399 61.837 153.882 63.2264 153.173 64.2159L153.08 64.534L152.809 65.3959C152.711 65.6799 152.618 65.9605 152.477 66.2475C152.263 66.7338 152.053 67.2223 151.839 67.7089C152.986 65.5568 153.975 64.0425 155.61 62.7428C155.861 63.4525 156.095 64.1689 156.314 64.8922C154.825 66.3513 153.239 67.2124 151.601 68.2284C151.488 68.4757 151.381 68.7241 151.261 68.9672C150.868 69.8204 150.44 70.6543 150.016 71.4916C151.953 69.9318 154.652 69.0911 157.361 68.9782C157.491 69.5887 157.61 70.2037 157.719 70.8209C156.011 72.063 154.059 72.8272 152.011 72.8272C151.189 72.8272 150.352 72.7045 149.509 72.4398C148.714 73.9276 147.894 75.4 147.07 76.8677C146.256 78.3139 145.458 79.7734 144.666 81.2332C148.022 78.3692 152.422 76.0729 157.011 76.0729C157.248 76.0729 157.486 76.0789 157.725 76.0914C154.152 78.2458 150.224 81.9164 145.822 81.9168C145.342 81.9168 144.857 81.8732 144.366 81.7789C144.311 81.8796 144.255 81.9789 144.201 82.0792C143.255 83.8234 142.305 85.5714 141.265 87.2732C140.744 88.1223 140.199 88.9588 139.62 89.7714C139.044 90.5814 138.42 91.3824 137.763 92.1219C137.115 92.8721 136.444 93.6117 135.756 94.3293C135.065 95.045 134.363 95.7486 133.636 96.4268C133.394 96.6544 133.146 96.8763 132.9 97.0997C134.874 95.9171 137.646 95.1972 140.416 95.1972C142.879 95.1972 145.34 95.766 147.237 97.085C144.099 98.6168 141.408 99.5192 137.911 99.7895C137.803 99.7948 137.688 99.7975 137.569 99.7975C135.678 99.7975 132.572 99.1564 131.467 98.3407L131.398 98.3994C131.017 98.7224 130.623 99.0227 130.224 99.3147C129.831 99.615 129.418 99.9028 129.009 100.18C128.187 100.734 127.347 101.265 126.481 101.749C125.613 102.216 124.72 102.699 123.737 102.861Z" fill="#EBF3E3"/>
<path fill-rule="evenodd" clip-rule="evenodd" d="M141.958 89.3776C141.327 89.3776 140.685 89.3245 140.026 89.2109C143.971 86.8676 149.565 83.9313 154.408 83.9302C150.172 86.7688 146.37 89.3776 141.958 89.3776Z" fill="#EBF3E3"/>
<path fill-rule="evenodd" clip-rule="evenodd" d="M142.022 133.469C142.06 132.456 141.202 130.43 140.941 129.267C140.768 128.61 140.518 128.034 140.26 127.481C148.859 118.666 154.878 106.416 157.341 93.6773C157.703 93.4641 158.063 93.2493 158.422 93.0335L160.327 91.646C159.596 95.2337 159.655 94.872 159.542 96.0342C159.27 98.8531 158.656 101.686 157.547 104.312C156.625 106.491 155.017 108.664 155.036 111.121C155.044 112.273 155.449 113.519 155.015 114.624C154.631 115.603 154.011 116.752 153.395 117.609C152.407 118.982 151.936 120.331 151.247 121.879C150.389 123.792 149.343 125.518 147.886 126.943C145.832 129.006 143.255 130.806 142.022 133.469Z" fill="#EBF4E6"/>
<path fill-rule="evenodd" clip-rule="evenodd" d="M140.26 127.481C139.796 126.485 139.306 125.558 139.187 124.353C138.962 122.928 138.776 120.676 139.038 119.213C139.211 118.431 139.488 117.181 139.656 116.3C139.414 116.555 139.174 116.807 138.939 117.046C138.188 117.815 137.487 118.54 136.854 119.219C136.545 119.562 136.248 119.891 135.966 120.204C135.695 120.524 135.449 120.835 135.211 121.123C135.095 121.269 134.974 121.405 134.874 121.545C134.774 121.687 134.677 121.823 134.585 121.954C134.4 122.215 134.23 122.455 134.076 122.672C133.795 123.12 133.598 123.485 133.452 123.727C133.31 123.972 133.234 124.102 133.234 124.102L132.219 123.552C132.219 123.552 132.304 123.414 132.464 123.157C132.627 122.903 132.85 122.517 133.164 122.05C133.333 121.825 133.519 121.577 133.722 121.307C133.823 121.171 133.929 121.031 134.039 120.885C134.149 120.741 134.278 120.604 134.402 120.456C134.658 120.164 134.924 119.848 135.213 119.526C135.511 119.213 135.825 118.885 136.151 118.543C136.816 117.871 137.544 117.16 138.314 116.417C138.523 116.215 138.73 116.011 138.939 115.804C137.778 116.036 136.396 116.32 135.971 116.388C132.985 116.868 129.96 116.951 126.992 117.445C126.45 117.536 123.882 117.625 123.617 118.122C124.963 115.592 125.861 112.824 127.385 110.389C128.87 108.012 131.202 106.311 133.445 104.709C135.738 103.071 137.92 101.227 140.438 99.9384C143.189 98.5297 146.35 98.4581 149.255 97.5277C152.108 96.6139 154.763 95.195 157.341 93.6772C154.877 106.416 148.859 118.666 140.26 127.481Z" fill="#EBF3E3"/>
<path fill-rule="evenodd" clip-rule="evenodd" d="M42.5174 29.0474C39.3862 29.0474 36.3548 28.4268 33.3461 27.8057C33.0943 27.7538 32.8421 27.7016 32.5907 27.6501C32.4591 27.1695 32.3615 26.6954 32.3562 26.2304C32.1346 24.4203 32.8304 23.4107 33.383 21.7377C33.5195 21.3048 33.6446 20.8769 33.7652 20.4517C34.9315 22.7253 36.3397 24.8762 38.1208 26.5954C38.8483 27.4104 40.3764 28.7445 41.5325 28.8566C43.5363 28.8111 43.8258 27.4456 42.3987 26.2001C41.2799 25.2208 39.6402 25.0478 38.5196 24.0688C37.4001 23.0907 36.953 22.1607 36.2888 20.8625C35.7148 19.8851 35.204 18.6552 34.5685 17.5676C34.9631 16.1911 35.4151 14.8301 36.0845 13.4611C36.1927 13.8197 36.3058 14.175 36.4215 14.5093C37.3816 17.3249 38.9135 20.101 41.2437 21.9562C42.3802 22.8775 43.6211 23.3134 44.4413 23.3134C45.6697 23.3134 45.9555 22.336 43.537 20.5463C40.1939 18.1083 38.5942 15.3121 36.9281 11.8771C38.6786 8.63972 40.2233 5.36523 42.5815 2.64059C42.609 2.6387 42.6365 2.63794 42.664 2.63794C42.8272 2.63794 42.9927 2.6671 43.1582 2.69664C43.3237 2.72579 43.4891 2.75533 43.652 2.75533C43.6806 2.75533 43.7089 2.75457 43.7372 2.7523C43.9912 2.71633 44.2581 2.69967 44.5352 2.69967C45.1409 2.69967 45.796 2.77919 46.4738 2.9087C46.4707 6.05368 46.2276 13.7296 47.5865 13.7289C47.6087 13.7289 47.6321 13.7266 47.6555 13.7224C48.8281 13.4914 49.1689 7.13255 49.1248 3.58465C50.5492 4.0137 51.9349 4.49804 53.0627 4.79001C53.5591 4.92823 54.0288 5.08689 54.486 5.25427C54.8724 7.95922 54.2003 11.3583 53.1916 13.5266C52.4592 15.4042 48.611 19.2293 49.3434 21.4843C49.6325 22.2546 49.9706 22.5662 50.3272 22.5662C51.7057 22.5662 53.3623 17.9099 53.5327 17.059C54.3989 14.4037 55.5735 12.0138 56.4412 9.35846C56.6726 8.59995 56.8004 7.37074 56.7499 6.24491C58.145 6.95646 59.4597 7.80093 60.8947 8.759C61.5932 9.2085 62.2921 9.69208 62.9864 10.1991C62.1891 12.391 61.8314 14.8278 61.283 17.1787C60.1326 19.1641 58.9784 21.1571 57.5287 22.9744C54.4871 26.7867 51.2281 28.187 46.9973 28.7403C46.6634 28.5828 46.28 28.5029 45.9215 28.5029C45.5944 28.5029 45.2879 28.5695 45.0602 28.7051L44.8695 28.718C44.8043 28.7998 44.7478 28.8804 44.6991 28.9599C44.3339 28.9842 43.9615 29.005 43.5819 29.0228C43.2257 29.0395 42.871 29.0474 42.5174 29.0474ZM51.1761 6.55581C50.0724 7.20904 49.5503 10.7066 50.9492 11.5688C52.3054 10.4176 51.4859 8.26368 51.5704 6.72016L51.1761 6.55581Z" fill="#EBF4E6"/>
<path fill-rule="evenodd" clip-rule="evenodd" d="M53.9456 57.6501C53.1838 57.6501 52.4925 57.2938 51.4295 57.0912C48.1543 56.5697 46.2417 56.9639 43.8998 55.0705C45.1859 54.2916 46.4449 52.9567 47.5557 52.2682C48.4679 51.6275 50.1555 51.1246 50.7612 50.2188C51.5901 48.9301 51.2836 48.0292 50.2184 48.0292C49.9519 48.0292 49.6379 48.086 49.2821 48.2068C47.2157 48.7351 45.5591 51.0633 43.2262 51.8983C42.467 52.0815 41.663 52.2236 40.8744 52.3792C40.649 52.0005 40.3991 51.6093 40.1228 51.2038C40.0516 51.4688 39.9758 51.7438 39.8963 52.0285C38.6071 51.3102 37.367 50.5653 36.615 48.9983C36.1137 47.8956 35.9723 46.7152 35.6225 45.6136C37.9452 46.3483 40.5574 46.9053 42.7923 47.0272C43.0437 47.0515 43.3849 47.0697 43.7712 47.0697C45.1614 47.0697 47.1332 46.836 47.5859 45.8268C48.3179 43.9489 45.8301 43.9326 44.6744 43.8202C41.1221 43.5089 37.7971 43.8978 34.3164 43.1828C33.8012 42.4895 33.2636 41.8529 32.9082 41.0879C32.2184 39.407 31.7035 37.52 31.8773 35.8757C32.0077 34.6325 32.6372 33.5188 33.0179 32.4225C34.7281 34.3807 36.8962 35.8553 39.2189 36.8986C40.7218 37.6378 44.2695 39.705 46.6047 39.7046C47.1935 39.7046 47.7057 39.5732 48.0879 39.2559C51.7861 36.0177 42.8579 35.5872 41.6136 35.5773C37.655 35.266 35.7793 32.226 33.2041 29.8221C33.0529 29.0886 32.7849 28.3619 32.5904 27.6499C32.8418 27.7014 33.094 27.7537 33.3458 27.8056C36.3546 28.4266 39.3859 29.0473 42.5171 29.0473C42.8707 29.0473 43.2254 29.0393 43.5816 29.0227C43.9612 29.0049 44.3336 28.984 44.6989 28.9598C43.8278 30.3882 45.599 31.4072 46.9081 31.4072C47.8799 31.4072 48.5968 30.846 47.7905 29.4741C47.6341 29.1484 47.342 28.9026 46.9971 28.7402C51.2279 28.1869 54.4869 26.7865 57.5284 22.9743C58.9781 21.157 60.1323 19.164 61.2827 17.1785C60.6612 19.8422 59.7953 22.3953 57.7693 24.355C56.9641 25.0976 53.3674 28.5736 55.1631 28.5732C55.3757 28.5732 55.6644 28.5243 56.0421 28.4164C58.3 27.8722 61.4267 24.6757 62.7268 22.7581C64.6978 19.7862 64.993 16.1148 66.1995 12.8218C68.8992 15.2889 71.2411 18.2082 72.5875 21.4914C72.6339 21.5955 72.6776 21.7012 72.7232 21.8068C70.2826 24.1861 68.2331 27.1902 65.3624 29.0117C63.9929 29.9735 57.4975 31.4853 58.1402 33.8433C58.34 34.4772 58.7761 34.7257 59.3426 34.7257C61.2126 34.7253 64.4973 32.015 65.3428 31.5129C68.1212 30.1663 69.9101 29.7513 71.5532 27.2338C71.992 26.5139 72.9905 25.5819 73.8921 24.6966C75.1078 27.9309 75.9529 31.174 75.9242 34.489C74.4526 35.2713 72.2468 35.9113 70.9584 36.5971C69.4748 37.278 68.2086 38.3288 66.5972 38.5371C66.3236 38.6057 66.0442 38.6322 65.7623 38.6322C65.2689 38.6322 64.7672 38.5508 64.273 38.4693C63.7788 38.3879 63.2926 38.3065 62.8293 38.3065C62.4739 38.3065 62.132 38.3546 61.8108 38.4879C57.5812 39.8004 63.8738 42.5054 66.1392 42.5054C66.2308 42.5054 66.3164 42.5008 66.394 42.4917C70.0413 42.0687 72.0154 38.5337 75.389 38.5337C75.401 38.5337 75.4135 38.5337 75.4259 38.5341C75.3094 39.0101 75.179 39.4861 75.0181 39.9659C74.2257 42.3278 73.2834 45.2766 71.0911 46.7766C69.9882 47.4294 67.5897 47.309 66.7928 48.2307C65.7159 49.266 66.6097 51.1254 65.2542 52.2777C62.7215 50.2453 61.4105 45.1471 58.6528 43.9947L58.4892 44.3905C58.2906 45.6545 58.9536 46.9534 59.1357 48.1906C59.254 49.9109 58.9186 51.9532 58.3516 53.4346C57.8737 54.813 56.9999 56.0274 55.9117 56.873C55.1017 57.4585 54.5046 57.6501 53.9456 57.6501ZM72.7263 31.3311C71.8039 31.3311 70.4186 32.3017 71.8631 33.075C72.0791 33.1984 72.3082 33.2522 72.5318 33.2522C73.5442 33.2522 74.4259 32.1445 73.2796 31.4379L72.9867 31.3614C72.9068 31.3406 72.819 31.3311 72.7263 31.3311Z" fill="#EBF3E3"/>
<path fill-rule="evenodd" clip-rule="evenodd" d="M40.6164 52.4308C40.3767 52.2945 40.1358 52.1619 39.8965 52.0286C39.976 51.7439 40.0518 51.4689 40.123 51.2039C40.3993 51.6094 40.6492 52.0006 40.8746 52.3793C40.7883 52.3963 40.702 52.4134 40.6164 52.4308Z" fill="#D6E8CF"/>
<path fill-rule="evenodd" clip-rule="evenodd" d="M148.208 51.8245C146.451 50.5313 144.488 49.6187 142.349 49.0904C144.237 48.0997 145.981 46.8028 147.407 45.1699C147.789 46.2662 148.418 47.3799 148.548 48.6231C148.655 49.6334 148.502 50.735 148.208 51.8245ZM126.525 50.0197C121.106 50.0201 116.719 47.4893 113.464 43.5108C113.966 43.7384 114.503 43.9789 115.083 44.2599C115.928 44.7624 119.213 47.473 121.083 47.4726C121.649 47.4726 122.086 47.2242 122.286 46.5907C122.928 44.2326 116.432 42.7209 115.063 41.759C112.836 40.3462 111.104 38.2221 109.3 36.2295C109.077 35.6622 108.868 35.0843 108.674 34.4974C108.537 34.0835 108.405 33.6669 108.279 33.2481C109.49 30.7291 111.275 28.4403 113.325 26.4238C113.874 27.8734 114.643 29.1685 115.586 30.3277C116.075 32.1435 116.65 33.9233 117.699 35.5054C118.999 37.4231 122.126 40.6196 124.384 41.1634C124.762 41.2717 125.05 41.3202 125.263 41.3202C127.058 41.3202 123.461 37.845 122.656 37.1024C121.898 36.3692 121.303 35.5532 120.821 34.6792C123.628 36.3196 126.867 37.486 130.105 38.3346C131.505 38.6402 133.14 38.7977 134.896 38.7977C136.06 38.7977 137.276 38.7288 138.512 38.5872C138.342 38.6951 138.18 38.8136 138.027 38.9473C136.601 40.1928 136.889 41.5583 138.894 41.6038C140.05 41.4917 141.578 40.1572 142.305 39.3427C142.898 38.7697 143.451 38.1483 143.967 37.4909C145.24 37.1156 146.481 36.6574 147.65 36.1129C147.979 36.9952 148.211 37.8238 148.07 38.9776C148.057 40.1307 147.475 41.3406 147.222 42.5691C144.646 44.9733 142.771 48.013 138.812 48.3247C138.27 48.3289 136.272 48.4129 134.493 48.7738C133.474 48.9135 132.432 49.118 131.368 49.3877C129.673 49.8171 128.057 50.0197 126.525 50.0197ZM134.504 41.2501C133.776 41.2501 132.943 41.5803 132.635 42.221C131.829 43.5934 132.545 44.1546 133.517 44.1546C134.899 44.1546 136.796 43.0189 135.556 41.4648L135.365 41.4519C135.138 41.3167 134.832 41.2501 134.504 41.2501Z" fill="#EBF4E6"/>
<path fill-rule="evenodd" clip-rule="evenodd" d="M126.48 70.3974C125.921 70.3974 125.323 70.2058 124.513 69.6203C123.425 68.7751 122.552 67.5607 122.074 66.1819C121.507 64.7005 121.171 62.6578 121.29 60.9375C121.472 59.7007 122.135 58.4014 121.936 57.1378L121.773 56.742C119.015 57.894 117.704 62.9926 115.171 65.025C113.815 63.8727 114.709 62.0133 113.633 60.978C112.836 60.0563 110.437 60.1767 109.334 59.5235C107.142 58.0235 106.199 55.0751 105.407 52.7128C105.246 52.2334 105.116 51.7574 105 51.281C105.012 51.281 105.024 51.281 105.036 51.281C108.41 51.281 110.384 54.8157 114.032 55.2387C114.109 55.2481 114.195 55.2527 114.287 55.2523C116.553 55.2523 122.843 52.5477 118.614 51.2348C118.293 51.1015 117.952 51.0534 117.596 51.0534C117.133 51.0534 116.646 51.1352 116.152 51.2166C115.658 51.2981 115.157 51.3795 114.663 51.3795C114.381 51.3795 114.102 51.353 113.828 51.2844C112.217 51.0758 110.951 50.0253 109.467 49.3444C108.178 48.6582 105.973 48.0186 104.501 47.2363C104.473 43.9213 105.317 40.6778 106.533 37.4435C107.435 38.3289 108.433 39.2612 108.872 39.9807C110.172 41.9729 111.564 42.6485 113.464 43.5108C116.719 47.4892 121.106 50.02 126.525 50.0196C128.057 50.0196 129.673 49.817 131.368 49.3876C132.432 49.118 133.474 48.9135 134.493 48.7737C132.186 49.2414 130.25 50.1749 132.337 52.0032C132.72 52.3205 133.232 52.4519 133.82 52.4519C136.155 52.4519 139.703 50.385 141.206 49.6459C141.592 49.4728 141.973 49.2876 142.349 49.0903C144.487 49.6186 146.451 50.5312 148.207 51.8244C148.023 52.5083 147.783 53.1869 147.517 53.8352C147.162 54.6002 146.624 55.2371 146.109 55.9298C142.628 56.6447 139.303 56.2558 135.751 56.5671C134.595 56.6795 132.108 56.6962 132.839 58.5737C133.292 59.5833 135.265 59.817 136.655 59.817C137.041 59.817 137.382 59.7988 137.633 59.7745C139.868 59.6522 142.48 59.0956 144.803 58.3609C144.453 59.4625 144.312 60.6429 143.81 61.7456C142.919 63.603 141.341 64.3051 139.809 65.178C138.939 65.0011 138.041 64.8485 137.199 64.6456C134.866 63.8102 133.21 61.482 131.143 60.9541C130.787 60.833 130.473 60.7765 130.206 60.7765C129.142 60.7765 128.835 61.6774 129.664 62.9657C130.27 63.8719 131.957 64.3748 132.87 65.0155C133.98 65.7036 135.239 67.0392 136.525 67.8178C134.184 69.7112 132.271 69.317 128.996 69.8385C127.933 70.0411 127.242 70.3974 126.48 70.3974ZM107.699 44.0781C107.607 44.0781 107.519 44.0879 107.439 44.1087L107.145 44.1852C105.999 44.8918 106.881 45.9995 107.893 45.9995C108.116 45.9995 108.346 45.9457 108.562 45.8219C110.006 45.049 108.622 44.0781 107.699 44.0781ZM109.3 36.2294C108.778 35.6531 108.249 35.0877 107.702 34.5538C107.748 34.4485 107.791 34.3428 107.837 34.2383C107.974 33.9043 108.122 33.5745 108.279 33.248C108.405 33.6669 108.537 34.0834 108.674 34.4973C108.868 35.0843 109.077 35.6622 109.3 36.2294Z" fill="#EBF3E3"/>
<path fill-rule="evenodd" clip-rule="evenodd" d="M134.896 38.7977C133.14 38.7977 131.505 38.6402 130.105 38.3346C126.867 37.4859 123.628 36.3196 120.821 34.6791C118.881 31.1551 118.801 26.6923 117.439 22.9463C118.133 22.4393 118.832 21.9557 119.531 21.5058C120.966 20.5481 122.281 19.7033 123.676 18.9921C123.625 20.1176 123.753 21.3468 123.984 22.1053C124.852 24.761 126.026 27.1509 126.893 29.8058C127.063 30.6571 128.72 35.3138 130.098 35.3134C130.455 35.3131 130.793 35.0014 131.082 34.2315C131.814 31.9765 127.966 28.151 127.234 26.2735C126.225 24.1055 125.553 20.7064 125.939 18.0011C126.397 17.8341 126.866 17.6754 127.363 17.5372C128.49 17.2449 129.876 16.7609 131.301 16.3315C131.256 19.8794 131.598 26.2383 132.77 26.4696C132.794 26.4738 132.817 26.4761 132.839 26.4761C134.198 26.4757 133.955 18.8005 133.952 15.6559C134.63 15.5264 135.285 15.4469 135.89 15.4469C136.167 15.4469 136.434 15.4635 136.688 15.4995C136.716 15.5014 136.745 15.5022 136.773 15.5022C136.937 15.5022 137.102 15.473 137.267 15.4435C137.433 15.4143 137.598 15.3848 137.762 15.3848C137.789 15.3848 137.817 15.3855 137.844 15.3874C140.202 18.1121 141.747 21.3869 143.497 24.6243C141.831 28.0593 140.231 30.8556 136.888 33.2931C134.47 35.0832 134.756 36.0606 135.984 36.0606C136.805 36.0602 138.045 35.6243 139.182 34.7034C141.512 32.8478 143.044 30.0717 144.004 27.2565C144.12 26.9222 144.233 26.5669 144.341 26.208C145.01 27.5773 145.462 28.9379 145.857 30.3144C145.222 31.402 144.711 32.632 144.136 33.6094C143.473 34.9079 143.026 35.8379 141.906 36.8161C140.938 37.6613 139.584 37.9059 138.512 38.5872C137.276 38.7288 136.06 38.7977 134.896 38.7977ZM129.25 19.303L128.855 19.4674C128.94 21.0109 128.12 23.1648 129.476 24.3157C130.875 23.4538 130.353 19.9559 129.25 19.303ZM143.966 37.4909C144.998 36.1757 145.882 34.7144 146.66 33.1985C146.781 33.6237 146.906 34.0517 147.043 34.4849C147.243 35.0915 147.462 35.6107 147.65 36.1128C146.481 36.6574 145.24 37.1156 143.966 37.4909ZM115.585 30.3277C114.643 29.1685 113.873 27.8734 113.324 26.4238C113.619 26.1334 113.921 25.8482 114.226 25.5691C114.79 27.1092 115.155 28.7323 115.585 30.3277Z" fill="#EBF3E3"/>
<path fill-rule="evenodd" clip-rule="evenodd" d="M90.1758 56.2465H90.1132C89.9508 56.2465 89.7774 56.4052 90.0337 56.4052H90.0966C90.2591 56.4052 90.4325 56.2465 90.1758 56.2465Z" fill="#FFFFFE"/>
<path fill-rule="evenodd" clip-rule="evenodd" d="M22.4319 166.929C10.2364 166.929 0.349609 165.638 0.349609 164.046C0.349609 162.454 10.2364 161.163 22.4319 161.163C34.6278 161.163 44.5142 162.454 44.5142 164.046C44.5142 165.638 34.6278 166.929 22.4319 166.929Z" fill="#D0E4EA"/>
<path fill-rule="evenodd" clip-rule="evenodd" d="M147.667 154.811C135.471 154.811 125.584 153.52 125.584 151.928C125.584 150.336 135.471 149.045 147.667 149.045C159.862 149.045 169.749 150.336 169.749 151.928C169.749 153.52 159.862 154.811 147.667 154.811Z" fill="#D0E4EA"/>
<path fill-rule="evenodd" clip-rule="evenodd" d="M92.9568 162.764C72.4554 162.764 55.835 161.473 55.835 159.88C55.835 158.288 72.4554 156.997 92.9568 156.997C113.46 156.997 130.08 158.288 130.08 159.88C130.08 161.473 113.46 162.764 92.9568 162.764Z" fill="#D0E4EA"/>
<path fill-rule="evenodd" clip-rule="evenodd" d="M89.9412 154.811C74.5058 154.811 61.9922 153.52 61.9922 151.928C61.9922 150.336 74.5058 149.045 89.9412 149.045C105.378 149.045 117.892 150.336 117.892 151.928C117.892 153.52 105.378 154.811 89.9412 154.811Z" fill="#D0E4EA"/>
<path fill-rule="evenodd" clip-rule="evenodd" d="M72.1227 151.8H69.4731L82.3419 88.1594H84.9914L72.1227 151.8Z" fill="#4E4E87"/>
<path fill-rule="evenodd" clip-rule="evenodd" d="M90.9439 99.3986H81.1084L81.3376 98.2656H91.1723L90.9439 99.3986Z" fill="#6A659E"/>
<path fill-rule="evenodd" clip-rule="evenodd" d="M92.6042 91.1851H82.769L82.9982 90.0525H92.8333L92.6042 91.1851Z" fill="#6A659E"/>
<path fill-rule="evenodd" clip-rule="evenodd" d="M89.2825 107.612H79.4478L79.6766 106.479H89.5121L89.2825 107.612Z" fill="#6A659E"/>
<path fill-rule="evenodd" clip-rule="evenodd" d="M87.6219 115.826H77.7871L78.0163 114.693H87.851L87.6219 115.826Z" fill="#6A659E"/>
<path fill-rule="evenodd" clip-rule="evenodd" d="M85.9611 124.04H76.126L76.3548 122.907H86.1899L85.9611 124.04Z" fill="#6A659E"/>
<path fill-rule="evenodd" clip-rule="evenodd" d="M84.3 132.253H74.4648L74.694 131.12H84.5288L84.3 132.253Z" fill="#6A659E"/>
<path fill-rule="evenodd" clip-rule="evenodd" d="M82.6389 140.467H72.8042L73.0334 139.334H82.8685L82.6389 140.467Z" fill="#6A659E"/>
<path fill-rule="evenodd" clip-rule="evenodd" d="M80.9782 148.681H71.1431L71.3722 147.547H81.207L80.9782 148.681Z" fill="#6A659E"/>
<path fill-rule="evenodd" clip-rule="evenodd" d="M81.0905 151.8H78.4414L91.3098 88.1594H93.9593L81.0905 151.8Z" fill="#4E4E87"/>
<path fill-rule="evenodd" clip-rule="evenodd" d="M104.369 151.8H107.018L94.149 88.1594H91.4995L104.369 151.8Z" fill="#6E6BA2"/>
<path fill-rule="evenodd" clip-rule="evenodd" d="M85.5473 99.3986H95.3824L95.1536 98.2656H85.3188L85.5473 99.3986Z" fill="#8080B0"/>
<path fill-rule="evenodd" clip-rule="evenodd" d="M83.8869 91.1851H93.722L93.4928 90.0525H83.6577L83.8869 91.1851Z" fill="#8080B0"/>
<path fill-rule="evenodd" clip-rule="evenodd" d="M87.2087 107.612H97.0438L96.8146 106.479H86.9795L87.2087 107.612Z" fill="#8080B0"/>
<path fill-rule="evenodd" clip-rule="evenodd" d="M88.8698 115.826H98.7045L98.4754 114.693H88.6406L88.8698 115.826Z" fill="#8080B0"/>
<path fill-rule="evenodd" clip-rule="evenodd" d="M90.5303 124.04H100.365L100.136 122.907H90.3008L90.5303 124.04Z" fill="#8080B0"/>
<path fill-rule="evenodd" clip-rule="evenodd" d="M92.1911 132.253H102.026L101.797 131.12H91.9619L92.1911 132.253Z" fill="#8080B0"/>
<path fill-rule="evenodd" clip-rule="evenodd" d="M93.8517 140.467H103.687L103.458 139.334H93.6226L93.8517 140.467Z" fill="#8080B0"/>
<path fill-rule="evenodd" clip-rule="evenodd" d="M95.5129 148.681H105.348L105.119 147.547H95.2837L95.5129 148.681Z" fill="#8080B0"/>
<mask id="mask0" mask-type="alpha" maskUnits="userSpaceOnUse" x="64" y="0" width="35" height="152">
<path fill-rule="evenodd" clip-rule="evenodd" d="M64.9199 0.0366211H98.05V151.8H64.9199V0.0366211Z" fill="white"/>
</mask>
<g mask="url(#mask0)">
<path fill-rule="evenodd" clip-rule="evenodd" d="M95.4001 151.8H98.05L85.1809 88.1594H82.5317L95.4001 151.8Z" fill="#6E6BA2"/>
<path fill-rule="evenodd" clip-rule="evenodd" d="M72.0822 20.3528C72.0822 17.5384 69.9035 14.6199 68.4511 12.4311C67.1021 10.4506 64.8193 7.94899 64.9234 5.34289C65.027 2.73716 67.6211 0.548357 70.1108 0.131047C78.8268 -1.32803 82.6656 14.5158 83.7029 20.4573L72.0822 20.3528Z" fill="#C8A34F"/>
</g>
<path fill-rule="evenodd" clip-rule="evenodd" d="M83.2135 90.3757C82.8698 90.6753 79.2515 92.2514 80.3247 92.6316C80.976 92.8902 85.8717 92.1366 87.018 91.6943C87.1514 91.4561 87.1511 90.7665 87.1691 90.4394C86.05 90.9142 85.4333 91.0203 84.4454 91.3762C84.1076 91.1104 83.6365 90.4409 83.2135 90.3757Z" fill="#2F3837"/>
<path fill-rule="evenodd" clip-rule="evenodd" d="M87.1876 70.7182C87.3142 68.8172 88.2588 54.9793 87.2905 48.3076L80.6616 48.6446C80.8795 51.1799 82.5331 63.09 82.8121 64.8262C83.0156 66.0907 82.9704 68.6335 82.7702 69.8839C82.1445 73.7829 85.1721 88.6978 84.8551 89.1847C84.4487 89.8096 83.3846 90.2095 83.2135 90.3757C83.6364 90.448 84.1076 91.0797 84.4453 91.3762C85.4586 91.0611 86.0696 90.9714 87.1691 90.4393C87.2098 89.6528 87.0677 87.7249 87.1111 87.0759C87.2106 85.7164 87.1246 71.1249 87.1876 70.7182Z" fill="#DE9C7E"/>
<path fill-rule="evenodd" clip-rule="evenodd" d="M94.061 90.3757C94.4044 90.6753 98.0219 92.2514 96.9495 92.6316C96.2981 92.8902 91.4028 92.1366 90.2558 91.6943C90.1231 91.4561 90.1231 90.7665 90.105 90.4394C91.2237 90.9142 91.8408 91.0203 92.8291 91.3762C93.1672 91.1104 93.6373 90.4409 94.061 90.3757Z" fill="#2F3837"/>
<path fill-rule="evenodd" clip-rule="evenodd" d="M90.0859 70.7182C89.9604 68.8172 89.015 54.9793 89.9837 48.3076L96.6126 48.6446C96.3936 51.1799 94.7415 63.09 94.461 64.8262C94.2586 66.0907 94.3031 68.6335 94.504 69.8839C95.1293 73.7829 92.1018 88.6978 92.4188 89.1847C92.8255 89.8096 93.8888 90.2095 94.0607 90.3757C93.637 90.448 93.167 91.0797 92.8289 91.3762C91.8153 91.0611 91.2054 90.9714 90.1047 90.4393C90.0644 89.6528 90.2061 87.7249 90.1632 87.0759C90.0636 85.7164 90.1488 71.1249 90.0859 70.7182Z" fill="#DE9C7E"/>
<path fill-rule="evenodd" clip-rule="evenodd" d="M94.2076 37.1758L81.9073 37.6552C81.9073 37.6552 79.0569 40.5472 80.1116 52.1418L80.792 58.075C80.792 58.075 85.8931 59.1952 93.1254 58.6548L93.6019 48.9839L94.355 58.5488C95.0946 58.4757 95.8518 58.3863 96.6268 58.2753C96.6268 58.2753 98.9013 44.9596 94.2076 37.1758Z" fill="#0D1F28"/>
<path fill-rule="evenodd" clip-rule="evenodd" d="M92.4191 25.0435C93.3871 25.8773 94.9091 27.684 95.8771 28.101C97.5376 28.7959 97.3992 27.5454 98.9213 26.4332C98.9213 26.4332 91.174 19.9013 88.6836 16.8438C87.3006 15.0367 85.7785 12.6741 83.1505 13.369C80.9367 13.7859 79.83 16.5659 77.6166 17.2604L76.6483 17.5383C72.9132 17.9552 69.4544 17.6773 69.0394 22.2639C68.6244 26.0163 68.2093 29.4911 67.241 33.1045C66.8264 34.7723 65.5809 36.7179 67.9327 37.1349C69.7314 37.4128 70.2844 36.162 70.6998 34.6333C71.6678 31.4368 72.2215 26.7112 72.0828 23.3757C73.4665 26.1557 76.5099 28.2399 78.17 31.0199C79.6917 33.7994 79.6917 36.579 79.415 39.6365C79.1368 42.9912 78.7546 46.521 79.5157 49.3615C82.0555 49.4633 85.0375 49.046 86.7951 48.6257C87.0315 48.5795 87.2674 48.5253 87.5034 48.4757C87.6617 46.7838 87.8747 44.4204 88.0515 43.8289C88.4718 44.6131 89.7319 46.3187 90.5193 47.7237C92.9935 47.0095 95.4112 46.0631 97.6555 44.8173C97.6224 44.1716 97.5387 43.5089 97.3992 42.8333C96.7075 39.6365 94.4941 36.301 92.0041 34.2164C89.0986 31.7144 88.1306 30.325 87.5769 26.5722C87.1619 23.6537 86.7469 19.9013 85.3635 17.2604C86.6089 20.0403 90.2057 23.0978 92.4191 25.0435Z" fill="#15394F"/>
<path fill-rule="evenodd" clip-rule="evenodd" d="M75.7145 16.9654C74.6252 17.4342 73.3798 18.2162 72.7054 19.2583C72.4461 19.6234 72.0311 20.2486 71.9794 20.7178C71.8234 21.4475 72.0311 21.2911 72.7574 21.2389C73.6391 21.1347 74.8325 20.9264 75.5589 20.5091C75.0402 20.9264 74.6252 21.5517 74.3655 22.125C73.9505 22.8543 73.9505 23.0111 74.5212 23.4799C75.5589 24.366 76.8559 24.7307 78.0489 25.0958C79.2419 25.4604 80.591 25.6687 81.784 25.5127C82.5624 25.4082 82.6141 25.304 82.7697 24.5743C82.977 23.845 83.0811 23.1152 83.2364 22.4378C83.4961 21.187 83.9627 19.467 83.7034 18.1639C83.3921 16.5481 81.6284 17.5384 80.7467 18.1117C81.4207 16.9654 82.5624 16.1315 83.0811 14.8285C81.2654 13.6818 78.3083 15.5582 76.9076 16.5481C76.8559 16.6003 76.9076 16.4962 76.9076 16.444L75.7145 16.9654Z" fill="#4C619B"/>
<path fill-rule="evenodd" clip-rule="evenodd" d="M82.147 24.8005C82.078 24.5574 82.0437 24.2791 81.974 24.0011C81.9378 23.7285 81.5586 21.7809 81.101 19.9314C80.8153 19.8167 80.5314 19.6906 80.2585 19.5599C79.6219 19.2403 78.8846 18.9544 78.2148 18.7859C78.064 19.4425 78.047 20.1999 78.0301 20.8895C78.0184 21.2909 78.0923 21.8396 78.0783 22.2918C79.4361 23.3949 80.8941 24.5252 81.2476 24.7309C81.5247 24.9047 81.8703 25.1826 82.2167 25.2175L82.2853 25.0437C82.2167 25.2175 82.2167 24.9395 82.147 24.8005Z" fill="#9FC8E0"/>
<path fill-rule="evenodd" clip-rule="evenodd" d="M78.0299 20.8895C78.0469 20.1999 78.0638 19.4426 78.2146 18.7859C78.8844 18.9544 79.6217 19.2403 80.2584 19.5599C80.5313 19.6906 80.8151 19.8167 81.1008 19.9314C80.6836 18.2478 80.2022 16.6452 79.8562 16.4634C79.2339 16.1855 78.0657 16.3226 77.4434 16.5312C76.06 17.0523 74.1493 18.4826 75.5677 20.1155C75.8229 20.4203 76.9138 21.3458 78.0782 22.2918C78.0921 21.8396 78.0182 21.2909 78.0299 20.8895Z" fill="#D2EBF3"/>
<path fill-rule="evenodd" clip-rule="evenodd" d="M76.8903 18.3378C77.8632 18.2318 78.6792 17.5377 79.0449 16.5394C78.8545 16.3596 76.683 13.647 76.683 13.647C77.098 11.0413 77.6513 8.05312 75.7836 5.86432C74.1239 3.8838 71.9448 2.52886 69.6621 4.19621C65.6156 7.11511 71.4062 14.6199 74.2272 14.4116H74.7462C75.1793 15.7166 75.6799 18.025 75.6799 18.025C76.1907 18.2424 76.3154 18.4166 76.8903 18.3378Z" fill="#F6CBB5"/>
<path fill-rule="evenodd" clip-rule="evenodd" d="M68.071 9.68604C68.5554 9.06084 69.4544 8.57423 70.0771 7.94902C71.3222 6.69822 72.2215 5.37775 72.5672 3.64034C74.3656 4.33561 74.5039 7.46241 74.5039 9.13051C74.9883 8.29665 75.265 7.32343 75.1956 6.42027C75.6106 7.60139 75.68 8.78288 75.68 10.0337C76.856 7.67106 76.4406 2.94546 73.3282 2.11159C70.6305 1.41708 65.3043 5.51673 67.5177 7.87934L68.071 9.68604Z" fill="#C8A34F"/>
<path fill-rule="evenodd" clip-rule="evenodd" d="M127.757 90.8584C130.279 90.6709 132.521 90.7644 135.137 90.2017C138.688 89.5447 142.331 88.5124 145.32 86.3535C145.134 87.574 144.853 90.9526 144.106 91.891C142.985 93.299 131.976 95.5828 128.504 95.27L127.757 90.8584Z" fill="#648AAD"/>
<path fill-rule="evenodd" clip-rule="evenodd" d="M136.259 80.9143C135.963 80.7148 135.593 80.5557 135.114 80.4315C132.005 79.6238 128.546 79.9896 125.359 79.9896C123.908 79.9896 123.236 81.0643 123.866 82.3776C123.866 82.3776 124.438 83.5701 124.438 85.6736C124.438 91.3206 119.881 95.8981 114.26 95.8981C108.64 95.8981 104.083 91.3206 104.083 85.6736C104.083 83.5701 104.655 82.3776 104.655 82.3776C105.285 81.0643 104.613 79.9896 103.162 79.9896C99.9277 79.9896 92.716 78.6668 91.1774 82.4158C89.7646 85.8577 90.3247 90.169 90.3247 93.7673C90.3247 95.2252 89.3869 96.184 88.2406 95.8981C88.2406 95.8981 88.2406 95.8981 87.1207 95.8981C81.4998 95.8981 76.9434 100.476 76.9434 106.123C76.9434 111.77 81.4998 116.347 87.1207 116.347C88.2406 116.347 88.2406 116.347 88.2406 116.347C89.3869 116.061 90.3247 117.02 90.3247 118.478C90.3247 120.834 89.8754 123.937 91.131 126.051C91.8087 127.193 93.0142 127.363 94.2253 127.659C97.4169 128.44 101.334 128.2 104.615 128.13C107.318 128.073 132.992 128.972 136.011 127.401C139.575 125.545 138.181 117.178 138.176 114.102C138.167 107.766 138.125 101.43 138.275 95.0953C138.316 93.3875 138.298 91.6819 138.209 89.9755C138.105 87.976 138.289 85.3484 137.686 83.4436C137.308 82.2522 137.044 81.4422 136.259 80.9143Z" fill="#E46C6D"/>
<path fill-rule="evenodd" clip-rule="evenodd" d="M135.506 80.9143C135.209 80.7148 134.839 80.5557 134.36 80.4315C131.251 79.6238 127.793 79.9896 124.605 79.9896C123.154 79.9896 122.482 81.0643 123.112 82.3776C123.112 82.3776 123.684 83.5701 123.684 85.6736C123.684 91.3206 119.127 95.8981 113.507 95.8981C107.886 95.8981 103.329 91.3206 103.329 85.6736C103.329 83.5701 103.901 82.3776 103.901 82.3776C104.531 81.0643 103.859 79.9896 102.408 79.9896C99.1738 79.9896 91.9621 78.6668 90.4235 82.4158C89.0107 85.8577 89.5708 90.169 89.5708 93.7673C89.5708 95.2252 88.633 96.184 87.4867 95.8981C87.4867 95.8981 87.4867 95.8981 86.3668 95.8981C80.7459 95.8981 76.1895 100.476 76.1895 106.123C76.1895 111.77 80.7459 116.347 86.3668 116.347C87.4867 116.347 87.4867 116.347 87.4867 116.347C88.633 116.061 89.5708 117.02 89.5708 118.478C89.5708 120.834 89.1215 123.937 90.3771 126.051C91.0548 127.193 92.2603 127.363 93.4714 127.659C96.663 128.44 100.58 128.2 103.861 128.13C106.564 128.073 132.239 128.972 135.257 127.401C138.821 125.545 137.427 117.178 137.422 114.102C137.414 107.766 137.371 101.43 137.521 95.0953C137.562 93.3875 137.544 91.6819 137.455 89.9755C137.351 87.976 137.535 85.3484 136.932 83.4436C136.555 82.2522 136.29 81.4422 135.506 80.9143Z" fill="#D43F41"/>
<path fill-rule="evenodd" clip-rule="evenodd" d="M141.023 68.002C140.018 68.5701 137.002 67.3708 138.196 65.9821C139.201 64.9093 140.52 66.7395 141.337 67.1814C141.903 67.4969 143.41 67.6234 143.473 68.3175L141.023 68.002Z" fill="#524A45"/>
<path fill-rule="evenodd" clip-rule="evenodd" d="M147.305 80.3091C146.489 79.2359 146.237 79.1098 146.677 77.9737C146.928 77.2796 147.179 76.6483 147.305 75.9542C147.556 74.5656 147.619 73.1769 147.493 71.8515C147.242 68.8221 143.787 66.8658 140.96 67.8754C138.188 68.8827 137.285 72.1295 137.744 75.0954C137.384 75.6997 136.946 76.3007 136.814 76.9638C136.455 78.6323 137.571 78.1097 138.443 77.4682C139.449 79.6846 141.332 81.1899 143.787 80.4352C144.164 81.4451 144.604 82.7073 145.169 83.5279L149.064 82.1393C148.499 81.508 147.87 81.0032 147.305 80.3091Z" fill="#F6CBB5"/>
<path fill-rule="evenodd" clip-rule="evenodd" d="M144.478 71.9149C143.662 71.7888 143.724 73.1771 143.976 73.6822C143.473 73.8716 142.971 74.0609 142.405 74.187C141.966 72.8616 141.777 71.0943 143.536 70.6528C144.101 70.5263 144.73 70.7789 145.358 70.6528C145.924 70.5263 146.614 70.0215 147.117 69.7061C148.688 71.5362 150.042 76.4769 146.901 77.3608C146.398 77.4869 145.321 76.5371 144.981 75.197C144.981 75.197 145.735 75.2598 145.986 74.5657C146.363 73.6822 145.798 71.9782 144.73 71.9149H144.478Z" fill="#524A45"/>
<path fill-rule="evenodd" clip-rule="evenodd" d="M145.252 148.802C145.538 149.164 145.823 149.285 146.214 149.204C146.318 149.186 146.488 149.141 146.645 149.075C146.462 147.661 146.277 146.019 146.229 144.943L144.757 145.365C144.701 146.11 144.557 147.289 144.434 148.232C144.821 148.118 145.001 148.486 145.252 148.802Z" fill="#F6CBB5"/>
<path fill-rule="evenodd" clip-rule="evenodd" d="M146.346 148.763C145.879 148.835 145.537 148.727 145.195 148.402C144.896 148.119 144.681 147.788 144.218 147.891C144.087 148.643 143.976 149.23 143.976 149.23C142.782 149.419 138.699 149.419 138.51 149.545C138.07 149.861 138.447 150.871 138.762 151.123C139.516 151.628 143.976 151.439 144.541 151.186C145.295 150.871 145.107 150.555 145.547 149.861C145.609 150.24 145.735 150.681 145.861 151.06C146.358 151.06 146.857 151.061 147.354 151.121C147.298 150.972 147.08 149.913 146.861 148.648C146.672 148.706 146.47 148.747 146.346 148.763Z" fill="#1C2428"/>
<path fill-rule="evenodd" clip-rule="evenodd" d="M154.874 148.008C155.49 149.03 155.767 150.082 156.229 151.166C156.722 150.98 157.893 150.986 158.355 151.141C157.709 149.903 157.061 148.751 156.353 147.575L154.874 148.008Z" fill="#F6CBB5"/>
<path fill-rule="evenodd" clip-rule="evenodd" d="M158.008 150.867C157.54 150.94 157.198 150.831 156.856 150.506C156.558 150.223 156.343 149.892 155.879 149.996C155.748 150.747 155.637 151.334 155.637 151.334C154.443 151.523 150.36 151.523 150.171 151.65C149.732 151.965 150.108 152.975 150.423 153.227C151.177 153.732 155.637 153.543 156.202 153.29C156.956 152.975 156.768 152.659 157.208 151.965C157.27 152.344 157.396 152.786 157.522 153.164C158.02 153.164 158.518 153.165 159.015 153.226C158.959 153.076 158.742 152.017 158.523 150.752C158.334 150.81 158.131 150.851 158.008 150.867Z" fill="#1C2428"/>
<path fill-rule="evenodd" clip-rule="evenodd" d="M143.379 146.358C141.4 139.258 137.619 121.472 139.704 108.111C139.939 106.6 140.458 106.975 141.965 107.259C143.19 107.448 144.416 107.448 145.641 107.637C144.887 112.939 145.546 118.714 146.018 124.015C146.394 128.844 146.677 133.577 147.243 138.311C147.525 140.962 147.902 143.612 147.996 146.169L143.379 146.358Z" fill="#A69B89"/>
<path fill-rule="evenodd" clip-rule="evenodd" d="M151.741 107.997C152.024 111.405 151.389 114.264 150.541 117.483C149.881 119.945 149.316 129.506 149.787 131.021C150.07 131.779 151.201 131.589 150.353 132.82C151.295 133.009 151.86 135.281 152.331 136.039C153.274 137.459 156.478 145.506 157.609 147.778C156.666 147.967 153.933 148.535 152.991 148.63C152.991 148.63 146.677 137.459 145.358 135.565C143.85 133.577 141.306 120.607 140.552 116.442C140.175 114.643 138.742 108.887 140.081 107.164L151.741 107.997Z" fill="#D2C7B3"/>
<path fill-rule="evenodd" clip-rule="evenodd" d="M139.955 106.92C139.955 106.793 139.955 105.973 140.018 105.657C140.018 105.657 143.913 106.036 145.735 106.162C147.871 106.288 149.818 106.604 151.955 106.541C151.829 107.109 151.829 107.74 151.766 108.308C149.63 108.308 147.557 108.245 145.421 108.182C143.724 108.119 139.955 107.529 139.955 107.361V106.92Z" fill="#0A0B09"/>
<path fill-rule="evenodd" clip-rule="evenodd" d="M140.424 107.793L139.588 107.704L139.807 105.619L140.643 105.707L140.424 107.793Z" fill="#8A8C87"/>
<path fill-rule="evenodd" clip-rule="evenodd" d="M140.264 107.793L139.428 107.704L139.647 105.619L140.483 105.707L140.264 107.793Z" fill="#DBDBD6"/>
<path fill-rule="evenodd" clip-rule="evenodd" d="M144.074 108.341L143.238 108.253L143.457 106.167L144.293 106.256L144.074 108.341Z" fill="#D2C7B3"/>
<path fill-rule="evenodd" clip-rule="evenodd" d="M134.285 100.584C132.919 100.774 131.788 101.2 130.751 100.064C129.997 99.2116 128.819 99.0222 128.301 98.0282C128.113 97.6022 127.924 96.7501 127.5 97.5548C127.265 98.0282 127.642 98.6435 127.924 98.9749C128.113 99.2589 128.914 99.8743 128.678 100.253C128.49 100.537 123.872 99.8743 123.919 100.632C123.966 101.436 127.971 100.868 127.971 101.247C127.971 101.578 125.333 101.484 124.72 101.578C124.108 101.673 123.165 102.052 124.249 102.383C124.814 102.572 127.474 102.177 128.086 102.177C128.17 102.751 124.544 102.633 124.767 103.282C125.036 104.064 128.219 102.856 128.223 103.07C128.487 103.577 125.777 103.924 126.199 104.513C126.345 105.116 127.924 104.04 128.584 103.803C129.291 103.519 130.139 103.566 130.845 103.188C131.646 102.856 134.426 102.052 135.086 102.856L134.285 100.584Z" fill="#F6CBB5"/>
<path fill-rule="evenodd" clip-rule="evenodd" d="M140.395 105.87C138.008 105.05 140.332 101.831 140.647 100.316C141.086 98.4858 141.212 96.5923 141.652 94.7622C142.029 93.0581 142.594 91.4801 143.034 89.8393C143.411 88.451 143.599 86.3046 144.353 85.1057C145.17 83.7803 147.62 83.0229 149.002 82.392C152.206 81.0034 152.834 88.2617 152.96 90.2808C153.148 94.0048 153.588 97.6023 153.148 101.389C152.96 102.841 152.897 104.419 152.583 105.87C152.195 107.662 149.705 107.283 148.415 107.061C146.393 106.712 144.363 106.427 142.331 106.144C141.724 106.059 140.978 106.07 140.395 105.87Z" fill="#8AB8D8"/>
<path fill-rule="evenodd" clip-rule="evenodd" d="M143.426 84.1115C143.473 84.3008 143.709 84.9162 143.85 85.2002C143.992 85.5316 144.133 86.1943 144.463 86.2889C144.746 86.3363 145.499 85.8629 145.735 85.7683C147.62 84.8215 149.552 83.8275 151.154 82.4548C150.447 81.8867 149.74 81.3187 149.175 80.656L143.426 84.1115Z" fill="#AAD6E9"/>
<path fill-rule="evenodd" clip-rule="evenodd" d="M133.767 100.253C134.097 101.72 134.427 103.235 134.898 104.655C136.924 104.276 139.091 103.377 141.07 102.714C142.06 102.43 143.096 102.336 143.992 102.004C145.264 101.578 145.923 99.6375 146.489 98.5015C147.714 95.898 149.08 93.3419 150.305 90.7385C150.824 89.5077 151.342 87.9457 150.07 86.9989C149.033 86.2416 148.044 86.6676 147.29 87.6143C146.112 89.129 144.745 95.188 144.274 95.5667C143.615 95.9927 142.578 95.5194 143.049 96.8921C142.578 96.8921 142.484 97.0341 142.201 97.3654C142.107 97.4601 142.248 97.6968 142.154 97.8388C142.013 97.9808 141.824 97.9335 141.636 98.0281C141.117 98.3122 140.505 98.7382 139.892 98.7855L133.767 100.253Z" fill="#AAD6E9"/>
<path fill-rule="evenodd" clip-rule="evenodd" d="M80.9315 79.7306C78.5353 77.4835 73.2423 78.2855 70.2253 78.2855C68.7741 78.2855 67.9406 77.1468 68.3734 75.7555C68.3734 75.7555 68.3835 75.7222 68.3835 74.3131C68.3835 68.6662 63.8275 64.0886 58.2062 64.0886C52.5852 64.0886 48.0288 68.6662 48.0288 74.3131C48.0288 75.7222 48.0393 75.7555 48.0393 75.7555C48.4721 77.1468 47.6386 78.2855 46.1874 78.2855C42.6208 78.2855 36.1929 77.0215 34.537 81.3832C33.1366 85.0734 34.1638 89.3935 34.1966 93.2326C34.22 95.9288 34.3236 98.6209 34.3055 101.319C34.2708 106.482 34.3308 111.648 34.2821 116.811C34.2723 117.855 34.2705 118.898 34.2705 119.941C34.2705 122.913 34.9844 125.147 37.9958 125.949C40.8081 126.697 44.0683 126.413 46.9579 126.356C49.811 126.299 52.6689 126.4 55.5231 126.375C61.0509 126.327 66.5803 126.399 72.1081 126.382C74.5714 126.375 77.942 126.968 80.1388 125.592C81.7408 124.588 82.1419 121.681 82.1419 119.941V116.132C82.1419 114.674 81.0337 113.909 79.6789 114.431C79.6789 114.431 79.1309 114.643 77.4301 114.643C75.4146 114.643 73.5371 114.052 71.9566 113.036C64.6469 116.261 54.8201 120.528 54.453 120.323C54.1386 120.134 53.9501 119.629 53.7617 119.313C53.3847 118.619 52.8186 116.726 52.7556 115.968C52.7556 115.968 62.2398 113.425 68.7978 109.833C67.82 108.262 67.2527 106.407 67.2527 104.419C67.2527 98.7716 71.8092 94.1941 77.4301 94.1941C79.1309 94.1941 79.6789 94.4058 79.6789 94.4058C81.0337 94.9287 82.1419 94.1634 82.1419 92.7055C82.1419 91.7644 82.1426 90.823 82.1437 89.8816C82.1449 88.9557 82.1464 88.0298 82.1456 87.1036C82.1453 86.6526 82.1679 86.1413 82.189 85.6025C82.2689 83.5356 82.3224 81.0359 80.9315 79.7306Z" fill="#D4E39D"/>
<path fill-rule="evenodd" clip-rule="evenodd" d="M80.1775 79.7306C77.7813 77.4835 72.4883 78.2855 69.4713 78.2855C68.0201 78.2855 67.1867 77.1468 67.6194 75.7555C67.6194 75.7555 67.6296 75.7222 67.6296 74.3131C67.6296 68.6662 63.0735 64.0886 57.4522 64.0886C51.8312 64.0886 47.2748 68.6662 47.2748 74.3131C47.2748 75.7222 47.2853 75.7555 47.2853 75.7555C47.7181 77.1468 46.8847 78.2855 45.4334 78.2855C41.8668 78.2855 35.4389 77.0215 33.7833 81.3832C32.3826 85.0734 33.4098 89.3935 33.4426 93.2326C33.466 95.9288 33.5696 98.6209 33.5515 101.319C33.5169 106.482 33.5768 111.648 33.5282 116.811C33.5184 117.855 33.5169 118.898 33.5169 119.941C33.5169 122.913 34.2304 125.147 37.2418 125.949C40.0541 126.697 43.3143 126.413 46.2039 126.356C49.057 126.299 51.9149 126.4 54.7691 126.375C60.2969 126.327 65.8263 126.399 71.3541 126.382C73.8174 126.375 77.188 126.968 79.3848 125.592C80.9868 124.588 81.3879 121.681 81.3879 119.941V116.132C81.3879 114.674 80.2797 113.909 78.9249 114.431C78.9249 114.431 78.3769 114.643 76.6761 114.643C74.6606 114.643 72.7831 114.052 71.2026 113.036C63.893 116.261 54.0661 120.528 53.699 120.323C53.3846 120.134 53.1961 119.629 53.0077 119.313C52.6307 118.619 52.0646 116.726 52.0016 115.968C52.0016 115.968 61.4858 113.425 68.0438 109.833C67.066 108.262 66.4987 106.407 66.4987 104.419C66.4987 98.7716 71.0552 94.1941 76.6761 94.1941C78.3769 94.1941 78.9249 94.4058 78.9249 94.4058C80.2797 94.9287 81.3879 94.1634 81.3879 92.7055C81.3879 91.7644 81.3886 90.823 81.3898 89.8816C81.3909 88.9557 81.3924 88.0298 81.3916 87.1036C81.3913 86.6526 81.4139 86.1413 81.435 85.6025C81.5149 83.5356 81.5684 81.0359 80.1775 79.7306Z" fill="#91C45C"/>
<path fill-rule="evenodd" clip-rule="evenodd" d="M96.2345 158.487C96.5519 158.822 96.8474 158.916 97.2296 158.801C97.331 158.773 97.4957 158.712 97.6476 158.633C97.337 157.241 97.0065 155.623 96.8613 154.556L95.4331 155.109C95.4444 155.856 95.4063 157.043 95.3687 157.995C95.7441 157.845 95.9567 158.196 96.2345 158.487Z" fill="#F6CBB5"/>
<path fill-rule="evenodd" clip-rule="evenodd" d="M97.3212 158.35C96.8621 158.464 96.5119 158.387 96.1425 158.094C95.8191 157.839 95.5756 157.529 95.1233 157.674C95.0603 158.434 95.0023 159.029 95.0023 159.029C93.8308 159.326 89.764 159.696 89.5875 159.839C89.1778 160.193 89.6437 161.165 89.9799 161.387C90.7757 161.822 95.2013 161.229 95.7411 160.926C96.4637 160.544 96.2477 160.247 96.6235 159.515C96.72 159.887 96.8847 160.315 97.0438 160.681C97.5399 160.636 98.0355 160.591 98.5369 160.607C98.4671 160.463 98.155 159.429 97.8241 158.187C97.6409 158.264 97.443 158.322 97.3212 158.35Z" fill="#1C2428"/>
<path fill-rule="evenodd" clip-rule="evenodd" d="M118.574 156.829C118.86 157.191 119.147 157.312 119.537 157.232C119.641 157.213 119.811 157.168 119.969 157.102C119.785 155.688 118.847 154.046 118.798 152.97L117.326 153.392C117.27 154.137 117.88 155.316 117.756 156.26C118.144 156.145 118.324 156.514 118.574 156.829Z" fill="#F6CBB5"/>
<path fill-rule="evenodd" clip-rule="evenodd" d="M119.669 156.79C119.202 156.862 118.86 156.754 118.518 156.429C118.219 156.146 118.004 155.815 117.541 155.918C117.41 156.67 117.299 157.257 117.299 157.257C116.105 157.446 112.022 157.446 111.834 157.572C111.394 157.888 111.771 158.898 112.085 159.15C112.838 159.655 117.299 159.466 117.865 159.213C118.618 158.898 118.43 158.582 118.87 157.888C118.932 158.266 119.058 158.708 119.184 159.087C119.681 159.087 120.179 159.087 120.677 159.148C120.621 158.999 120.403 157.94 120.184 156.675C119.995 156.734 119.793 156.774 119.669 156.79Z" fill="#1C2428"/>
<path fill-rule="evenodd" clip-rule="evenodd" d="M90.1364 116.536C90.0421 118.24 91.0787 122.027 91.0787 122.027C91.2672 126.193 89.2883 131.021 88.5344 135.187C88.2517 136.796 87.4036 138.879 87.7805 140.583C88.2517 142.571 89.7594 144.559 90.5133 146.452C91.5499 149.103 92.5865 151.754 93.2461 154.5C93.6231 156.109 93.7173 156.686 93.7173 156.686C94.8481 156.686 97.0713 156.301 98.541 155.499C98.7091 153.695 96.6386 150.05 95.8847 147.778C94.9424 145.127 93.2774 141.214 93.2774 141.214C93.3404 140.804 93.686 139.51 92.9634 139.636C92.9634 136.701 96.1241 127.708 96.6895 126.193C97.1606 124.773 97.7694 124.394 99.3714 123.826C99.3714 123.826 100.973 132.252 101.633 136.417C102.104 138.973 103.989 140.394 105.874 142.192C107.947 144.086 114.213 151.993 115.25 154.076C118.646 153.6 119.969 152.275 119.969 152.275C119.969 152.038 116.522 147.494 115.674 146.358C114.355 144.559 107.57 136.228 107.287 136.323C107.664 135.66 107.476 135.281 106.816 135.281C106.156 133.483 105.591 125.151 105.497 123.069C105.402 118.714 103.66 115.069 101.587 111.282C101.398 110.903 101.304 110.619 101.116 110.241L90.1364 116.536Z" fill="#283B50"/>
<path fill-rule="evenodd" clip-rule="evenodd" d="M89.8853 116.221C89.8853 116.348 90.0737 116.979 90.0737 117.294L90.1363 117.357C92.7123 117.357 95.0995 116.852 97.4241 115.716C99.1829 114.77 103.267 112.435 101.193 110.289L89.8853 116.221Z" fill="#1C1B19"/>
<path fill-rule="evenodd" clip-rule="evenodd" d="M98.3771 116.301L97.7144 116.572L96.6948 114.059L97.3575 113.788L98.3771 116.301Z" fill="#283B50"/>
<path fill-rule="evenodd" clip-rule="evenodd" d="M74.9644 99.3064C75.1529 95.8036 73.8336 91.922 70.7238 90.1233C66.0121 87.3778 61.583 91.5434 63.2792 96.5609C63.7497 98.0139 64.9284 99.4378 66.3984 100.471C65.9819 101.11 65.5454 101.825 65.8707 102.241C66.452 102.948 67.2496 102.119 67.7777 101.282C69.8806 102.287 72.2719 102.437 74.022 100.916C74.4932 101.294 75.0586 101.673 75.4356 102.147L77.603 99.8744C76.7549 99.7798 75.8125 99.4957 74.9644 99.3064Z" fill="#F6CBB5"/>
<path fill-rule="evenodd" clip-rule="evenodd" d="M70.8255 98.3596C71.1912 98.3596 71.5575 98.3501 71.9232 98.3592C72.2628 98.3679 72.6152 98.4224 72.9451 98.3119C73.3503 98.1759 73.6002 97.7908 73.8878 97.4992C74.1916 97.1902 74.4931 96.8399 74.6805 96.4442C74.7514 96.2946 74.8053 96.1136 74.7759 95.9455C74.5874 94.8567 74.3518 93.8154 73.8806 92.8686C73.0325 91.3066 70.5824 87.4724 68.2736 88.5611C67.9909 88.7031 67.8025 88.8451 67.6611 89.1291C66.9072 86.9044 63.5148 90.6912 62.9022 91.2592C62.1012 92.0166 61.1589 92.7266 60.1223 93.1053C59.8396 93.2 58.8972 93.2473 58.803 93.626C58.7088 94.1467 59.5569 94.2887 59.8867 94.2414C59.3213 94.2887 57.1068 95.0934 57.9549 95.8508C58.6145 96.4662 60.3579 95.6614 60.9704 95.2828C60.0752 96.2768 59.7454 97.3182 61.3474 96.4188C62.5724 95.7561 63.0907 94.7147 64.0331 93.8154C63.9859 94.5254 64.0802 95.8035 64.6456 96.2768C64.9283 95.6614 65.3052 94.9988 65.7293 94.4307C65.7293 95.7561 67.6611 96.8448 68.6506 97.5075C67.0015 95.6614 70.3939 94.194 70.6295 96.7502L70.8255 98.3596Z" fill="#834830"/>
<path fill-rule="evenodd" clip-rule="evenodd" d="M75.53 104.513C75.0117 103.945 74.3992 103.282 73.9751 102.62C74.4934 101.247 75.5771 99.7795 76.4723 98.5962C76.8021 98.1228 76.6608 98.1228 77.1791 98.1228C77.5089 98.1701 78.0272 98.4542 78.357 98.5488C78.8282 98.7382 79.5821 98.9275 79.959 99.1642L75.53 104.513Z" fill="#F3C6D4"/>
<path fill-rule="evenodd" clip-rule="evenodd" d="M52.7719 116.163C51.4055 116.353 50.2747 116.779 49.2381 115.642C48.4842 114.79 47.3063 114.601 46.788 113.607C46.5995 113.181 46.411 112.329 45.987 113.134C45.7514 113.607 46.1283 114.222 46.411 114.554C46.5995 114.838 47.4005 115.453 47.1649 115.832C46.9764 116.116 42.3589 115.453 42.406 116.211C42.4532 117.015 46.4581 116.447 46.4581 116.826C46.4581 117.157 43.8196 117.063 43.207 117.157C42.5945 117.252 41.6522 117.631 42.7359 117.962C43.3013 118.151 45.9606 117.756 46.5731 117.756C46.6568 118.329 43.0314 118.212 43.2542 118.861C43.5229 119.643 46.7065 118.435 46.7099 118.648C46.9738 119.156 44.264 119.503 44.6854 120.092C44.832 120.695 46.411 119.619 47.0707 119.382C47.7774 119.098 48.6255 119.145 49.3323 118.767C50.1333 118.435 52.9132 117.631 53.5729 118.435L52.7719 116.163Z" fill="#F6CBB5"/>
<path fill-rule="evenodd" clip-rule="evenodd" d="M101.696 109.278C101.445 108.395 101.068 108.647 100.502 108.268C99.8113 107.827 99.4344 107.006 98.9945 106.375C97.9892 105.05 96.9843 103.661 95.602 102.588C93.4033 100.821 90.3249 99.3064 87.6233 98.2965C87.3131 98.1813 86.9893 98.0882 86.661 98.003L86.6814 97.981C87.9377 96.6556 93.7173 90.2812 93.4663 89.1452C93.314 88.4817 86.0704 86.4826 82.183 85.7502C82.1619 86.2895 82.1453 86.8662 82.1457 87.3172C82.1464 88.2431 82.1445 89.1728 82.1434 90.0991C83.552 90.5054 84.1977 90.7156 85.6761 90.786C84.4823 91.6698 85.739 91.922 86.5555 91.7327C85.1736 94.51 81.9696 95.0148 80.3989 97.413C79.3936 98.8016 74.1161 104.743 73.1473 105.97C72.0685 107.336 70.2166 108.642 68.0439 109.833C68.8468 111.122 69.9275 112.218 71.2027 113.036C74.9695 111.374 78.0687 109.989 78.858 109.637C80.1211 109.755 81.3993 110.213 82.4721 110.73C83.7284 111.298 84.8592 112.055 85.9901 112.813C86.681 113.191 87.3094 113.696 87.9377 114.201C88.6286 114.895 88.3772 115.337 88.7542 116.031C89.9479 118.304 95.0996 115.59 96.6699 114.959C98.4291 114.264 102.324 111.677 101.696 109.278Z" fill="#EA99B5"/>
<path fill-rule="evenodd" clip-rule="evenodd" d="M68.0437 109.833C61.4857 113.425 52.0015 115.968 52.0015 115.968C52.0644 116.726 52.6306 118.619 53.0075 119.313C53.196 119.629 53.3845 120.134 53.6988 120.323C54.066 120.528 63.8928 116.261 71.2024 113.036C69.9272 112.217 68.8465 111.122 68.0437 109.833Z" fill="#EA99B5"/>
<path fill-rule="evenodd" clip-rule="evenodd" d="M25.3022 69.1061C25.9623 69.0115 26.5277 67.118 26.3392 66.266C25.9623 64.1832 23.9833 62.3845 26.9046 60.7751C29.3547 59.5443 30.9563 62.0058 30.5798 64.2779C30.3909 65.414 29.7317 66.1713 28.8836 66.9287C28.1293 67.7807 27.8466 67.8754 27.47 69.2008C27.3758 69.5795 26.9985 70.7155 27.0931 70.5262L25.3022 69.1061Z" fill="#BA7F4D"/>
<path fill-rule="evenodd" clip-rule="evenodd" d="M8.05763 93.0581C6.07869 90.5967 10.9789 86.4311 12.4871 84.7271C15.8795 80.8455 19.1777 76.68 21.9102 72.3251C22.4756 71.3784 24.4545 67.9703 24.4545 67.9703C25.3973 67.4969 27.9687 69.201 28.3185 69.769C26.0569 73.8399 15.3141 92.3954 11.0735 93.9102C10.3193 94.1942 11.827 93.9102 11.0735 93.9102L8.05763 93.0581Z" fill="#F6BD57"/>
<path fill-rule="evenodd" clip-rule="evenodd" d="M63.3125 25.3367C63.8629 25.2863 64.5127 25.3867 64.8131 25.9395C65.4132 27.0449 63.3125 27.196 62.7622 26.6935L63.3125 25.3367Z" fill="#DE9C7E"/>
<path fill-rule="evenodd" clip-rule="evenodd" d="M79.5817 41.7462C77.9567 41.7462 77.5364 41.9007 77.5364 41.9007C76.1738 42.4017 75.0592 41.6193 75.0584 40.1618C75.0577 37.8537 75.1798 35.5327 75.04 33.2277C74.8036 29.3299 72.6468 27.3562 68.6505 27.3562C59.8632 27.3562 51.0658 27.488 42.2797 27.3641C38.7761 27.3145 35.0003 27.0176 31.5396 27.5694C28.3431 28.0791 27.1874 30.7325 27.1874 33.7938C27.1874 37.8033 27.1576 41.8174 27.201 45.828C27.2685 52.1241 27.0883 58.4227 27.2545 64.7134C27.3163 67.0529 26.6944 69.5106 27.2756 71.8206C27.9632 74.5543 31.0416 75.4491 33.5954 75.4491H40.7049C42.1561 75.4491 42.7547 74.4134 42.0351 73.1471C42.0351 73.1471 41.0712 71.4518 41.0712 69.0115C41.0712 63.3646 45.6277 58.787 51.2486 58.787C56.8696 58.787 61.426 63.3646 61.426 69.0115C61.426 71.4518 60.4622 73.1471 60.4622 73.1471C59.7426 74.4134 60.3412 75.4491 61.792 75.4491C67.3217 75.4495 75.0584 77.0052 75.0584 69.0115V63.7807C75.0584 62.3224 76.1734 61.5397 77.5364 62.0407C77.5364 62.0407 77.9567 62.1952 79.5817 62.1952C85.2026 62.1952 89.7591 57.6176 89.7591 51.9707C89.7591 46.3237 85.2026 41.7462 79.5817 41.7462Z" fill="#92C8E2"/>
<path fill-rule="evenodd" clip-rule="evenodd" d="M79.5817 40.9889C77.9567 40.9889 77.5364 41.1434 77.5364 41.1434C76.1738 41.6444 75.0592 40.862 75.0584 39.4045C75.0577 37.0964 75.1798 34.7754 75.04 32.4704C74.8036 28.5726 72.6468 26.5989 68.6505 26.5989C59.8632 26.5989 51.0658 26.7306 42.2797 26.6068C38.7761 26.5572 35.0003 26.2603 31.5396 26.8121C28.3431 27.3218 27.1874 29.9752 27.1874 33.0365C27.1874 37.046 27.1576 41.0601 27.201 45.0707C27.2685 51.3667 27.0883 57.6654 27.2545 63.9561C27.3163 66.2956 26.6944 68.7533 27.2756 71.0633C27.9632 73.797 31.0416 74.6918 33.5954 74.6918H40.7049C42.1561 74.6918 42.7547 73.6561 42.0351 72.3898C42.0351 72.3898 41.0712 70.6944 41.0712 68.2542C41.0712 62.6072 45.6277 58.0297 51.2486 58.0297C56.8696 58.0297 61.426 62.6072 61.426 68.2542C61.426 70.6944 60.4622 72.3898 60.4622 72.3898C59.7426 73.6561 60.3412 74.6918 61.792 74.6918C67.3217 74.6922 75.0584 76.2478 75.0584 68.2542V63.0234C75.0584 61.5651 76.1734 60.7823 77.5364 61.2833C77.5364 61.2833 77.9567 61.4379 79.5817 61.4379C85.2026 61.4379 89.7591 56.8603 89.7591 51.2134C89.7591 45.5664 85.2026 40.9889 79.5817 40.9889Z" fill="#498DBF"/>
<path fill-rule="evenodd" clip-rule="evenodd" d="M63.363 25.2862C63.0626 26.2409 62.9627 27.2962 62.6623 28.2509C62.4123 29.0049 62.0124 29.6077 61.9121 28.5024C61.862 27.8995 61.9623 27.0952 62.0622 26.4923C61.862 27.2962 61.9121 29.7588 61.2122 30.211C60.3614 30.8642 60.5616 27.8995 60.5616 27.4973C60.4613 28.0502 60.7116 29.1052 60.0112 29.2563C59.6611 28.6031 59.6113 27.5473 59.6611 26.7937C59.6611 27.2459 59.4609 28.2005 59.0108 28.452C58.6607 28.0502 58.7609 26.8941 58.8107 26.3416C58.9607 25.2862 59.211 25.1355 60.0614 25.1355C60.1613 25.1355 60.3614 25.2862 60.5114 25.2862C60.7116 25.2862 60.8115 24.9844 61.0116 24.9844C61.4119 24.9844 61.6121 25.3366 61.9623 25.3366C62.4625 25.3366 62.9125 24.5826 63.3128 25.2862H63.363Z" fill="#F6CBB5"/>
<path fill-rule="evenodd" clip-rule="evenodd" d="M16.3501 86.715L16.2856 86.7169C16.3241 86.9396 16.3501 87.0638 16.3501 86.715Z" fill="#BA7F4D"/>
<path fill-rule="evenodd" clip-rule="evenodd" d="M20.6853 76.7746C20.392 76.4803 19.5529 76.2592 18.8239 76.0888C18.5276 73.8898 17.9381 72.4451 15.6904 70.8103C13.8057 69.3902 11.6387 69.0115 9.84785 70.905C8.05738 72.7984 8.52893 75.2598 9.65975 77.5319C11.2614 80.7508 14.7484 82.6442 13.2403 86.8097L16.2856 86.7169C16.2509 86.517 16.2064 86.2368 16.162 86.147C15.9731 85.4843 15.7847 84.727 15.5966 84.0643C18.2065 82.7532 19.0501 81.3688 19.0467 78.8721C20.2567 78.4889 21.5993 77.7637 20.6853 76.7746Z" fill="#BA7F4D"/>
<path fill-rule="evenodd" clip-rule="evenodd" d="M16.3499 77.5319C16.3499 77.5319 16.3499 77.5319 17.01 77.3426C17.2927 75.8279 15.973 74.9758 14.8422 74.5025C16.9154 74.5971 15.4076 72.1357 14.7483 71.473C16.7273 71.189 17.9519 67.9702 16.5384 66.4554C14.6537 64.4673 12.5805 68.2542 11.0732 69.1062C8.99961 70.4316 7.11529 70.8103 7.02068 73.6504C6.92644 75.7332 7.86879 78.0053 8.90538 79.8041C9.65963 81.1295 10.6958 82.5495 12.3921 82.8335C13.6175 83.0229 15.7845 82.3602 15.7845 80.7508C15.6903 79.3307 12.7694 79.236 13.8056 77.3426C14.1829 76.5852 14.9364 76.3959 15.6903 76.6799C15.8788 76.6909 16.3499 77.5319 16.3499 77.5319Z" fill="#1C1B19"/>
<path fill-rule="evenodd" clip-rule="evenodd" d="M11.122 161.677C10.8362 162.039 10.5501 162.16 10.1592 162.08C10.0556 162.061 9.88597 162.016 9.72803 161.951C9.9116 160.536 10.0963 158.894 10.1449 157.818L11.6169 158.24C11.6727 158.985 11.8167 160.164 11.9399 161.108C11.5524 160.993 11.3722 161.362 11.122 161.677Z" fill="#BA7F4D"/>
<path fill-rule="evenodd" clip-rule="evenodd" d="M10.0275 161.639C10.4949 161.711 10.8368 161.602 11.1786 161.277C11.4776 160.994 11.6924 160.663 12.1561 160.767C12.2865 161.518 12.3977 162.105 12.3977 162.105C13.5914 162.294 17.6748 162.294 17.8633 162.421C18.3032 162.736 17.9262 163.746 17.6119 163.998C16.858 164.503 12.3977 164.314 11.8323 164.061C11.0784 163.746 11.2668 163.43 10.827 162.736C10.7644 163.115 10.6385 163.557 10.513 163.935C10.0154 163.935 9.51747 163.936 9.01953 163.997C9.07607 163.848 9.29357 162.789 9.51257 161.523C9.70142 161.581 9.90383 161.622 10.0275 161.639Z" fill="#1C2428"/>
<path fill-rule="evenodd" clip-rule="evenodd" d="M29.2152 161.677C28.9295 162.039 28.6434 162.16 28.2525 162.08C28.1489 162.061 27.9792 162.016 27.8213 161.951C28.0049 160.536 28.1896 158.894 28.2382 157.818L29.7101 158.24C29.7659 158.985 29.9099 160.164 30.0332 161.108C29.6457 160.993 29.4655 161.362 29.2152 161.677Z" fill="#BA7F4D"/>
<path fill-rule="evenodd" clip-rule="evenodd" d="M28.1207 161.639C28.5881 161.711 28.93 161.602 29.2719 161.277C29.5708 160.994 29.7857 160.663 30.2489 160.767C30.3797 161.518 30.4909 162.105 30.4909 162.105C31.6847 162.294 35.7681 162.294 35.9566 162.421C36.3965 162.736 36.0195 163.746 35.7051 163.998C34.9513 164.503 30.4909 164.314 29.9255 164.061C29.1716 163.746 29.3601 163.43 28.9202 162.736C28.8576 163.115 28.7318 163.557 28.6062 163.935C28.1087 163.935 27.6104 163.936 27.1128 163.997C27.1693 163.848 27.3868 162.789 27.6058 161.523C27.7947 161.581 27.9971 161.622 28.1207 161.639Z" fill="#1C2428"/>
<path fill-rule="evenodd" clip-rule="evenodd" d="M26.9989 133.672C25.4915 125.436 24.1718 117.105 22.7583 108.868C21.0964 109.338 19.4906 109.63 17.8645 109.802C16.48 109.743 15.0959 109.823 13.7117 109.91C12.1097 110.099 10.5081 109.626 8.90575 109.91C9.3773 113.034 8.99998 116.253 9.75386 119.377C10.5081 122.69 9.94271 126.856 9.94271 130.453C9.94271 136.323 8.99998 155.73 8.43457 159.328H8.52918C9.47116 160.18 12.2356 160.18 12.9895 159.139C12.9895 159.139 13.7023 155.435 13.7792 153.93C13.7879 153.76 13.7965 153.602 13.806 153.458C14.1833 149.293 14.8426 145.222 15.2195 141.151C15.8094 134.573 16.244 128.032 16.9074 121.504C17.0522 121.872 17.1826 122.263 17.293 122.69C17.7638 124.773 26.47 158.735 26.47 158.735C28.011 160.394 31.711 158.192 31.711 158.192C31.6168 157.908 28.507 141.624 26.9989 133.672Z" fill="#7F736F"/>
<path fill-rule="evenodd" clip-rule="evenodd" d="M8.78027 109.279C8.78027 109.783 8.96874 110.288 9.03132 110.73C13.3036 113.066 18.7017 110.95 22.974 110.13C22.974 109.666 22.9065 108.639 22.718 107.818L8.78027 109.279Z" fill="#1C1B19"/>
<path fill-rule="evenodd" clip-rule="evenodd" d="M14.042 113.081H14.843V109.105H14.042V113.081Z" fill="#7F736F"/>
<path fill-rule="evenodd" clip-rule="evenodd" d="M19.9629 88.009C15.8165 89.1451 7.20947 86.1788 7.20947 92.8058C7.20947 96.0875 7.96373 99.4957 8.59209 102.652C8.78056 103.851 9.0316 105.555 8.46619 106.691C8.08925 107.448 7.2728 107.827 7.64974 108.837C7.96373 109.531 8.78056 110.099 9.47111 110.351C10.7278 110.793 12.4241 110.604 13.6808 110.478C15.0626 110.288 16.4449 110.351 17.8271 110.225C19.0831 110.099 20.7167 109.973 21.9101 109.531C22.6014 109.279 23.2298 108.9 23.1669 108.079C23.1043 107.259 22.413 107.069 22.2245 106.312C21.9101 105.239 22.1619 103.661 22.099 102.462C22.036 101.137 21.9735 99.8115 21.785 98.549C21.4081 96.1508 21.0937 93.5632 21.2196 91.1646L19.9629 88.009Z" fill="#FFE34C"/>
<path fill-rule="evenodd" clip-rule="evenodd" d="M17.7635 88.5137C17.7635 88.0718 17.4496 86.7464 17.2611 86.0522C15.8163 86.0522 14.434 86.1155 12.9892 86.2416C12.3609 86.3677 11.1671 86.3677 10.9161 86.9357C10.7276 87.3144 11.1045 88.703 11.1671 88.9556L17.7635 88.5137Z" fill="#FFED94"/>
<path fill-rule="evenodd" clip-rule="evenodd" d="M33.8752 65.9831C34.369 64.6892 35.0388 63.6796 34.173 62.4076C33.5183 61.476 33.6023 60.2809 32.7565 59.5477C32.3863 59.2668 31.603 58.8888 32.4798 58.6567C32.9917 58.5336 33.5028 59.0422 33.7599 59.3944C33.9924 59.6428 34.4071 60.5664 34.8274 60.4218C35.1455 60.3021 35.5519 55.6337 36.2756 55.8522C37.0449 56.0813 35.5843 59.8704 35.9514 59.9563C36.2729 60.0317 36.7803 57.4286 37.0114 56.8508C37.2424 56.2729 37.8233 55.4371 37.8983 56.5724C37.9533 57.1688 36.9658 59.6807 36.8267 60.2797C37.3642 60.4922 38.074 56.9182 38.6522 57.284C39.3491 57.7244 37.4546 60.5645 37.6616 60.6168C38.0939 60.9898 39.045 58.4174 39.5207 58.9638C40.0717 59.244 38.6695 60.5444 38.2903 61.1363C37.8546 61.7631 37.7076 62.6037 37.1802 63.2093C36.677 63.9174 35.2658 66.4546 35.8956 67.2828L33.8752 65.9831Z" fill="#BA7F4D"/>
<path fill-rule="evenodd" clip-rule="evenodd" d="M32.9353 65.3193C32.8414 65.3193 37.3647 66.3607 36.7051 68.8222C35.5494 73.1343 33.5007 77.1752 31.1452 80.962C28.8835 84.6542 23.9362 92.0817 20.779 93.5965C19.0281 94.4368 16.3499 93.8154 16.9153 91.0699C17.3865 89.2711 28.3181 81.4608 32.5587 66.7394L32.9353 65.3193Z" fill="#FFED94"/>
<path fill-rule="evenodd" clip-rule="evenodd" d="M98.3144 24.5442C97.7641 24.4938 97.1142 24.5945 96.8138 25.147C96.2137 26.2528 98.3144 26.4035 98.8647 25.901L98.3144 24.5442Z" fill="#DE9C7E"/>
<path fill-rule="evenodd" clip-rule="evenodd" d="M131.215 27.5815C131.114 27.511 131.005 27.4467 130.887 27.3887C129.686 26.7987 128.061 26.6597 126.744 26.6597C123.724 26.6597 120.704 26.6613 117.684 26.6575C112.013 26.651 106.342 26.6749 100.671 26.6666C97.4362 26.6616 94.0645 26.3719 90.8503 26.7082C87.1914 27.0907 85.2803 29.3961 85.2803 33.0974V40.6071C85.2803 42.065 86.3383 42.7164 87.6312 42.0544C87.6312 42.0544 88.9777 41.3652 91.1756 41.3652C96.7962 41.3652 101.353 45.9431 101.353 51.5897C101.353 57.2367 96.7962 61.8142 91.1756 61.8142C88.9777 61.8142 87.6312 61.125 87.6312 61.125C86.3383 60.4634 85.2803 61.1148 85.2803 62.5727V68.3155C85.2803 69.561 85.4408 70.9689 85.8528 72.1489C86.5713 74.2051 89.813 74.7527 91.6883 74.7527H96.066C97.5173 74.7527 98.3507 75.8914 97.9179 77.2827C97.9179 77.2827 97.9078 77.316 97.9078 78.7251C97.9078 84.3721 102.464 88.9492 108.085 88.9492C113.706 88.9492 118.263 84.3721 118.263 78.7251C118.263 77.316 118.252 77.2827 118.252 77.2827C117.82 75.8914 118.653 74.7527 120.104 74.7527H126.744C130.68 74.7527 133.152 72.3503 133.152 68.3151C133.152 67.2222 133.141 66.1286 133.148 65.0357C133.164 62.4091 133.166 59.7818 133.16 57.1552C133.151 53.8758 133.144 50.5964 133.139 47.3166C133.135 44.4227 133.129 41.5273 133.174 38.6345C133.209 36.3942 133.266 34.1232 132.922 31.9117C132.82 31.2581 132.785 30.5257 132.594 29.8937C132.322 28.9936 131.984 28.1147 131.215 27.5815Z" fill="#FFED94"/>
<path fill-rule="evenodd" clip-rule="evenodd" d="M131.215 26.8241C131.114 26.7537 131.005 26.6893 130.887 26.6314C129.686 26.0414 128.061 25.9024 126.744 25.9024C123.724 25.9024 120.704 25.9039 117.684 25.9002C112.013 25.8937 106.342 25.9176 100.671 25.9092C97.4362 25.9043 94.0645 25.6146 90.8503 25.9509C87.1914 26.3334 85.2803 28.6388 85.2803 32.3401V39.8498C85.2803 41.3077 86.3383 41.959 87.6312 41.2971C87.6312 41.2971 88.9777 40.6079 91.1756 40.6079C96.7962 40.6079 101.353 45.1858 101.353 50.8324C101.353 56.4793 96.7962 61.0569 91.1756 61.0569C88.9777 61.0569 87.6312 60.3677 87.6312 60.3677C86.3383 59.7061 85.2803 60.3574 85.2803 61.8154V67.5581C85.2803 68.8036 85.4408 70.2116 85.8528 71.3916C86.5713 73.4478 89.813 73.9954 91.6883 73.9954H96.066C97.5173 73.9954 98.3507 75.1341 97.9179 76.5254C97.9179 76.5254 97.9078 76.5587 97.9078 77.9678C97.9078 83.6147 102.464 88.1919 108.085 88.1919C113.706 88.1919 118.263 83.6147 118.263 77.9678C118.263 76.5587 118.252 76.5254 118.252 76.5254C117.82 75.1341 118.653 73.9954 120.104 73.9954H126.744C130.68 73.9954 133.152 71.593 133.152 67.5578C133.152 66.4649 133.141 65.3712 133.148 64.2783C133.164 61.6518 133.166 59.0245 133.16 56.3979C133.151 53.1185 133.144 49.8391 133.139 46.5593C133.135 43.6654 133.129 40.77 133.174 37.8772C133.209 35.6369 133.266 33.3659 132.922 31.1544C132.82 30.5008 132.785 29.7684 132.594 29.1364C132.322 28.2363 131.984 27.3573 131.215 26.8241Z" fill="#FFE34C"/>
<path fill-rule="evenodd" clip-rule="evenodd" d="M98.2642 24.4938C98.5646 25.4485 98.6645 26.5039 98.9649 27.4589C99.2148 28.2125 99.6147 28.8157 99.715 27.71C99.7651 27.1071 99.6649 26.3028 99.565 25.6999C99.7651 26.5039 99.715 28.9665 100.415 29.4186C101.266 30.0718 101.066 27.1071 101.066 26.705C101.166 27.2578 100.916 28.3129 101.616 28.4639C101.966 27.8107 102.016 26.7553 101.966 26.0014C101.966 26.4539 102.166 27.4086 102.616 27.6596C102.966 27.2578 102.866 26.1021 102.816 25.5492C102.666 24.4938 102.416 24.3431 101.566 24.3431C101.466 24.3431 101.266 24.4938 101.116 24.4938C100.916 24.4938 100.816 24.1924 100.616 24.1924C100.215 24.1924 100.015 24.5442 99.6649 24.5442C99.1647 24.5442 98.7146 23.7902 98.3143 24.4938H98.2642Z" fill="#F6CBB5"/>
</svg>
