<svg width="184" height="127" viewBox="0 0 184 127" fill="none" xmlns="http://www.w3.org/2000/svg">
<path fill-rule="evenodd" clip-rule="evenodd" d="M181.101 90.8648C181.101 92.2628 177.248 93.3964 172.495 93.3964C167.742 93.3964 163.889 92.2628 163.889 90.8648C163.889 89.4664 167.742 88.3328 172.495 88.3328C177.248 88.3328 181.101 89.4664 181.101 90.8648Z" fill="#4B9289"/>
<path fill-rule="evenodd" clip-rule="evenodd" d="M175.327 76.0516C175.933 77.204 173.13 78.4105 170.42 78.4105C167.71 78.4105 165.876 77.3543 165.866 76.0516C165.853 74.4146 167.735 74.0215 170.445 74.0215C173.155 74.0215 174.424 74.3357 175.327 76.0516Z" fill="#2C3139"/>
<path fill-rule="evenodd" clip-rule="evenodd" d="M165.424 60.9025C166.356 60.719 167.262 60.451 168.148 60.063C168.463 59.9248 170.197 66.3896 170.305 66.9784C170.893 70.181 172.01 74.1614 171.261 77.4069C171.01 78.4948 170.361 79.5481 169.344 80.0034C169.633 76.4096 169.39 72.7742 168.636 69.249C168.468 68.4627 166.617 60.6681 165.424 60.9025Z" fill="#725739"/>
<path fill-rule="evenodd" clip-rule="evenodd" d="M177.065 64.7298C176.581 64.4081 176.134 64.008 175.73 63.4958C175.586 63.3132 172.904 69.2818 172.687 69.8332C171.513 72.8322 169.834 76.4993 169.412 79.7476C169.271 80.836 169.366 81.9547 169.828 82.5514C170.603 79.0388 171.693 75.5683 173.046 72.284C173.348 71.5514 176.446 64.3176 177.065 64.7298Z" fill="#634B33"/>
<path fill-rule="evenodd" clip-rule="evenodd" d="M168.501 56.4053C168.439 57.9653 168.507 59.0644 168.539 59.8353C168.579 60.6071 168.606 61.0511 168.59 61.3051C168.557 61.8136 168.382 61.5516 168.246 61.5717C168.108 61.5918 167.942 61.8084 167.694 61.3018C167.566 61.0488 167.423 60.6122 167.285 59.8698C167.159 59.1284 167.02 58.0787 167.03 56.6089C167.057 53.3036 167.916 50.5255 168.731 48.7018C169.145 47.7857 169.537 47.09 169.823 46.6249C170.116 46.1627 170.284 45.9194 170.284 45.9194C170.284 45.9194 170.208 46.1893 170.069 46.687C169.929 47.1834 169.738 47.9113 169.518 48.8283C169.101 50.6703 168.623 53.2854 168.501 56.4053Z" fill="#1D5046"/>
<path fill-rule="evenodd" clip-rule="evenodd" d="M167.34 57.0001C167.553 58.4839 167.562 59.5443 167.548 60.2825C167.526 61.022 167.46 61.4437 167.401 61.6771C167.28 62.1436 167.154 61.863 167.016 61.8564C166.877 61.8508 166.678 62.0026 166.519 61.5188C166.443 61.2779 166.372 60.8796 166.296 60.2288C166.208 59.5788 166.13 58.6744 165.929 57.4301C165.476 54.6454 164.833 52.2866 164.295 50.6006C164.022 49.7615 163.787 49.0882 163.619 48.6255C163.448 48.1656 163.362 47.9065 163.362 47.9065C163.362 47.9065 163.523 48.1054 163.819 48.471C164.109 48.845 164.51 49.4109 164.965 50.1673C165.85 51.6791 166.915 54.0221 167.34 57.0001Z" fill="#1D5046"/>
<path fill-rule="evenodd" clip-rule="evenodd" d="M165.909 57.8658C166.433 59.2208 166.693 60.2135 166.856 60.9106C167.013 61.6105 167.057 62.0218 167.058 62.2562C167.06 62.7245 166.868 62.4948 166.732 62.5247C166.597 62.555 166.442 62.7507 166.167 62.336C165.884 61.9256 165.537 60.891 164.628 58.5984C163.58 56.0439 162.535 53.8952 161.738 52.3595C160.924 50.8341 160.428 49.9041 160.428 49.9041C160.428 49.9041 160.613 50.0707 160.953 50.378C161.29 50.6927 161.764 51.1722 162.325 51.8203C163.429 53.1192 164.862 55.1484 165.909 57.8658Z" fill="#1D5046"/>
<path fill-rule="evenodd" clip-rule="evenodd" d="M164.638 58.9564C165.656 60.0555 166.28 60.9113 166.699 61.5197C167.114 62.1328 167.311 62.5114 167.401 62.7356C167.58 63.1838 167.313 63.032 167.197 63.1095C167.082 63.1866 167.012 63.4289 166.597 63.1306C166.392 62.9797 166.098 62.6977 165.652 62.2103C165.199 61.7294 164.604 61.0332 163.723 60.1171C161.748 58.0678 159.91 56.429 158.543 55.2855C157.859 54.7177 157.301 54.2676 156.914 53.9599C156.525 53.656 156.317 53.4795 156.317 53.4795C156.317 53.4795 156.559 53.5649 157.004 53.7237C157.448 53.8908 158.088 54.1612 158.877 54.5595C160.438 55.3672 162.598 56.7502 164.638 58.9564Z" fill="#1D5046"/>
<path fill-rule="evenodd" clip-rule="evenodd" d="M169.405 57.5131C169.006 58.8476 168.863 59.8211 168.748 60.4995C168.642 61.1807 168.593 61.5748 168.532 61.7957C168.41 62.2378 168.285 61.9801 168.146 61.9754C168.008 61.9708 167.806 62.1393 167.651 61.6449C167.612 61.5211 167.576 61.3549 167.546 61.1326C167.523 60.9113 167.513 60.6349 167.51 60.2885C167.531 59.6007 167.599 58.6295 167.935 57.3236C168.697 54.382 170.281 52.1932 171.565 50.9091C172.217 50.2625 172.788 49.8128 173.193 49.5266C173.604 49.2455 173.831 49.1055 173.831 49.1055C173.831 49.1055 173.678 49.3072 173.395 49.6798C173.112 50.0505 172.717 50.6038 172.251 51.3107C171.342 52.7422 170.2 54.8419 169.405 57.5131Z" fill="#1D5046"/>
<path fill-rule="evenodd" clip-rule="evenodd" d="M171.072 58.7958C170.127 59.8767 169.563 60.7194 169.157 61.3012C168.756 61.8886 168.533 62.2322 168.379 62.4097C168.069 62.7659 168.073 62.4718 167.95 62.4069C167.828 62.3415 167.572 62.4073 167.654 61.8839C167.692 61.6192 167.821 61.2088 168.132 60.5742C168.455 59.9486 168.943 59.0834 169.811 58.0146C171.767 55.61 174.119 54.1948 175.836 53.4776C176.703 53.1191 177.417 52.9089 177.911 52.7885C178.408 52.6755 178.677 52.6265 178.677 52.6265C178.677 52.6265 178.454 52.7595 178.043 53.0056C177.631 53.2498 177.041 53.6229 176.319 54.1103C174.889 55.1095 172.961 56.6312 171.072 58.7958Z" fill="#1D5046"/>
<path fill-rule="evenodd" clip-rule="evenodd" d="M171.491 60.9875C170.55 61.7341 169.955 62.3387 169.527 62.751C169.104 63.1689 168.861 63.4121 168.699 63.5289C168.377 63.7637 168.408 63.5083 168.3 63.4215C168.192 63.3346 167.945 63.3304 168.073 62.8925C168.136 62.6702 168.297 62.3415 168.647 61.8555C169.003 61.3783 169.538 60.7293 170.42 59.9682C172.409 58.257 174.593 57.4501 176.134 57.134C176.913 56.9767 177.54 56.9207 177.97 56.9034C178.402 56.8927 178.634 56.8992 178.634 56.8992C178.634 56.8992 178.431 56.9842 178.057 57.141C177.684 57.2951 177.146 57.5337 176.484 57.8466C175.166 58.4942 173.37 59.4929 171.491 60.9875Z" fill="#1D5046"/>
<path fill-rule="evenodd" clip-rule="evenodd" d="M164.194 61.0385C166.454 62.2735 167.278 62.9431 167.567 63.2419C167.853 63.5486 167.58 63.5356 167.505 63.6518C167.429 63.7686 167.443 64.0086 166.996 63.9301C166.548 63.8554 165.659 63.4371 163.679 62.4211C161.453 61.2986 159.55 60.2887 158.18 59.5477C156.811 58.8109 155.994 58.3276 155.994 58.3276C155.994 58.3276 156.881 58.4098 158.365 58.7735C159.843 59.1424 161.926 59.8157 164.194 61.0385Z" fill="#1D5046"/>
<path fill-rule="evenodd" clip-rule="evenodd" d="M173.598 57.4732C174.631 56.7312 175.795 56.2027 176.877 55.542C174.231 55.7442 171.684 57.038 169.958 59.0579C170.469 56.2919 171.922 53.7098 174.019 51.8403C171.329 52.8885 169.252 55.3856 168.707 58.2263C167.769 56.1957 166.831 54.1651 165.893 52.1345C165.944 54.5928 166.466 57.0399 167.423 59.3044C166.102 56.6598 164.112 54.3547 161.692 52.6649C163.526 55.6839 165.36 58.703 167.195 61.7221C164.926 60.0178 162.656 58.3131 160.387 56.6089C161.409 58.3976 162.73 60.0136 164.279 61.3681C161.749 61.0889 159.163 61.3383 156.733 62.0951C159.363 62.3613 161.994 62.6279 164.624 62.894C164.263 63.2848 163.901 63.6756 163.54 64.0664C164.958 63.6812 166.554 64.0211 167.694 64.9512C167.77 64.749 167.846 64.5469 167.922 64.3442C168.084 64.4955 168.246 64.6463 168.408 64.7971L168.756 64.3428L169.055 64.6557C169.138 64.488 169.452 64.6855 169.337 64.8331C169.513 64.6566 169.513 63.7947 169.557 63.536C169.603 63.2624 169.634 62.972 169.679 62.6881L169.66 62.71C169.662 62.7026 169.664 62.6951 169.667 62.6876C169.671 62.6862 169.675 62.6872 169.68 62.6853L169.679 62.6881L169.682 62.6848C169.71 62.6727 169.739 62.6531 169.765 62.6237C170.032 62.3272 170.284 62.0199 170.531 61.7085L173.558 58.2286C172.776 58.7684 172.01 59.3394 171.342 60.0141C171.316 60.0496 171.289 60.0841 171.263 60.1196C171.254 60.1187 171.243 60.1196 171.234 60.1196C171.269 60.0841 171.307 60.05 171.342 60.0141C172.019 59.0933 172.669 58.1408 173.598 57.4732Z" fill="#3B7355"/>
<path fill-rule="evenodd" clip-rule="evenodd" d="M176.539 62.166C176.297 64.3297 176.073 63.9039 175.797 63.8726C175.522 63.8418 174.999 64.0341 175.078 62.089C175.169 59.909 176.223 58.4321 176.223 58.4321C176.223 58.4321 176.782 60.0024 176.539 62.166Z" fill="#1D5046"/>
<path fill-rule="evenodd" clip-rule="evenodd" d="M177.789 61.7655C176.858 63.3367 176.56 64.0268 176.342 64.2518C176.134 64.483 176.072 64.277 175.944 64.2243C175.816 64.1711 175.593 64.2023 175.553 63.84C175.519 63.4814 175.634 62.6956 176.46 61.138C177.41 59.4002 178.687 58.2049 179.664 57.5092C180.157 57.1599 180.576 56.9227 180.871 56.7733C181.168 56.6262 181.333 56.5571 181.333 56.5571C181.333 56.5571 181.234 56.6953 181.053 56.947C180.87 57.1973 180.605 57.5601 180.274 58.013C179.622 58.9276 178.736 60.206 177.789 61.7655Z" fill="#1D5046"/>
<path fill-rule="evenodd" clip-rule="evenodd" d="M178.282 62.6769C177.589 63.1607 177.159 63.5743 176.848 63.8536C176.54 64.1374 176.361 64.3037 176.236 64.3774C175.985 64.5273 175.972 64.3233 175.864 64.2374C175.755 64.1515 175.53 64.1211 175.587 63.7686C175.613 63.5893 175.716 63.3306 175.968 62.958C176.227 62.5952 176.63 62.1036 177.318 61.5648C178.878 60.3489 180.626 59.9922 181.794 59.9969C182.388 60.0001 182.852 60.072 183.165 60.1416C183.477 60.2173 183.641 60.27 183.641 60.27C183.641 60.27 183.482 60.313 183.196 60.3914C182.91 60.4675 182.499 60.5922 182 60.7612C181.003 61.1203 179.666 61.7076 178.282 62.6769Z" fill="#1D5046"/>
<path fill-rule="evenodd" clip-rule="evenodd" d="M175.358 62.6876C176.017 63.8554 176.107 64.4166 176.093 64.6421C176.072 64.8728 175.9 64.806 175.77 64.8546C175.641 64.9031 175.482 65.0334 175.245 64.905C175.004 64.7794 174.712 64.3914 174.144 63.5038C173.495 62.5205 172.982 61.6375 172.598 60.9619C172.215 60.2928 171.986 59.8367 171.986 59.8367C171.986 59.8367 172.441 59.9557 173.12 60.368C173.788 60.7808 174.684 61.5232 175.358 62.6876Z" fill="#1D5046"/>
<path fill-rule="evenodd" clip-rule="evenodd" d="M174.494 64.0137C175.529 64.7127 175.851 65.1287 175.934 65.3271C176.014 65.5321 175.837 65.5601 175.746 65.6647C175.655 65.7693 175.575 65.9574 175.314 65.9644C175.052 65.9747 174.627 65.7917 173.765 65.2846C172.795 64.7281 172.01 64.1594 171.425 63.7107C170.845 63.2657 170.487 62.9379 170.487 62.9379C170.487 62.9379 170.928 62.8693 171.669 62.958C172.402 63.0495 173.449 63.3231 174.494 64.0137Z" fill="#1D5046"/>
<path fill-rule="evenodd" clip-rule="evenodd" d="M178.598 64.1448C177.88 64.4656 177.417 64.769 177.083 64.9689C176.752 65.1739 176.559 65.2934 176.43 65.3373C176.169 65.4265 176.187 65.2308 176.095 65.1267C176.003 65.0226 175.793 64.9474 175.898 64.6238C175.949 64.4585 176.085 64.2326 176.38 63.9286C176.68 63.634 177.135 63.246 177.868 62.8673C179.524 62.0143 181.211 62.0147 182.286 62.2482C182.832 62.3677 183.245 62.5269 183.519 62.6549C183.791 62.7879 183.929 62.8706 183.929 62.8706C183.929 62.8706 183.776 62.8832 183.498 62.9056C183.221 62.9261 182.82 62.9696 182.333 63.0382C181.354 63.1951 180.03 63.5023 178.598 64.1448Z" fill="#1D5046"/>
<path fill-rule="evenodd" clip-rule="evenodd" d="M177.881 65.8333C177.183 65.8155 176.693 65.8711 176.347 65.8944C176.001 65.9225 175.799 65.9341 175.677 65.9108C175.432 65.865 175.521 65.7025 175.486 65.5681C175.452 65.4331 175.31 65.2678 175.52 65.0344C175.625 64.9153 175.822 64.7818 176.178 64.6497C176.534 64.5269 177.051 64.3915 177.786 64.3658C179.449 64.3097 180.816 64.9424 181.606 65.534C182.008 65.8347 182.286 66.119 182.463 66.3254C182.637 66.5355 182.721 66.656 182.721 66.656C182.721 66.656 182.587 66.6172 182.346 66.5477C182.107 66.4757 181.758 66.3814 181.33 66.275C180.464 66.0756 179.276 65.8669 177.881 65.8333Z" fill="#1D5046"/>
<path fill-rule="evenodd" clip-rule="evenodd" d="M180.843 62.8901C181.698 62.4937 182.224 62.2505 182.224 62.2505C182.224 62.2505 181.618 62.2393 180.623 62.4335C179.704 62.6147 178.441 63.0045 177.14 63.7647C178.027 62.5358 178.874 61.5627 179.498 60.8806C180.128 60.2161 180.517 59.8067 180.517 59.8067C180.517 59.8067 180.379 59.8669 180.136 59.9733C179.892 60.0882 179.542 60.2703 179.125 60.5378C178.397 61.008 177.457 61.7738 176.628 62.8738C177.25 60.6406 177.278 59.0068 177.278 59.0068C177.278 59.0068 176.234 60.5687 175.636 62.9574C175.274 64.4011 175.334 64.7835 175.463 64.8955C175.461 64.9016 175.458 64.9081 175.456 64.9147C175.321 64.6583 175.11 64.3194 174.769 63.8721C174.038 62.934 173.189 62.3658 172.572 62.0534C171.946 61.7434 171.548 61.6594 171.548 61.6594C171.548 61.6594 171.843 61.9811 172.309 62.4853C172.795 63.0111 173.369 63.5368 173.811 64.0836C174.329 64.7251 174.3 65.7332 174.297 66.5101C174.451 66.3719 174.627 66.2589 174.817 66.1772C174.805 66.4317 174.817 66.6875 174.851 66.9401C175.062 66.7487 175.274 66.5582 175.485 66.3668C175.441 66.7823 175.289 67.1778 175.138 67.5677C175.906 65.5791 178.162 66.871 179.39 67.5821C179.704 67.7712 179.955 67.9309 180.125 68.0453C180.295 68.1583 180.39 68.2218 180.39 68.2218C180.39 68.2218 180.338 68.1149 180.228 67.9225C180.117 67.7329 179.936 67.4654 179.668 67.16C179.135 66.5587 178.185 65.813 176.881 65.4778C176.665 65.4269 176.477 65.3933 176.302 65.3666C176.593 65.1831 176.955 64.959 177.421 64.6831C178.783 63.8945 179.981 63.3015 180.843 62.8901Z" fill="#2E725F"/>
<path fill-rule="evenodd" clip-rule="evenodd" d="M177.701 83.4492C177.701 83.5692 177.701 83.6855 177.698 83.8078C177.695 83.8965 177.692 83.9815 177.689 84.0665C177.563 87.1327 176.511 89.8394 174.935 91.6281C173.663 92.1692 172.259 92.4933 170.773 92.5344C170.672 92.5376 170.572 92.5376 170.472 92.5376H170.374C169.828 92.5344 169.294 92.4933 168.772 92.4148C167.781 92.2729 166.832 92.0021 165.952 91.6248C164.266 89.7203 163.188 86.7671 163.188 83.4492C163.188 79.8792 164.439 76.7313 166.348 74.8552C167.08 75.1951 167.858 75.4468 168.669 75.5953C168.842 75.6266 169.015 75.655 169.19 75.6765C169.529 75.7241 169.872 75.7526 170.221 75.7587C170.293 75.7587 170.365 75.762 170.443 75.762C170.528 75.762 170.61 75.762 170.695 75.7587C172.064 75.7241 173.361 75.4029 174.542 74.8552C174.837 75.148 175.12 75.4692 175.38 75.8217C176.81 77.723 177.701 80.4367 177.701 83.4492Z" fill="#677D7E"/>
<path fill-rule="evenodd" clip-rule="evenodd" d="M177.701 83.4492C177.701 83.5692 177.701 83.6855 177.698 83.8078C177.695 83.8965 177.692 83.9815 177.689 84.0665C177.563 87.1327 176.511 89.8394 174.934 91.6281C173.662 92.1692 172.259 92.4933 170.773 92.5344C171.024 91.4675 171.191 90.3842 171.225 89.2856C171.294 87.0253 170.776 84.7019 169.467 82.8637C168.722 81.8187 167.695 80.8462 167.601 79.5678C167.526 78.535 168.059 77.553 168.33 76.5837C168.534 75.8437 168.782 75.6798 169.19 75.6765C169.454 75.6742 169.787 75.7396 170.22 75.7587C170.293 75.7587 170.365 75.762 170.443 75.762C170.528 75.762 170.61 75.762 170.695 75.7587C172.064 75.7241 173.361 75.4029 174.542 74.8552C174.837 75.148 175.119 75.4692 175.38 75.8217C176.809 77.723 177.701 80.4367 177.701 83.4492Z" fill="#4C535A"/>
<path fill-rule="evenodd" clip-rule="evenodd" d="M156.998 119.315C156.998 123.431 128.339 126.767 92.9861 126.767C57.6329 126.767 28.9741 123.431 28.9741 119.315C28.9741 115.199 57.6329 111.862 92.9861 111.862C128.339 111.862 156.998 115.199 156.998 119.315Z" fill="#4B9289"/>
<path fill-rule="evenodd" clip-rule="evenodd" d="M1.59229 60.1817H31.5969V59.5374H1.59229V60.1817Z" fill="#8B8E8D"/>
<path fill-rule="evenodd" clip-rule="evenodd" d="M31.5969 60.1816H1.59229V60.8367L31.5969 87.1621V60.1816Z" fill="#9FA29F"/>
<path fill-rule="evenodd" clip-rule="evenodd" d="M1.59229 60.8367V87.474H31.5969V87.1621L1.59229 60.8367Z" fill="#B6B8B5"/>
<path fill-rule="evenodd" clip-rule="evenodd" d="M1.59229 88.3342H31.5969V87.4741H1.59229V88.3342Z" fill="#8B8E8D"/>
<path fill-rule="evenodd" clip-rule="evenodd" d="M0 59.5372H33.1889V56.8511H0V59.5372Z" fill="#B6B8B5"/>
<path fill-rule="evenodd" clip-rule="evenodd" d="M0 91.0201H33.1889V88.334H0V91.0201Z" fill="#B6B8B5"/>
<path fill-rule="evenodd" clip-rule="evenodd" d="M22.645 79.3083H2.38818V86.9372H30.8006V86.4638L22.645 79.3083Z" fill="#8B8E8D"/>
<path fill-rule="evenodd" clip-rule="evenodd" d="M30.8006 79.3083H22.645L30.8006 86.4638V79.3083Z" fill="#777A78"/>
<path fill-rule="evenodd" clip-rule="evenodd" d="M30.1277 79.8452H23.2573L30.1277 85.873V79.8452Z" fill="#B6B8B5"/>
<path fill-rule="evenodd" clip-rule="evenodd" d="M23.2573 79.8452H3.0625V86.3997H30.1277V85.873L23.2573 79.8452Z" fill="#B6B8B5"/>
<path fill-rule="evenodd" clip-rule="evenodd" d="M30.1277 79.8452H23.2573L30.1277 85.873V79.8452Z" fill="#9FA29F"/>
<path fill-rule="evenodd" clip-rule="evenodd" d="M23.2573 79.8452H3.0625V86.3997H30.1277V85.873L23.2573 79.8452Z" fill="#B6B8B5"/>
<path fill-rule="evenodd" clip-rule="evenodd" d="M13.3486 83.7135H19.8417V82.6392H13.3486V83.7135Z" fill="#676867"/>
<path fill-rule="evenodd" clip-rule="evenodd" d="M30.8007 77.7768V70.1479H12.2046L20.8996 77.7768H30.8007Z" fill="#777A78"/>
<path fill-rule="evenodd" clip-rule="evenodd" d="M2.38818 77.7768H20.8995L12.2045 70.1479H2.38818V77.7768Z" fill="#8B8E8D"/>
<path fill-rule="evenodd" clip-rule="evenodd" d="M30.1273 77.2398V70.6848H12.8169L20.2873 77.2398H30.1273Z" fill="#B6B8B5"/>
<path fill-rule="evenodd" clip-rule="evenodd" d="M3.0625 77.2398H20.2877L12.8173 70.6848H3.0625V77.2398Z" fill="#B6B8B5"/>
<path fill-rule="evenodd" clip-rule="evenodd" d="M30.1273 77.2398V70.6848H12.8169L20.2873 77.2398H30.1273Z" fill="#9FA29F"/>
<path fill-rule="evenodd" clip-rule="evenodd" d="M3.0625 77.2398H20.2877L12.8173 70.6848H3.0625V77.2398Z" fill="#B6B8B5"/>
<path fill-rule="evenodd" clip-rule="evenodd" d="M19.8417 74.5531V73.4788H16.001L17.2256 74.5531H19.8417Z" fill="#515251"/>
<path fill-rule="evenodd" clip-rule="evenodd" d="M13.3486 74.5531H17.2257L16.001 73.4788H13.3486V74.5531Z" fill="#676867"/>
<path fill-rule="evenodd" clip-rule="evenodd" d="M3.0625 63.083H30.8008V60.1816H3.0625V63.083Z" fill="#797C7A"/>
<path fill-rule="evenodd" clip-rule="evenodd" d="M24.724 56.5355H11.586V55.5592C11.586 55.5013 11.5389 55.4541 11.4807 55.4541H5.22051C5.16228 55.4541 5.11523 55.5013 5.11523 55.5592V66.5232C5.11523 66.5815 5.16228 66.6287 5.22051 66.6287H24.724C24.7818 66.6287 24.8289 66.5815 24.8289 66.5232V56.641C24.8289 56.5831 24.7818 56.5355 24.724 56.5355Z" fill="#D87E2E"/>
<path fill-rule="evenodd" clip-rule="evenodd" d="M5.93701 57.7971H10.1914V56.175H5.93701V57.7971Z" fill="#FFFFFE"/>
<path fill-rule="evenodd" clip-rule="evenodd" d="M27.9081 57.1268H14.7705V56.1509C14.7705 56.0926 14.723 56.0454 14.6653 56.0454H8.40459C8.34683 56.0454 8.29932 56.0926 8.29932 56.1509V67.1145C8.29932 67.1729 8.34683 67.22 8.40459 67.22H27.9081C27.9659 67.22 28.0134 67.1729 28.0134 67.1145V57.2323C28.0134 57.1739 27.9659 57.1268 27.9081 57.1268Z" fill="#296AA6"/>
<path fill-rule="evenodd" clip-rule="evenodd" d="M9.12061 58.3881H13.3754V56.7656H9.12061V58.3881Z" fill="#FFFFFE"/>
<path fill-rule="evenodd" clip-rule="evenodd" d="M30.8006 69.4765V61.8472H2.74414L11.4392 69.4765H30.8006Z" fill="#777A78"/>
<path fill-rule="evenodd" clip-rule="evenodd" d="M2.38818 69.4765H11.4391L2.74407 61.8472H2.38818V69.4765Z" fill="#8B8E8D"/>
<path fill-rule="evenodd" clip-rule="evenodd" d="M30.1277 68.939V62.3845H3.35645L10.8268 68.939H30.1277Z" fill="#B6B8B5"/>
<path fill-rule="evenodd" clip-rule="evenodd" d="M3.0625 68.939H10.8268L3.35643 62.3845H3.0625V68.939Z" fill="#B6B8B5"/>
<path fill-rule="evenodd" clip-rule="evenodd" d="M3.0625 68.939H10.8268L3.35643 62.3845H3.0625V68.939Z" fill="#B6B8B5"/>
<path fill-rule="evenodd" clip-rule="evenodd" d="M30.1277 68.939V62.3845H3.35645L10.8268 68.939H30.1277Z" fill="#9FA29F"/>
<path fill-rule="evenodd" clip-rule="evenodd" d="M13.3486 66.2528H19.8417V65.1785H13.3486V66.2528Z" fill="#515251"/>
<path fill-rule="evenodd" clip-rule="evenodd" d="M92.2676 53.8437H140.361V2.45679H92.2676V53.8437Z" fill="#E6DDC6"/>
<path fill-rule="evenodd" clip-rule="evenodd" d="M143.129 59.1354H87.7897C86.968 59.1354 86.6401 57.8551 87.3179 57.2957L91.0542 54.2141H140.962L143.792 56.5491C144.745 57.3354 144.284 59.1354 143.129 59.1354Z" fill="#4BBAFB"/>
<path fill-rule="evenodd" clip-rule="evenodd" d="M91.6553 54.7857H97.2074V2.31738H91.6553V54.7857Z" fill="#4BBAFB" fill-opacity="0.296984"/>
<path fill-rule="evenodd" clip-rule="evenodd" d="M98.8472 54.7857H104.4V2.31738H98.8472V54.7857Z" fill="#4BBAFB" fill-opacity="0.296984"/>
<path fill-rule="evenodd" clip-rule="evenodd" d="M106.04 54.7857H111.592V2.31738H106.04V54.7857Z" fill="#4BBAFB" fill-opacity="0.296984"/>
<path fill-rule="evenodd" clip-rule="evenodd" d="M113.232 54.7857H118.784V2.31738H113.232V54.7857Z" fill="#4BBAFB" fill-opacity="0.296984"/>
<path fill-rule="evenodd" clip-rule="evenodd" d="M120.424 54.7857H125.976V2.31738H120.424V54.7857Z" fill="#4BBAFB" fill-opacity="0.296984"/>
<path fill-rule="evenodd" clip-rule="evenodd" d="M127.616 54.7857H133.168V2.31738H127.616V54.7857Z" fill="#4BBAFB" fill-opacity="0.296984"/>
<path fill-rule="evenodd" clip-rule="evenodd" d="M134.808 54.7857H140.361V2.31738H134.808V54.7857Z" fill="#4BBAFB" fill-opacity="0.296984"/>
<path fill-rule="evenodd" clip-rule="evenodd" d="M90.4531 2.45689H141.67V0H90.4531V2.45689Z" fill="#4BBAFB"/>
<path fill-rule="evenodd" clip-rule="evenodd" d="M37.1812 53.8437H84.941V2.45679H37.1812V53.8437Z" fill="#E6DDC6"/>
<path fill-rule="evenodd" clip-rule="evenodd" d="M87.7091 59.1354H32.3698C31.5481 59.1354 31.2202 57.8551 31.8979 57.2957L35.6338 54.2141H85.5416L88.372 56.5491C89.3255 57.3354 88.8639 59.1354 87.7091 59.1354Z" fill="#4BBAFB"/>
<path fill-rule="evenodd" clip-rule="evenodd" d="M36.2349 54.7857H41.7875V2.31738H36.2349V54.7857Z" fill="#4BBAFB" fill-opacity="0.296984"/>
<path fill-rule="evenodd" clip-rule="evenodd" d="M43.4272 54.7857H48.9799V2.31738H43.4272V54.7857Z" fill="#4BBAFB" fill-opacity="0.296984"/>
<path fill-rule="evenodd" clip-rule="evenodd" d="M50.6196 54.7857H56.1718V2.31738H50.6196V54.7857Z" fill="#4BBAFB" fill-opacity="0.296984"/>
<path fill-rule="evenodd" clip-rule="evenodd" d="M57.812 54.7857H63.3646V2.31738H57.812V54.7857Z" fill="#4BBAFB" fill-opacity="0.296984"/>
<path fill-rule="evenodd" clip-rule="evenodd" d="M65.0044 54.7857H70.5565V2.31738H65.0044V54.7857Z" fill="#4BBAFB" fill-opacity="0.296984"/>
<path fill-rule="evenodd" clip-rule="evenodd" d="M72.1963 54.7857H77.7484V2.31738H72.1963V54.7857Z" fill="#4BBAFB" fill-opacity="0.296984"/>
<path fill-rule="evenodd" clip-rule="evenodd" d="M79.3887 54.7857H84.9408V2.31738H79.3887V54.7857Z" fill="#4BBAFB" fill-opacity="0.296984"/>
<path fill-rule="evenodd" clip-rule="evenodd" d="M35.0332 2.45689H86.2504V0H35.0332V2.45689Z" fill="#4BBAFB"/>
<path fill-rule="evenodd" clip-rule="evenodd" d="M22.0099 19.3555H18.8828V19.6515L22.0099 22.7859V19.3555Z" fill="#2EB2A3"/>
<path fill-rule="evenodd" clip-rule="evenodd" d="M18.8828 19.6514V39.5287H22.0099V22.7857L18.8828 19.6514Z" fill="#18AA9A"/>
<path fill-rule="evenodd" clip-rule="evenodd" d="M25.0567 19.3555H22.0098V22.7859L25.0567 25.8399V19.3555Z" fill="#169E8B"/>
<path fill-rule="evenodd" clip-rule="evenodd" d="M22.0098 22.7856V39.5286H25.0567V25.8397L22.0098 22.7856Z" fill="#17917F"/>
<path fill-rule="evenodd" clip-rule="evenodd" d="M19.5239 20.2944V34.144H22.0096V22.7859L19.5239 20.2944Z" fill="#F8F8F6"/>
<path fill-rule="evenodd" clip-rule="evenodd" d="M22.0096 20.2397H19.5239V20.2944L22.0096 22.7858V20.2397Z" fill="#FFFFFE"/>
<path fill-rule="evenodd" clip-rule="evenodd" d="M24.4153 20.2397H22.0098V22.7858L24.4153 25.1969V20.2397Z" fill="#EDEDEB"/>
<path fill-rule="evenodd" clip-rule="evenodd" d="M22.0098 22.7856V34.1437H24.4153V25.1968L22.0098 22.7856Z" fill="#E0E1DD"/>
<path fill-rule="evenodd" clip-rule="evenodd" d="M21.9694 38.1178C21.245 38.1178 20.6558 37.5271 20.6558 36.8011C20.6558 36.075 21.245 35.4844 21.9694 35.4844C21.982 35.4844 21.9941 35.4848 22.0062 35.4858L22.0164 35.4862C22.7263 35.5115 23.283 36.089 23.283 36.8011C23.283 37.5126 22.7263 38.0902 22.0164 38.1159L22.0062 38.1164C21.9941 38.1173 21.982 38.1178 21.9694 38.1178Z" fill="#676867"/>
<path fill-rule="evenodd" clip-rule="evenodd" d="M20.8516 36.801C20.8516 37.4197 21.3523 37.9216 21.9695 37.9216C21.983 37.9216 21.9961 37.9197 22.0096 37.9193V35.6828C21.9961 35.6823 21.983 35.6804 21.9695 35.6804C21.3523 35.6804 20.8516 36.1824 20.8516 36.801Z" fill="#F8F8F6"/>
<path fill-rule="evenodd" clip-rule="evenodd" d="M22.0098 35.6829V37.9194C22.6083 37.8979 23.0872 37.4062 23.0872 36.8011C23.0872 36.196 22.6083 35.7043 22.0098 35.6829Z" fill="#E0E1DD"/>
<path fill-rule="evenodd" clip-rule="evenodd" d="M28.1837 19.3555H25.0566V25.8399L28.1837 28.9743V19.3555Z" fill="#E98D2D"/>
<path fill-rule="evenodd" clip-rule="evenodd" d="M25.0566 25.8398V39.5288H28.1837V28.9742L25.0566 25.8398Z" fill="#DF892F"/>
<path fill-rule="evenodd" clip-rule="evenodd" d="M31.2305 19.3555H28.1836V28.9743L31.2305 32.0284V19.3555Z" fill="#D87E2E"/>
<path fill-rule="evenodd" clip-rule="evenodd" d="M28.1836 28.9741V39.5287H31.2305V32.0282L28.1836 28.9741Z" fill="#C77B30"/>
<path fill-rule="evenodd" clip-rule="evenodd" d="M28.1839 20.2397H25.6982V26.4828L28.1839 28.9743V20.2397Z" fill="#FFFFFE"/>
<path fill-rule="evenodd" clip-rule="evenodd" d="M25.6982 26.4827V34.1438H28.1839V28.9741L25.6982 26.4827Z" fill="#F8F8F6"/>
<path fill-rule="evenodd" clip-rule="evenodd" d="M30.5891 20.2397H28.1836V28.9743L30.5891 31.3854V20.2397Z" fill="#EDEDEB"/>
<path fill-rule="evenodd" clip-rule="evenodd" d="M28.1836 28.9741V34.1438H30.5891V31.3853L28.1836 28.9741Z" fill="#E0E1DD"/>
<path fill-rule="evenodd" clip-rule="evenodd" d="M28.1437 38.1178C27.4193 38.1178 26.8301 37.5271 26.8301 36.8011C26.8301 36.075 27.4193 35.4844 28.1437 35.4844C28.1563 35.4844 28.1689 35.4848 28.181 35.4858L28.1907 35.4862C28.9011 35.5115 29.4573 36.089 29.4573 36.8011C29.4573 37.5126 28.9011 38.0902 28.1907 38.1159L28.181 38.1164C28.1689 38.1173 28.1563 38.1178 28.1437 38.1178Z" fill="#676867"/>
<path fill-rule="evenodd" clip-rule="evenodd" d="M27.0259 36.801C27.0259 37.4197 27.5266 37.9216 28.1439 37.9216C28.1574 37.9216 28.1709 37.9197 28.1839 37.9193V35.6828C28.1709 35.6823 28.1574 35.6804 28.1439 35.6804C27.5266 35.6804 27.0259 36.1824 27.0259 36.801Z" fill="#F8F8F6"/>
<path fill-rule="evenodd" clip-rule="evenodd" d="M28.1836 35.6829V37.9194C28.7822 37.8979 29.2615 37.4062 29.2615 36.8011C29.2615 36.196 28.7822 35.7043 28.1836 35.6829Z" fill="#E0E1DD"/>
<path fill-rule="evenodd" clip-rule="evenodd" d="M13.547 18.5005L9.0332 38.1598L12.0806 38.863L16.5944 19.2037L13.547 18.5005Z" fill="#D73D5F"/>
<path fill-rule="evenodd" clip-rule="evenodd" d="M19.564 19.8886L16.5944 19.2036L12.0806 38.8629L15.0497 39.5479L19.564 19.8886Z" fill="#AC3653"/>
<path fill-rule="evenodd" clip-rule="evenodd" d="M13.974 19.5066L10.8633 33.0564L13.2851 33.6153L16.3968 20.065L13.974 19.5066Z" fill="#FFFFFE"/>
<path fill-rule="evenodd" clip-rule="evenodd" d="M18.7409 20.6063L16.3969 20.0652L13.2852 33.6154L15.6296 34.1561L18.7409 20.6063Z" fill="#E5E6E3"/>
<path fill-rule="evenodd" clip-rule="evenodd" d="M12.6538 37.5111C12.5704 37.5111 12.4861 37.5032 12.4037 37.4868L12.3943 37.4854C12.3822 37.4836 12.3701 37.4817 12.3575 37.4784C12.0156 37.3995 11.7245 37.1922 11.5386 36.8939C11.3523 36.596 11.2931 36.243 11.3719 35.8998C11.5102 35.2984 12.0361 34.8787 12.651 34.8787C12.7498 34.8787 12.8494 34.8899 12.9468 34.9123C12.9594 34.9151 12.971 34.9183 12.9827 34.9221L12.9925 34.9249C13.6786 35.1093 14.0913 35.7971 13.932 36.4909C13.7946 37.0914 13.2687 37.5111 12.6538 37.5111Z" fill="#676867"/>
<path fill-rule="evenodd" clip-rule="evenodd" d="M12.903 35.1039C12.3012 34.9653 11.7012 35.3416 11.5629 35.9444C11.4245 36.5476 11.8 37.1486 12.4013 37.2877C12.4149 37.2905 12.4279 37.2919 12.4409 37.2947L12.9417 35.1147C12.9287 35.1114 12.9161 35.1067 12.903 35.1039Z" fill="#FFFFFE"/>
<path fill-rule="evenodd" clip-rule="evenodd" d="M13.7415 36.4466C13.8766 35.8569 13.5198 35.27 12.9417 35.1145L12.4409 37.2945C13.0293 37.408 13.6059 37.0368 13.7415 36.4466Z" fill="#E5E6E3"/>
<path fill-rule="evenodd" clip-rule="evenodd" d="M6.33496 41.9174H34.3449V39.637H6.33496V41.9174Z" fill="#8C9B9E"/>
<path fill-rule="evenodd" clip-rule="evenodd" d="M166.805 9.00757C160.872 9.00757 156.062 13.8289 156.062 19.776C156.062 25.7235 160.872 30.5448 166.805 30.5448C172.738 30.5448 177.549 25.7235 177.549 19.776C177.549 13.8289 172.738 9.00757 166.805 9.00757Z" fill="#51A196"/>
<path fill-rule="evenodd" clip-rule="evenodd" d="M176.5 19.3675C176.5 25.315 171.691 30.1359 165.757 30.1359C159.823 30.1359 155.014 25.315 155.014 19.3675C155.014 13.4205 159.823 8.59912 165.757 8.59912C171.691 8.59912 176.5 13.4205 176.5 19.3675Z" fill="#FFFFFE"/>
<path fill-rule="evenodd" clip-rule="evenodd" d="M174.454 19.3674C174.454 24.1817 170.56 28.0851 165.757 28.0851C160.954 28.0851 157.06 24.1817 157.06 19.3674C157.06 14.5531 160.954 10.6501 165.757 10.6501C170.56 10.6501 174.454 14.5531 174.454 19.3674Z" fill="#CDCECA"/>
<path fill-rule="evenodd" clip-rule="evenodd" d="M172.197 15.7554L166.382 20.078L160.566 17.6571L160.194 18.5545L165.909 20.9325L166.012 20.9773L166.065 20.9372L172.495 16.1592L172.197 15.7554Z" fill="#1C384D"/>
<path fill-rule="evenodd" clip-rule="evenodd" d="M70.2416 89.9646H47.4498C46.4255 77.8039 38.6155 60.3619 36.9842 56.8274C36.8752 56.5912 36.537 56.601 36.4415 56.8433C36.2249 57.3938 35.8709 58.2286 35.4102 59.0952C39.8746 65.5498 43.2453 91.4279 43.2453 91.4279V119.159H46.153V93.3703H68.3354V118.586H71.2431V93.3703H71.5436V91.4279C71.5436 90.6197 70.9608 89.9646 70.2416 89.9646Z" fill="#677D7E"/>
<path fill-rule="evenodd" clip-rule="evenodd" d="M74.5633 106.352C74.0854 106.774 72.5658 110.103 71.5434 110.967C70.7212 111.662 69.2911 112.288 69.102 112.933C68.9525 113.445 69.5059 113.402 69.6954 113.87C71.0668 117.257 73.8184 120.058 77.1761 121.485C76.7382 121.299 74.9005 116.163 74.8875 115.372C74.8568 113.452 77.7323 110.305 78.9136 108.974C74.9276 107.114 75.2797 105.72 74.5633 106.352Z" fill="#929CA2"/>
<path fill-rule="evenodd" clip-rule="evenodd" d="M90.7468 111.094C90.6117 111.077 90.5083 111.031 90.4552 110.947C90.396 110.853 90.4114 110.732 90.4221 110.732C90.458 110.729 90.7621 111.795 90.5558 113.015C90.2721 114.695 90.0047 115.529 90.4119 116.292C90.737 116.901 91.7315 117.165 92.0683 117.377C92.938 117.921 93.9516 118.013 95.1674 118.061C96.9762 118.131 98.9914 117.943 100.7 117.388C100.09 116.489 99.0561 115.994 98.2167 115.305C96.5826 113.964 94.6289 110.969 94.8521 108.865C93.8361 109.233 93.7816 110.22 92.7852 110.616C92.672 110.661 91.371 111.175 90.7468 111.094Z" fill="#929CA2"/>
<path fill-rule="evenodd" clip-rule="evenodd" d="M93.3866 99.3015L90.4207 85.4384L86.8678 81.7442L79.3853 79.7813L65.7586 75.4614L56.4575 83.6595L58.9944 86.8578L71.511 88.0424C71.511 88.0424 80.9048 89.0019 81.4382 89.211C81.972 89.4198 84.2657 94.3186 84.2657 94.3186L87.2037 106.571C87.2037 106.571 87.853 111.286 87.9075 111.98C87.9616 112.673 96.6035 112.5 96.6035 112.5L93.3866 99.3015Z" fill="#40474F"/>
<path fill-rule="evenodd" clip-rule="evenodd" d="M51.9554 76.9443L50.7969 85.3099L53.4768 90.6196C58.073 91.0833 62.6497 91.7407 67.2553 92.1142C70.5697 92.3836 75.8758 93.4818 78.954 91.9685C78.8077 92.3481 78.9046 92.9593 78.5511 93.148C79.5023 92.64 79.9709 92.9691 80.9226 92.4607C80.5029 93.0681 80.3375 93.0032 79.7217 93.9221C79.4683 94.2998 79.9974 94.5113 79.7217 94.9246C77.0376 98.9479 72.283 105.453 70.763 107.654L76.984 114.838L79.0583 111.31L83.5591 103.859L87.9076 96.3991L90.7295 89.211L87.5321 85.3099L73.4107 80.5638L69.8094 78.1979L66.095 73.0059L51.9554 76.9443Z" fill="#4C535A"/>
<path fill-rule="evenodd" clip-rule="evenodd" d="M62.7407 77.6749L68.4791 79.7009L61.8687 82.7591C61.8687 82.7591 71.813 80.8597 76.9841 80.6837C73.5291 79.8101 69.824 72.1537 62.7407 77.6749Z" fill="#40474F"/>
<path fill-rule="evenodd" clip-rule="evenodd" d="M122.825 78.6878L75.3232 78.6882L81.6035 72.3191L116.437 72.3247L122.825 78.6878Z" fill="#929CA2"/>
<path fill-rule="evenodd" clip-rule="evenodd" d="M104.964 117.872H107.661V79.2246H104.964V117.872Z" fill="#677D7E"/>
<path fill-rule="evenodd" clip-rule="evenodd" d="M75.3247 80.7383H122.801V78.6843H75.3247V80.7383Z" fill="#677D7E"/>
<path fill-rule="evenodd" clip-rule="evenodd" d="M75.8796 48.8179L77.8878 50.9731L82.4738 62.5801L84.6022 68.8493L81.0978 72.0425L73.5146 61.8088L75.1511 55.978L75.8796 48.8179Z" fill="#D6C293"/>
<path fill-rule="evenodd" clip-rule="evenodd" d="M79.3462 65.8678L81.2304 57.5087L81.6054 52.6304L85.4051 52.0813L86.8287 58.2235L87.5321 67.2265L85.093 72.9485L82.0983 74.0224L79.3462 65.8678Z" fill="#E4D4A8"/>
<path fill-rule="evenodd" clip-rule="evenodd" d="M90.1194 71.3286C89.6429 71.2012 89.1566 71.111 88.6665 71.0587C88.551 71.0461 88.4299 71.0368 88.3213 71.0788C88.1783 71.1339 88.0833 71.3352 87.9808 71.4486C87.8318 71.6139 87.7055 71.7997 87.5886 71.9888C87.5476 72.0556 87.1731 72.8433 87.2062 72.8494C87.9757 72.9927 88.8133 73.0202 89.5283 72.6556C89.8958 72.4679 90.4474 72.332 90.6691 71.9552C90.7329 71.8474 90.7548 71.7054 90.6919 71.5971C90.6267 71.4832 90.4907 71.4346 90.3649 71.3977C90.2834 71.3734 90.2014 71.3506 90.1194 71.3286Z" fill="#C3988F"/>
<path fill-rule="evenodd" clip-rule="evenodd" d="M85.7694 70.3538L81.9552 71.7354L81.0977 75.7797L83.4775 76.9727H84.6016C84.603 76.954 84.6048 76.9349 84.6062 76.9162C84.759 74.7189 85.9054 72.5361 85.7694 70.3538Z" fill="#C99B95"/>
<path fill-rule="evenodd" clip-rule="evenodd" d="M85.7787 70.3501L85.7694 70.3538C85.911 72.623 84.7576 74.7274 84.6021 76.9667C85.7415 76.5171 87.1417 77.4738 88.3282 76.9915C88.9221 76.7496 91.3537 73.3164 91.2065 73.1777C90.3918 72.4115 89.6464 71.5136 88.6179 71.0453C87.4678 70.5219 86.4313 70.3851 85.7787 70.3501Z" fill="#DDB0A4"/>
<path fill-rule="evenodd" clip-rule="evenodd" d="M64.2358 46.5701C63.6218 46.3988 56.008 48.9929 56.008 48.9929L50.9729 56.8062L49.499 67.3571L51.9553 76.9442H67.9074L73.0156 65.7892L76.2289 55.6707C76.3849 54.6823 76.5419 53.6933 76.6984 52.7049C76.9178 51.3177 77.3627 49.6938 75.7062 49.0051C75.0173 48.7189 74.2468 48.7291 73.501 48.7436C73.0305 48.7525 72.5139 48.8533 72.0523 48.8024C71.5469 48.7469 71.0042 48.5055 70.5142 48.3654C69.4949 48.0736 68.4752 47.7822 67.4556 47.4909C66.3823 47.1837 65.309 46.8769 64.2358 46.5701Z" fill="#D6C293"/>
<path fill-rule="evenodd" clip-rule="evenodd" d="M51.5752 75.4614H68.5866V77.6751H51.8538L51.5752 75.4614Z" fill="#2F3432"/>
<path fill-rule="evenodd" clip-rule="evenodd" d="M68.4602 40.9963L65.0215 46.8855L69.0127 52.6915L71.4689 53.6716L72.2059 50.2258L74.6002 47.0704L68.4602 40.9963Z" fill="#C3988F"/>
<path fill-rule="evenodd" clip-rule="evenodd" d="M78.8989 39.2845C78.9898 39.3382 78.6413 42.1237 78.6274 42.4044C77.5182 41.9276 78.7457 45.9744 78.1601 46.3764C77.9058 46.551 77.5373 46.4744 77.2862 46.6547C77.0524 46.8218 77.0054 47.1431 76.8819 47.4031C76.7585 47.6632 76.4082 47.8854 76.2018 47.6851C76.0947 48.0629 75.9871 48.4401 75.8799 48.8179C75.8357 48.9743 75.7905 49.1326 75.7108 49.2745C74.8588 50.7943 72.6369 48.5709 71.8552 47.9914C71.1472 47.4666 70.455 46.9189 69.779 46.353C69.5815 46.1882 68.8917 45.7759 68.8344 45.5005C68.7449 45.0662 68.6546 44.632 68.5646 44.1978C68.4342 43.5674 68.3806 42.8358 68.069 42.269C67.9004 41.9613 67.6964 41.6638 67.6181 41.3216C67.5221 40.9051 67.6386 40.4363 67.9158 40.1114C68.0285 39.9788 68.1547 39.9097 68.2311 39.756C68.3238 39.5721 68.3457 39.3078 68.3965 39.1075C68.5428 38.5351 68.6886 37.9622 68.8344 37.3897L70.6222 35.7485H72.9397L78.8989 39.2845Z" fill="#DDB0A4"/>
<path fill-rule="evenodd" clip-rule="evenodd" d="M75.3247 41.1587C76.0449 41.5803 76.608 41.9174 76.9854 42.1453C77.4037 42.3979 77.6692 42.5618 78.0796 42.7355C78.5459 42.933 78.9581 43.0417 79.2479 43.1043C78.9791 43.2859 78.7103 43.468 78.4411 43.6501C78.2165 43.6137 77.8816 43.5399 77.5099 43.3761C76.8745 43.0959 76.4995 42.714 76.1991 42.4016C75.9503 42.1429 75.6056 41.7307 75.3247 41.1587Z" fill="#1E222A"/>
<path fill-rule="evenodd" clip-rule="evenodd" d="M80.7207 37.4649C80.6797 37.3244 80.6378 37.1834 80.5963 37.0419C80.874 37.0148 81.1516 36.9873 81.4292 36.9602C80.9504 36.1707 80.5186 35.135 79.8683 34.4337C79.3969 33.9253 78.7163 33.5135 78.1447 33.1007C77.7655 32.8271 75.6493 31.0958 75.1653 31.9292C75.3358 31.6351 75.5263 31.3349 75.6824 31.037C75.4434 31.4936 73.0151 30.9618 72.5451 30.9987C71.7257 31.0631 71.0945 31.5917 70.3492 31.7266C70.011 31.7873 69.4436 31.5085 69.1637 31.6281C68.777 31.7938 67.3032 34.373 67.7177 34.7111C67.3628 34.4216 67.0041 34.1298 66.6426 33.8352C66.774 35.8261 66.065 36.7711 66.0962 38.55C66.106 39.0982 66.8965 40.4317 67.0875 40.9691C67.2258 41.3599 67.5794 41.7783 67.8221 42.1102C68.0243 42.0159 68.1985 41.8096 68.2865 41.6064C68.3965 41.352 68.2977 41.2268 68.2488 40.9644C68.1524 40.4504 68.2315 39.9214 68.4253 39.4395C68.5697 39.0814 68.6429 38.7335 68.8898 38.4216C69.2345 37.986 69.861 37.7213 70.3837 37.9641C70.7843 38.1499 71.0228 38.5897 71.0693 39.0193C71.115 39.4432 71.0023 39.8602 70.8634 40.2501C70.7377 40.6017 70.5877 40.9682 70.6757 41.3263C70.7624 41.6802 71.2119 41.973 71.5221 41.7736C71.5981 41.725 71.6954 41.2068 71.7583 41.0914C71.9106 40.8132 72.1277 40.5638 72.383 40.3635C72.8423 40.0021 73.398 39.7986 73.9798 39.9078C74.0026 39.2607 73.9868 38.5809 74.0427 37.9038C74.6329 38.5514 75.143 39.3064 75.9102 39.6758C76.506 39.9625 77.1968 39.9456 77.7739 40.2286C78.6604 40.6638 79.3829 41.5266 80.0858 42.1299C80.036 42.0869 80.0029 41.5084 80.0667 41.4416C80.2661 41.2315 80.6681 41.429 80.8605 41.5037C81.1423 41.6134 81.5676 41.6363 81.726 41.3496C81.8112 41.1942 81.7684 41.0209 81.7227 40.8673C81.4004 39.7724 81.0668 38.6392 80.7207 37.4649Z" fill="#1E222A"/>
<path fill-rule="evenodd" clip-rule="evenodd" d="M70.6221 53.2536L73.411 55.2898L74.6002 50.9732L73.0159 48.8726L70.6221 53.2536Z" fill="#E4D4A8"/>
<path fill-rule="evenodd" clip-rule="evenodd" d="M68.3462 43.2803L69.8112 45.7428L74.3534 48.8687L75.8799 48.8178L74.6003 50.9731L71.8939 48.8687L68.8572 45.7381L68.3462 43.2803Z" fill="#1E222A"/>
<path fill-rule="evenodd" clip-rule="evenodd" d="M74.3292 46.9203C75.1752 46.3661 76.2871 46.2157 77.2858 46.6546C77.1517 46.903 77.0138 47.1552 76.8838 47.4036C76.0849 47.1981 75.7458 46.7107 74.9199 47.1855C74.7103 47.306 73.1684 48.9444 73.672 49.1802C73.453 49.0779 73.2346 48.9752 73.0156 48.8725C73.1703 48.0334 73.6687 47.3536 74.3292 46.9203Z" fill="#1E222A"/>
<path fill-rule="evenodd" clip-rule="evenodd" d="M66.4072 44.5117L67.1008 47.7899L70.622 53.2537L66.8512 55.9781L63.6221 48.819V46.399L66.4072 44.5117Z" fill="#E4D4A8"/>
<path fill-rule="evenodd" clip-rule="evenodd" d="M70.6218 53.2537L68.479 55.2899L69.8108 57.6921L71.8474 57.5086L72.6109 54.7062L70.6218 53.2537Z" fill="#40474F"/>
<path fill-rule="evenodd" clip-rule="evenodd" d="M71.8474 57.5085C72.1623 59.0195 72.4777 60.5299 72.7926 62.0413C73.3306 64.6196 74.6247 67.9786 76.5266 69.814C77.2896 70.5508 77.7378 71.2731 77.9721 72.2779C78.0489 72.6085 78.3499 75.1942 78.5511 75.1559C76.9626 75.4585 74.239 75.4748 73.073 74.1866C72.0543 73.0604 71.6849 70.9285 71.1655 69.5353C70.4411 67.5934 70.0237 65.5516 69.8355 63.4897C69.7848 62.9322 69.5225 57.7182 69.8109 57.692C69.8123 57.6916 71.8474 57.5085 71.8474 57.5085Z" fill="#40474F"/>
<path fill-rule="evenodd" clip-rule="evenodd" d="M84.6022 47.3337L83.7363 43.4177C82.5424 44.6116 81.0545 45.5394 79.6268 46.4653C79.4148 46.617 79.2117 46.7851 79.0156 46.9644L79.7218 48.8727L81.6056 51.4215L85.3927 50.9733L84.6022 47.3337Z" fill="#DDB0A4"/>
<path fill-rule="evenodd" clip-rule="evenodd" d="M83.7361 43.4177L83.6932 43.223L78.3353 42.4045C78.3353 42.4045 77.2872 44.5098 77.2858 44.5122C76.5312 45.7532 77.3301 47.2156 78.1597 48.1938C78.2156 48.1195 78.6675 45.94 79.0066 46.9144C79.226 46.7888 79.4104 46.6053 79.6266 46.4653C81.0543 45.5394 82.5422 44.6116 83.7361 43.4177Z" fill="#C99B95"/>
<path fill-rule="evenodd" clip-rule="evenodd" d="M53.4771 57.2302V52.1157L56.0479 49.0364L60.715 48.1936L62.7823 50.6916L65.0346 58.4171L67.1289 67.1306L66.3333 69.313L68.4821 68.2713L67.912 71.0345H76.2087L79.722 71.6484L80.3341 76.3381C77.2601 76.8811 73.7967 78.0531 70.665 77.5535C68.2334 77.1655 64.9596 77.341 62.8196 76.1285C61.3415 75.2913 60.1052 75.7596 59.748 73.6809C59.4647 72.0341 58.0733 70.6483 57.3709 69.1481C56.5193 67.3304 56.7229 65.2093 55.8034 63.4247L53.4771 57.2302Z" fill="#E4D4A8"/>
<path fill-rule="evenodd" clip-rule="evenodd" d="M79.7217 71.6484L81.9008 71.7353L82.4738 76.3955L80.3338 76.3381L79.7217 71.6484Z" fill="#D6C293"/>
<path fill-rule="evenodd" clip-rule="evenodd" d="M81.6055 52.7139V51.4215L85.3926 50.2454L85.7806 52.5295L81.6055 52.7139Z" fill="#D6C293"/>
<path fill-rule="evenodd" clip-rule="evenodd" d="M69.4169 112.401C69.3187 112.465 71.215 115.729 71.4018 116.01C72.1583 117.15 72.9931 117.88 74.3193 118.347C74.9085 118.555 75.8038 118.422 75.8038 118.422C75.8038 118.422 77.0616 120.587 77.621 121.118C78.9868 122.412 80.6661 123.377 82.4772 123.884C82.8387 123.984 83.2468 124.1 83.4219 124.432C84.4015 126.295 79.8435 125.58 79.1838 125.462C77.8972 125.233 76.6111 125.004 75.3245 124.774C74.5126 124.644 73.2954 123.489 72.64 122.996C71.7465 122.324 70.8722 121.574 70.1692 120.699C69.8939 120.356 69.6722 119.833 69.2991 119.596C68.9982 119.404 68.5845 119.46 68.2603 119.301C67.5425 118.946 65.5674 116.725 65.5674 116.725C65.5674 116.725 65.73 116.079 65.9028 115.792C66.8111 114.289 67.9752 113.351 69.4169 112.401Z" fill="#2F3432"/>
<path fill-rule="evenodd" clip-rule="evenodd" d="M89.9985 115.518C89.8941 116.022 89.8285 116.527 89.8527 117.08C89.8997 118.132 89.9868 119.182 90.1275 120.226C91.3978 120.494 92.7366 120.783 94.0372 120.567C94.5118 120.488 94.8957 120.222 95.3387 120.123C96.8936 119.776 97.6808 120.495 99.0522 120.866C101.094 121.417 103.246 121.534 105.349 121.405C106.217 121.357 108.289 121.638 109.026 121.198C110.031 120.599 108.778 119.609 108.004 119.525C106.931 119.408 105.981 119.453 104.924 119.194C103.896 118.942 102.958 118.414 102.093 117.817C101.778 117.601 98.9479 115.422 98.7895 115.541C98.2785 115.925 98.0325 116.162 97.4004 116.243C96.8028 116.32 96.2135 116.399 95.6103 116.41C94.4303 116.431 93.1777 116.283 92.1417 115.676C91.4765 115.28 90.8323 114.807 90.3097 114.235C90.1993 114.68 90.0856 115.098 89.9985 115.518Z" fill="#242726"/>
<path fill-rule="evenodd" clip-rule="evenodd" d="M114.352 64.2012C114.389 63.7161 116.015 51.3896 116.015 51.3896C116.015 51.3896 117.008 51.3093 117.008 52.4808C117.009 53.6522 115.961 76.0738 115.961 76.0738C115.871 76.6673 115.428 76.8755 115.269 76.8629C114.503 76.8041 114.35 76.1719 112.753 74.3841C110.928 72.3423 110.984 72.6238 110.865 72.2676C110.636 69.7332 114.001 68.9044 114.352 64.2012Z" fill="#515251"/>
<path fill-rule="evenodd" clip-rule="evenodd" d="M114.561 76.2949C114.561 76.2949 114.394 77.7339 113.337 78.1C111.952 78.1028 92.6296 78.1443 92.6296 78.1443C92.6296 78.1443 91.2806 77.6625 90.9521 76.4518C98.4617 75.1827 114.561 76.2949 114.561 76.2949Z" fill="#515251"/>
<path fill-rule="evenodd" clip-rule="evenodd" d="M111.03 72.0426L114.54 75.8343C114.83 76.1248 115.388 76.3083 115.417 75.6168L116.391 52.38C116.42 51.674 116.182 51.2547 115.869 51.4368L111.778 53.8251C111.608 53.9245 111.457 54.4073 111.437 54.9055L110.782 71.3539C110.762 71.8446 110.872 71.8833 111.03 72.0426Z" fill="#7D9394"/>
<path fill-rule="evenodd" clip-rule="evenodd" d="M111.04 71.1554L114.985 74.6344L115.878 53.2026L111.677 55.2001L111.04 71.1554Z" fill="#515251"/>
<path fill-rule="evenodd" clip-rule="evenodd" d="M114.262 53.2999L114.773 53.0333L114.79 52.6135L114.279 52.8937L114.262 53.2999Z" fill="#B6B8B5"/>
<path fill-rule="evenodd" clip-rule="evenodd" d="M112.385 54.4509L112.773 54.2543L112.788 53.8892L112.4 54.0969L112.385 54.4509Z" fill="#B6B8B5"/>
<path fill-rule="evenodd" clip-rule="evenodd" d="M112.309 73.4247L113.118 74.2115L113.147 73.4947L112.336 72.7505L112.309 73.4247Z" fill="#B6B8B5"/>
<path fill-rule="evenodd" clip-rule="evenodd" d="M111.195 70.9538L114.904 74.2586L115.697 53.4937L111.797 55.2796L111.195 70.9538Z" fill="#FFFFFE"/>
<path fill-rule="evenodd" clip-rule="evenodd" d="M109.461 72.1295C110.199 72.1229 110.831 72.165 110.947 72.298L114.402 76.2528C114.608 76.489 113.947 76.6851 112.923 76.6842L112.649 76.6837L109.197 72.1099L109.461 72.1295Z" fill="#6F8483"/>
<path fill-rule="evenodd" clip-rule="evenodd" d="M94.4344 72.241L109.364 72.1145L112.808 76.7257L92.333 76.7084C91.3963 76.707 90.7469 76.5198 90.875 76.2948L93.0523 72.4843C93.1259 72.3545 93.7435 72.2471 94.4344 72.241Z" fill="#7D9394"/>
<path fill-rule="evenodd" clip-rule="evenodd" d="M93.4458 74.6424L97.6009 74.628L97.7435 73.8337L93.8096 73.8538L93.4458 74.6424Z" fill="#D0D2CB"/>
<path fill-rule="evenodd" clip-rule="evenodd" d="M95.7058 73.8599L95.4599 74.6177L93.9995 74.6228L94.32 73.8669L95.7058 73.8599Z" fill="#FFFFFE"/>
<path fill-rule="evenodd" clip-rule="evenodd" d="M97.4899 72.8354L96.7344 72.841L96.8294 72.4899L97.5645 72.4843L97.4899 72.8354Z" fill="#D0D2CB"/>
<path fill-rule="evenodd" clip-rule="evenodd" d="M96.0436 72.496L95.9272 72.8467L95.1763 72.8523L95.3132 72.5021L96.0436 72.496Z" fill="#D0D2CB"/>
<path fill-rule="evenodd" clip-rule="evenodd" d="M97.1647 75.6322L97.1223 75.848L94.7886 75.8503L94.8622 75.6355L97.1647 75.6322Z" fill="#D0D2CB"/>
<path fill-rule="evenodd" clip-rule="evenodd" d="M94.7077 76.0865L97.0755 76.0851L97.0312 76.3139H94.6299L94.7077 76.0865Z" fill="#D0D2CB"/>
<path fill-rule="evenodd" clip-rule="evenodd" d="M109.693 76.4427L111.813 76.4432L108.929 72.3208L107.345 72.3339L109.693 76.4427Z" fill="#B6B8B5"/>
<path fill-rule="evenodd" clip-rule="evenodd" d="M111.232 76.0217L111.426 76.3061H109.904L109.737 76.0226L111.232 76.0217Z" fill="#FFFFFE"/>
<path fill-rule="evenodd" clip-rule="evenodd" d="M108.949 76.1385L109.149 76.512L107.55 76.5111L107.386 76.139L108.949 76.1385Z" fill="#D0D2CB"/>
<path fill-rule="evenodd" clip-rule="evenodd" d="M108.681 75.6392L108.869 75.9899L107.321 75.9913L107.167 75.6416L108.681 75.6392Z" fill="#D0D2CB"/>
<path fill-rule="evenodd" clip-rule="evenodd" d="M108.43 75.1705L108.607 75.5001L107.107 75.5025L106.961 75.1738L108.43 75.1705Z" fill="#D0D2CB"/>
<path fill-rule="evenodd" clip-rule="evenodd" d="M108.193 74.7287L108.36 75.0396L106.904 75.0429L106.768 74.7329L108.193 74.7287Z" fill="#D0D2CB"/>
<path fill-rule="evenodd" clip-rule="evenodd" d="M107.969 74.3118L108.126 74.605L106.714 74.6102L106.584 74.3174L107.969 74.3118Z" fill="#D0D2CB"/>
<path fill-rule="evenodd" clip-rule="evenodd" d="M107.758 73.9177L107.906 74.195L106.533 74.2006L106.411 73.9242L107.758 73.9177Z" fill="#D0D2CB"/>
<path fill-rule="evenodd" clip-rule="evenodd" d="M107.557 73.5446L107.698 73.807L106.363 73.814L106.248 73.5516L107.557 73.5446Z" fill="#D0D2CB"/>
<path fill-rule="evenodd" clip-rule="evenodd" d="M107.368 73.1907L107.501 73.4396L106.202 73.4475L106.092 73.1987L107.368 73.1907Z" fill="#D0D2CB"/>
<path fill-rule="evenodd" clip-rule="evenodd" d="M107.187 72.8545L107.314 73.0913L106.049 73.0992L105.944 72.8634L107.187 72.8545Z" fill="#D0D2CB"/>
<path fill-rule="evenodd" clip-rule="evenodd" d="M107.016 72.5352L107.137 72.7602L105.903 72.7691L105.805 72.5445L107.016 72.5352Z" fill="#D0D2CB"/>
<path fill-rule="evenodd" clip-rule="evenodd" d="M106.853 72.2312L106.968 72.4456L105.765 72.4549L105.671 72.2411L106.853 72.2312Z" fill="#D0D2CB"/>
<path fill-rule="evenodd" clip-rule="evenodd" d="M106.957 76.4769L104.946 76.4765L104.83 76.0651L106.79 76.0642L106.957 76.4769Z" fill="#D0D2CB"/>
<path fill-rule="evenodd" clip-rule="evenodd" d="M106.75 75.9641L104.801 75.9655L104.691 75.5784L106.592 75.5761L106.75 75.9641Z" fill="#D0D2CB"/>
<path fill-rule="evenodd" clip-rule="evenodd" d="M106.554 75.4818L104.665 75.485L104.562 75.1204L106.407 75.1166L106.554 75.4818Z" fill="#D0D2CB"/>
<path fill-rule="evenodd" clip-rule="evenodd" d="M106.37 75.0277L104.536 75.0328L104.439 74.6892L106.231 74.6831L106.37 75.0277Z" fill="#D0D2CB"/>
<path fill-rule="evenodd" clip-rule="evenodd" d="M106.196 74.5994L104.415 74.6055L104.323 74.281L106.064 74.274L106.196 74.5994Z" fill="#D0D2CB"/>
<path fill-rule="evenodd" clip-rule="evenodd" d="M106.032 74.1946L104.3 74.2021L104.213 73.8948L105.908 73.8864L106.032 74.1946Z" fill="#D0D2CB"/>
<path fill-rule="evenodd" clip-rule="evenodd" d="M105.877 73.8112L104.192 73.8201L104.109 73.5287L105.759 73.5194L105.877 73.8112Z" fill="#D0D2CB"/>
<path fill-rule="evenodd" clip-rule="evenodd" d="M105.73 73.4485L104.089 73.4579L104.011 73.1814L105.618 73.1712L105.73 73.4485Z" fill="#D0D2CB"/>
<path fill-rule="evenodd" clip-rule="evenodd" d="M105.591 73.1039L103.992 73.1142L103.917 72.8518L105.484 72.8405L105.591 73.1039Z" fill="#D0D2CB"/>
<path fill-rule="evenodd" clip-rule="evenodd" d="M105.458 72.7761L103.899 72.7873L103.828 72.5375L105.356 72.5258L105.458 72.7761Z" fill="#D0D2CB"/>
<path fill-rule="evenodd" clip-rule="evenodd" d="M105.234 72.2262L105.331 72.4648L102.676 72.4853L102.63 72.2477L105.234 72.2262Z" fill="#D0D2CB"/>
<path fill-rule="evenodd" clip-rule="evenodd" d="M104.589 76.4765L102.597 76.4756L102.539 76.0661L104.481 76.0651L104.589 76.4765Z" fill="#D0D2CB"/>
<path fill-rule="evenodd" clip-rule="evenodd" d="M104.455 75.9661L102.525 75.967L102.469 75.5818L104.353 75.579L104.455 75.9661Z" fill="#D0D2CB"/>
<path fill-rule="evenodd" clip-rule="evenodd" d="M104.329 75.4857L102.457 75.4885L102.405 75.1262L104.234 75.1215L104.329 75.4857Z" fill="#D0D2CB"/>
<path fill-rule="evenodd" clip-rule="evenodd" d="M104.21 75.0331L102.392 75.0378L102.344 74.6955L104.12 74.6899L104.21 75.0331Z" fill="#D0D2CB"/>
<path fill-rule="evenodd" clip-rule="evenodd" d="M104.098 74.6063L102.332 74.6129L102.286 74.2893L104.013 74.2823L104.098 74.6063Z" fill="#D0D2CB"/>
<path fill-rule="evenodd" clip-rule="evenodd" d="M103.993 74.2034L102.275 74.2109L102.231 73.9046L103.912 73.8962L103.993 74.2034Z" fill="#D0D2CB"/>
<path fill-rule="evenodd" clip-rule="evenodd" d="M103.892 73.8215L102.221 73.8299L102.179 73.5395L103.816 73.5306L103.892 73.8215Z" fill="#D0D2CB"/>
<path fill-rule="evenodd" clip-rule="evenodd" d="M103.798 73.4598L102.17 73.4691L102.13 73.1936L103.725 73.1834L103.798 73.4598Z" fill="#D0D2CB"/>
<path fill-rule="evenodd" clip-rule="evenodd" d="M103.707 73.1161L102.12 73.1264L102.083 72.8644L103.638 72.8537L103.707 73.1161Z" fill="#D0D2CB"/>
<path fill-rule="evenodd" clip-rule="evenodd" d="M103.621 72.7898L102.074 72.801L102.039 72.5512L103.556 72.5395L103.621 72.7898Z" fill="#D0D2CB"/>
<path fill-rule="evenodd" clip-rule="evenodd" d="M103.477 72.2406L103.54 72.4788L102.03 72.4904L101.997 72.2528L103.477 72.2406Z" fill="#D0D2CB"/>
<path fill-rule="evenodd" clip-rule="evenodd" d="M102.101 76.4751L100.129 76.4746L100.132 76.0675L102.055 76.0665L102.101 76.4751Z" fill="#D0D2CB"/>
<path fill-rule="evenodd" clip-rule="evenodd" d="M102.044 75.9671L100.133 75.9685L100.136 75.5857L102.001 75.5829L102.044 75.9671Z" fill="#D0D2CB"/>
<path fill-rule="evenodd" clip-rule="evenodd" d="M101.991 75.4894L100.136 75.4927L100.139 75.1317L101.95 75.1271L101.991 75.4894Z" fill="#D0D2CB"/>
<path fill-rule="evenodd" clip-rule="evenodd" d="M101.94 75.0392L100.139 75.0439L100.141 74.703L101.902 74.6974L101.94 75.0392Z" fill="#D0D2CB"/>
<path fill-rule="evenodd" clip-rule="evenodd" d="M101.892 74.6144L100.142 74.6205L100.144 74.2983L101.856 74.2913L101.892 74.6144Z" fill="#D0D2CB"/>
<path fill-rule="evenodd" clip-rule="evenodd" d="M101.847 74.2129L100.145 74.2199L100.146 73.915L101.813 73.9066L101.847 74.2129Z" fill="#D0D2CB"/>
<path fill-rule="evenodd" clip-rule="evenodd" d="M101.805 73.8322L100.147 73.8406L100.149 73.5512L101.772 73.5423L101.805 73.8322Z" fill="#D0D2CB"/>
<path fill-rule="evenodd" clip-rule="evenodd" d="M101.764 73.4713L100.149 73.4806L100.151 73.2061L101.733 73.1958L101.764 73.4713Z" fill="#D0D2CB"/>
<path fill-rule="evenodd" clip-rule="evenodd" d="M101.725 73.1291L100.152 73.1389L100.153 72.8779L101.696 72.8671L101.725 73.1291Z" fill="#D0D2CB"/>
<path fill-rule="evenodd" clip-rule="evenodd" d="M101.689 72.8032L100.154 72.8144L100.156 72.566L101.661 72.5539L101.689 72.8032Z" fill="#D0D2CB"/>
<path fill-rule="evenodd" clip-rule="evenodd" d="M101.628 72.256L101.654 72.4932L98.6138 72.517L98.6445 72.2803L101.628 72.256Z" fill="#D0D2CB"/>
<path fill-rule="evenodd" clip-rule="evenodd" d="M99.6383 76.4746L97.6865 76.4737L97.7494 76.0684L99.6537 76.0675L99.6383 76.4746Z" fill="#D0D2CB"/>
<path fill-rule="evenodd" clip-rule="evenodd" d="M99.6573 75.9689L97.7646 75.9703L97.8233 75.5888L99.6713 75.586L99.6573 75.9689Z" fill="#D0D2CB"/>
<path fill-rule="evenodd" clip-rule="evenodd" d="M99.6746 75.4936L97.8374 75.4964L97.8928 75.1369L99.6881 75.1326L99.6746 75.4936Z" fill="#D0D2CB"/>
<path fill-rule="evenodd" clip-rule="evenodd" d="M99.6913 75.0449L97.9067 75.05L97.9589 74.7106L99.7034 74.7045L99.6913 75.0449Z" fill="#D0D2CB"/>
<path fill-rule="evenodd" clip-rule="evenodd" d="M99.7059 74.6217L97.9712 74.6278L98.0206 74.307L99.7176 74.3L99.7059 74.6217Z" fill="#D0D2CB"/>
<path fill-rule="evenodd" clip-rule="evenodd" d="M99.7204 74.2218L98.0322 74.2288L98.0793 73.9248L99.7315 73.9169L99.7204 74.2218Z" fill="#D0D2CB"/>
<path fill-rule="evenodd" clip-rule="evenodd" d="M99.7098 74.5257L97.9858 74.5322L98.1885 73.2188L99.7574 73.2085L99.7098 74.5257Z" fill="#D0D2CB"/>
<path fill-rule="evenodd" clip-rule="evenodd" d="M99.7597 73.1418L98.1982 73.1521L98.2383 72.8915L99.7695 72.8808L99.7597 73.1418Z" fill="#D0D2CB"/>
<path fill-rule="evenodd" clip-rule="evenodd" d="M99.7713 72.8171L98.2485 72.8279L98.2867 72.5799L99.7806 72.5687L99.7713 72.8171Z" fill="#D0D2CB"/>
<path fill-rule="evenodd" clip-rule="evenodd" d="M99.7907 72.2709L99.7823 72.5081L98.2954 72.5198L98.3322 72.283L99.7907 72.2709Z" fill="#D0D2CB"/>
<path fill-rule="evenodd" clip-rule="evenodd" d="M115.127 61.8094C115.132 61.6763 115.235 61.5718 115.355 61.5774C115.375 61.5783 115.393 61.583 115.411 61.589L115.336 64.3844C115.308 64.3975 115.277 64.404 115.245 64.4026C115.125 64.397 115.03 64.2836 115.036 64.1505L115.127 61.8094Z" fill="#515251"/>
<path fill-rule="evenodd" clip-rule="evenodd" d="M111.199 61.6566C111.203 61.5693 111.292 61.5011 111.397 61.5053C111.415 61.5062 111.431 61.5095 111.446 61.5137L111.397 63.3505C111.373 63.3585 111.346 63.3627 111.318 63.3618C111.212 63.3571 111.129 63.2819 111.132 63.1946L111.199 61.6566Z" fill="#515251"/>
<path fill-rule="evenodd" clip-rule="evenodd" d="M114.448 75.7542L114.175 76.0273L113.765 75.5436L114.038 75.3008L114.448 75.7542Z" fill="#D0D2CB"/>
<path fill-rule="evenodd" clip-rule="evenodd" d="M111.385 72.4259L111.221 72.6001L110.913 72.2826L111.105 72.093L111.385 72.4259Z" fill="#D0D2CB"/>
<path fill-rule="evenodd" clip-rule="evenodd" d="M114.56 67.2371L114.356 68.6906L113.265 55.6633L111.588 62.1137L112.038 62.2314L113.029 58.4223L113.97 69.6529L113.071 67.3403L112.637 67.5098L114.369 71.9665L115.021 67.3016L114.56 67.2371Z" fill="#C12344"/>
<path fill-rule="evenodd" clip-rule="evenodd" d="M104.298 68.9852C103.883 69.4432 103.225 70.0371 102.368 70.4167L102.804 67.4434L102.819 67.4565C103.294 67.0377 103.721 66.815 104.057 66.8187C104.485 66.8285 104.628 67.0092 104.7 67.1442C104.97 67.6582 104.648 68.6009 104.298 68.9852ZM105.313 66.8925C105.092 66.4732 104.653 66.2351 104.075 66.2215C103.715 66.2131 103.333 66.3392 102.93 66.5918L103.08 65.5711C103.149 65.0963 102.904 64.6929 102.532 64.6929H97.0328C96.6606 64.6929 96.4152 65.0963 96.485 65.5711L97.4814 72.3549C97.5145 72.5781 97.7395 72.756 97.9836 72.756H101.581C101.825 72.756 102.05 72.5781 102.083 72.3549L102.271 71.0793L102.283 71.1064C103.443 70.6988 104.307 69.9312 104.827 69.3592C105.288 68.8507 105.727 67.6797 105.313 66.8925Z" fill="#DA4345"/>
<path fill-rule="evenodd" clip-rule="evenodd" d="M97.498 65.9619L98.2173 71.5611H99.0632L98.4707 65.9619H97.498Z" fill="#FFFFFE"/>
<path fill-rule="evenodd" clip-rule="evenodd" d="M99.5704 63.9459C99.5704 63.9459 101.847 62.5143 100.797 60.5865C99.761 58.6824 100.163 58.1599 100.163 58.1599C100.163 58.1599 98.0901 59.3543 99.0632 60.4744C100.036 61.594 99.951 62.6768 99.5704 63.9459Z" fill="#B6B8B5"/>
<path fill-rule="evenodd" clip-rule="evenodd" d="M126.607 20.8802C126.607 20.8802 126.229 24.1434 126.607 24.1434C126.985 24.1434 130.051 24.0613 130.173 23.8787C130.294 23.6961 131.254 20.171 131.254 20.171L130.224 16.3049L126.607 20.8802Z" fill="#EBA59E"/>
<path fill-rule="evenodd" clip-rule="evenodd" d="M134.697 28.929L136.916 31.7342L142.168 28.8263L139.25 23.8789L134.697 28.929Z" fill="#EBA59E"/>
<path fill-rule="evenodd" clip-rule="evenodd" d="M145.414 111.367C145.379 111.143 145.339 110.91 145.211 110.723C145.048 110.483 144.768 110.356 144.502 110.24C143.802 109.935 143.07 109.623 142.307 109.663C141.544 109.702 140.748 110.209 140.646 110.968C140.611 111.223 140.657 111.483 140.649 111.741C140.621 112.681 139.905 113.447 139.177 114.04C137.46 115.435 135.407 116.412 133.242 116.864C132.749 116.966 131.527 117.046 131.319 117.615C131.198 117.944 131.309 118.224 131.539 118.458C136.03 119.233 140.875 117.602 145.301 115.893C145.681 114.994 145.68 113.962 145.602 112.96C145.56 112.426 145.497 111.896 145.414 111.367Z" fill="#0D1314"/>
<path fill-rule="evenodd" clip-rule="evenodd" d="M131.54 118.458C132.084 119.009 133.312 119.294 133.856 119.312C134.764 119.343 135.658 119.108 136.536 118.872C137.682 118.564 138.833 118.251 140.013 118.118C141.5 117.952 143.353 118.123 144.519 117.022C144.877 116.684 145.129 116.302 145.301 115.893C140.876 117.602 136.03 119.233 131.54 118.458Z" fill="#2F3432"/>
<path fill-rule="evenodd" clip-rule="evenodd" d="M132.692 15.0625C131.939 15.3557 131.112 15.5247 130.478 16.0579C129.628 16.7723 129.667 17.6767 129.257 18.6386C129.203 18.7642 129.145 18.8912 129.135 19.0275C129.116 19.2619 129.241 19.4804 129.353 19.6868C130.08 21.0217 130.263 22.3636 130.534 23.8194C130.907 25.8257 132.189 27.4095 133.413 28.9718C134.915 30.8875 137.368 29.1035 138.85 28.0693C139.077 27.911 139.297 27.7401 139.506 27.5557C142.617 24.8163 143.212 18.3281 140.158 15.3356C138.002 13.2219 135.121 14.1175 132.692 15.0625Z" fill="#EDB4AF"/>
<path fill-rule="evenodd" clip-rule="evenodd" d="M143.484 13.5456C143.229 13.3481 142.874 13.3621 142.571 13.2533C142.308 13.158 142.078 12.9573 141.979 12.6958C141.837 12.3223 142.063 11.8287 142.225 11.487C142.43 11.0593 142.749 10.6671 142.796 10.1955C142.012 10.6073 141.227 11.0191 140.442 11.4314C140.207 11.5551 139.966 11.6807 139.702 11.7181C139.465 11.7522 139.223 11.712 138.99 11.656C137.844 11.38 136.799 10.7021 136.079 9.76733C135.983 10.4079 136.113 11.0812 136.44 11.6397C135.844 11.1718 134.834 10.9201 134.14 10.5583C134.219 11.0551 134.445 11.5271 134.783 11.9002C133.792 12.1878 132.769 12.241 131.779 12.5025C131.021 12.7028 130.251 13.0553 129.829 13.7169C130.6 13.6525 131.369 13.5605 132.134 13.4405C130.2 14.6242 128.287 16.4395 127.68 18.6503L129.93 17.9714C129.93 17.9714 132.032 16.3755 133.519 17.0138C135.005 17.6521 136.049 18.9291 136.049 18.9291C136.049 18.9291 137.235 18.7162 137.659 20.6319C138.296 20.0996 140.257 18.2114 140.445 21.6563C140.207 23.2924 139.57 24.3565 139.464 24.25C140.314 24.9947 141.102 23.8938 141.345 24.9233C141.587 25.9524 143.286 21.9094 143.286 21.9094C143.286 20.7089 143.297 19.5085 143.286 18.3081C143.279 17.575 143.014 17.0143 142.925 16.3195C142.817 15.4828 143.193 14.5154 143.519 13.7618C143.54 13.7141 143.561 13.6609 143.541 13.6128C143.531 13.5848 143.507 13.5643 143.484 13.5456Z" fill="#211A18"/>
<path fill-rule="evenodd" clip-rule="evenodd" d="M126.607 20.8803C126.547 20.8051 126.057 21.2109 125.462 21.7567C126.393 23.2312 127.857 24.3004 129.437 24.9644C129.788 24.4541 130.135 23.9419 130.472 23.4245C130.472 23.4245 127.881 22.4762 126.607 20.8803Z" fill="#296AA6"/>
<path fill-rule="evenodd" clip-rule="evenodd" d="M126.536 31.0505C126.711 30.8007 126.886 30.5504 127.062 30.3006C126.539 30.4547 126.015 30.6092 125.492 30.7638C126.722 28.7878 128.111 26.8931 129.437 24.9643C127.857 24.3003 126.393 23.2311 125.462 21.7566C124.505 22.6335 123.275 23.874 123.116 24.0729C122.166 25.2528 121.484 26.69 121.081 28.1463C121.017 27.8087 120.952 27.4716 120.888 27.1345C120.929 27.3502 120.11 28.7902 119.956 29.1058C119.544 29.9565 118.981 30.7572 118.493 31.5673C118.403 31.7182 118.309 31.8834 118.33 32.0581C118.347 32.1981 118.436 32.3167 118.521 32.4283C119.603 33.8421 120.187 34.74 121.75 35.5585C123.154 36.2934 124.524 37.0942 125.884 37.9066C127.633 38.952 129.365 40.0283 131.077 41.1339L133.837 32.4437C133.841 32.4316 131.112 31.4945 130.939 31.4347C129.505 30.9351 127.95 30.0111 126.536 31.0505Z" fill="#378DC0"/>
<path fill-rule="evenodd" clip-rule="evenodd" d="M136.332 31.9915C136.515 31.9751 136.698 31.963 136.88 31.9541C136.698 31.963 136.515 31.9751 136.332 31.9915ZM135.451 32.0923C135.685 32.0582 135.917 32.0312 136.15 32.0078C135.917 32.0312 135.685 32.0582 135.451 32.0923ZM141.487 28.6605L138.09 30.1962L134.795 30.0729L132.848 32.6531L132.705 32.8422C132.705 32.8422 129.699 38.8532 130.309 50.9472C132.589 45.8844 132.993 39.5895 135.217 34.5721C135.574 33.6794 136.081 32.6391 136.987 31.949C137.998 31.9088 138.985 31.9854 139.908 32.2315C139.445 35.4139 141.001 38.8924 144.135 40.5308C145.973 41.5832 148.053 41.4969 149.976 40.9263C150.043 40.7162 150.115 40.5079 150.197 40.3025C150.6 39.2888 150.853 38.1949 151.175 37.1522L143.475 27.7617L141.487 28.6605Z" fill="#296AA6"/>
<path fill-rule="evenodd" clip-rule="evenodd" d="M144.135 40.5307C141.001 38.8923 139.444 35.4138 139.908 32.2314C138.986 31.9853 138 31.9069 136.989 31.9465C136.082 32.6362 135.574 33.6783 135.217 34.572C132.993 39.5894 132.589 45.8843 130.309 50.9471C130.362 51.9953 130.439 53.0836 130.551 54.2234C132.696 54.5395 145.79 54.2262 145.898 54.2234C146.174 54.2168 147.027 48.5191 147.144 48.0485C147.184 48.4113 147.31 48.7647 147.509 49.0724C147.995 47.6124 148.481 46.1523 148.967 44.6923C149.381 43.4484 149.578 42.1546 149.975 40.9262C148.052 41.4968 145.972 41.5831 144.135 40.5307Z" fill="#378DC0"/>
<path fill-rule="evenodd" clip-rule="evenodd" d="M129.442 38.2056C129.049 38.9209 128.757 39.505 128.67 39.7978C128.255 41.1906 125.604 47.2161 124.601 48.8087C124.519 48.938 125.038 54.4 125.609 54.95L129.93 50.2501C129.93 50.2501 130.791 46.9434 131.774 43.2132C131.458 41.5954 130.898 40.042 130.066 38.6235C129.959 38.3041 129.729 38.1865 129.442 38.2056Z" fill="#DE4867"/>
<path fill-rule="evenodd" clip-rule="evenodd" d="M134.697 32.7394C134.32 32.7661 133.978 32.6428 133.731 32.231C133.618 32.0601 133.551 31.8897 133.521 31.7192C133.253 32.0802 133.048 32.358 133.048 32.358C132.383 33.2563 130.52 36.2413 129.442 38.2056C129.729 38.1864 129.959 38.3041 130.066 38.6235C130.898 40.0419 131.458 41.5954 131.774 43.2132C132.993 38.5828 134.4 33.2993 134.58 32.8692L134.697 32.7394Z" fill="#DC3954"/>
<path fill-rule="evenodd" clip-rule="evenodd" d="M135.182 29.8542C134.697 30.0667 134.449 30.4365 134.364 30.578C134.083 30.9585 133.801 31.3386 133.521 31.7191C133.551 31.8895 133.618 32.0599 133.731 32.2308C133.977 32.6426 134.32 32.7659 134.697 32.7393C134.998 32.6366 135.598 32.3868 136.138 31.805C136.728 31.1695 136.925 30.4836 136.995 30.1713C136.827 30.0489 136.659 29.9271 136.492 29.8047C136.357 29.7585 135.797 29.5844 135.182 29.8542Z" fill="#DC3954"/>
<path fill-rule="evenodd" clip-rule="evenodd" d="M140.06 27.6422C140.52 28.3953 141.188 29.0154 141.955 29.5122C142.869 29.1157 143.555 28.8258 143.604 28.8258C143.764 28.8258 143.286 25.6863 143.286 25.6863L140.06 27.6422Z" fill="#296AA6"/>
<path fill-rule="evenodd" clip-rule="evenodd" d="M140.059 27.6421L136.492 29.8048L136.916 31.7341C136.916 31.7341 139.973 30.3721 141.955 29.5121C141.188 29.0153 140.52 28.3952 140.059 27.6421Z" fill="#378DC0"/>
<path fill-rule="evenodd" clip-rule="evenodd" d="M142.559 12.8C142.559 12.8 142.194 12.5441 142.105 12.5726C142.017 12.6011 141.828 12.9424 141.828 12.9424L142.204 15.2386V17.3878L141.94 14.7353L141.546 12.3839L141.208 12.1738C141.208 12.1738 140.674 12.3732 140.702 12.3839C140.73 12.3942 141.052 14.9347 141.052 14.9347V17.5223L140.549 15.0201L138.616 13.6866L138.344 13.6483L138.045 14.0807L139.576 15.5038L139.694 17.8561L138.354 15.9451L136.83 14.5583L136.385 14.6321C136.385 14.6321 136.351 14.8838 136.385 15.0304C136.42 15.1765 137.823 16.8131 137.823 16.8131L138.276 18.0051L138.507 20.8542L139.205 23.4334L143.663 22.9833L143.628 18.4374L143.663 15.9325L142.559 12.8Z" fill="#F1C2BD"/>
<path fill-rule="evenodd" clip-rule="evenodd" d="M143.341 21.4317C142.929 21.5993 142.517 21.7623 142.11 21.9257C141.266 22.2647 140.381 22.5528 139.561 22.9492C139.283 23.0846 139.019 23.2461 138.753 23.3993C138.896 24.0133 139.141 24.6357 139.435 25.1964C141.299 24.1608 143.263 23.431 145.165 22.6037C144.618 22.1064 143.769 21.3383 143.637 21.3766C143.636 21.3771 143.525 21.3976 143.341 21.4317Z" fill="#296AA6"/>
<path fill-rule="evenodd" clip-rule="evenodd" d="M153.372 29.8049C151.156 28.1222 149.208 26.1542 147.118 24.2977C147.133 24.5606 147.147 24.8235 147.162 25.0863C146.543 24.4695 146.334 23.4974 145.621 23.0086C145.575 22.9759 145.396 22.8134 145.165 22.6038C143.263 23.4311 141.299 24.1609 139.435 25.1965C139.722 25.7442 140.056 26.2326 140.386 26.594C140.852 27.1025 141.592 28.0722 142.083 28.555C142.542 29.0047 142.918 29.7858 143.632 29.7928C143.997 29.7965 144.347 29.6574 144.685 29.5211C144.403 29.9842 144.121 30.4469 143.839 30.9101C144.354 30.8116 144.858 30.6458 145.331 30.4189C145.015 30.8494 144.7 31.2799 144.384 31.7099C144.662 31.7618 144.96 31.6903 145.185 31.519C144.303 32.1918 143.744 33.1863 143.301 34.1836C143.056 34.7346 142.857 35.3033 142.646 35.8678C142.333 36.7026 142.706 36.8259 143.17 37.4184C144.14 38.6581 144.077 39.7502 145.734 40.239C147.729 40.8273 150.892 40.3903 151.628 38.0735C152.147 36.4351 153.2 34.6244 153.235 32.8866C152.962 33.1732 152.689 33.4595 152.416 33.7461C152.473 33.367 153.54 29.9329 153.372 29.8049Z" fill="#378DC0"/>
<path fill-rule="evenodd" clip-rule="evenodd" d="M147.803 112.931C147.281 112.55 142.064 112 141.994 112.375C141.894 112.916 141.793 113.457 141.693 113.999C141.642 114.271 141.592 114.542 141.542 114.813C141.387 115.646 141.232 116.482 140.952 117.28C140.066 119.803 136.532 122.274 134.147 123.54C133.898 123.671 133.597 123.923 133.731 124.171C133.778 124.258 133.87 124.311 133.957 124.357C134.152 124.46 134.373 124.547 134.607 124.625C138.911 125.009 143.489 123.22 146.135 119.242C146.531 118.645 147.473 118.321 148.399 118.176C149.235 116.484 149.105 113.876 147.803 112.931Z" fill="#0D181A"/>
<path fill-rule="evenodd" clip-rule="evenodd" d="M146.135 119.242C143.489 123.219 138.911 125.009 134.607 124.625C136.601 125.289 139.845 125.055 141.431 124.044C142.462 123.388 143.377 122.575 144.24 121.714C144.962 120.994 145.637 119.811 146.695 119.62C146.863 119.589 147.039 119.576 147.191 119.498C147.704 119.238 148.109 118.762 148.399 118.176C147.473 118.321 146.531 118.645 146.135 119.242Z" fill="#2F3432"/>
<path fill-rule="evenodd" clip-rule="evenodd" d="M143.286 68.9432L145.768 55.9607L132.226 56.4341C132.242 56.3445 132.255 56.2544 132.272 56.1643L130.61 56.2226C130.61 56.2226 129.548 72.7158 129.548 73.0357C129.548 76.2247 130.54 79.5 131.149 82.6055C131.427 82.2516 131.611 81.8234 131.675 81.377C131.616 82.8324 131.557 84.2873 131.498 85.7417C131.483 86.0998 131.469 86.4636 131.553 86.8114C131.645 87.1938 131.851 87.5375 132.041 87.8811C133.179 89.9365 133.333 92.0273 134.099 94.1662C134.934 96.4933 135.787 98.8143 136.63 101.139C137.942 104.753 139.255 108.367 140.563 111.983H141.54C141.559 112.073 141.579 112.163 141.597 112.253H148.132C147.017 107.341 140.431 85.1847 140.526 84.9526C140.632 84.6921 143.286 68.9432 143.286 68.9432Z" fill="#2C3139"/>
<path fill-rule="evenodd" clip-rule="evenodd" d="M145.394 89.3213C146.01 85.8754 146.494 82.2298 146.558 78.727C146.605 76.1922 146.651 73.6573 146.698 71.1248C146.43 71.2989 146.161 71.4735 145.893 71.6482C147.323 68.6259 147.244 65.1847 147.426 61.9201L145.674 54.3645L145.058 54.4084L143.745 54.5008L140.018 54.7628L132.639 55.2815L130.546 55.4286L132.032 67.2405L137.341 88.3104L141.162 113.849L141.901 113.783L146.863 113.338L148.276 113.211C148.28 109.297 148.284 105.383 148.286 101.469C148.291 96.9319 147.711 92.3753 146.327 88.0611C145.874 88.3463 145.538 88.8081 145.394 89.3213Z" fill="#363C44"/>
<path fill-rule="evenodd" clip-rule="evenodd" d="M145.394 89.3213C146.01 85.8754 146.494 82.2298 146.558 78.727C146.605 76.1922 146.651 73.6573 146.698 71.1248C146.43 71.2989 146.161 71.4735 145.893 71.6482C147.322 68.6259 147.244 65.1847 147.426 61.9201L145.674 54.3645L145.058 54.4084C146.715 61.0306 145.663 67.4875 143.711 73.9444C144.348 73.7315 145.197 73.3062 145.197 73.5191C146.47 79.4778 142.436 85.6499 144.772 90.7575C145.197 91.3957 146.47 94.1627 146.47 95.653C146.131 101.611 146.876 107.434 146.863 113.338L148.276 113.211C148.28 109.297 148.284 105.383 148.286 101.469C148.29 96.9319 147.711 92.3753 146.327 88.0611C145.874 88.3463 145.538 88.8081 145.394 89.3213Z" fill="#3C424A"/>
<path fill-rule="evenodd" clip-rule="evenodd" d="M140.019 54.7627C141.112 57.8891 143.386 64.3119 143.664 64.4735C143.908 64.6164 143.826 58.5573 143.745 54.5007L140.019 54.7627Z" fill="#2C3139"/>
<path fill-rule="evenodd" clip-rule="evenodd" d="M130.546 54.3644V56.493L146.13 56.3287L145.898 54.2234L130.546 54.3644Z" fill="#2C3139"/>
<path fill-rule="evenodd" clip-rule="evenodd" d="M133.377 21.3758L135.076 18.9651L132.811 20.5255L133.377 21.3758Z" fill="#211A18"/>
<path fill-rule="evenodd" clip-rule="evenodd" d="M130.082 21.6263L131.254 22.1217V21.3756L129.869 20.8713L130.082 21.6263Z" fill="#211A18"/>
<path fill-rule="evenodd" clip-rule="evenodd" d="M132.316 26.347L131.848 26.8666L132.358 27.5992L132.811 26.6645L134.697 26.347L137.595 27.6422V26.8666L133.943 25.6863L132.316 26.347Z" fill="#211A18"/>
<path fill-rule="evenodd" clip-rule="evenodd" d="M136.995 27.8063L135.076 29.0647L134.368 29.145L132.811 28.2004L134.208 29.8201L135.403 30.2091L138.85 28.0692L137.595 26.8665L136.995 27.8063Z" fill="#211A18"/>
</svg>
