<svg width="295" height="306" viewBox="0 0 295 306" fill="none" xmlns="http://www.w3.org/2000/svg">
<path fill-rule="evenodd" clip-rule="evenodd" d="M210.449 234.154C208.487 234.153 206.895 232.562 206.895 230.6C206.895 228.638 208.485 227.047 210.447 227.048C212.409 227.048 214.001 228.64 214.001 230.602C214.001 232.564 212.411 234.154 210.449 234.154Z" fill="#C2E9FF"/>
<path fill-rule="evenodd" clip-rule="evenodd" d="M210.454 256.765C208.494 256.766 206.901 255.173 206.902 253.212C206.901 251.25 208.492 249.66 210.454 249.66C212.415 249.659 214.007 251.252 214.006 253.212C214.007 255.174 212.416 256.765 210.454 256.765Z" fill="#C2E9FF"/>
<path fill-rule="evenodd" clip-rule="evenodd" d="M210.46 279.378C208.499 279.376 206.908 277.785 206.906 275.824C206.905 273.86 208.496 272.269 210.459 272.271C212.421 272.271 214.013 273.863 214.013 275.825C214.014 277.787 212.423 279.377 210.46 279.378Z" fill="#C2E9FF"/>
<path fill-rule="evenodd" clip-rule="evenodd" d="M210.466 301.988C208.503 301.989 206.912 300.398 206.913 298.434C206.911 296.471 208.501 294.88 210.465 294.882C212.427 294.883 214.018 296.474 214.019 298.436C214.019 300.398 212.429 301.989 210.466 301.988Z" fill="#C2E9FF"/>
<path fill-rule="evenodd" clip-rule="evenodd" d="M194.615 211.539C192.653 211.539 191.062 209.947 191.061 207.985C191.061 206.023 192.653 204.431 194.614 204.433C196.577 204.432 198.168 206.023 198.167 207.987C198.171 209.949 196.579 211.541 194.615 211.539Z" fill="#C2E9FF"/>
<path fill-rule="evenodd" clip-rule="evenodd" d="M210.213 211.536C208.251 211.536 206.66 209.944 206.66 207.982C206.659 206.02 208.251 204.428 210.212 204.43C212.175 204.429 213.766 206.021 213.766 207.984C213.769 209.946 212.177 211.538 210.213 211.536Z" fill="#C2E9FF"/>
<path fill-rule="evenodd" clip-rule="evenodd" d="M194.621 234.15C192.659 234.149 191.067 232.558 191.067 230.596C191.066 228.634 192.657 227.043 194.619 227.044C196.582 227.043 198.174 228.634 198.173 230.598C198.175 232.561 196.584 234.152 194.621 234.15Z" fill="#C2E9FF"/>
<path fill-rule="evenodd" clip-rule="evenodd" d="M194.626 256.761C192.664 256.761 191.073 255.169 191.072 253.207C191.073 251.247 192.664 249.656 194.624 249.655C196.586 249.656 198.178 251.247 198.178 253.209C198.179 255.171 196.588 256.762 194.626 256.761Z" fill="#C2E9FF"/>
<path fill-rule="evenodd" clip-rule="evenodd" d="M194.633 279.373C192.669 279.374 191.078 277.783 191.079 275.82C191.079 273.858 192.669 272.267 194.631 272.267C196.593 272.268 198.185 273.859 198.185 275.821C198.184 277.782 196.594 279.372 194.633 279.373Z" fill="#C2E9FF"/>
<path fill-rule="evenodd" clip-rule="evenodd" d="M194.638 301.984C192.675 301.985 191.083 300.394 191.084 298.431C191.084 296.469 192.674 294.878 194.635 294.88C196.598 294.879 198.19 296.47 198.189 298.434C198.191 300.394 196.6 301.985 194.638 301.984Z" fill="#C2E9FF"/>
<path fill-rule="evenodd" clip-rule="evenodd" d="M178.784 188.924C176.819 188.923 175.228 187.332 175.229 185.368C175.228 183.406 176.819 181.816 178.781 181.816C180.743 181.817 182.334 183.408 182.336 185.372C182.335 187.332 180.745 188.923 178.784 188.924Z" fill="#C2E9FF"/>
<path fill-rule="evenodd" clip-rule="evenodd" d="M178.789 211.535C176.825 211.535 175.233 209.943 175.234 207.98C175.232 206.019 176.823 204.429 178.785 204.429C180.748 204.428 182.34 206.02 182.34 207.984C182.341 209.946 180.75 211.537 178.789 211.535Z" fill="#C2E9FF"/>
<path fill-rule="evenodd" clip-rule="evenodd" d="M178.792 234.146C176.83 234.145 175.239 232.554 175.238 230.592C175.238 228.63 176.828 227.039 178.792 227.038C180.754 227.039 182.345 228.63 182.346 230.592C182.346 232.557 180.756 234.148 178.792 234.146Z" fill="#C2E9FF"/>
<path fill-rule="evenodd" clip-rule="evenodd" d="M178.797 256.757C176.835 256.757 175.244 255.165 175.244 253.203C175.244 251.243 176.835 249.652 178.796 249.651C180.758 249.652 182.349 251.243 182.35 253.205C182.351 255.168 180.761 256.759 178.797 256.757Z" fill="#C2E9FF"/>
<path fill-rule="evenodd" clip-rule="evenodd" d="M178.803 279.368C176.842 279.369 175.251 277.778 175.25 275.816C175.25 273.854 176.841 272.263 178.803 272.264C180.765 272.264 182.356 273.855 182.355 275.816C182.357 277.779 180.766 279.37 178.803 279.368Z" fill="#C2E9FF"/>
<path fill-rule="evenodd" clip-rule="evenodd" d="M178.81 301.98C176.848 301.98 175.256 300.389 175.256 298.426C175.255 296.464 176.845 294.875 178.808 294.874C180.77 294.875 182.361 296.466 182.362 298.428C182.362 300.393 180.773 301.982 178.81 301.98Z" fill="#C2E9FF"/>
<path fill-rule="evenodd" clip-rule="evenodd" d="M162.954 188.919C160.991 188.92 159.401 187.33 159.4 185.365C159.4 183.403 160.99 181.812 162.953 181.813C164.916 181.815 166.506 183.405 166.506 185.367C166.507 187.329 164.916 188.919 162.954 188.919Z" fill="#C2E9FF"/>
<path fill-rule="evenodd" clip-rule="evenodd" d="M162.96 211.532C160.998 211.529 159.408 209.939 159.405 207.977C159.406 206.014 160.995 204.425 162.958 204.424C164.922 204.426 166.512 206.015 166.514 207.979C166.513 209.942 164.923 211.532 162.96 211.532Z" fill="#C2E9FF"/>
<path fill-rule="evenodd" clip-rule="evenodd" d="M162.966 234.144C161.002 234.142 159.412 232.552 159.41 230.588C159.411 228.625 161 227.036 162.964 227.035C164.926 227.038 166.516 228.628 166.519 230.59C166.518 232.554 164.929 234.143 162.966 234.144Z" fill="#C2E9FF"/>
<path fill-rule="evenodd" clip-rule="evenodd" d="M162.971 256.755C161.007 256.753 159.416 255.161 159.415 253.199C159.415 251.237 161.006 249.647 162.968 249.647C164.93 249.648 166.521 251.239 166.523 253.203C166.523 255.165 164.933 256.755 162.971 256.755Z" fill="#C2E9FF"/>
<path fill-rule="evenodd" clip-rule="evenodd" d="M162.975 279.364C161.014 279.365 159.421 277.772 159.422 275.812C159.422 273.85 161.012 272.259 162.974 272.26C164.935 272.259 166.528 273.851 166.527 275.812C166.529 277.775 164.938 279.366 162.975 279.364Z" fill="#C2E9FF"/>
<path fill-rule="evenodd" clip-rule="evenodd" d="M162.98 301.978C161.02 301.976 159.428 300.385 159.426 298.424C159.427 296.461 161.018 294.87 162.98 294.871C164.942 294.871 166.533 296.463 166.534 298.425C166.536 300.388 164.945 301.979 162.98 301.978Z" fill="#C2E9FF"/>
<path fill-rule="evenodd" clip-rule="evenodd" d="M147.121 166.304C145.159 166.303 143.567 164.712 143.567 162.75C143.565 160.786 145.156 159.196 147.119 159.198C149.081 159.198 150.672 160.79 150.673 162.752C150.673 164.714 149.083 166.304 147.121 166.304Z" fill="#C2E9FF"/>
<path fill-rule="evenodd" clip-rule="evenodd" d="M147.126 188.915C145.166 188.916 143.573 187.323 143.574 185.363C143.572 183.399 145.162 181.809 147.126 181.81C149.087 181.81 150.679 183.402 150.678 185.363C150.679 187.325 149.088 188.916 147.126 188.915Z" fill="#C2E9FF"/>
<path fill-rule="evenodd" clip-rule="evenodd" d="M147.131 211.529C145.169 211.528 143.578 209.937 143.576 207.973C143.577 206.01 145.168 204.419 147.13 204.42C149.093 204.422 150.685 206.013 150.685 207.975C150.685 209.937 149.095 211.528 147.131 211.529Z" fill="#C2E9FF"/>
<path fill-rule="evenodd" clip-rule="evenodd" d="M147.137 234.14C145.174 234.138 143.584 232.548 143.582 230.584C143.583 228.621 145.173 227.03 147.134 227.032C149.099 227.033 150.689 228.623 150.689 230.587C150.691 232.548 149.101 234.139 147.137 234.14Z" fill="#C2E9FF"/>
<path fill-rule="evenodd" clip-rule="evenodd" d="M210.405 144.474C208.443 144.474 206.852 142.883 206.852 140.921C206.851 138.959 208.442 137.368 210.404 137.368C212.366 137.369 213.957 138.96 213.958 140.922C213.958 142.884 212.367 144.475 210.405 144.474Z" fill="#C2E9FF"/>
<path fill-rule="evenodd" clip-rule="evenodd" d="M194.577 144.471C192.615 144.47 191.024 142.879 191.023 140.917C191.023 138.955 192.613 137.364 194.575 137.365C196.539 137.364 198.13 138.955 198.129 140.919C198.131 142.882 196.541 144.473 194.577 144.471Z" fill="#C2E9FF"/>
<path fill-rule="evenodd" clip-rule="evenodd" d="M178.749 144.467C176.787 144.467 175.195 142.875 175.195 140.913C175.194 138.951 176.785 137.361 178.748 137.36C180.71 137.36 182.302 138.952 182.302 140.914C182.303 142.878 180.712 144.469 178.749 144.467Z" fill="#C2E9FF"/>
<path fill-rule="evenodd" clip-rule="evenodd" d="M162.922 144.465C160.959 144.463 159.369 142.873 159.367 140.909C159.368 138.946 160.957 137.357 162.92 137.356C164.882 137.359 166.472 138.949 166.476 140.911C166.475 142.874 164.885 144.464 162.922 144.465Z" fill="#C2E9FF"/>
<path fill-rule="evenodd" clip-rule="evenodd" d="M210.416 165.689C208.454 165.688 206.862 164.097 206.862 162.135C206.861 160.173 208.452 158.582 210.414 158.583C212.376 158.583 213.967 160.175 213.968 162.137C213.968 164.099 212.378 165.689 210.416 165.689Z" fill="#C2E9FF"/>
<path fill-rule="evenodd" clip-rule="evenodd" d="M194.587 165.685C192.625 165.685 191.034 164.093 191.034 162.131C191.033 160.169 192.624 158.579 194.586 158.579C196.549 158.578 198.141 160.169 198.14 162.133C198.141 164.096 196.551 165.687 194.587 165.685Z" fill="#C2E9FF"/>
<path fill-rule="evenodd" clip-rule="evenodd" d="M210.427 189.796C208.465 189.796 206.874 188.204 206.873 186.242C206.873 184.28 208.464 182.69 210.426 182.69C212.388 182.691 213.979 184.282 213.979 186.244C213.98 188.206 212.389 189.797 210.427 189.796Z" fill="#C2E9FF"/>
<path fill-rule="evenodd" clip-rule="evenodd" d="M194.599 189.792C192.637 189.792 191.046 188.201 191.045 186.239C191.045 184.277 192.635 182.686 194.597 182.686C196.561 182.686 198.152 184.277 198.151 186.24C198.153 188.204 196.563 189.794 194.599 189.792Z" fill="#C2E9FF"/>
<path fill-rule="evenodd" clip-rule="evenodd" d="M178.759 165.681C176.797 165.681 175.206 164.09 175.205 162.128C175.205 160.166 176.795 158.575 178.759 158.574C180.721 158.575 182.312 160.166 182.313 162.128C182.313 164.093 180.722 165.683 178.759 165.681Z" fill="#C2E9FF"/>
<path fill-rule="evenodd" clip-rule="evenodd" d="M162.932 165.679C160.969 165.677 159.379 164.087 159.377 162.124C159.378 160.16 160.967 158.571 162.931 158.57C164.893 158.573 166.483 160.163 166.486 162.125C166.485 164.089 164.896 165.678 162.932 165.679Z" fill="#C2E9FF"/>
<path fill-rule="evenodd" clip-rule="evenodd" d="M147.094 144.461C145.13 144.459 143.54 142.869 143.538 140.906C143.539 138.942 145.13 137.352 147.091 137.353C149.055 137.354 150.645 138.944 150.646 140.909C150.648 142.869 149.057 144.46 147.094 144.461Z" fill="#C2E9FF"/>
<path fill-rule="evenodd" clip-rule="evenodd" d="M131.665 144.454C129.702 144.452 128.112 142.862 128.11 140.898C128.111 138.935 129.701 137.344 131.662 137.346C133.627 137.347 135.217 138.937 135.217 140.901C135.219 142.862 133.628 144.453 131.665 144.454Z" fill="#C2E9FF"/>
<path fill-rule="evenodd" clip-rule="evenodd" d="M147.143 256.751C145.179 256.749 143.589 255.159 143.587 253.196C143.587 251.234 145.177 249.643 147.139 249.643C149.104 249.644 150.694 251.234 150.695 253.199C150.695 255.161 149.105 256.751 147.143 256.751Z" fill="#C2E9FF"/>
<path fill-rule="evenodd" clip-rule="evenodd" d="M147.148 279.362C145.185 279.36 143.595 277.77 143.594 275.808C143.594 273.846 145.184 272.255 147.146 272.256C149.108 272.256 150.698 273.846 150.7 275.81C150.701 277.772 149.11 279.362 147.148 279.362Z" fill="#C2E9FF"/>
<path fill-rule="evenodd" clip-rule="evenodd" d="M147.155 301.974C145.191 301.973 143.6 300.381 143.6 298.419C143.599 296.457 145.19 294.867 147.152 294.867C149.114 294.867 150.705 296.459 150.707 298.422C150.706 300.383 149.115 301.973 147.155 301.974Z" fill="#C2E9FF"/>
<path fill-rule="evenodd" clip-rule="evenodd" d="M131.293 166.3C129.331 166.3 127.739 164.708 127.739 162.746C127.737 160.783 129.328 159.192 131.291 159.194C133.253 159.195 134.844 160.786 134.845 162.748C134.845 164.71 133.255 166.301 131.293 166.3Z" fill="#C2E9FF"/>
<path fill-rule="evenodd" clip-rule="evenodd" d="M131.298 188.911C129.336 188.911 127.745 187.319 127.744 185.357C127.744 183.395 129.334 181.805 131.296 181.805C133.258 181.805 134.85 183.397 134.85 185.359C134.851 187.321 133.26 188.911 131.298 188.911Z" fill="#C2E9FF"/>
<path fill-rule="evenodd" clip-rule="evenodd" d="M131.305 211.523C129.341 211.524 127.75 209.933 127.751 207.97C127.749 206.006 129.34 204.416 131.303 204.417C133.265 204.418 134.857 206.009 134.857 207.971C134.856 209.932 133.265 211.522 131.305 211.523Z" fill="#C2E9FF"/>
<path fill-rule="evenodd" clip-rule="evenodd" d="M131.31 234.134C129.347 234.135 127.755 232.544 127.756 230.581C127.753 228.618 129.345 227.026 131.307 227.03C133.27 227.029 134.862 228.62 134.861 230.584C134.863 232.544 133.271 234.136 131.31 234.134Z" fill="#C2E9FF"/>
<path fill-rule="evenodd" clip-rule="evenodd" d="M131.314 256.747C129.352 256.747 127.761 255.155 127.759 253.192C127.758 251.23 129.349 249.639 131.311 249.64C133.276 249.64 134.867 251.231 134.866 253.195C134.867 255.157 133.276 256.747 131.314 256.747Z" fill="#C2E9FF"/>
<path fill-rule="evenodd" clip-rule="evenodd" d="M131.319 279.358C129.357 279.358 127.766 277.766 127.764 275.803C127.765 273.842 129.356 272.252 131.316 272.251C133.28 272.253 134.871 273.844 134.871 275.806C134.872 277.768 133.281 279.359 131.319 279.358Z" fill="#C2E9FF"/>
<path fill-rule="evenodd" clip-rule="evenodd" d="M131.326 301.971C129.363 301.969 127.773 300.379 127.771 298.415C127.77 296.453 129.361 294.863 131.323 294.863C133.287 294.865 134.876 296.455 134.878 298.418C134.877 300.379 133.287 301.97 131.326 301.971Z" fill="#C2E9FF"/>
<path fill-rule="evenodd" clip-rule="evenodd" d="M115.459 143.685C113.497 143.685 111.905 142.093 111.905 140.131C111.904 138.169 113.495 136.579 115.457 136.579C117.42 136.578 119.012 138.169 119.011 140.133C119.011 142.095 117.421 143.685 115.459 143.685Z" fill="#C2E9FF"/>
<path fill-rule="evenodd" clip-rule="evenodd" d="M115.464 166.296C113.502 166.296 111.911 164.704 111.91 162.742C111.91 160.78 113.5 159.19 115.462 159.19C117.424 159.191 119.016 160.782 119.016 162.744C119.017 164.706 117.426 166.297 115.464 166.296Z" fill="#C2E9FF"/>
<path fill-rule="evenodd" clip-rule="evenodd" d="M115.47 188.908C113.508 188.907 111.916 187.316 111.916 185.354C111.917 183.393 113.507 181.802 115.468 181.802C117.43 181.802 119.021 183.393 119.022 185.355C119.022 187.317 117.432 188.908 115.47 188.908Z" fill="#C2E9FF"/>
<path fill-rule="evenodd" clip-rule="evenodd" d="M115.475 211.518C113.513 211.521 111.921 209.929 111.922 207.966C111.922 206.004 113.512 204.413 115.474 204.414C117.436 204.414 119.028 206.006 119.027 207.966C119.027 209.928 117.437 211.519 115.475 211.518Z" fill="#C2E9FF"/>
<path fill-rule="evenodd" clip-rule="evenodd" d="M115.48 234.132C113.52 234.13 111.928 232.539 111.926 230.578C111.926 228.614 113.515 227.024 115.48 227.025C117.442 227.025 119.033 228.617 119.034 230.579C119.033 232.542 117.444 234.131 115.48 234.132Z" fill="#C2E9FF"/>
<path fill-rule="evenodd" clip-rule="evenodd" d="M115.486 256.743C113.524 256.743 111.932 255.151 111.932 253.189C111.931 251.224 113.521 249.635 115.485 249.636C117.446 249.637 119.037 251.229 119.039 253.189C119.038 255.153 117.449 256.742 115.486 256.743Z" fill="#C2E9FF"/>
<path fill-rule="evenodd" clip-rule="evenodd" d="M115.491 279.354C113.529 279.354 111.938 277.763 111.938 275.801C111.936 273.837 113.526 272.247 115.49 272.248C117.452 272.249 119.043 273.84 119.044 275.802C119.044 277.764 117.453 279.355 115.491 279.354Z" fill="#C2E9FF"/>
<path fill-rule="evenodd" clip-rule="evenodd" d="M115.497 301.965C113.536 301.966 111.945 300.375 111.944 298.413C111.942 296.45 113.533 294.859 115.496 294.861C117.46 294.86 119.051 296.451 119.049 298.413C119.049 300.375 117.459 301.966 115.497 301.965Z" fill="#C2E9FF"/>
<path fill-rule="evenodd" clip-rule="evenodd" d="M99.6304 143.682C97.6684 143.681 96.077 142.09 96.0765 140.128C96.0761 138.166 97.6667 136.575 99.6287 136.576C101.592 136.575 103.183 138.166 103.183 140.129C103.184 142.093 101.594 143.683 99.6304 143.682Z" fill="#C2E9FF"/>
<path fill-rule="evenodd" clip-rule="evenodd" d="M99.6358 166.292C97.6738 166.292 96.0825 164.701 96.082 162.739C96.0815 160.776 97.6721 159.186 99.6341 159.186C101.596 159.187 103.188 160.778 103.188 162.74C103.19 164.704 101.599 166.294 99.6358 166.292Z" fill="#C2E9FF"/>
<path fill-rule="evenodd" clip-rule="evenodd" d="M99.6412 188.904C97.6792 188.903 96.0878 187.312 96.0874 185.35C96.0869 183.388 97.6775 181.797 99.6395 181.798C101.602 181.798 103.193 183.39 103.193 185.352C103.195 187.315 101.605 188.906 99.6412 188.904Z" fill="#C2E9FF"/>
<path fill-rule="evenodd" clip-rule="evenodd" d="M99.6466 211.515C97.686 211.516 96.0933 209.923 96.0942 207.962C96.0937 206 97.6843 204.41 99.6463 204.41C101.607 204.409 103.2 206.002 103.199 207.962C103.199 209.924 101.609 211.515 99.6466 211.515Z" fill="#C2E9FF"/>
<path fill-rule="evenodd" clip-rule="evenodd" d="M99.652 234.128C97.6914 234.126 96.1 232.535 96.0982 230.574C96.0991 228.611 97.6883 227.022 99.6517 227.021C101.614 227.021 103.205 228.613 103.206 230.575C103.205 232.538 101.615 234.127 99.652 234.128Z" fill="#C2E9FF"/>
<path fill-rule="evenodd" clip-rule="evenodd" d="M99.6575 256.739C97.6954 256.739 96.1041 255.148 96.1036 253.186C96.1045 251.222 97.6951 249.632 99.6572 249.632C101.618 249.634 103.209 251.225 103.211 253.186C103.211 255.148 101.621 256.739 99.6575 256.739Z" fill="#C2E9FF"/>
<path fill-rule="evenodd" clip-rule="evenodd" d="M99.6632 279.351C97.7012 279.35 96.1098 277.759 96.1093 275.797C96.1075 273.833 97.6981 272.243 99.6615 272.245C101.625 272.244 103.216 273.835 103.215 275.798C103.216 277.76 101.625 279.351 99.6632 279.351Z" fill="#C2E9FF"/>
<path fill-rule="evenodd" clip-rule="evenodd" d="M99.6682 301.961C97.7076 301.962 96.1148 300.37 96.1158 298.409C96.1139 296.446 97.7045 294.855 99.6679 294.857C101.629 294.856 103.221 296.449 103.22 298.409C103.221 300.371 101.63 301.962 99.6682 301.961Z" fill="#C2E9FF"/>
<path fill-rule="evenodd" clip-rule="evenodd" d="M83.8033 143.679C81.8399 143.677 80.2485 142.086 80.2481 140.124C80.249 138.16 81.8382 136.571 83.8016 136.57C85.7636 136.571 87.355 138.162 87.3569 140.125C87.3559 142.089 85.7668 143.678 83.8033 143.679Z" fill="#C2E9FF"/>
<path fill-rule="evenodd" clip-rule="evenodd" d="M83.8077 166.288C81.8457 166.288 80.2543 164.697 80.2539 162.735C80.2534 160.773 81.844 159.182 83.806 159.182C85.768 159.183 87.3594 160.774 87.3599 162.736C87.3617 164.7 85.7711 166.29 83.8077 166.288Z" fill="#C2E9FF"/>
<path fill-rule="evenodd" clip-rule="evenodd" d="M83.813 188.9C81.851 188.899 80.2596 187.308 80.2592 185.346C80.2587 183.384 81.8493 181.793 83.8113 181.794C85.7747 181.793 87.3661 183.384 87.3652 185.348C87.367 187.311 85.7764 188.902 83.813 188.9Z" fill="#C2E9FF"/>
<path fill-rule="evenodd" clip-rule="evenodd" d="M83.8185 211.511C81.8565 211.51 80.2651 209.919 80.2661 207.958C80.2656 205.996 81.8562 204.406 83.8182 204.406C85.7788 204.405 87.3702 205.997 87.3707 207.959C87.3725 209.922 85.7819 211.513 83.8185 211.511Z" fill="#C2E9FF"/>
<path fill-rule="evenodd" clip-rule="evenodd" d="M83.8253 234.123C81.8619 234.124 80.2705 232.533 80.2714 230.57C80.271 228.608 81.8616 227.017 83.8236 227.017C85.7856 227.018 87.377 228.609 87.3774 230.571C87.3779 232.533 85.7873 234.124 83.8253 234.123Z" fill="#C2E9FF"/>
<path fill-rule="evenodd" clip-rule="evenodd" d="M83.8305 256.734C81.8671 256.735 80.2757 255.144 80.2767 253.181C80.2762 251.219 81.8668 249.628 83.8274 249.63C85.7909 249.629 87.3822 251.22 87.3813 253.184C87.3832 255.144 85.7926 256.735 83.8305 256.734Z" fill="#C2E9FF"/>
<path fill-rule="evenodd" clip-rule="evenodd" d="M83.8346 279.347C81.8726 279.346 80.2813 277.755 80.2808 275.793C80.2803 273.831 81.8709 272.24 83.8343 272.239C85.7964 272.24 87.3877 273.831 87.3882 275.793C87.3873 277.756 85.7967 279.347 83.8346 279.347Z" fill="#C2E9FF"/>
<path fill-rule="evenodd" clip-rule="evenodd" d="M83.8399 301.958C81.8778 301.957 80.2865 300.366 80.286 298.404C80.287 296.443 81.8775 294.853 83.8382 294.852C85.8002 294.852 87.3915 296.444 87.392 298.406C87.3925 300.368 85.8019 301.958 83.8399 301.958Z" fill="#C2E9FF"/>
<path fill-rule="evenodd" clip-rule="evenodd" d="M67.9752 143.675C66.0118 143.673 64.4218 142.083 64.4199 140.12C64.4209 138.156 66.0115 136.566 67.9735 136.566C69.9369 136.568 71.5269 138.158 71.5288 140.122C71.5278 142.082 69.9372 143.673 67.9752 143.675Z" fill="#C2E9FF"/>
<path fill-rule="evenodd" clip-rule="evenodd" d="M67.9809 166.287C66.0175 166.285 64.4275 164.695 64.4257 162.731C64.4252 160.769 66.0158 159.179 67.9778 159.179C69.9426 159.18 71.5326 160.77 71.5331 162.734C71.5335 164.696 69.9429 166.287 67.9809 166.287Z" fill="#C2E9FF"/>
<path fill-rule="evenodd" clip-rule="evenodd" d="M67.9863 188.897C66.0229 188.895 64.4315 187.304 64.431 185.342C64.4306 183.38 66.0212 181.789 67.9832 181.79C69.9466 181.789 71.538 183.38 71.5384 185.345C71.5389 187.307 69.9483 188.898 67.9863 188.897Z" fill="#C2E9FF"/>
<path fill-rule="evenodd" clip-rule="evenodd" d="M67.9917 211.509C66.0282 211.507 64.4369 209.915 64.4364 207.953C64.4373 205.993 66.0279 204.402 67.9886 204.401C69.9506 204.402 71.5419 205.993 71.5438 207.956C71.5443 209.918 69.9537 211.509 67.9917 211.509Z" fill="#C2E9FF"/>
<path fill-rule="evenodd" clip-rule="evenodd" d="M67.9972 234.12C66.0337 234.12 64.4424 232.529 64.4433 230.566C64.4428 228.604 66.0334 227.013 67.9955 227.014C69.9575 227.014 71.5489 228.605 71.5493 230.567C71.5498 232.529 69.9592 234.12 67.9972 234.12Z" fill="#C2E9FF"/>
<path fill-rule="evenodd" clip-rule="evenodd" d="M68.0025 256.73C66.0405 256.73 64.4492 255.139 64.4487 253.176C64.4482 251.214 66.0374 249.625 68.0008 249.624C69.9629 249.625 71.5542 251.216 71.5547 253.178C71.5552 255.143 69.966 256.732 68.0025 256.73Z" fill="#C2E9FF"/>
<path fill-rule="evenodd" clip-rule="evenodd" d="M68.0065 279.343C66.0445 279.343 64.4531 277.751 64.4527 275.789C64.4536 273.826 66.0428 272.237 68.0062 272.236C69.9682 272.236 71.5596 273.828 71.5601 275.79C71.5605 277.754 69.9713 279.344 68.0065 279.343Z" fill="#C2E9FF"/>
<path fill-rule="evenodd" clip-rule="evenodd" d="M68.0117 301.954C66.0497 301.953 64.4584 300.362 64.4579 298.4C64.4588 296.439 66.0494 294.849 68.01 294.848C69.9721 294.848 71.5634 296.44 71.5639 298.402C71.5658 300.365 69.9752 301.956 68.0117 301.954Z" fill="#C2E9FF"/>
<path fill-rule="evenodd" clip-rule="evenodd" d="M52.1471 143.669C50.1851 143.671 48.5937 142.08 48.5932 140.115C48.5928 138.153 50.1834 136.562 52.1454 136.563C54.1088 136.565 55.7002 138.156 55.6992 140.117C55.6997 142.079 54.1091 143.669 52.1471 143.669Z" fill="#C2E9FF"/>
<path fill-rule="evenodd" clip-rule="evenodd" d="M52.1523 166.283C50.1903 166.282 48.5989 164.691 48.5971 162.727C48.5966 160.765 50.1872 159.175 52.1492 159.175C54.114 159.176 55.7054 160.767 55.7045 162.73C55.7049 164.692 54.1143 166.283 52.1523 166.283Z" fill="#C2E9FF"/>
<path fill-rule="evenodd" clip-rule="evenodd" d="M52.1578 188.893C50.1943 188.892 48.6044 187.302 48.6025 185.338C48.602 183.376 50.1926 181.785 52.1546 181.786C54.1181 181.788 55.708 183.378 55.7099 185.341C55.7104 187.303 54.1198 188.894 52.1578 188.893Z" fill="#C2E9FF"/>
<path fill-rule="evenodd" clip-rule="evenodd" d="M52.1631 211.505C50.1997 211.503 48.6097 209.913 48.6079 207.949C48.6074 205.987 50.198 204.397 52.16 204.397C54.1234 204.399 55.7134 205.989 55.7153 207.953C55.7158 209.915 54.1252 211.505 52.1631 211.505Z" fill="#C2E9FF"/>
<path fill-rule="evenodd" clip-rule="evenodd" d="M52.1686 234.116C50.2065 234.115 48.6152 232.524 48.6147 230.562C48.6142 228.6 50.2048 227.009 52.1669 227.01C54.1289 227.01 55.7202 228.601 55.7207 230.563C55.7212 232.525 54.1306 234.116 52.1686 234.116Z" fill="#C2E9FF"/>
<path fill-rule="evenodd" clip-rule="evenodd" d="M52.1739 256.729C50.2119 256.726 48.6205 255.135 48.6187 253.174C48.6196 251.211 50.2088 249.621 52.1722 249.62C54.1342 249.621 55.7256 251.212 55.7275 253.176C55.7266 255.139 54.1374 256.728 52.1739 256.729Z" fill="#C2E9FF"/>
<path fill-rule="evenodd" clip-rule="evenodd" d="M52.1779 279.339C50.2159 279.339 48.6245 277.747 48.624 275.785C48.625 273.822 50.2156 272.231 52.1776 272.232C54.1396 272.232 55.731 273.824 55.7315 275.786C55.7333 277.749 54.1427 279.34 52.1779 279.339Z" fill="#C2E9FF"/>
<path fill-rule="evenodd" clip-rule="evenodd" d="M52.1837 301.95C50.2217 301.95 48.6303 300.358 48.6298 298.396C48.6294 296.434 50.22 294.844 52.182 294.844C54.144 294.845 55.7354 296.436 55.7358 298.398C55.7377 300.361 54.1471 301.952 52.1837 301.95Z" fill="#C2E9FF"/>
<path fill-rule="evenodd" clip-rule="evenodd" d="M36.3185 143.665C34.3564 143.667 32.7637 142.074 32.766 140.112C32.7641 138.149 34.3547 136.558 36.3168 136.562C38.2788 136.559 39.8715 138.152 39.8692 140.114C39.8711 142.075 38.2805 143.665 36.3185 143.665Z" fill="#C2E9FF"/>
<path fill-rule="evenodd" clip-rule="evenodd" d="M36.324 166.279C34.3619 166.278 32.7706 164.687 32.7701 162.725C32.7682 160.761 34.3588 159.171 36.3237 159.171C38.2857 159.172 39.8771 160.763 39.8775 162.725C39.8766 164.689 38.286 166.279 36.324 166.279Z" fill="#C2E9FF"/>
<path fill-rule="evenodd" clip-rule="evenodd" d="M36.3293 188.89C34.3673 188.889 32.7759 187.298 32.7754 185.336C32.775 183.371 34.3642 181.782 36.3276 181.784C38.2896 181.784 39.881 183.375 39.8814 185.337C39.8819 187.299 38.2927 188.889 36.3293 188.89Z" fill="#C2E9FF"/>
<path fill-rule="evenodd" clip-rule="evenodd" d="M36.335 211.501C34.373 211.5 32.7816 209.909 32.7797 207.946C32.7793 205.984 34.3699 204.393 36.3319 204.393C38.2953 204.395 39.8867 205.987 39.8872 207.949C39.8876 209.911 38.297 211.501 36.335 211.501Z" fill="#C2E9FF"/>
<path fill-rule="evenodd" clip-rule="evenodd" d="M36.3404 234.112C34.3784 234.111 32.7871 232.52 32.7866 230.558C32.7861 228.596 34.3767 227.005 36.3387 227.006C38.3008 227.006 39.8921 228.598 39.8926 230.56C39.8931 232.522 38.3025 234.112 36.3404 234.112Z" fill="#C2E9FF"/>
<path fill-rule="evenodd" clip-rule="evenodd" d="M36.3458 256.726C34.3838 256.723 32.7938 255.133 32.7905 253.171C32.7915 251.207 34.3821 249.617 36.3441 249.617C38.3075 249.619 39.8975 251.209 39.8994 253.172C39.8998 255.134 38.3092 256.725 36.3458 256.726Z" fill="#C2E9FF"/>
<path fill-rule="evenodd" clip-rule="evenodd" d="M36.3526 279.335C34.3878 279.335 32.7978 277.745 32.7973 275.78C32.7969 273.818 34.3875 272.227 36.3495 272.228C38.3129 272.23 39.9029 273.82 39.9047 275.783C39.9052 277.745 38.3146 279.336 36.3526 279.335Z" fill="#C2E9FF"/>
<path fill-rule="evenodd" clip-rule="evenodd" d="M36.3564 301.948C34.393 301.946 32.8016 300.354 32.8012 298.392C32.8007 296.43 34.3913 294.84 36.3533 294.84C38.3167 294.839 39.9081 296.431 39.9086 298.396C39.909 300.358 38.3184 301.948 36.3564 301.948Z" fill="#C2E9FF"/>
<path fill-rule="evenodd" clip-rule="evenodd" d="M20.4904 143.661C18.5284 143.661 16.937 142.069 16.9379 140.109C16.9375 138.147 18.5267 136.557 20.4901 136.556C22.4507 136.556 24.0421 138.147 24.0425 140.109C24.0416 142.072 22.4524 143.662 20.4904 143.661Z" fill="#C2E9FF"/>
<path fill-rule="evenodd" clip-rule="evenodd" d="M20.4958 166.275C18.5338 166.274 16.9425 164.683 16.942 162.721C16.9415 160.756 18.5321 159.166 20.4955 159.167C22.4576 159.168 24.0489 160.759 24.0494 162.721C24.0485 164.682 22.4579 166.272 20.4958 166.275Z" fill="#C2E9FF"/>
<path fill-rule="evenodd" clip-rule="evenodd" d="M20.5025 188.884C18.5391 188.885 16.9477 187.294 16.9486 185.331C16.9453 183.368 18.5374 181.776 20.4994 181.78C22.4628 181.779 24.0542 183.37 24.0532 185.334C24.0551 187.294 22.4631 188.886 20.5025 188.884Z" fill="#C2E9FF"/>
<path fill-rule="evenodd" clip-rule="evenodd" d="M20.5065 211.497C18.5444 211.497 16.9531 209.905 16.9526 207.943C16.9507 205.98 18.5413 204.389 20.5047 204.391C22.4682 204.39 24.0595 205.982 24.0586 207.945C24.0591 209.907 22.4685 211.498 20.5065 211.497Z" fill="#C2E9FF"/>
<path fill-rule="evenodd" clip-rule="evenodd" d="M20.5123 234.108C18.5503 234.107 16.9589 232.516 16.9585 230.554C16.958 228.592 18.5486 227.001 20.5106 227.002C22.4726 227.002 24.064 228.594 24.0645 230.556C24.0649 232.518 22.4743 234.108 20.5123 234.108Z" fill="#C2E9FF"/>
<path fill-rule="evenodd" clip-rule="evenodd" d="M20.5191 256.721C18.5557 256.721 16.9643 255.13 16.9638 253.165C16.9634 251.203 18.554 249.613 20.516 249.613C22.4794 249.615 24.0708 251.206 24.0712 253.168C24.0703 255.129 22.4797 256.72 20.5191 256.721Z" fill="#C2E9FF"/>
<path fill-rule="evenodd" clip-rule="evenodd" d="M20.5243 279.332C18.5623 279.331 16.9709 277.74 16.9691 275.776C16.9672 273.816 18.5592 272.224 20.5198 272.226C22.4846 272.226 24.076 273.817 24.0751 275.781C24.0769 277.741 22.4849 279.333 20.5243 279.332Z" fill="#C2E9FF"/>
<path fill-rule="evenodd" clip-rule="evenodd" d="M20.5284 301.944C18.565 301.942 16.975 300.352 16.9732 298.389C16.9741 296.425 18.5633 294.836 20.5267 294.835C22.4901 294.837 24.0801 296.427 24.082 298.391C24.081 300.354 22.4919 301.943 20.5284 301.944Z" fill="#C2E9FF"/>
<path fill-rule="evenodd" clip-rule="evenodd" d="M4.66073 143.658C2.70011 143.657 1.10875 142.065 1.10688 140.105C1.10922 138.143 2.69982 136.552 4.66043 136.551C6.62245 136.551 8.21382 138.143 8.21429 140.105C8.21616 142.068 6.62556 143.659 4.66073 143.658Z" fill="#C2E9FF"/>
<path fill-rule="evenodd" clip-rule="evenodd" d="M4.66905 166.27C2.70562 166.271 1.11426 164.679 1.11519 162.716C1.11472 160.754 2.70532 159.163 4.66734 159.164C6.62937 159.164 8.22073 160.756 8.2212 162.718C8.22026 164.678 6.62966 166.269 4.66905 166.27Z" fill="#C2E9FF"/>
<path fill-rule="evenodd" clip-rule="evenodd" d="M4.67288 188.882C2.71086 188.882 1.11949 187.29 1.11902 185.328C1.11855 183.366 2.70915 181.776 4.67117 181.776C6.6346 181.775 8.22596 183.367 8.22503 185.33C8.2255 187.292 6.6349 188.883 4.67288 188.882Z" fill="#C2E9FF"/>
<path fill-rule="evenodd" clip-rule="evenodd" d="M4.67846 211.493C2.71644 211.493 1.12508 209.902 1.12461 207.94C1.12414 205.978 2.71474 204.387 4.67816 204.386C6.63878 204.388 8.23014 205.979 8.23202 207.94C8.23108 209.903 6.64048 211.494 4.67846 211.493Z" fill="#C2E9FF"/>
<path fill-rule="evenodd" clip-rule="evenodd" d="M4.6837 234.104C2.72167 234.104 1.13031 232.513 1.12984 230.551C1.12937 228.589 2.71997 226.998 4.68199 226.998C6.64402 226.999 8.23538 228.59 8.23585 230.552C8.23632 232.514 6.64572 234.105 4.6837 234.104Z" fill="#C2E9FF"/>
<path fill-rule="evenodd" clip-rule="evenodd" d="M4.6892 256.715C2.72859 256.716 1.13723 255.125 1.13676 253.163C1.13488 251.199 2.72548 249.609 4.68891 249.611C6.65093 249.611 8.24229 251.203 8.24136 253.163C8.24183 255.125 6.65123 256.716 4.6892 256.715Z" fill="#C2E9FF"/>
<path fill-rule="evenodd" clip-rule="evenodd" d="M4.69598 279.328C2.73396 279.327 1.1426 277.736 1.14213 275.774C1.14025 273.81 2.72945 272.221 4.69428 272.222C6.6563 272.222 8.24766 273.813 8.24813 275.775C8.2472 277.739 6.658 279.328 4.69598 279.328Z" fill="#C2E9FF"/>
<path fill-rule="evenodd" clip-rule="evenodd" d="M4.69995 301.94C2.73793 301.94 1.14656 300.349 1.14609 298.386C1.14562 296.422 2.73482 294.832 4.69965 294.833C6.66167 294.833 8.25303 296.425 8.2535 298.387C8.25257 300.35 6.66337 301.939 4.69995 301.94Z" fill="#C2E9FF"/>
</svg>
