<svg width="499" height="317" viewBox="0 0 499 317" fill="none" xmlns="http://www.w3.org/2000/svg">
<path fill-rule="evenodd" clip-rule="evenodd" d="M422.507 245.61L455.368 316.638L459.071 316.626L430.656 240.997L422.507 245.61Z" fill="#D1A169"/>
<path fill-rule="evenodd" clip-rule="evenodd" d="M388.516 247.128L355.655 316.638L351.952 316.626L380.367 245.551L388.516 247.128Z" fill="#D1A169"/>
<mask id="mask0" mask-type="alpha" maskUnits="userSpaceOnUse" x="268" y="293" width="38" height="24">
<path d="M305.019 301.416L288.316 316.032L268.626 302.174C268.626 302.174 275.328 299.927 286.819 302.986L298.579 293.104L305.019 301.416Z" fill="white"/>
</mask>
<g mask="url(#mask0)">
<path fill-rule="evenodd" clip-rule="evenodd" d="M305.019 301.416L288.316 316.032L268.626 302.174C268.626 302.174 275.328 299.927 286.819 302.986L298.579 293.104L305.019 301.416Z" fill="url(#paint0_linear)"/>
</g>
<path fill-rule="evenodd" clip-rule="evenodd" d="M401.706 220.797C401.706 220.797 364.791 239.718 351.749 245.379C338.707 251.039 294.337 295.472 294.337 295.472C294.337 295.472 300.017 307.039 302.858 305.008C327.911 287.095 350.991 271.068 365.823 265.475C395.192 254.402 403.378 251.994 410.9 243.276C410.9 243.276 406.488 232.798 401.706 220.797Z" fill="#325D9B"/>
<mask id="mask1" mask-type="alpha" maskUnits="userSpaceOnUse" x="315" y="291" width="30" height="26">
<path d="M344.19 293.956L339.376 315.622L315.303 316.103C315.303 316.103 319.375 310.325 330.449 305.992L334.08 291.067L344.19 293.956Z" fill="white"/>
</mask>
<g mask="url(#mask1)">
<path fill-rule="evenodd" clip-rule="evenodd" d="M344.19 293.956L339.376 315.622L315.303 316.103C315.303 316.103 319.375 310.325 330.449 305.992L334.08 291.067L344.19 293.956Z" fill="url(#paint1_linear)"/>
</g>
<path fill-rule="evenodd" clip-rule="evenodd" d="M402.601 215.992C402.601 215.992 368.263 219.696 355.746 226.436C343.227 233.178 333.263 294.992 333.263 294.992C333.263 294.992 342.986 300.27 344.19 296.992C353.9 270.551 364.673 249.842 364.673 249.842C377.011 247.588 405.588 261.495 426.242 241.15C426.242 241.15 408.38 227.547 402.601 215.992Z" fill="#4070AA"/>
<path fill-rule="evenodd" clip-rule="evenodd" d="M461.771 174.254C461.771 174.254 459.292 178.359 457.728 183.501L443.604 182.197C443.604 182.197 450.897 171.148 450.339 164.447L461.771 174.254Z" fill="#F4BFA7"/>
<path fill-rule="evenodd" clip-rule="evenodd" d="M458.734 151.426C457.932 151.213 454.914 150.382 454.304 150.631C453.456 150.976 454.441 152.087 453.845 152.765C452.88 153.863 450.948 153.886 449.703 154.553C448.194 155.361 447.044 156.423 446.354 157.636C445.204 159.657 449.392 164.168 450.049 167.549C451.42 174.621 460.359 175.667 467.622 173.502C470.219 172.728 472.606 170.393 474.022 168.128C475.686 165.466 474.748 161.017 473.354 158.366C472.518 156.776 470.862 155.406 469.417 154.409C468.107 153.505 467.745 149.75 466.168 149.484C466.168 149.484 460.54 151.905 458.734 151.426Z" fill="#F4BFA7"/>
<mask id="mask2" mask-type="alpha" maskUnits="userSpaceOnUse" x="459" y="142" width="25" height="34">
<path d="M479.013 170.411C479.029 170.426 478.769 169.225 480.818 167.296C487.595 160.916 480.347 148.436 472.963 146.263C469.185 145.151 466.77 146.323 465.415 142.569C465.513 142.838 463.888 143.527 463.727 143.663C462.842 144.413 462.42 144.941 462.391 146.18C462.266 151.634 467.147 156.712 470.841 160.147C472.501 161.692 468.415 160.626 466.766 160.941C465.694 161.146 462.912 164.085 462.314 164.53C463.863 166.458 465.242 164.717 467.331 165.649C469.261 166.51 468.038 168.965 466.239 169.256C463.453 169.706 462.319 167.869 462.319 167.869C461.043 168.562 460.838 172.699 459.835 173.781C461.22 174.541 469.293 175.96 471.187 175.937C475.233 175.889 477.714 173.651 479.013 170.411Z" fill="white"/>
</mask>
<g mask="url(#mask2)">
<path fill-rule="evenodd" clip-rule="evenodd" d="M479.013 170.411C479.029 170.426 478.769 169.225 480.818 167.296C487.595 160.916 480.347 148.436 472.963 146.263C469.185 145.151 466.77 146.323 465.415 142.569C465.513 142.838 463.888 143.527 463.727 143.663C462.842 144.413 462.42 144.941 462.391 146.18C462.266 151.634 467.147 156.712 470.841 160.147C472.501 161.692 468.415 160.626 466.766 160.941C465.694 161.146 462.912 164.085 462.314 164.53C463.863 166.458 465.242 164.717 467.331 165.649C469.261 166.51 468.038 168.965 466.239 169.256C463.453 169.706 462.319 167.869 462.319 167.869C461.043 168.562 460.838 172.699 459.835 173.781C461.22 174.541 469.293 175.96 471.187 175.937C475.233 175.889 477.714 173.651 479.013 170.411Z" fill="url(#paint2_linear)"/>
</g>
<path fill-rule="evenodd" clip-rule="evenodd" d="M461.314 176.451C464.275 209.481 426.242 241.15 426.242 241.15C426.242 241.15 401.408 242.085 402.601 215.992C402.601 215.992 404.534 211.247 419.908 197.314C430.18 188.006 437.395 174.114 444.623 174.391C464.363 175.146 461.314 176.451 461.314 176.451Z" fill="#E05963"/>
<mask id="mask3" mask-type="alpha" maskUnits="userSpaceOnUse" x="369" y="174" width="96" height="79">
<path d="M369.069 242.973C369.069 242.973 391.973 251.516 422.499 239.936C453.024 228.358 461.352 174.291 461.352 174.291L464.845 176.062C464.845 176.062 461.445 235.726 421.255 248.692C390.529 258.603 369.069 246.8 369.069 246.8V242.973Z" fill="white"/>
</mask>
<g mask="url(#mask3)">
<path fill-rule="evenodd" clip-rule="evenodd" d="M369.069 242.973C369.069 242.973 391.973 251.516 422.499 239.936C453.024 228.358 461.352 174.291 461.352 174.291L464.845 176.062C464.845 176.062 461.445 235.726 421.255 248.692C390.529 258.603 369.069 246.8 369.069 246.8V242.973Z" fill="url(#paint3_linear)"/>
</g>
<path fill-rule="evenodd" clip-rule="evenodd" d="M457.639 209.446C457.639 209.446 461.297 222.119 461.5 228.436C461.704 234.753 459.004 256.198 459.004 256.198L464.821 256.934C464.821 256.934 469.991 231.374 470.113 223.032C470.233 214.691 465.424 201.177 465.424 201.177L457.639 209.446Z" fill="#F4CF9C"/>
<path fill-rule="evenodd" clip-rule="evenodd" d="M457.276 209.981C461.5 228.436 459.749 253.17 459.749 253.17L466.062 253.572C472.983 239.095 472.335 207.017 468.676 193.521C466.525 185.592 465.259 177.597 459.893 176.364C456.539 175.593 449.639 178.048 448.716 181.363C446.71 188.557 455.204 200.929 457.276 209.981Z" fill="#E05963"/>
<path fill-rule="evenodd" clip-rule="evenodd" d="M456.401 259.388C455.008 262.041 454.377 263.985 455.197 264.655C455.763 265.117 456.675 262.541 457.775 261.622C458.098 262.695 458.141 264.7 457.455 266.388C456.678 268.301 456.746 269.936 458.199 270.077C459.652 270.218 462.016 270.122 462.543 268.917C463.067 267.713 464.263 262.688 464.909 261.017C465.555 259.345 464.698 257.424 464.944 256.467C465.19 255.509 460.651 253.906 460.651 253.906C460.402 254.291 459.004 256.198 459.004 256.198C459.004 256.198 457.825 257.609 457.42 257.866C457.013 258.123 456.401 259.388 456.401 259.388Z" fill="#F4CF9C"/>
<path d="M421.941 0V43.998" stroke="#D1D7D9" stroke-width="0.25"/>
<path fill-rule="evenodd" clip-rule="evenodd" d="M429.733 60.9199C429.405 65.1689 425.694 68.3479 421.445 68.0199C417.196 67.6919 414.016 63.9819 414.345 59.7319C414.673 55.4829 418.384 52.3039 422.633 52.6319C426.882 52.9599 430.061 56.6699 429.733 60.9199Z" fill="#F3B329"/>
<path fill-rule="evenodd" clip-rule="evenodd" d="M458.378 63.602H385.505L417.397 40.394H426.485L458.378 63.602Z" fill="#CFD9E2"/>
<path d="M78.875 0V43.998" stroke="#D1D7D9" stroke-width="0.25"/>
<path fill-rule="evenodd" clip-rule="evenodd" d="M86.6671 60.9199C86.3391 65.1689 82.6291 68.3479 78.3791 68.0199C74.1301 67.6919 70.9511 63.9819 71.2791 59.7319C71.6071 55.4829 75.3171 52.3039 79.5671 52.6319C83.8161 52.9599 86.9951 56.6699 86.6671 60.9199Z" fill="#F3B329"/>
<path fill-rule="evenodd" clip-rule="evenodd" d="M115.312 63.602H42.4385L74.3315 40.394H83.4195L115.312 63.602Z" fill="#CFD9E2"/>
<path d="M0 316.29H498.318" stroke="#9FA7AE" stroke-width="0.5"/>
<path fill-rule="evenodd" clip-rule="evenodd" d="M181.147 163.201C181.147 163.201 182.684 159.438 185.477 156.084C188.27 152.731 192.434 147.148 192.434 147.148C192.434 147.148 190.404 151.122 187.646 155.612C184.889 160.102 181.147 163.201 181.147 163.201Z" fill="#58B57B"/>
<path fill-rule="evenodd" clip-rule="evenodd" d="M184.035 156.658C184.035 156.658 187.127 154.228 188.984 149.086C190.841 143.943 192.533 140.028 192.533 140.028C192.533 140.028 188.522 145.766 186.798 149.743C185.074 153.719 184.035 156.658 184.035 156.658Z" fill="#58B57B"/>
<path fill-rule="evenodd" clip-rule="evenodd" d="M181.355 162.473C181.355 162.473 182.972 156.591 183.29 151.896C183.608 147.201 183.572 144.252 183.572 144.252C183.572 144.252 181.532 152.771 180.917 156.389C180.302 160.007 181.355 162.473 181.355 162.473Z" fill="#58B57B"/>
<path fill-rule="evenodd" clip-rule="evenodd" d="M179.971 166.378C179.971 166.378 180.488 160.32 178.785 154.901C177.082 149.481 176.99 146.041 176.99 146.041C176.99 146.041 176.172 151.715 177.143 156.606C178.113 161.497 179.971 166.378 179.971 166.378Z" fill="#58B57B"/>
<path fill-rule="evenodd" clip-rule="evenodd" d="M180.472 165.04C180.472 165.04 184.775 161.365 186.95 160.5C189.125 159.636 192.154 157.117 192.154 157.117C192.154 157.117 188.415 161.903 186.328 162.851C184.241 163.8 180.472 165.04 180.472 165.04Z" fill="#58B57B"/>
<path fill-rule="evenodd" clip-rule="evenodd" d="M178.987 170.182C178.987 170.182 179.404 166.874 177.481 162.186C175.558 157.499 175.113 155.181 175.113 155.181C175.113 155.181 174.999 161.545 176.264 163.933C177.53 166.321 178.987 170.182 178.987 170.182Z" fill="#58B57B"/>
<path fill-rule="evenodd" clip-rule="evenodd" d="M179.389 167.773C179.389 167.773 181.862 166.122 184.246 165.788C186.63 165.453 187.266 165.129 187.266 165.129C187.266 165.129 186.06 167.332 183.12 167.704C180.18 168.075 179.389 167.773 179.389 167.773Z" fill="#58B57B"/>
<path fill-rule="evenodd" clip-rule="evenodd" d="M177.771 173.339C178.305 171.259 178.994 168.043 179.703 165.895C181.268 161.153 184.992 155.043 184.992 155.043C182.718 160.087 181.057 162.924 179.913 167.274C179.46 168.999 178.677 171.392 178.253 172.955C178.184 173.384 177.841 173.744 177.771 173.339Z" fill="#58B57B"/>
<path fill-rule="evenodd" clip-rule="evenodd" d="M178.869 164.897C178.869 164.897 178.626 160.582 176.978 156.245C175.331 151.908 173.076 144.856 173.076 144.856C173.076 144.856 173.743 149.553 174.961 155.02C176.18 160.487 178.869 164.897 178.869 164.897Z" fill="#83C494"/>
<path fill-rule="evenodd" clip-rule="evenodd" d="M178.23 157.321C178.23 157.321 175.962 153.809 175.874 147.997C175.787 142.186 175.44 137.664 175.44 137.664C175.44 137.664 177.488 144.82 177.845 149.413C178.202 154.007 178.23 157.321 178.23 157.321Z" fill="#83C494"/>
<path fill-rule="evenodd" clip-rule="evenodd" d="M178.912 164.093C178.912 164.093 179.321 157.621 180.626 152.791C181.931 147.962 182.986 145.011 182.986 145.011C182.986 145.011 182.09 154.279 181.457 158.129C180.824 161.978 178.912 164.093 178.912 164.093Z" fill="#83C494"/>
<path fill-rule="evenodd" clip-rule="evenodd" d="M178.953 168.497C178.953 168.497 180.528 162.228 184.115 157.37C187.701 152.512 188.984 149.086 188.984 149.086C188.984 149.086 187.843 155.072 185.176 159.652C182.508 164.233 178.953 168.497 178.953 168.497Z" fill="#83C494"/>
<path fill-rule="evenodd" clip-rule="evenodd" d="M178.911 166.978C178.911 166.978 175.857 161.796 173.97 160.175C172.083 158.553 169.91 154.974 169.91 154.974C169.91 154.974 172.013 161.077 173.782 162.753C175.552 164.429 178.911 166.978 178.911 166.978Z" fill="#83C494"/>
<path fill-rule="evenodd" clip-rule="evenodd" d="M178.625 172.661C178.625 172.661 179.351 169.191 182.905 165.145C186.459 161.099 187.708 158.922 187.708 158.922C187.708 158.922 185.622 165.359 183.524 167.321C181.426 169.284 178.625 172.661 178.625 172.661Z" fill="#83C494"/>
<path fill-rule="evenodd" clip-rule="evenodd" d="M179.055 170.1C179.055 170.1 177.14 167.586 174.859 166.424C172.578 165.263 172.052 164.718 172.052 164.718C172.052 164.718 172.501 167.349 175.328 168.74C178.155 170.13 179.055 170.1 179.055 170.1Z" fill="#83C494"/>
<path fill-rule="evenodd" clip-rule="evenodd" d="M178.755 176.254C178.938 173.978 179.358 170.509 179.388 168.104C179.456 162.795 177.826 155.366 177.826 155.366C178.367 161.224 179.055 164.649 178.7 169.418C178.559 171.308 178.519 173.984 178.404 175.703C178.325 176.157 178.545 176.637 178.755 176.254Z" fill="#58B57B"/>
<path fill-rule="evenodd" clip-rule="evenodd" d="M175.597 165.791C175.597 165.791 174.06 162.027 171.266 158.674C168.473 155.321 164.309 149.738 164.309 149.738C164.309 149.738 166.341 153.712 169.097 158.202C171.855 162.692 175.597 165.791 175.597 165.791Z" fill="#58B57B"/>
<path fill-rule="evenodd" clip-rule="evenodd" d="M172.709 159.248C172.709 159.248 169.617 156.818 167.76 151.676C165.903 146.533 164.211 142.618 164.211 142.618C164.211 142.618 168.222 148.355 169.946 152.332C171.67 156.309 172.709 159.248 172.709 159.248Z" fill="#58B57B"/>
<path fill-rule="evenodd" clip-rule="evenodd" d="M175.389 165.063C175.389 165.063 173.771 159.181 173.454 154.486C173.136 149.79 173.172 146.842 173.172 146.842C173.172 146.842 175.212 155.361 175.827 158.979C176.442 162.597 175.389 165.063 175.389 165.063Z" fill="#58B57B"/>
<path fill-rule="evenodd" clip-rule="evenodd" d="M176.774 168.968C176.774 168.968 176.256 162.91 177.959 157.491C179.661 152.071 179.754 148.631 179.754 148.631C179.754 148.631 180.572 154.305 179.601 159.196C178.631 164.087 176.774 168.968 176.774 168.968Z" fill="#58B57B"/>
<path fill-rule="evenodd" clip-rule="evenodd" d="M176.272 167.63C176.272 167.63 171.969 163.955 169.794 163.09C167.619 162.226 164.59 159.706 164.59 159.706C164.59 159.706 168.329 164.493 170.416 165.441C172.503 166.39 176.272 167.63 176.272 167.63Z" fill="#58B57B"/>
<path fill-rule="evenodd" clip-rule="evenodd" d="M177.757 172.771C177.757 172.771 177.34 169.463 179.263 164.776C181.186 160.089 181.631 157.771 181.631 157.771C181.631 157.771 181.745 164.135 180.48 166.523C179.215 168.911 177.757 172.771 177.757 172.771Z" fill="#58B57B"/>
<path fill-rule="evenodd" clip-rule="evenodd" d="M177.355 170.362C177.355 170.362 174.882 168.712 172.498 168.377C170.114 168.043 169.478 167.719 169.478 167.719C169.478 167.719 170.683 169.922 173.624 170.293C176.564 170.665 177.355 170.362 177.355 170.362Z" fill="#58B57B"/>
<path fill-rule="evenodd" clip-rule="evenodd" d="M178.972 175.928C178.438 173.849 177.75 170.633 177.041 168.485C175.476 163.742 171.752 157.633 171.752 157.633C174.026 162.677 175.687 165.514 176.831 169.864C177.284 171.588 178.067 173.981 178.491 175.545C178.56 175.974 178.903 176.333 178.972 175.928Z" fill="#58B57B"/>
<path fill-rule="evenodd" clip-rule="evenodd" d="M184.437 190.452H172.77L169.165 169.902H188.462L184.437 190.452Z" fill="#CFD9E2"/>
<path fill-rule="evenodd" clip-rule="evenodd" d="M317.731 196.098L336.972 316.403L340.676 316.392L325.452 196.073L317.731 196.098Z" fill="#D1A169"/>
<path fill-rule="evenodd" clip-rule="evenodd" d="M185.093 196.153L160.034 316.578L155.044 316.59L174.69 196.178L185.093 196.153Z" fill="#D1A169"/>
<path fill-rule="evenodd" clip-rule="evenodd" d="M145.646 198.331H352.672V189.066H145.646V198.331Z" fill="#D1A169"/>
<path fill-rule="evenodd" clip-rule="evenodd" d="M135.721 195.216H362.597V189.066H135.721V195.216Z" fill="#EBB576"/>
<path fill-rule="evenodd" clip-rule="evenodd" d="M299.152 185.823H291.1L283.048 134.446H289.17L299.152 185.823Z" fill="#9FA7AE"/>
<path fill-rule="evenodd" clip-rule="evenodd" d="M296.841 185.823H265.413L257.361 134.446H288.789L296.841 185.823Z" fill="#CFD9E2"/>
<path fill-rule="evenodd" clip-rule="evenodd" d="M264.991 188.491H299.152V184.658H264.991V188.491Z" fill="#CFD9E2"/>
<path fill-rule="evenodd" clip-rule="evenodd" d="M299.152 188.491H342.225V184.658H299.152V188.491Z" fill="#9FA7AE"/>
<path fill-rule="evenodd" clip-rule="evenodd" d="M279.581 162.634C280.49 166.566 279.849 170.814 278.15 172.121C276.451 173.428 274.337 171.299 273.427 167.366C272.517 163.433 273.157 159.185 274.856 157.878C276.555 156.572 278.671 158.701 279.581 162.634Z" fill="#9FA7AE"/>
<path fill-rule="evenodd" clip-rule="evenodd" d="M230.693 188.311H226.235C224.393 188.311 222.827 186.969 222.544 185.149L220.763 173.678H236.165L234.384 185.149C234.102 186.969 232.535 188.311 230.693 188.311Z" fill="#9FA7AE"/>
<path fill-rule="evenodd" clip-rule="evenodd" d="M234.656 184.462C237.468 184.552 238.356 182.394 238.69 180.544C238.911 179.319 238.736 178.355 238.171 177.681C237.629 177.031 236.714 176.658 235.662 176.658C234 176.658 232.647 178.457 232.647 180.669C232.647 182.53 234.159 184.02 234.656 184.462ZM234.824 185.867C234.661 185.867 234.498 185.861 234.331 185.848L234.122 185.832L233.956 185.704C233.845 185.62 231.244 183.583 231.244 180.669C231.244 177.684 233.226 175.255 235.662 175.255C237.13 175.255 238.438 175.811 239.249 176.78C239.828 177.473 240.441 178.733 240.071 180.793C239.484 184.042 237.583 185.867 234.824 185.867Z" fill="#9FA7AE"/>
<path fill-rule="evenodd" clip-rule="evenodd" d="M219.229 189.319H238.749L241.862 185.872H216.116L219.229 189.319Z" fill="#CFD9E2"/>
<path fill-rule="evenodd" clip-rule="evenodd" d="M22.3877 316.364H115.792V114.328H22.3877V316.364Z" fill="#B0B8BF"/>
<path fill-rule="evenodd" clip-rule="evenodd" d="M33.1406 144.34H105.04V123.155H33.1406V144.34Z" fill="#CFD9E2"/>
<path fill-rule="evenodd" clip-rule="evenodd" d="M77.6894 136.315H60.4924C60.0504 136.315 59.6924 135.957 59.6924 135.515V131.979C59.6924 131.538 60.0504 131.18 60.4924 131.18H77.6894C78.1314 131.18 78.4894 131.538 78.4894 131.979V135.515C78.4894 135.957 78.1314 136.315 77.6894 136.315Z" fill="#FFFFFE"/>
<path fill-rule="evenodd" clip-rule="evenodd" d="M33.1406 171.299H105.04V150.115H33.1406V171.299Z" fill="#CFD9E2"/>
<path fill-rule="evenodd" clip-rule="evenodd" d="M77.6894 163.275H60.4924C60.0504 163.275 59.6924 162.917 59.6924 162.475V158.939C59.6924 158.497 60.0504 158.139 60.4924 158.139H77.6894C78.1314 158.139 78.4894 158.497 78.4894 158.939V162.475C78.4894 162.917 78.1314 163.275 77.6894 163.275Z" fill="#FFFFFE"/>
<path fill-rule="evenodd" clip-rule="evenodd" d="M33.1406 198.259H105.04V177.075H33.1406V198.259Z" fill="#CFD9E2"/>
<path fill-rule="evenodd" clip-rule="evenodd" d="M77.6894 190.234H60.4924C60.0504 190.234 59.6924 189.876 59.6924 189.434V185.899C59.6924 185.457 60.0504 185.099 60.4924 185.099H77.6894C78.1314 185.099 78.4894 185.457 78.4894 185.899V189.434C78.4894 189.876 78.1314 190.234 77.6894 190.234Z" fill="#FFFFFE"/>
<path fill-rule="evenodd" clip-rule="evenodd" d="M33.1406 308.179H105.04V204.338H33.1406V308.179Z" fill="#CFD9E2"/>
<path fill-rule="evenodd" clip-rule="evenodd" d="M77.6894 217.497H60.4924C60.0504 217.497 59.6924 217.14 59.6924 216.697V213.162C59.6924 212.72 60.0504 212.362 60.4924 212.362H77.6894C78.1314 212.362 78.4894 212.72 78.4894 213.162V216.697C78.4894 217.14 78.1314 217.497 77.6894 217.497Z" fill="#FFFFFE"/>
<defs>
<linearGradient id="paint0_linear" x1="276.034" y1="299.613" x2="294.402" y2="313.097" gradientUnits="userSpaceOnUse">
<stop stop-color="#141C28"/>
<stop offset="1" stop-color="#303439"/>
</linearGradient>
<linearGradient id="paint1_linear" x1="315.302" y1="303.585" x2="344.19" y2="303.585" gradientUnits="userSpaceOnUse">
<stop stop-color="#141C28"/>
<stop offset="1" stop-color="#303439"/>
</linearGradient>
<linearGradient id="paint2_linear" x1="475.078" y1="172.389" x2="458.908" y2="153.855" gradientUnits="userSpaceOnUse">
<stop stop-color="#141C28"/>
<stop offset="1" stop-color="#303439"/>
</linearGradient>
<linearGradient id="paint3_linear" x1="369.069" y1="213.473" x2="464.845" y2="213.473" gradientUnits="userSpaceOnUse">
<stop stop-color="#141C28"/>
<stop offset="1" stop-color="#303439"/>
</linearGradient>
</defs>
</svg>
