<svg width="450" height="379" viewBox="0 0 450 379" fill="none" xmlns="http://www.w3.org/2000/svg">
<mask id="mask0" mask-type="alpha" maskUnits="userSpaceOnUse" x="29" y="120" width="84" height="71">
<path fill-rule="evenodd" clip-rule="evenodd" d="M105.58 159.455C111.108 171.489 114.214 182.876 110.143 187.956C109.903 188.256 109.64 188.531 109.356 188.782C106.221 191.536 100.055 191.598 89.6449 187.497C61.9401 176.579 60.625 157.738 55.0215 139.338C49.4976 121.169 30.2014 124.239 29.7095 124.321C74.6706 108.697 96.202 139.055 105.58 159.455Z" fill="white"/>
</mask>
<g mask="url(#mask0)">
<path fill-rule="evenodd" clip-rule="evenodd" d="M105.58 159.455C111.108 171.489 114.214 182.876 110.143 187.956C109.903 188.256 109.64 188.531 109.356 188.782C106.221 191.536 100.055 191.598 89.6449 187.497C61.9401 176.579 60.625 157.738 55.0215 139.338C49.4976 121.169 30.2014 124.239 29.7095 124.321C74.6706 108.697 96.202 139.055 105.58 159.455Z" fill="url(#paint0_linear)"/>
</g>
<mask id="mask1" mask-type="alpha" maskUnits="userSpaceOnUse" x="69" y="136" width="42" height="53">
<path fill-rule="evenodd" clip-rule="evenodd" d="M110.144 187.956C109.903 188.256 109.64 188.531 109.356 188.781C104.152 185.654 94.1871 179.023 89.4887 171.579C87.2727 168.065 85.4105 164.115 83.4345 159.936C79.7071 152.032 75.8445 143.858 69.106 137.589L69.8572 136.781C76.75 143.199 80.6535 151.468 84.4295 159.469C86.3879 163.62 88.236 167.538 90.4212 170.992C95.0025 178.254 105.071 184.91 110.144 187.956Z" fill="white"/>
</mask>
<g mask="url(#mask1)">
<path fill-rule="evenodd" clip-rule="evenodd" d="M110.144 187.956C109.903 188.256 109.64 188.531 109.356 188.781C104.152 185.654 94.1871 179.023 89.4887 171.579C87.2727 168.065 85.4105 164.115 83.4345 159.936C79.7071 152.032 75.8445 143.858 69.106 137.589L69.8572 136.781C76.75 143.199 80.6535 151.468 84.4295 159.469C86.3879 163.62 88.236 167.538 90.4212 170.992C95.0025 178.254 105.071 184.91 110.144 187.956Z" fill="url(#paint1_linear)"/>
</g>
<mask id="mask2" mask-type="alpha" maskUnits="userSpaceOnUse" x="67" y="94" width="40" height="72">
<path fill-rule="evenodd" clip-rule="evenodd" d="M100.766 164.372C100.44 165.173 100.229 165.626 100.206 165.677C100.121 165.235 100.038 164.796 99.9541 164.373C96.2581 145.481 91.3158 143.507 76.4966 126.981C61.3414 110.078 70.0568 94.3323 70.0568 94.3323C120.829 108.967 104.217 155.927 100.766 164.372Z" fill="white"/>
</mask>
<g mask="url(#mask2)">
<path fill-rule="evenodd" clip-rule="evenodd" d="M100.766 164.372C100.44 165.173 100.229 165.626 100.206 165.677C100.121 165.235 100.038 164.796 99.9541 164.373C96.2581 145.481 91.3158 143.507 76.4966 126.981C61.3414 110.078 70.0568 94.3323 70.0568 94.3323C120.829 108.967 104.217 155.927 100.766 164.372Z" fill="url(#paint2_linear)"/>
</g>
<mask id="mask3" mask-type="alpha" maskUnits="userSpaceOnUse" x="82" y="114" width="19" height="52">
<path fill-rule="evenodd" clip-rule="evenodd" d="M100.766 164.372C100.44 165.173 100.229 165.626 100.206 165.677C100.121 165.235 100.038 164.797 99.9541 164.373C101.599 148.041 91.7222 128.876 88.6188 125.437C85.4077 121.876 83.4291 116.979 82.682 115.134C82.5561 114.828 82.4384 114.536 82.3999 114.468L83.116 114.065C83.1788 114.175 83.2608 114.379 83.4436 114.827C84.174 116.634 86.1166 121.434 89.2319 124.885C93.1645 129.246 102.276 148.503 100.766 164.372Z" fill="white"/>
</mask>
<g mask="url(#mask3)">
<path fill-rule="evenodd" clip-rule="evenodd" d="M100.766 164.372C100.44 165.173 100.229 165.626 100.206 165.677C100.121 165.235 100.038 164.797 99.9541 164.373C101.599 148.041 91.7222 128.876 88.6188 125.437C85.4077 121.876 83.4291 116.979 82.682 115.134C82.5561 114.828 82.4384 114.536 82.3999 114.468L83.116 114.065C83.1788 114.175 83.2608 114.379 83.4436 114.827C84.174 116.634 86.1166 121.434 89.2319 124.885C93.1645 129.246 102.276 148.503 100.766 164.372Z" fill="url(#paint3_linear)"/>
</g>
<path fill-rule="evenodd" clip-rule="evenodd" d="M388.721 86.7131L382.463 76.4928C381.949 75.6545 382.215 74.5601 383.054 74.0485C383.895 73.5366 384.992 73.8012 385.504 74.639L389.929 81.8665L401.693 74.9207C402.539 74.4204 403.633 74.7001 404.134 75.5454C404.635 76.3904 404.356 77.4809 403.508 77.9812L388.721 86.7131Z" fill="#F0C141"/>
<path fill-rule="evenodd" clip-rule="evenodd" d="M392.921 60.7765C382.284 60.7765 373.632 69.4086 373.632 80.0191C373.632 90.6296 382.284 99.2615 392.921 99.2615C403.556 99.2615 412.209 90.6296 412.209 80.0191C412.209 69.4086 403.556 60.7765 392.921 60.7765ZM392.921 102.469C380.511 102.469 370.417 92.3977 370.417 80.0191C370.417 67.6403 380.511 57.5693 392.921 57.5693C405.329 57.5693 415.424 67.6403 415.424 80.0191C415.424 92.3977 405.329 102.469 392.921 102.469Z" fill="#F0C141"/>
<path fill-rule="evenodd" clip-rule="evenodd" d="M319.028 53.6947L315.16 47.3788C314.844 46.8608 315.009 46.1844 315.527 45.8681C316.046 45.552 316.725 45.7155 317.041 46.2331L319.777 50.6995L327.045 46.4073C327.568 46.0982 328.245 46.271 328.555 46.7933C328.865 47.3155 328.691 47.9895 328.168 48.2986L319.028 53.6947Z" fill="#F0C141"/>
<path fill-rule="evenodd" clip-rule="evenodd" d="M321.625 37.6663C315.053 37.6663 309.705 43.0008 309.705 49.5578C309.705 56.1148 315.053 61.4493 321.625 61.4493C328.197 61.4493 333.545 56.1148 333.545 49.5578C333.545 43.0008 328.197 37.6663 321.625 37.6663ZM321.625 63.4311C313.956 63.4311 307.718 57.2075 307.718 49.5578C307.718 41.9079 313.956 35.6843 321.625 35.6843C329.293 35.6843 335.531 41.9079 335.531 49.5578C335.531 57.2075 329.293 63.4311 321.625 63.4311Z" fill="#F0C141"/>
<path fill-rule="evenodd" clip-rule="evenodd" d="M247.518 30.3815L241.585 20.6928C241.099 19.8984 241.35 18.8607 242.147 18.3756C242.943 17.8905 243.982 18.1413 244.47 18.9355L248.665 25.7871L259.816 19.2027C260.618 18.7286 261.655 18.9936 262.129 19.7947C262.606 20.5959 262.34 21.6297 261.536 22.1038L247.518 30.3815Z" fill="#F0C141"/>
<path fill-rule="evenodd" clip-rule="evenodd" d="M251.499 5.79448C241.418 5.79448 233.214 13.9775 233.214 24.0358C233.214 34.0943 241.418 42.2773 251.499 42.2773C261.583 42.2773 269.785 34.0943 269.785 24.0358C269.785 13.9775 261.583 5.79448 251.499 5.79448ZM251.499 45.3175C239.737 45.3175 230.166 35.7706 230.166 24.0358C230.166 12.3013 239.737 2.75415 251.499 2.75415C263.263 2.75415 272.833 12.3013 272.833 24.0358C272.833 35.7706 263.263 45.3175 251.499 45.3175Z" fill="#F0C141"/>
<path fill-rule="evenodd" clip-rule="evenodd" d="M184.775 53.6061L180.855 47.2041C180.534 46.6791 180.699 45.9937 181.226 45.673C181.751 45.3523 182.439 45.518 182.76 46.0428L185.533 50.5702L192.902 46.2195C193.432 45.906 194.117 46.0811 194.432 46.6107C194.746 47.1401 194.57 47.8231 194.038 48.1366L184.775 53.6061Z" fill="#F0C141"/>
<path fill-rule="evenodd" clip-rule="evenodd" d="M187.407 37.3596C180.745 37.3596 175.324 42.7666 175.324 49.413C175.324 56.0595 180.745 61.4667 187.407 61.4667C194.069 61.4667 199.49 56.0595 199.49 49.413C199.49 42.7666 194.069 37.3596 187.407 37.3596ZM187.407 63.4755C179.633 63.4755 173.31 57.1671 173.31 49.413C173.31 41.659 179.633 35.3506 187.407 35.3506C195.179 35.3506 201.503 41.659 201.503 49.413C201.503 57.1671 195.179 63.4755 187.407 63.4755Z" fill="#F0C141"/>
<path fill-rule="evenodd" clip-rule="evenodd" d="M129.708 22.8531L124.801 14.8388C124.399 14.1814 124.607 13.3232 125.266 12.9221C125.924 12.5208 126.784 12.7281 127.187 13.3851L130.657 19.0525L139.881 13.606C140.545 13.2139 141.403 13.4331 141.796 14.0957C142.189 14.7586 141.969 15.6137 141.305 16.0058L129.708 22.8531Z" fill="#F0C141"/>
<path fill-rule="evenodd" clip-rule="evenodd" d="M133.002 2.5149C124.663 2.5149 117.877 9.28386 117.877 17.6039C117.877 25.9241 124.663 32.6929 133.002 32.6929C141.342 32.6929 148.128 25.9241 148.128 17.6039C148.128 9.28386 141.342 2.5149 133.002 2.5149ZM133.002 35.2078C123.272 35.2078 115.356 27.3106 115.356 17.6039C115.356 7.89719 123.272 0 133.002 0C142.732 0 150.648 7.89719 150.648 17.6039C150.648 27.3106 142.732 35.2078 133.002 35.2078Z" fill="#F0C141"/>
<path fill-rule="evenodd" clip-rule="evenodd" d="M67.204 62.6954L61.7642 53.8103C61.3177 53.0817 61.5484 52.1301 62.2788 51.6851C63.0092 51.2404 63.9628 51.4703 64.4088 52.1987L68.2556 58.4819L78.4823 52.4436C79.2186 52.0089 80.1692 52.2518 80.6051 52.9865C81.0408 53.7213 80.7971 54.6694 80.0606 55.1043L67.204 62.6954Z" fill="#F0C141"/>
<path fill-rule="evenodd" clip-rule="evenodd" d="M70.8561 40.1474C61.6097 40.1474 54.0874 47.6518 54.0874 56.8758C54.0874 66.0998 61.6097 73.6044 70.8561 73.6044C80.1021 73.6044 87.6245 66.0998 87.6245 56.8758C87.6245 47.6518 80.1021 40.1474 70.8561 40.1474ZM70.8561 76.3924C60.0688 76.3924 51.2925 67.6373 51.2925 56.8758C51.2925 46.1143 60.0688 37.3594 70.8561 37.3594C81.6431 37.3594 90.4192 46.1143 90.4192 56.8758C90.4192 67.6373 81.6431 76.3924 70.8561 76.3924Z" fill="#F0C141"/>
<path fill-rule="evenodd" clip-rule="evenodd" d="M365.654 26.1622L362.562 21.1101C362.307 20.6955 362.439 20.1548 362.854 19.9016C363.27 19.6486 363.812 19.7795 364.065 20.1936L366.253 23.7663L372.067 20.333C372.487 20.0855 373.028 20.2238 373.276 20.6416C373.522 21.0594 373.384 21.5987 372.966 21.8459L365.654 26.1622Z" fill="#F0C141"/>
<path fill-rule="evenodd" clip-rule="evenodd" d="M367.732 13.3409C362.474 13.3409 358.196 17.6081 358.196 22.8531C358.196 28.0982 362.474 32.3654 367.732 32.3654C372.988 32.3654 377.266 28.0982 377.266 22.8531C377.266 17.6081 372.988 13.3409 367.732 13.3409ZM367.732 33.9509C361.597 33.9509 356.607 28.9724 356.607 22.8531C356.607 16.7339 361.597 11.7556 367.732 11.7556C373.865 11.7556 378.855 16.7339 378.855 22.8531C378.855 28.9724 373.865 33.9509 367.732 33.9509Z" fill="#F0C141"/>
<path fill-rule="evenodd" clip-rule="evenodd" d="M209.984 334.079H240.667V241.111H209.984V334.079Z" fill="#8F8F8F"/>
<path fill-rule="evenodd" clip-rule="evenodd" d="M106.332 285.894H344.318C351.76 285.894 357.794 279.877 357.794 272.452V112.885C357.794 105.461 351.76 99.4421 344.318 99.4421H106.332C98.89 99.4421 92.8569 105.461 92.8569 112.885V272.452C92.8569 279.877 98.89 285.894 106.332 285.894Z" fill="#F0F0F0"/>
<path fill-rule="evenodd" clip-rule="evenodd" d="M103.232 256.677H347.416V79.5977H103.232V256.677Z" fill="white"/>
<path fill-rule="evenodd" clip-rule="evenodd" d="M103.232 100.985H347.416V79.5977H103.232V100.985Z" fill="url(#paint4_linear)"/>
<path fill-rule="evenodd" clip-rule="evenodd" d="M317.703 270.046C317.703 274.754 322.2 278.573 327.751 278.573C333.301 278.573 337.799 274.754 337.799 270.046C337.799 265.337 333.301 261.521 327.751 261.521C322.2 261.521 317.703 265.337 317.703 270.046Z" fill="#CCCCCC"/>
<path fill-rule="evenodd" clip-rule="evenodd" d="M156.309 337.588H294.341V330.57H156.309V337.588Z" fill="#CCCCCC"/>
<path fill-rule="evenodd" clip-rule="evenodd" d="M145.347 94.3325H116.344C114.735 94.3325 113.432 93.032 113.432 91.4272V89.1558C113.432 87.5515 114.735 86.2507 116.344 86.2507H145.347C146.956 86.2507 148.259 87.5515 148.259 89.1558V91.4272C148.259 93.032 146.956 94.3325 145.347 94.3325Z" fill="#F5F7FF"/>
<path fill-rule="evenodd" clip-rule="evenodd" d="M121.123 179.891H248.968V175.507H121.123V179.891Z" fill="#E6E6E6"/>
<path fill-rule="evenodd" clip-rule="evenodd" d="M121.123 187.786H215.945V183.403H121.123V187.786Z" fill="#E6E6E6"/>
<path fill-rule="evenodd" clip-rule="evenodd" d="M121.123 204.943H181.248V200.559H121.123V204.943Z" fill="#E6E6E6"/>
<path fill-rule="evenodd" clip-rule="evenodd" d="M121.123 212.841H229.142V208.457H121.123V212.841Z" fill="#E6E6E6"/>
<path fill-rule="evenodd" clip-rule="evenodd" d="M121.123 231.705H222.313V227.321H121.123V231.705Z" fill="#E6E6E6"/>
<path fill-rule="evenodd" clip-rule="evenodd" d="M121.123 239.601H244.687V235.217H121.123V239.601Z" fill="#E6E6E6"/>
<path fill-rule="evenodd" clip-rule="evenodd" d="M114.884 187.787H118.097V175.507H114.884V187.787Z" fill="#78C2FF"/>
<path fill-rule="evenodd" clip-rule="evenodd" d="M114.884 212.841H118.097V200.559H114.884V212.841Z" fill="#78C2FF"/>
<path fill-rule="evenodd" clip-rule="evenodd" d="M114.884 239.601H118.097V227.321H114.884V239.601Z" fill="#78C2FF"/>
<path fill-rule="evenodd" clip-rule="evenodd" d="M291.428 245.131H281.189C279.154 245.131 277.504 243.485 277.504 241.455V231.24C277.504 229.211 279.154 227.564 281.189 227.564H291.428C293.463 227.564 295.113 229.211 295.113 231.24V241.455C295.113 243.485 293.463 245.131 291.428 245.131Z" fill="#78C2FF"/>
<path fill-rule="evenodd" clip-rule="evenodd" d="M285.75 240.217L281.299 236.346C280.934 236.028 280.896 235.475 281.215 235.112C281.534 234.748 282.087 234.71 282.452 235.026L285.599 237.764L290.088 232.77C290.411 232.411 290.967 232.38 291.327 232.702C291.687 233.025 291.718 233.577 291.395 233.937L285.75 240.217Z" fill="#F3F3F3"/>
<path fill-rule="evenodd" clip-rule="evenodd" d="M281.507 201.909C279.912 201.909 278.614 203.204 278.614 204.798V214.375C278.614 215.966 279.912 217.262 281.507 217.262H291.109C292.705 217.262 294.003 215.966 294.003 214.375V204.798C294.003 203.204 292.705 201.909 291.109 201.909H281.507ZM291.109 218.378H281.507C279.295 218.378 277.495 216.582 277.495 214.375V204.798C277.495 202.591 279.295 200.793 281.507 200.793H291.109C293.322 200.793 295.122 202.591 295.122 204.798V214.375C295.122 216.582 293.322 218.378 291.109 218.378Z" fill="#78C2FF"/>
<path fill-rule="evenodd" clip-rule="evenodd" d="M308.019 228.671C306.424 228.671 305.125 229.967 305.125 231.56V241.135C305.125 242.729 306.424 244.024 308.019 244.024H317.621C319.216 244.024 320.515 242.729 320.515 241.135V231.56C320.515 229.967 319.216 228.671 317.621 228.671H308.019ZM317.621 245.14H308.019C305.806 245.14 304.007 243.345 304.007 241.135V231.56C304.007 229.353 305.806 227.556 308.019 227.556H317.621C319.834 227.556 321.633 229.353 321.633 231.56V241.135C321.633 243.345 319.834 245.14 317.621 245.14Z" fill="#78C2FF"/>
<path fill-rule="evenodd" clip-rule="evenodd" d="M317.94 218.369H307.7C305.666 218.369 304.016 216.723 304.016 214.693V204.478C304.016 202.448 305.666 200.802 307.7 200.802H317.94C319.974 200.802 321.625 202.448 321.625 204.478V214.693C321.625 216.723 319.974 218.369 317.94 218.369Z" fill="#78C2FF"/>
<path fill-rule="evenodd" clip-rule="evenodd" d="M312.262 213.454L307.811 209.583C307.446 209.265 307.409 208.713 307.727 208.349C308.044 207.985 308.6 207.948 308.964 208.264L312.111 211.004L316.6 206.008C316.923 205.649 317.479 205.618 317.839 205.94C318.199 206.262 318.23 206.815 317.907 207.174L312.262 213.454Z" fill="#F3F3F3"/>
<path fill-rule="evenodd" clip-rule="evenodd" d="M308.019 175.146C306.424 175.146 305.125 176.442 305.125 178.035V187.612C305.125 189.205 306.424 190.502 308.019 190.502H317.621C319.216 190.502 320.515 189.205 320.515 187.612V178.035C320.515 176.442 319.216 175.146 317.621 175.146H308.019ZM317.621 191.615H308.019C305.806 191.615 304.007 189.82 304.007 187.612V178.035C304.007 175.828 305.806 174.032 308.019 174.032H317.621C319.834 174.032 321.633 175.828 321.633 178.035V187.612C321.633 189.82 319.834 191.615 317.621 191.615Z" fill="#78C2FF"/>
<path fill-rule="evenodd" clip-rule="evenodd" d="M291.428 191.606H281.189C279.154 191.606 277.504 189.96 277.504 187.931V177.716C277.504 175.686 279.154 174.04 281.189 174.04H291.428C293.463 174.04 295.113 175.686 295.113 177.716V187.931C295.113 189.96 293.463 191.606 291.428 191.606Z" fill="#78C2FF"/>
<path fill-rule="evenodd" clip-rule="evenodd" d="M285.75 186.693L281.299 182.821C280.934 182.504 280.896 181.951 281.215 181.587C281.534 181.223 282.087 181.185 282.452 181.503L285.599 184.24L290.088 179.245C290.411 178.885 290.967 178.855 291.327 179.178C291.687 179.5 291.718 180.053 291.395 180.413L285.75 186.693Z" fill="#F3F3F3"/>
<mask id="mask4" mask-type="alpha" maskUnits="userSpaceOnUse" x="30" y="197" width="50" height="129">
<path fill-rule="evenodd" clip-rule="evenodd" d="M74.9139 198.141C70.7571 196.157 66.6199 209.36 66.6199 209.36C59.5546 218.674 49.6805 206.282 50.646 220.206C52.3355 244.568 22.5357 227.867 36.2836 253.303C50.0314 278.739 24.1444 267.685 32.688 288.196C41.2316 308.704 30.158 333.167 43.0131 323.115C43.0131 323.115 54.3321 298.351 66.0053 290.69C77.6787 283.029 59.0121 273.939 62.6644 263.533C67.9693 248.419 80.7507 249.011 71.5348 232.771C62.3192 216.528 89.045 204.882 74.9139 198.141Z" fill="white"/>
</mask>
<g mask="url(#mask4)">
<path fill-rule="evenodd" clip-rule="evenodd" d="M74.9139 198.141C70.7571 196.157 66.6199 209.36 66.6199 209.36C59.5546 218.674 49.6805 206.282 50.646 220.206C52.3355 244.568 22.5357 227.867 36.2836 253.303C50.0314 278.739 24.1444 267.685 32.688 288.196C41.2316 308.704 30.158 333.167 43.0131 323.115C43.0131 323.115 54.3321 298.351 66.0053 290.69C77.6787 283.029 59.0121 273.939 62.6644 263.533C67.9693 248.419 80.7507 249.011 71.5348 232.771C62.3192 216.528 89.045 204.882 74.9139 198.141Z" fill="url(#paint5_linear)"/>
</g>
<path fill-rule="evenodd" clip-rule="evenodd" d="M38.9426 313.794C44.5151 309.886 51.0363 282.641 51.4255 266.414C51.6248 258.101 54.0877 254.64 56.2608 251.585C58.3378 248.663 60.1317 246.142 59.0867 240.35C57.0898 229.281 62.3402 224.504 62.3933 224.458L61.7856 223.766C61.552 223.969 56.0841 228.897 58.1796 240.513C59.1561 245.925 57.5466 248.187 55.5091 251.052C53.3709 254.059 50.71 257.799 50.5042 266.392C50.0865 283.807 43.4193 309.531 38.4126 313.042L38.9426 313.794Z" fill="white"/>
<mask id="mask5" mask-type="alpha" maskUnits="userSpaceOnUse" x="0" y="261" width="44" height="55">
<path fill-rule="evenodd" clip-rule="evenodd" d="M9.93863 263.783C6.63833 261.986 3.09876 261.624 1.70635 262.942C0.647929 263.941 1.14715 265.655 1.75227 266.918C2.90672 269.327 4.3668 270.813 5.65506 272.124C7.44605 273.946 8.86065 275.386 8.14346 278.183C8.00262 278.731 7.84046 279.285 7.67742 279.84C6.53924 283.724 5.4639 287.394 11.424 290.066C12.8236 290.695 14.1066 291.197 15.2387 291.639C19.9542 293.485 23.0697 294.706 26.4093 301.738C27.0309 303.047 27.5774 304.283 28.1058 305.478C30.9884 311.995 32.7287 315.929 39.0309 314.658C40.8372 314.294 42.0143 313.365 42.5291 311.896C43.8528 308.119 40.6856 301.508 37.8894 298.187C37.6846 297.942 32.8774 292.095 33.4056 283.728C33.4918 282.367 33.6322 281.116 33.7563 280.011C34.0848 277.084 34.3223 274.971 33.2343 273.753C32.2396 272.637 30.0618 272.131 26.174 272.113C18.3665 272.076 15.2844 268.856 12.8078 266.269C11.8168 265.234 10.9612 264.34 9.93863 263.783ZM27.2625 305.848C26.7367 304.66 26.1925 303.43 25.5763 302.133C22.3932 295.427 19.5734 294.325 14.9018 292.494C13.7603 292.049 12.4664 291.543 11.046 290.905C4.35406 287.904 5.64978 283.483 6.79324 279.583C6.95298 279.038 7.1125 278.492 7.25071 277.955C7.83936 275.66 6.70843 274.509 4.99676 272.766C3.72454 271.473 2.14141 269.86 0.920829 267.315C-0.414889 264.529 0.266044 263.036 1.07244 262.273C2.77005 260.668 6.6847 260.964 10.3803 262.977C11.5286 263.601 12.4738 264.59 13.4742 265.636C15.8304 268.097 18.7626 271.159 26.1784 271.195C30.407 271.214 32.723 271.795 33.9227 273.141C35.2841 274.667 35.0274 276.951 34.6721 280.114C34.5491 281.208 34.41 282.446 34.3256 283.785C33.8211 291.775 38.5492 297.54 38.596 297.597C41.421 300.953 44.9013 307.915 43.399 312.201C42.7693 313.996 41.3611 315.127 39.2137 315.559C38.3576 315.732 37.5765 315.815 36.8575 315.815C31.6713 315.815 29.772 311.523 27.2625 305.848Z" fill="white"/>
</mask>
<g mask="url(#mask5)">
<path fill-rule="evenodd" clip-rule="evenodd" d="M9.93863 263.783C6.63833 261.986 3.09876 261.624 1.70635 262.942C0.647929 263.941 1.14715 265.655 1.75227 266.918C2.90672 269.327 4.3668 270.813 5.65506 272.124C7.44605 273.946 8.86065 275.386 8.14346 278.183C8.00262 278.731 7.84046 279.285 7.67742 279.84C6.53924 283.724 5.4639 287.394 11.424 290.066C12.8236 290.695 14.1066 291.197 15.2387 291.639C19.9542 293.485 23.0697 294.706 26.4093 301.738C27.0309 303.047 27.5774 304.283 28.1058 305.478C30.9884 311.995 32.7287 315.929 39.0309 314.658C40.8372 314.294 42.0143 313.365 42.5291 311.896C43.8528 308.119 40.6856 301.508 37.8894 298.187C37.6846 297.942 32.8774 292.095 33.4056 283.728C33.4918 282.367 33.6322 281.116 33.7563 280.011C34.0848 277.084 34.3223 274.971 33.2343 273.753C32.2396 272.637 30.0618 272.131 26.174 272.113C18.3665 272.076 15.2844 268.856 12.8078 266.269C11.8168 265.234 10.9612 264.34 9.93863 263.783ZM27.2625 305.848C26.7367 304.66 26.1925 303.43 25.5763 302.133C22.3932 295.427 19.5734 294.325 14.9018 292.494C13.7603 292.049 12.4664 291.543 11.046 290.905C4.35406 287.904 5.64978 283.483 6.79324 279.583C6.95298 279.038 7.1125 278.492 7.25071 277.955C7.83936 275.66 6.70843 274.509 4.99676 272.766C3.72454 271.473 2.14141 269.86 0.920829 267.315C-0.414889 264.529 0.266044 263.036 1.07244 262.273C2.77005 260.668 6.6847 260.964 10.3803 262.977C11.5286 263.601 12.4738 264.59 13.4742 265.636C15.8304 268.097 18.7626 271.159 26.1784 271.195C30.407 271.214 32.723 271.795 33.9227 273.141C35.2841 274.667 35.0274 276.951 34.6721 280.114C34.5491 281.208 34.41 282.446 34.3256 283.785C33.8211 291.775 38.5492 297.54 38.596 297.597C41.421 300.953 44.9013 307.915 43.399 312.201C42.7693 313.996 41.3611 315.127 39.2137 315.559C38.3576 315.732 37.5765 315.815 36.8575 315.815C31.6713 315.815 29.772 311.523 27.2625 305.848Z" fill="url(#paint6_linear)"/>
</g>
<mask id="mask6" mask-type="alpha" maskUnits="userSpaceOnUse" x="7" y="268" width="34" height="54">
<path fill-rule="evenodd" clip-rule="evenodd" d="M39.1144 321.122L40.0346 321.074C39.9894 320.212 38.8283 299.879 30.6455 293.93C21.6679 287.4 18.8374 280.386 17.4896 275.677C15.901 270.127 7.81611 268.645 7.4729 268.584L7.3125 269.489C7.39094 269.504 15.1737 270.934 16.6034 275.929C17.9888 280.769 20.8956 287.977 30.1025 294.671C37.9347 300.368 39.1036 320.916 39.1144 321.122Z" fill="white"/>
</mask>
<g mask="url(#mask6)">
<path fill-rule="evenodd" clip-rule="evenodd" d="M39.1144 321.122L40.0346 321.074C39.9894 320.212 38.8283 299.879 30.6455 293.93C21.6679 287.4 18.8374 280.386 17.4896 275.677C15.901 270.127 7.81611 268.645 7.4729 268.584L7.3125 269.489C7.39094 269.504 15.1737 270.934 16.6034 275.929C17.9888 280.769 20.8956 287.977 30.1025 294.671C37.9347 300.368 39.1036 320.916 39.1144 321.122Z" fill="url(#paint7_linear)"/>
</g>
<mask id="mask7" mask-type="alpha" maskUnits="userSpaceOnUse" x="13" y="218" width="39" height="101">
<path fill-rule="evenodd" clip-rule="evenodd" d="M20.4045 218.658C26.2206 216.668 25.0124 227.852 27.47 236.126C29.9274 244.401 54.8099 239.737 44.3654 260.456C33.921 281.175 57.5745 267.385 50.5092 285.467C43.4439 303.546 49.8949 322.884 42.215 317.965C34.5353 313.047 37.9004 290.278 29.9136 287.573C21.9265 284.868 20.6231 281.712 28.5313 274.357C36.4392 267.001 7.80953 259.699 14.8748 244.849C21.9404 229.998 13.6848 220.956 20.4045 218.658Z" fill="white"/>
</mask>
<g mask="url(#mask7)">
<path fill-rule="evenodd" clip-rule="evenodd" d="M20.4045 218.658C26.2206 216.668 25.0124 227.852 27.47 236.126C29.9274 244.401 54.8099 239.737 44.3654 260.456C33.921 281.175 57.5745 267.385 50.5092 285.467C43.4439 303.546 49.8949 322.884 42.215 317.965C34.5353 313.047 37.9004 290.278 29.9136 287.573C21.9265 284.868 20.6231 281.712 28.5313 274.357C36.4392 267.001 7.80953 259.699 14.8748 244.849C21.9404 229.998 13.6848 220.956 20.4045 218.658Z" fill="url(#paint8_linear)"/>
</g>
<path fill-rule="evenodd" clip-rule="evenodd" d="M38.6517 317.1C39.383 314.005 45.6296 286.764 39.8013 283.472C34.6644 280.57 34.7909 269.283 35.5923 258.623C36.3015 249.189 24.1548 244.778 23.6374 244.594L23.3291 245.462C23.4493 245.504 35.3297 249.82 34.6731 258.555C33.8503 269.5 33.7619 281.115 39.3472 284.272C43.7731 286.773 39.6983 308.665 37.7546 316.889L38.6517 317.1Z" fill="white"/>
<mask id="mask8" mask-type="alpha" maskUnits="userSpaceOnUse" x="25" y="307" width="36" height="32">
<path fill-rule="evenodd" clip-rule="evenodd" d="M60.5959 307.4L52.292 338.829H33.7346L25.4307 307.4H60.5959Z" fill="white"/>
</mask>
<g mask="url(#mask8)">
<path fill-rule="evenodd" clip-rule="evenodd" d="M60.5959 307.4L52.292 338.829H33.7346L25.4307 307.4H60.5959Z" fill="url(#paint9_linear)"/>
</g>
<mask id="mask9" mask-type="alpha" maskUnits="userSpaceOnUse" x="25" y="307" width="36" height="32">
<path fill-rule="evenodd" clip-rule="evenodd" d="M60.5959 307.4C60.5959 307.4 42.3151 310.824 42.3151 338.829H33.7346L25.4307 307.4H60.5959Z" fill="white"/>
</mask>
<g mask="url(#mask9)">
<path fill-rule="evenodd" clip-rule="evenodd" d="M60.5959 307.4C60.5959 307.4 42.3151 310.824 42.3151 338.829H33.7346L25.4307 307.4H60.5959Z" fill="url(#paint10_linear)"/>
</g>
<path fill-rule="evenodd" clip-rule="evenodd" d="M206.029 286.543C206.029 286.543 206.668 287.586 206.75 288.439C206.811 289.114 207.38 290.122 207.626 290.679C207.872 291.236 208.666 293.757 208.694 294.412C208.705 294.682 208.105 296.372 208.191 296.913C208.277 297.455 208.587 298.524 208.099 298.597C207.613 298.667 207.062 297.79 207.062 297.79C207.062 297.79 207.108 298.288 206.695 298.476C205.895 298.847 205.471 298.522 205.471 298.522C205.471 298.522 205.174 299.068 204.803 299.143C203.985 299.305 203.586 298.978 203.586 298.978C203.586 298.978 203.225 299.285 202.661 299.274C201.938 299.261 201.634 298.638 201.634 298.638C201.634 298.638 200.718 298.823 200.452 298.397C200.189 297.97 200.235 297.516 200.125 297.13C200.013 296.745 200.096 293.259 201.285 290.747C202.472 288.237 200.982 285.791 200.982 285.791L206.029 286.543Z" fill="#EEA886"/>
<path fill-rule="evenodd" clip-rule="evenodd" d="M207.189 297.464C207.189 297.464 207.27 294.336 206.446 293.669C205.62 293.003 205.526 294.132 205.526 294.132C205.526 294.132 205.638 293.016 204.737 292.865C203.836 292.716 203.796 294.04 203.796 294.04C203.796 294.04 203.649 293.18 202.702 293.356C201.755 293.533 201.981 294.631 201.981 294.631C201.981 294.631 201.076 293.555 200.489 294.59C199.498 296.335 200.452 298.397 200.452 298.397C200.452 298.397 200.733 298.869 201.634 298.639C201.634 298.639 202.236 299.851 203.585 298.978C203.585 298.978 204.967 299.737 205.471 298.522C205.471 298.522 206.991 299.244 207.189 297.464Z" fill="#DB9C7C"/>
<path fill-rule="evenodd" clip-rule="evenodd" d="M216.666 241.484C216.666 241.484 211.298 259.331 209.485 265.914C208.916 267.979 207.541 287.694 207.297 288.487C207.053 289.283 200.246 290.37 200.246 290.37C200.246 290.37 201.07 265.706 201.146 264.36C201.223 263.014 208.659 235.471 210.821 234.487C212.44 233.753 213.297 234.36 215.339 235.872C218.202 237.994 216.666 241.484 216.666 241.484Z" fill="#323657"/>
<path fill-rule="evenodd" clip-rule="evenodd" d="M269.606 217.396L269.009 216.486L281.294 208.463L281.891 209.373L269.606 217.396Z" fill="#4DA8F2"/>
<path fill-rule="evenodd" clip-rule="evenodd" d="M283.201 213.075C283.201 213.075 283.085 213.77 282.885 214.046C282.885 214.046 282.483 214.526 282.217 214.883C282.133 214.997 282.063 215.098 282.026 215.168C281.863 215.46 281.595 216.148 281.01 216.74C280.426 217.334 278.145 219.215 278.145 219.215L276.194 217.562L274.166 216.657C274.166 216.657 275.302 211.734 275.783 211.12C275.829 211.058 275.88 211.001 275.928 210.951C276.387 210.471 276.93 210.304 277.2 210.081C277.299 209.997 278.341 209.248 278.714 209.344C279.229 209.478 279.534 209.78 279.65 210.125C279.65 210.125 280.65 210.431 281.039 211.015C281.039 211.015 281.969 211.269 282.245 212.132C282.245 212.132 283.162 212.496 283.201 213.075Z" fill="#EFAA88"/>
<path fill-rule="evenodd" clip-rule="evenodd" d="M212.311 363.334C212.311 363.334 211.821 366.722 211.76 367.231C211.7 367.74 206.317 366.931 206.317 366.931L205.882 362.897C205.882 362.897 211.639 362.856 212.311 363.334Z" fill="#424773"/>
<path fill-rule="evenodd" clip-rule="evenodd" d="M211.816 366.799C211.816 366.799 213.521 368.842 215.171 369.732C216.822 370.622 219.412 370.973 220.388 371.896C221.091 372.56 222.952 375.423 216.101 375.363C209.252 375.306 205.95 375.769 205.216 374.671C204.482 373.573 206.279 366.571 206.279 366.571C206.279 366.571 207.901 367.152 211.816 366.799Z" fill="#292C47"/>
<path fill-rule="evenodd" clip-rule="evenodd" d="M250.871 363.334C250.871 363.334 250.381 366.722 250.319 367.231C250.258 367.74 244.876 366.931 244.876 366.931L244.441 362.897C244.441 362.897 250.196 362.856 250.871 363.334Z" fill="#424773"/>
<path fill-rule="evenodd" clip-rule="evenodd" d="M250.376 366.799C250.376 366.799 252.082 368.842 253.732 369.732C255.38 370.622 261.448 371.352 262.424 372.273C263.127 372.939 264.298 375.616 254.661 375.363C247.814 375.186 244.51 375.769 243.776 374.671C243.042 373.573 244.837 366.571 244.837 366.571C244.837 366.571 246.366 367.192 250.376 366.799Z" fill="#292C47"/>
<path fill-rule="evenodd" clip-rule="evenodd" d="M216.767 276.28C216.767 276.28 211.711 284.296 212.087 291.541C212.464 298.785 210.254 306.694 209.494 314.263C208.648 322.7 205.183 342.674 205.055 347.187C204.93 351.701 205.594 366.111 205.594 366.111L212.53 366.269C212.53 366.269 218.358 331.35 219.867 327.788C221.377 324.224 228.858 298.823 229.111 295.973C229.361 293.123 216.767 276.28 216.767 276.28Z" fill="#292C47"/>
<path fill-rule="evenodd" clip-rule="evenodd" d="M243.385 277.367C243.385 277.367 247.197 297.222 247.7 301.657C248.203 306.091 248.537 323.117 248.79 325.887C249.041 328.658 251.139 362.069 251.807 366.269H242.939C242.939 366.269 236.132 341.922 236.132 330.401C236.132 318.879 230.871 305.355 227.477 297.755C224.082 290.153 216.31 289.973 214.223 275.87C214.223 275.87 240.561 272.893 243.385 277.367Z" fill="#292C47"/>
<path fill-rule="evenodd" clip-rule="evenodd" d="M225.204 208.897C225.204 208.897 231.992 206.37 235.12 211.523C238.252 216.677 237.948 226.997 234.527 228.266C231.106 229.533 225.969 228.871 224.215 225.644C222.464 222.42 220.884 217.757 220.959 214.643C221.036 211.526 223.422 209.798 225.204 208.897Z" fill="#EEA886"/>
<path fill-rule="evenodd" clip-rule="evenodd" d="M233.791 228.5C233.791 228.5 233.51 230.328 233.976 231.229C234.441 232.13 225.182 232.152 225.182 232.152C225.182 232.152 224.431 227.255 223.005 223.117C221.581 218.978 233.791 228.5 233.791 228.5Z" fill="#EEA886"/>
<path fill-rule="evenodd" clip-rule="evenodd" d="M223.005 223.117C223.005 223.117 223.644 224.169 226.254 223.761C228.863 223.351 232.044 219.89 233.134 219.509C234.224 219.129 234.235 218.492 234.235 218.492L234.916 219.485L236.072 219.557C236.072 219.557 235.017 216.46 236.61 215.197C238.201 213.934 234.958 205.171 226.591 208.088C226.591 208.088 220.166 209.855 220.399 213.503C220.632 217.148 221.568 221.302 223.005 223.117Z" fill="#D88A51"/>
<path fill-rule="evenodd" clip-rule="evenodd" d="M234.525 231.122C234.525 231.122 234.497 229.401 233.714 229.235C232.932 229.07 225.086 228.318 224.125 228.693V230.699C224.125 230.699 225.976 231.834 234.525 231.122Z" fill="#E2D2CA"/>
<path fill-rule="evenodd" clip-rule="evenodd" d="M234.062 217.166C233.914 216.554 232.357 214.805 231.759 216.677C231.163 218.549 232.662 221.065 233.497 220.85C234.334 220.633 234.433 218.715 234.062 217.166Z" fill="#EEA886"/>
<path fill-rule="evenodd" clip-rule="evenodd" d="M247.505 233.726C242.126 233.018 234.525 231.12 234.525 231.12L224.126 230.699C224.126 230.699 214.581 232.794 210.821 234.487C210.465 234.649 210.463 242.983 209.485 245.168L212.601 251.727C212.601 251.727 214.403 264.721 214.776 270.499C214.948 273.152 211.063 295.374 211.063 295.374C211.063 295.374 215.225 296.598 222.322 297.378C229.421 298.158 247.155 297.095 247.267 296.258C247.379 295.423 243.833 265.116 243.675 263.549C243.435 261.139 244.508 248.338 244.508 248.338C246.147 247.071 260.537 240.407 264.461 236.935C265.511 236.006 269.945 231.698 271.207 230.212C275.669 224.947 279.328 220.429 279.774 219.456C280.279 218.901 274.81 215.96 274.324 215.8C273.898 215.657 267.979 223.494 265.658 226.004C264.621 227.122 260.317 230.245 260.317 230.245C260.317 230.245 250.871 233.919 247.505 233.726Z" fill="#323657"/>
<path fill-rule="evenodd" clip-rule="evenodd" d="M223.271 209.507C223.271 209.507 214.618 210.182 223.005 223.117L223.271 209.507Z" fill="#D88A51"/>
<path fill-rule="evenodd" clip-rule="evenodd" d="M281.892 209.373L282.601 208.292L281.294 208.463L281.892 209.373Z" fill="#DFE1E8"/>
<path fill-rule="evenodd" clip-rule="evenodd" d="M108.626 271.475C108.626 271.475 112.836 271.729 114.015 272.385C115.195 273.038 123.155 270.535 123.303 269.958C123.45 269.382 123.303 269.097 123.303 269.097H107.676L108.626 271.475Z" fill="#DE9673"/>
<path fill-rule="evenodd" clip-rule="evenodd" d="M89.726 252.954C89.726 252.954 88.3828 263.483 89.726 264.861C94.8564 270.133 113.872 269.715 113.872 269.715L113.864 271.858C113.864 271.858 84.9603 275.456 82.2748 269.861C79.0479 263.143 80.3001 252.183 80.3001 252.183L89.726 252.954Z" fill="#DE9673"/>
<path fill-rule="evenodd" clip-rule="evenodd" d="M80.1863 363.906L81.9033 361.953L78.8036 358.719L76.1855 360.548L80.1863 363.906Z" fill="#2F4563"/>
<path fill-rule="evenodd" clip-rule="evenodd" d="M76.1856 360.548C76.1856 360.548 79.7232 363.207 80.7073 363.312C81.691 363.419 82.1556 363.858 82.0384 365.353C81.9213 366.847 83.4763 373.147 84.5596 373.248C85.6428 373.349 89.3307 373.369 90 375.795C90.6693 378.22 78.2993 377.711 77.5332 375.723C76.767 373.733 71.4415 364.09 72.0723 363.314C72.7034 362.538 74.3702 360.795 76.1856 360.548Z" fill="#1E2D40"/>
<path fill-rule="evenodd" clip-rule="evenodd" d="M98.8854 285.19C98.8854 285.19 121.997 325.355 112.615 333.665C108.936 336.922 105.395 339.87 100.304 344.23C97.598 346.549 94.3309 349.234 90.4578 353.257L90.2967 353.426C87.5345 356.297 85.2549 358.726 84.5524 359.476C84.5271 359.5 84.5052 359.524 84.4861 359.546L84.4076 359.629L81.8353 362.078L78.061 358.768C78.061 358.768 82.3391 352.862 84.7517 348.327C88.1377 341.961 93.8266 334.478 96.4585 332.389C100.968 328.814 102.207 328.112 102.207 324.693C102.207 321.025 81.0234 300.539 81.0234 300.539C81.0234 300.539 77.9503 287.715 85.2914 284.362C92.4443 281.091 98.8854 285.19 98.8854 285.19Z" fill="#23344A"/>
<path fill-rule="evenodd" clip-rule="evenodd" d="M81.2606 370.127C81.2606 370.127 81.1147 368.277 81.4276 367.093C81.7407 365.911 76.643 366.591 76.643 366.591C76.643 366.591 75.9867 371.53 76.1766 372.661C76.366 373.792 81.2606 370.127 81.2606 370.127Z" fill="#41608A"/>
<path fill-rule="evenodd" clip-rule="evenodd" d="M82.2123 367.1L75.3379 368.336C75.3379 368.336 74.8424 359.585 74.9316 352.882C75.0279 345.675 74.6645 340.011 76.8705 334.274C78.9342 328.908 78.4648 326.865 78.6448 323.202C78.8263 319.539 76.8824 300.679 76.8824 300.679C76.8824 300.679 74.5344 292.236 79.9702 286.278C85.266 280.473 98.9673 286.254 98.9673 286.254C98.9673 286.254 96.1133 312.019 89.2605 327.957C87.3207 332.468 88.3695 335.208 85.8958 342.176C85.8958 342.176 82.1387 357.376 82.2123 367.1Z" fill="#2F4563"/>
<path fill-rule="evenodd" clip-rule="evenodd" d="M88.1967 235.309C87.8366 235.916 87.5733 236.692 87.3819 237.514C87.1998 238.292 87.0816 239.112 87.0049 239.868C86.8381 241.51 86.8665 242.863 86.8665 242.863C86.8665 242.863 77.6966 240.872 79.2015 238.739C80.7056 236.604 79.8205 230.14 79.8205 230.14C79.8205 230.14 89.3839 233.314 88.1967 235.309Z" fill="#EEA987"/>
<path fill-rule="evenodd" clip-rule="evenodd" d="M93.356 217.689C93.356 217.689 95.7031 219.721 94.6539 225.581C94.6539 225.581 95.1729 230.247 95.889 231.061C96.6053 231.876 93.9664 232.176 93.6889 232.762C93.4111 233.349 92.8862 236.091 91.0464 237.744C89.2069 239.399 80.0986 234.414 79.6551 231.598C79.2115 228.783 72.9003 216.714 82.8895 216.161C92.8789 215.609 93.356 217.689 93.356 217.689Z" fill="#EEA886"/>
<path fill-rule="evenodd" clip-rule="evenodd" d="M99.6401 260.918C99.454 261.506 100.154 270.519 100.09 271.297C99.7407 275.561 100.844 282.04 101.279 284.362C101.382 284.91 101.44 285.19 101.44 285.19C91.5386 290.021 77.7668 289.598 77.7668 289.598C77.8158 289.224 79.7384 284.583 79.7876 284.228C80.6028 278.428 81.8069 275.78 81.4793 271.858H81.4804C81.2975 269.655 80.7355 267.352 79.5714 264.498C76.2087 256.256 76.3915 250.769 76.9399 246.24C77.4871 241.712 78.8483 239.129 78.8483 239.129L87.2132 240.026C88.9889 241.988 90.5689 243.033 95.6154 247.503C100.985 252.26 101.924 253.702 99.6401 260.918Z" fill="#EB4747"/>
<path fill-rule="evenodd" clip-rule="evenodd" d="M75.8684 371.378C75.8684 371.378 80.7067 370.006 80.8502 369.87C80.9937 369.737 81.0262 369.445 81.6938 369.71C82.3613 369.978 82.6373 370.986 83.2923 371.306C83.9475 371.626 87.9401 372.79 90.1277 373.864C90.9183 374.252 94.2634 375.523 94.7455 376.587C95.2278 377.65 95.078 379.248 89.3304 378.869C83.5827 378.489 77.2953 379.298 76.0367 378.671C74.7781 378.044 75.5388 373.038 75.8684 371.378Z" fill="#23344A"/>
<path fill-rule="evenodd" clip-rule="evenodd" d="M94.9036 223.474C94.9036 223.474 96.0269 211.308 84.2029 213.481C72.3788 215.653 78.4738 228.95 80.0668 233.283C80.0668 233.283 79.8735 226.554 85.5664 226.335C91.259 226.116 92.4357 224.8 94.9036 223.474Z" fill="#464240"/>
<path fill-rule="evenodd" clip-rule="evenodd" d="M84.6413 224.625C83.9296 223.391 81.4882 224.048 81.7672 225.931C82.0461 227.812 84.0025 229.691 84.6509 228.781C85.2996 227.869 85.6865 226.44 84.6413 224.625Z" fill="#EEA987"/>
<path fill-rule="evenodd" clip-rule="evenodd" d="M84.9105 248.527C84.9105 248.527 83.9361 258.95 85.2788 260.328C90.4094 265.6 110.653 265.701 110.653 265.701L111.62 268.73C111.62 268.73 81.5289 270.776 78.8437 265.184C75.6168 258.463 76.869 247.503 76.869 247.503L84.9105 248.527Z" fill="#EEA987"/>
<path fill-rule="evenodd" clip-rule="evenodd" d="M80.4551 216.475C80.4551 216.475 75.9017 212.117 72.6642 217.054C69.427 221.99 76.5099 228.875 79.3813 224.789C82.2529 220.701 80.4551 216.475 80.4551 216.475Z" fill="#464240"/>
<path fill-rule="evenodd" clip-rule="evenodd" d="M87.3819 237.514C87.1997 238.292 87.0815 239.112 87.0048 239.868C83.9583 238.483 81.6802 234.25 81.6802 234.25C83.8862 236.148 87.381 237.514 87.381 237.514C87.381 237.514 87.381 237.514 87.3819 237.514Z" fill="#A77860"/>
<path fill-rule="evenodd" clip-rule="evenodd" d="M102.209 270.331H130.909V268.73H102.209V270.331Z" fill="#6E6760"/>
<path fill-rule="evenodd" clip-rule="evenodd" d="M143.837 244.77L130.908 270.331L129.478 269.609L142.406 244.048L143.837 244.77Z" fill="#6E6760"/>
<path fill-rule="evenodd" clip-rule="evenodd" d="M106.427 265.701C106.427 265.701 110.637 265.379 111.817 264.546C112.996 263.713 120.956 266.898 121.104 267.635C121.251 268.369 121.104 268.731 121.104 268.731H105.478L106.427 265.701Z" fill="#EEA987"/>
<path fill-rule="evenodd" clip-rule="evenodd" d="M78.8486 239.129L79.4375 237.534L87.472 239.129V240.55L78.8486 239.129Z" fill="#EB4747"/>
<path fill-rule="evenodd" clip-rule="evenodd" d="M84.8984 248.665C84.8984 248.665 85.7606 242.623 81.5447 242.093C77.329 241.563 76.8667 247.525 76.8667 247.525L84.8984 248.665Z" fill="#EEA987"/>
<path fill-rule="evenodd" clip-rule="evenodd" d="M359.536 362.549C359.536 362.549 360.024 365.968 360.085 366.481C360.147 366.994 365.528 366.179 365.528 366.179L365.963 362.108C365.963 362.108 360.208 362.067 359.536 362.549Z" fill="#5C544D"/>
<path fill-rule="evenodd" clip-rule="evenodd" d="M360.029 366.047C360.029 366.047 358.324 368.108 356.676 369.007C355.028 369.903 352.435 370.26 351.462 371.19C350.756 371.861 348.897 374.75 355.746 374.69C362.593 374.633 365.895 375.1 366.629 373.991C367.363 372.884 365.568 365.815 365.568 365.815C365.568 365.815 363.946 366.402 360.029 366.047Z" fill="#3C4145"/>
<path fill-rule="evenodd" clip-rule="evenodd" d="M320.983 362.549C320.983 362.549 321.473 365.968 321.533 366.481C321.594 366.994 326.975 366.179 326.975 366.179L327.41 362.108C327.41 362.108 321.656 362.067 320.983 362.549Z" fill="#5C544D"/>
<path fill-rule="evenodd" clip-rule="evenodd" d="M321.477 366.047C321.477 366.047 319.772 368.108 318.122 369.007C316.474 369.903 310.405 370.642 309.432 371.571C308.727 372.242 307.558 374.945 317.193 374.69C324.037 374.513 327.342 375.1 328.076 373.991C328.81 372.884 327.015 365.815 327.015 365.815C327.015 365.815 325.485 366.442 321.477 366.047Z" fill="#3C4145"/>
<path fill-rule="evenodd" clip-rule="evenodd" d="M357.625 274.261C357.625 274.261 360.488 282.746 360.112 290.059C359.734 297.374 361.593 305.374 362.351 313.014C363.199 321.532 366.664 341.694 366.79 346.249C366.915 350.804 366.251 365.35 366.251 365.35L359.315 365.51C359.315 365.51 353.49 330.263 351.982 326.666C350.473 323.071 342.991 297.428 342.738 294.553C342.488 291.674 357.625 274.261 357.625 274.261Z" fill="#33373B"/>
<path fill-rule="evenodd" clip-rule="evenodd" d="M328.467 275.771C328.467 275.771 324.657 295.815 324.154 300.291C323.65 304.767 323.314 321.95 323.064 324.747C322.811 327.547 321.387 361.354 320.047 365.51H328.913C328.913 365.51 335.72 340.933 335.72 329.305C335.72 317.676 340.978 304.024 344.373 296.35C347.768 288.678 355.537 288.496 357.625 274.261C357.625 274.261 331.29 271.256 328.467 275.771Z" fill="#3C4145"/>
<path fill-rule="evenodd" clip-rule="evenodd" d="M346.487 207.271C346.487 207.271 339.497 204.667 336.274 209.973C333.051 215.283 333.363 225.909 336.885 227.216C340.409 228.522 345.703 227.838 347.504 224.518C349.308 221.197 350.939 216.394 350.86 213.185C350.78 209.976 348.322 208.196 346.487 207.271Z" fill="#EEA886"/>
<path fill-rule="evenodd" clip-rule="evenodd" d="M338.058 226.889C338.058 226.889 338.341 228.717 337.873 229.618C337.408 230.517 346.667 230.541 346.667 230.541C346.667 230.541 347.418 225.644 348.842 221.506C350.268 217.367 338.058 226.889 338.058 226.889Z" fill="#EEA886"/>
<path fill-rule="evenodd" clip-rule="evenodd" d="M348.842 221.506C348.842 221.506 348.203 222.558 345.594 222.15C342.986 221.742 339.805 218.279 338.715 217.9C337.627 217.518 337.616 216.881 337.616 216.881L336.935 217.874L335.777 217.948C335.777 217.948 336.832 214.851 335.241 213.588C333.65 212.326 336.893 203.564 345.258 206.479C345.258 206.479 351.683 208.246 351.45 211.892C351.215 215.537 350.281 219.691 348.842 221.506Z" fill="#FCCCA2"/>
<path fill-rule="evenodd" clip-rule="evenodd" d="M337.324 229.509C337.324 229.509 337.355 227.788 338.135 227.624C338.917 227.459 346.764 226.705 347.724 227.082V229.086C347.724 229.086 345.874 230.221 337.324 229.509Z" fill="#E2D2CA"/>
<path fill-rule="evenodd" clip-rule="evenodd" d="M337.79 215.554C337.935 214.943 339.493 213.196 340.09 215.068C340.688 216.937 339.189 219.454 338.352 219.239C337.517 219.024 337.418 217.104 337.79 215.554Z" fill="#EEA886"/>
<path fill-rule="evenodd" clip-rule="evenodd" d="M337.324 229.509C337.324 229.509 333.024 231.052 328.041 233.163C328.041 233.163 322.31 235.298 321.691 241.613C321.361 244.965 317.784 262.753 317.111 264.257C316.441 265.763 308.509 289.941 308.23 290.442C307.951 290.944 314.703 293.741 315.151 293.518C315.598 293.294 322.831 271.466 323.558 269.848C323.558 269.848 327.722 256.76 327.834 254.807C327.834 254.807 327.953 260.37 328.177 261.931C328.399 263.492 324.474 293.801 324.584 294.636C324.696 295.473 342.428 296.534 349.526 295.754C356.623 294.973 362.349 293.345 362.349 293.345C362.349 293.345 356.765 269.425 356.937 266.773C357.31 260.995 359.246 250.112 359.246 250.112L365.032 260.995L357.625 280.006L359.321 285.784C359.321 285.784 373.085 265.035 373.533 263.139C373.979 261.243 372.858 258.829 372.131 257.268C371.404 255.708 366.633 243.827 365.515 242.155C364.399 240.482 362.509 233.785 357.945 231.922C354.129 230.364 347.724 229.086 347.724 229.086L337.324 229.509Z" fill="#EB4747"/>
<path fill-rule="evenodd" clip-rule="evenodd" d="M327.861 301.4L295.436 293.106L301.236 270.539L333.661 278.833L327.861 301.4Z" fill="#D6D6D6"/>
<path fill-rule="evenodd" clip-rule="evenodd" d="M305.407 295.377C305.407 295.377 304.479 296.872 304.141 297.297C303.803 297.722 304.974 297.99 305.475 297.56C305.976 297.128 305.407 295.377 305.407 295.377Z" fill="#C98462"/>
<path fill-rule="evenodd" clip-rule="evenodd" d="M312.159 300.48C312.159 300.48 312.706 299.91 312.825 299.544C312.825 299.544 312.987 298.864 313.132 298.386C313.179 298.235 313.223 298.104 313.26 298.022C313.416 297.68 313.86 296.979 314.003 296.056C314.145 295.136 314.55 290.997 314.55 290.997L312.038 290.366L310.019 289.94C310.019 289.94 305.66 294.278 305.427 295.122C305.405 295.206 305.385 295.287 305.374 295.366C305.246 296.1 305.46 296.698 305.438 297.091C305.429 297.235 305.451 298.673 305.787 298.943C306.253 299.318 306.727 299.388 307.119 299.263C307.119 299.263 308.063 299.956 308.852 299.914C308.852 299.914 309.703 300.58 310.669 300.252C310.669 300.252 311.608 300.83 312.159 300.48Z" fill="#DE9D7D"/>
<path fill-rule="evenodd" clip-rule="evenodd" d="M321.963 274.307C321.963 274.307 316.209 291.694 315.152 293.518C315.152 293.518 310.931 292.632 308.23 290.442L314.55 271.679L321.963 274.307Z" fill="#EB4747"/>
<path fill-rule="evenodd" clip-rule="evenodd" d="M444.955 295.063C444.955 295.063 444.722 291.06 443.658 290.438C442.595 289.815 443.21 291.056 443.21 291.056C443.21 291.056 443.808 293.961 443.94 295.14C443.946 295.195 444.955 295.063 444.955 295.063Z" fill="#1D3B54"/>
<path fill-rule="evenodd" clip-rule="evenodd" d="M416.672 210.861C416.672 210.861 426.652 210.033 426.379 220.506C426.107 230.98 424.441 232.553 426.386 239.954C428.328 247.356 416.656 235.752 416.656 235.752L416.672 210.861Z" fill="#434343"/>
<path fill-rule="evenodd" clip-rule="evenodd" d="M408.279 239.16C408.279 239.16 394.141 247.959 392.946 247.023C391.274 245.714 386.732 234.55 386.732 234.55L383.175 236.24C383.175 236.24 387.418 255.543 393.133 254.123C398.85 252.7 411.974 244.603 411.974 244.603L408.279 239.16Z" fill="#EEA987"/>
<path fill-rule="evenodd" clip-rule="evenodd" d="M427.546 275.578C427.546 275.578 431.222 280.252 432.518 283.343C433.815 286.433 435.977 293.209 435.689 298.457C435.401 303.704 433.672 313.553 434.175 315.782C434.68 318.009 435.184 322.61 435.724 324.191C436.265 325.773 438.427 330.375 438.644 335.118C438.86 339.864 435.616 360.71 435.761 362.652C435.904 364.592 432.085 363.441 432.085 363.441C432.085 363.441 430.789 344.607 430.068 341.372C429.348 338.139 428.484 327.139 427.834 326.348C427.186 325.556 425.412 317.363 425.687 316.069C425.962 314.774 418.612 295.366 418.179 291.484C417.746 287.602 406.909 275.578 406.909 275.578C406.909 275.578 416.377 271.966 427.546 275.578Z" fill="#EEA987"/>
<path fill-rule="evenodd" clip-rule="evenodd" d="M410.008 275.578C410.008 275.578 409.821 277.538 409.603 278.257C409.388 278.974 404.416 297.306 403.912 304.351C403.407 311.396 402.111 317.371 401.893 318.877C401.678 320.381 402.111 325.414 402.541 326.707C402.974 328.003 400.381 358.553 400.164 359.272C399.949 359.991 401.893 360.208 403.262 359.991C404.631 359.776 411.55 337.562 411.117 333.825C410.684 330.087 410.252 322.115 411.478 318.877C412.702 315.638 423.727 292.203 423.8 290.765C423.872 289.327 428.57 264.561 410.008 275.578Z" fill="#EEA987"/>
<path fill-rule="evenodd" clip-rule="evenodd" d="M432.154 361.15C432.154 361.15 431.8 363.632 431.411 364.309C431.024 364.984 429.959 368.435 429.473 369.079C428.988 369.723 427.922 374.557 429.473 375.138C431.024 375.719 434.674 376.685 435.902 374.752C437.131 372.816 437.291 370.883 437.098 369.401C436.904 367.917 435.43 361.113 435.45 360.44C435.469 359.767 432.154 361.15 432.154 361.15Z" fill="#EEA987"/>
<path fill-rule="evenodd" clip-rule="evenodd" d="M430.093 367.74C430.093 367.74 429.926 371.497 432.769 371.497C435.612 371.497 436.871 368.077 436.871 368.077C436.871 368.077 437.84 369.756 436.871 373.334C435.902 376.911 431.864 376.17 430.958 376.041C430.055 375.911 425.766 374.78 430.093 367.74Z" fill="#EB4747"/>
<path fill-rule="evenodd" clip-rule="evenodd" d="M400.471 357.777C400.471 357.777 398.461 361.363 397.268 362.089C395.78 362.994 392.895 365.898 391.887 366.034C390.878 366.168 387.253 366.808 387.954 368.851C388.527 370.523 397.171 370.282 398.147 369.445C399.122 368.605 402.038 365.598 403.214 365.664C404.389 365.732 403.954 370.004 403.954 370.004H405.231C405.231 370.004 405.677 365.846 405.732 365.131C405.89 363.016 404.378 361.459 404.31 360.254C404.242 359.046 404.174 358.145 404.174 358.145L400.471 357.777Z" fill="#EB4747"/>
<path fill-rule="evenodd" clip-rule="evenodd" d="M392.175 365.936C392.175 365.936 395.025 366.918 397.218 365.659C399.41 364.403 403.62 362.492 405.108 362.479C405.108 362.479 404.297 360.004 404.28 359.726C404.262 359.449 404.174 358.145 404.174 358.145L400.494 357.555C400.494 357.555 398.107 361.052 397.055 361.876C396.002 362.698 393.309 364.752 392.175 365.936Z" fill="#EEA987"/>
<path fill-rule="evenodd" clip-rule="evenodd" d="M406.848 275.254C406.848 275.254 405.822 279.513 405.442 280.754C405.064 281.994 402.636 301.232 402.038 313.266C402.038 313.266 416.575 318.763 436.573 317.847C436.573 317.847 437.058 295.743 435.221 289.489C433.384 283.235 430.058 277.382 427.546 275.578C425.314 273.974 406.848 275.254 406.848 275.254Z" fill="#EB4747"/>
<path fill-rule="evenodd" clip-rule="evenodd" d="M440.038 286.05C440.038 286.05 439.739 287.845 439.194 289.574C438.649 291.306 438.148 291.859 438.366 292.849C438.53 293.599 439.381 294.16 439.594 293.919C439.809 293.68 439.912 290.769 441.121 290.782C442.329 290.795 440.761 294.388 441.479 294.123C442.2 293.86 444.968 292.345 444.795 290.879C444.621 289.412 443.511 288.351 443.584 286.161C443.648 284.173 443.028 283.343 443.028 283.343L440.038 286.05Z" fill="#EEA987"/>
<path fill-rule="evenodd" clip-rule="evenodd" d="M382.214 235.381C382.214 235.381 383.902 237.569 384.941 237.801C385.98 238.031 387.112 235.561 387.112 235.561L386.499 233.336L382.214 235.381Z" fill="#EEA886"/>
<path fill-rule="evenodd" clip-rule="evenodd" d="M386.38 234.649C386.38 234.649 387.187 232.126 387.299 231.738C387.411 231.348 387.015 230.208 386.297 229.119C385.6 228.062 384.724 226.898 384.418 226.596C384.258 226.438 384.17 226.258 383.643 226.495C383.117 226.731 382.803 227.22 382.803 227.22C382.803 227.22 382.017 227.209 381.674 227.841C381.674 227.841 380.933 227.863 380.663 228.645C380.663 228.645 379.94 228.685 379.793 229.27C379.793 229.27 380.14 230.346 380.156 230.782C380.169 231.218 381.048 233.408 382.214 235.381C382.214 235.381 383.95 236.872 386.38 234.649Z" fill="#EEA886"/>
<path fill-rule="evenodd" clip-rule="evenodd" d="M384.526 231.374C384.526 231.374 383.656 232.383 383.555 232.788C383.456 233.194 380.914 231.683 380.914 231.683C380.914 231.683 383.271 230.351 384.526 231.374Z" fill="#CF8C6C"/>
<path fill-rule="evenodd" clip-rule="evenodd" d="M384.55 226.85C384.55 226.85 385.956 229.822 385.486 230.079C385.014 230.335 384.686 230.144 384.686 230.144L384.612 231.635C384.612 231.635 384.003 232.593 383.135 231.652C383.135 231.652 382.66 232.608 381.929 231.6C381.929 231.6 381.335 232.091 380.914 231.683C380.492 231.275 379.793 229.27 379.793 229.27C379.793 229.27 379.835 228.779 380.663 228.645C380.663 228.645 380.878 227.88 381.674 227.841C381.674 227.841 382.124 227.058 382.986 227.023C382.986 227.023 383.478 226.321 384.418 226.595C384.418 226.595 384.5 226.72 384.55 226.85Z" fill="#DB9C7C"/>
<path fill-rule="evenodd" clip-rule="evenodd" d="M387.27 231.637C387.27 231.637 385.565 230.142 384.275 229.735C383.983 229.642 383.684 229.605 383.487 229.84C383.291 230.077 383.386 230.66 384.091 231.343C384.796 232.03 385.394 233.237 385.394 233.237C385.394 233.237 386.325 233.728 387.27 231.637Z" fill="#EEA886"/>
<path fill-rule="evenodd" clip-rule="evenodd" d="M382.985 227.023C382.985 227.023 384.726 230.111 384.706 230.475C384.686 230.837 385.846 230.219 385.842 229.91C385.835 229.599 384.581 226.85 384.418 226.595C384.255 226.341 383.297 226.155 382.985 227.023Z" fill="#EEA886"/>
<path fill-rule="evenodd" clip-rule="evenodd" d="M384.774 227.19C384.774 227.19 382.001 222.027 381.592 222.216C380.999 222.49 381.157 223.919 383.497 227.773C385.772 231.519 384.774 227.19 384.774 227.19Z" fill="#EEA886"/>
<path fill-rule="evenodd" clip-rule="evenodd" d="M407.52 249.859L401.812 242.304C401.812 242.304 412.016 234.419 415.164 239.432C415.164 239.432 415.388 247.694 407.52 249.859Z" fill="#323657"/>
<path fill-rule="evenodd" clip-rule="evenodd" d="M404.092 249.592C404.253 252.126 405.551 254.228 405.767 255.144C405.982 256.061 405.767 258.163 406.037 260.267C406.307 262.369 407.118 272.398 406.848 275.254C406.577 278.112 426.507 276.821 428.021 275.96C428.021 275.96 424.663 269.971 424.573 267.492C424.542 266.639 424.035 263.987 425.439 262.045C426.179 261.021 427.555 257.759 428.93 255.377C428.93 255.377 428.675 254.881 428.93 255.377C429.462 254.452 430.02 253.529 430.409 252.843C430.917 251.946 431.2 250.885 431.2 250.885C431.2 250.885 432.085 239.886 429.653 238.647C427.223 237.406 425.924 237.192 423.547 237.082C421.169 236.975 419.603 236.49 419.603 236.49L414.035 237.082C414.035 237.082 410.469 238.323 409.063 238.43C407.658 238.538 405.874 241.558 406.037 243.498C406.2 245.44 403.93 247.058 404.092 249.592Z" fill="#323657"/>
<path fill-rule="evenodd" clip-rule="evenodd" d="M441.002 290.662C441.002 290.662 439.391 291.072 439.488 296.503L441.31 296.199C441.31 296.199 441.277 293.198 441.822 291.56C441.822 291.56 441.727 290.499 441.002 290.662Z" fill="#1D3B54"/>
<path fill-rule="evenodd" clip-rule="evenodd" d="M434.318 297.729L448.513 293.711L448.471 311.153L434.345 319.598L434.318 297.729Z" fill="#1D3B54"/>
<path fill-rule="evenodd" clip-rule="evenodd" d="M434.345 319.598L436.122 319.925L449.864 311.4L449.693 293.792L448.513 293.711L434.345 319.598Z" fill="#1D3B54"/>
<path fill-rule="evenodd" clip-rule="evenodd" d="M427.287 237.637C427.287 237.637 431.708 237.621 433.707 241.503C435.707 245.386 435.924 249.482 436.41 250.94C436.895 252.396 438.168 260.96 438.653 262.2C439.141 263.439 442.03 271.859 442.734 276.602C443.435 281.348 443.584 286.161 443.584 286.161L440.038 286.05C440.038 286.05 436.515 273.141 435.305 270.068C434.268 267.442 433.87 262.854 433.274 261.238C432.681 259.62 429.005 248.244 428.249 247.435C427.493 246.626 423.516 238.354 427.287 237.637Z" fill="#EEA886"/>
<path fill-rule="evenodd" clip-rule="evenodd" d="M428.735 253.369L437.744 250.539C437.744 250.539 434.982 237.284 427.287 237.637C421.115 237.922 428.735 253.369 428.735 253.369Z" fill="#323657"/>
<path fill-rule="evenodd" clip-rule="evenodd" d="M417.65 211.922C415.176 211.517 409.515 212.137 407.911 218.614C407.911 218.614 407.907 220.412 408.18 221.854C408.45 223.297 406.729 227.26 407.033 227.499C407.336 227.74 408.654 228.152 408.654 228.152C408.654 228.152 409.59 232.806 411.174 232.946C412.756 233.088 418.876 232.538 422.332 227.277C425.786 222.016 427.636 213.553 417.65 211.922Z" fill="#EEA886"/>
<path fill-rule="evenodd" clip-rule="evenodd" d="M413.543 231.144C413.543 231.144 413.664 231.793 413.778 232.753C413.835 233.242 413.892 233.812 413.927 234.414C414.026 236.085 413.976 238.018 413.404 239.243C413.404 239.243 416.502 241.159 419.827 236.552C419.827 236.552 419.502 230.802 421.409 227.764C423.318 224.724 413.543 231.144 413.543 231.144Z" fill="#EEA886"/>
<path fill-rule="evenodd" clip-rule="evenodd" d="M407.911 218.614C407.911 218.614 411.633 221.823 415.577 222.834C419.521 223.847 421.609 228.266 421.609 228.266C421.609 228.266 428.585 221.321 424.375 214.583C420.165 207.845 407.918 210.85 407.911 218.614Z" fill="#434343"/>
<path fill-rule="evenodd" clip-rule="evenodd" d="M413.778 232.753C413.835 233.242 413.893 233.812 413.928 234.415C417.406 232.731 419.322 230.423 419.322 230.423C417.279 231.885 413.778 232.753 413.778 232.753Z" fill="#A77860"/>
<path fill-rule="evenodd" clip-rule="evenodd" d="M416.303 223.064C416.303 223.064 420.337 233.886 419.854 236.49C419.854 236.49 421.989 236.124 425.791 237.284C425.791 237.284 423.954 217.979 416.303 223.064Z" fill="#434343"/>
<path fill-rule="evenodd" clip-rule="evenodd" d="M421.201 236.839C421.201 236.839 419.873 244.954 414.954 244.038C410.036 243.121 413.767 237.174 413.767 237.174C413.767 237.174 415.688 235.456 421.201 236.839Z" fill="#EEA886"/>
<path fill-rule="evenodd" clip-rule="evenodd" d="M325.233 135.948C325.233 142.29 322.948 148.097 319.153 152.598C314.405 158.229 307.281 161.829 299.29 161.829C291.054 161.829 283.559 157.976 278.758 151.772C275.364 147.397 273.344 141.908 273.344 135.948C273.344 121.653 284.961 110.065 299.29 110.065C313.618 110.065 325.233 121.653 325.233 135.948Z" fill="#EEF0F7"/>
<path fill-rule="evenodd" clip-rule="evenodd" d="M317.845 149.824C317.749 149.729 317.533 149.651 317.41 149.569C317.402 149.563 317.393 149.559 317.386 149.553L317.384 149.556C316.246 148.928 312.908 147.274 306.325 145.389C306.323 145.389 306.321 145.388 306.319 145.388C305.125 145.024 304.222 144.788 303.91 144.709L303.352 143.823C303.262 142.93 303.282 141.599 303.308 140.708C304.236 139.634 305.071 137.957 305.543 135.341C305.692 135.453 305.809 135.207 305.809 135.207C305.725 135.06 307.061 131.808 306.82 131.075C306.683 130.659 306.406 130.711 306.189 130.832C306.222 130.643 306.255 130.446 306.29 130.236C306.29 130.236 306.82 125.25 304.288 122.473C304.027 122.222 303.095 122.16 303.095 122.16C299.032 120.919 296.596 121.473 295.071 122.125C292.808 123.974 292.636 127.12 292.74 128.853C292.786 129.263 292.832 129.676 292.878 130.078C292.88 130.086 292.88 130.09 292.88 130.09C292.9 130.251 292.917 130.406 292.937 130.562C292.726 130.431 292.449 130.365 292.296 130.777C292.025 131.5 293.012 134.747 293.135 134.947C293.135 134.947 293.348 135.28 293.515 135.129C293.517 135.129 293.517 135.123 293.517 135.122C293.985 137.975 294.825 139.737 295.708 140.819C295.644 141.977 295.477 143.339 295.359 144.208L294.354 145.255V145.255C294.302 145.273 294.249 145.29 294.196 145.309C294.196 145.305 294.196 145.302 294.196 145.302C282.839 148.325 279.631 150.43 279.631 150.43C279.345 150.604 279.053 151.074 278.758 151.772C283.5 157.899 290.958 161.829 299.29 161.829C307.296 161.829 314.413 158.218 319.153 152.598C318.663 151.407 318.311 150.289 317.845 149.824Z" fill="#78C2FF"/>
<path fill-rule="evenodd" clip-rule="evenodd" d="M116.564 159.289H117.028V115.552H116.564V159.289Z" fill="#E0E0E0"/>
<path fill-rule="evenodd" clip-rule="evenodd" d="M149.599 159.289H150.063V115.552H149.599V159.289Z" fill="#E0E0E0"/>
<path fill-rule="evenodd" clip-rule="evenodd" d="M182.632 159.289H183.098V115.552H182.632V159.289Z" fill="#E0E0E0"/>
<path fill-rule="evenodd" clip-rule="evenodd" d="M215.668 159.289H216.132V115.552H215.668V159.289Z" fill="#E0E0E0"/>
<path fill-rule="evenodd" clip-rule="evenodd" d="M248.702 159.289H249.168V115.552H248.702V159.289Z" fill="#E0E0E0"/>
<path fill-rule="evenodd" clip-rule="evenodd" d="M116.796 163.4H122.052V161.88H116.796V163.4Z" fill="#B8B8B8"/>
<path fill-rule="evenodd" clip-rule="evenodd" d="M116.796 111.303H124.709V110.163H116.796V111.303Z" fill="#D9D9D9"/>
<path fill-rule="evenodd" clip-rule="evenodd" d="M116.796 113.41H128.02V112.27H116.796V113.41Z" fill="#D9D9D9"/>
<path fill-rule="evenodd" clip-rule="evenodd" d="M149.475 111.303H158.764V110.163H149.475V111.303Z" fill="#D9D9D9"/>
<path fill-rule="evenodd" clip-rule="evenodd" d="M149.475 113.41H155.415V112.27H149.475V113.41Z" fill="#D9D9D9"/>
<path fill-rule="evenodd" clip-rule="evenodd" d="M183.098 111.303H188.855V110.163H183.098V111.303Z" fill="#D9D9D9"/>
<path fill-rule="evenodd" clip-rule="evenodd" d="M183.098 113.41H189.806V112.27H183.098V113.41Z" fill="#D9D9D9"/>
<path fill-rule="evenodd" clip-rule="evenodd" d="M216.132 111.303H224.517V110.163H216.132V111.303Z" fill="#D9D9D9"/>
<path fill-rule="evenodd" clip-rule="evenodd" d="M216.132 113.41H222.842V112.27H216.132V113.41Z" fill="#D9D9D9"/>
<path fill-rule="evenodd" clip-rule="evenodd" d="M248.935 111.303H253.942V110.163H248.935V111.303Z" fill="#D9D9D9"/>
<path fill-rule="evenodd" clip-rule="evenodd" d="M248.935 113.41H252.942V112.27H248.935V113.41Z" fill="#D9D9D9"/>
<path fill-rule="evenodd" clip-rule="evenodd" d="M149.831 163.4H155.087V161.88H149.831V163.4Z" fill="#B8B8B8"/>
<path fill-rule="evenodd" clip-rule="evenodd" d="M183.098 163.4H188.354V161.88H183.098V163.4Z" fill="#B8B8B8"/>
<path fill-rule="evenodd" clip-rule="evenodd" d="M216.132 163.4H221.388V161.88H216.132V163.4Z" fill="#B8B8B8"/>
<path fill-rule="evenodd" clip-rule="evenodd" d="M249.168 163.4H254.424V161.88H249.168V163.4Z" fill="#B8B8B8"/>
<mask id="mask10" mask-type="alpha" maskUnits="userSpaceOnUse" x="116" y="126" width="133" height="21">
<path fill-rule="evenodd" clip-rule="evenodd" d="M237.487 146.293C227.182 146.294 218.226 142.297 208.888 138.131C197.361 132.987 185.441 127.669 169.559 129.125C159.417 130.055 153.052 133.761 147.435 137.03C142.35 139.991 137.543 142.594 131.031 142.816C120.508 143.175 116.857 139.148 116.796 138.903V136.318C116.81 136.363 119.107 140.883 131.02 140.829C136.887 140.803 141.217 138.282 146.23 135.363C152.057 131.971 158.66 128.127 169.335 127.148C185.851 125.633 198.064 131.082 209.874 136.352C222.232 141.865 234.024 147.036 248.935 142.55V144.675C244.683 145.953 241.284 146.293 237.487 146.293Z" fill="white"/>
</mask>
<g mask="url(#mask10)">
<path fill-rule="evenodd" clip-rule="evenodd" d="M237.487 146.293C227.182 146.294 218.226 142.297 208.888 138.131C197.361 132.987 185.441 127.669 169.559 129.125C159.417 130.055 153.052 133.761 147.435 137.03C142.35 139.991 137.543 142.594 131.031 142.816C120.508 143.175 116.857 139.148 116.796 138.903V136.318C116.81 136.363 119.107 140.883 131.02 140.829C136.887 140.803 141.217 138.282 146.23 135.363C152.057 131.971 158.66 128.127 169.335 127.148C185.851 125.633 198.064 131.082 209.874 136.352C222.232 141.865 234.024 147.036 248.935 142.55V144.675C244.683 145.953 241.284 146.293 237.487 146.293Z" fill="url(#paint11_linear)"/>
</g>
<mask id="mask11" mask-type="alpha" maskUnits="userSpaceOnUse" x="116" y="120" width="134" height="26">
<path fill-rule="evenodd" clip-rule="evenodd" d="M175.639 145.798C168.034 145.799 162.001 141.209 156.096 136.717C151.618 133.31 146.973 129.827 141.61 128.109C125.244 122.867 116.871 132.44 116.796 132.524V129.612C116.885 129.512 118.378 127.772 122.699 126.111C126.633 124.598 133.233 123.391 142.337 126.233C148.105 128.033 152.895 131.677 157.528 135.201C166.924 142.35 175.041 148.523 189.134 138.853C199.811 131.529 209.872 124.549 219.773 121.999C229.458 119.505 239.555 121.331 249.005 129.811L248.935 132.455C228.861 114.363 211.766 125.826 190.479 140.431C184.841 144.3 179.982 145.798 175.639 145.798Z" fill="white"/>
</mask>
<g mask="url(#mask11)">
<path fill-rule="evenodd" clip-rule="evenodd" d="M175.639 145.798C168.034 145.799 162.001 141.209 156.096 136.717C151.618 133.31 146.973 129.827 141.61 128.109C125.244 122.867 116.871 132.44 116.796 132.524V129.612C116.885 129.512 118.378 127.772 122.699 126.111C126.633 124.598 133.233 123.391 142.337 126.233C148.105 128.033 152.895 131.677 157.528 135.201C166.924 142.35 175.041 148.523 189.134 138.853C199.811 131.529 209.872 124.549 219.773 121.999C229.458 119.505 239.555 121.331 249.005 129.811L248.935 132.455C228.861 114.363 211.766 125.826 190.479 140.431C184.841 144.3 179.982 145.798 175.639 145.798Z" fill="url(#paint12_linear)"/>
</g>
<defs>
<linearGradient id="paint0_linear" x1="115.997" y1="120.647" x2="30.9593" y2="114.458" gradientUnits="userSpaceOnUse">
<stop stop-color="#40D4E6"/>
<stop offset="1" stop-color="#5477FF"/>
</linearGradient>
<linearGradient id="paint1_linear" x1="133.604" y1="170.096" x2="85.9518" y2="136.575" gradientUnits="userSpaceOnUse">
<stop stop-color="#40D4E6"/>
<stop offset="1" stop-color="#5477FF"/>
</linearGradient>
<linearGradient id="paint2_linear" x1="107.155" y1="93.8585" x2="66.8216" y2="93.2256" gradientUnits="userSpaceOnUse">
<stop stop-color="#40D4E6"/>
<stop offset="1" stop-color="#5477FF"/>
</linearGradient>
<linearGradient id="paint3_linear" x1="113.95" y1="122.33" x2="75.3539" y2="113.538" gradientUnits="userSpaceOnUse">
<stop stop-color="#40D4E6"/>
<stop offset="1" stop-color="#5477FF"/>
</linearGradient>
<linearGradient id="paint4_linear" x1="103.232" y1="100.986" x2="347.417" y2="100.986" gradientUnits="userSpaceOnUse">
<stop stop-color="#40D4E6"/>
<stop offset="1" stop-color="#5477FF"/>
</linearGradient>
<linearGradient id="paint5_linear" x1="79.1263" y1="197.938" x2="30.917" y2="197.938" gradientUnits="userSpaceOnUse">
<stop stop-color="#40D4E6"/>
<stop offset="1" stop-color="#5477FF"/>
</linearGradient>
<linearGradient id="paint6_linear" x1="43.7609" y1="261.243" x2="0.164509" y2="261.243" gradientUnits="userSpaceOnUse">
<stop stop-color="#40D4E6"/>
<stop offset="1" stop-color="#5477FF"/>
</linearGradient>
<linearGradient id="paint7_linear" x1="40.0346" y1="268.584" x2="7.3125" y2="268.584" gradientUnits="userSpaceOnUse">
<stop stop-color="#40D4E6"/>
<stop offset="1" stop-color="#5477FF"/>
</linearGradient>
<linearGradient id="paint8_linear" x1="51.8506" y1="218.425" x2="13.7426" y2="218.425" gradientUnits="userSpaceOnUse">
<stop stop-color="#40D4E6"/>
<stop offset="1" stop-color="#5477FF"/>
</linearGradient>
<linearGradient id="paint9_linear" x1="25.4306" y1="338.829" x2="60.5959" y2="338.829" gradientUnits="userSpaceOnUse">
<stop stop-color="#FF9240"/>
<stop offset="1" stop-color="#FFCE45"/>
</linearGradient>
<linearGradient id="paint10_linear" x1="25.4306" y1="338.829" x2="60.5959" y2="338.829" gradientUnits="userSpaceOnUse">
<stop stop-color="#C87331"/>
<stop offset="1" stop-color="#FFCE45"/>
</linearGradient>
<linearGradient id="paint11_linear" x1="263.472" y1="126.694" x2="128.65" y2="126.695" gradientUnits="userSpaceOnUse">
<stop stop-color="#40D4E6"/>
<stop offset="1" stop-color="#5477FF"/>
</linearGradient>
<linearGradient id="paint12_linear" x1="116.796" y1="145.798" x2="249.004" y2="145.798" gradientUnits="userSpaceOnUse">
<stop stop-color="#40D4E6"/>
<stop offset="1" stop-color="#5477FF"/>
</linearGradient>
</defs>
</svg>
