<svg width="491" height="372" viewBox="0 0 491 372" fill="none" xmlns="http://www.w3.org/2000/svg">
<mask id="mask0" mask-type="alpha" maskUnits="userSpaceOnUse" x="111" y="108" width="246" height="182">
<path d="M356.276 289.446H111.455V116.679C111.455 111.944 115.295 108.103 120.032 108.103H347.699C352.436 108.103 356.276 111.944 356.276 116.679V161.319H347.188V116.986H120.11V256.484H347.188V241.942H356.276V289.446Z" fill="white"/>
</mask>
<g mask="url(#mask0)">
<path fill-rule="evenodd" clip-rule="evenodd" d="M356.276 289.446H111.455V116.679C111.455 111.944 115.295 108.103 120.032 108.103H347.699C352.436 108.103 356.276 111.944 356.276 116.679V161.319H347.188V116.986H120.11V256.484H347.188V241.942H356.276V289.446Z" fill="url(#paint0_linear)"/>
</g>
<mask id="mask1" mask-type="alpha" maskUnits="userSpaceOnUse" x="120" y="116" width="228" height="141">
<path d="M347.198 256.484H120.12V116.986H347.198V161.319H274.803C272.796 161.319 271.169 162.946 271.169 164.953V238.307C271.169 240.314 272.796 241.942 274.803 241.942H347.198V256.484Z" fill="white"/>
</mask>
<g mask="url(#mask1)">
<path fill-rule="evenodd" clip-rule="evenodd" d="M347.198 256.484H120.12V116.986H347.198V161.319H274.803C272.796 161.319 271.169 162.946 271.169 164.953V238.307C271.169 240.314 272.796 241.942 274.803 241.942H347.198V256.484Z" fill="url(#paint1_linear)"/>
</g>
<path fill-rule="evenodd" clip-rule="evenodd" d="M39.5628 116.766H95.241C94.1555 111.33 89.2732 107.291 83.682 107.291C82.4119 107.291 81.1625 107.492 79.9684 107.89L79.6633 107.99L79.4796 107.728C76.3907 103.344 71.3535 100.728 66.0023 100.728C59.7357 100.728 54.0938 104.208 51.2802 109.811L51.1253 110.118L50.7913 110.036C50.0716 109.858 49.3283 109.768 48.5814 109.768C44.3138 109.768 40.603 112.681 39.5628 116.766ZM96.2594 117.63H38.499L38.5995 117.116C39.5265 112.358 43.7254 108.905 48.5814 108.905C49.283 108.905 49.981 108.977 50.6636 109.121C53.6729 103.402 59.5194 99.8641 66.0023 99.8641C71.5273 99.8641 76.7356 102.515 80.0001 106.973C81.1897 106.611 82.4272 106.428 83.682 106.428C89.9666 106.428 95.2247 110.93 96.1825 117.132L96.2594 117.63Z" fill="#6AAFE8"/>
<path fill-rule="evenodd" clip-rule="evenodd" d="M291.299 15.9889C291.04 18.7338 290.177 36.1321 308.396 45.5618C326.617 36.1321 325.754 18.7338 325.494 15.9889C314.178 15.9183 309.573 12.7669 308.396 11.7666C307.22 12.7669 302.614 15.9183 291.299 15.9889ZM308.396 46.5323L308.2 46.4318C287.703 35.9664 290.456 15.6992 290.485 15.4955L290.54 15.1271H290.912C303.945 15.1271 308.04 10.9264 308.08 10.8848L308.398 10.5471L308.714 10.8866C308.753 10.9264 312.848 15.1271 325.88 15.1271H326.252L326.308 15.4955C326.337 15.6992 329.09 35.9664 308.592 46.4318L308.396 46.5323Z" fill="#6AAFE8"/>
<mask id="mask2" mask-type="alpha" maskUnits="userSpaceOnUse" x="419" y="225" width="60" height="91">
<path d="M420.553 315.89C417.467 301.791 424.134 298.272 430.581 294.87C435.85 292.088 440.826 289.463 440.561 281.153C440.21 270.137 447.714 266.13 454.334 262.594C459.26 259.964 463.911 257.479 464.605 252.467C466.275 240.406 477.4 225.416 477.511 225.267L478.203 225.784C478.091 225.93 467.099 240.746 465.46 252.586C464.706 258.032 459.865 260.618 454.741 263.356C448.029 266.94 441.089 270.646 441.423 281.126C441.705 289.974 436.254 292.851 430.984 295.633C424.539 299.034 418.451 302.247 421.396 315.705L420.553 315.89Z" fill="white"/>
</mask>
<g mask="url(#mask2)">
<path fill-rule="evenodd" clip-rule="evenodd" d="M420.553 315.89C417.467 301.791 424.134 298.272 430.581 294.87C435.85 292.088 440.826 289.463 440.561 281.153C440.21 270.137 447.714 266.13 454.334 262.594C459.26 259.964 463.911 257.479 464.605 252.467C466.275 240.406 477.4 225.416 477.511 225.267L478.203 225.784C478.091 225.93 467.099 240.746 465.46 252.586C464.706 258.032 459.865 260.618 454.741 263.356C448.029 266.94 441.089 270.646 441.423 281.126C441.705 289.974 436.254 292.851 430.984 295.633C424.539 299.034 418.451 302.247 421.396 315.705L420.553 315.89Z" fill="url(#paint2_linear)"/>
</g>
<mask id="mask3" mask-type="alpha" maskUnits="userSpaceOnUse" x="414" y="211" width="77" height="102">
<path d="M415.798 305.376C418.603 309.262 421.149 311.24 423.573 311.42C426.962 311.671 430.05 308.454 433.626 304.729C438.234 299.93 443.456 294.492 451.35 293.809C460.831 292.988 461.675 284.472 462.492 276.237C463.221 268.876 463.909 261.923 470.653 260.946C477.008 260.025 481.097 257.892 482.808 254.604C484.235 251.864 483.937 248.325 481.944 244.37C480.056 240.626 482.779 235.352 485.662 229.77C488.79 223.715 492.023 217.452 488.783 213.592C488.295 213.01 487.703 212.715 486.974 212.688C483.314 212.567 477.103 218.957 470.531 225.733C462.912 233.587 455.037 241.704 449.274 241.705L449.054 241.702C443.846 241.508 442.042 247.581 439.956 254.61C437.663 262.338 435.064 271.097 427.03 273.01C420.619 274.537 417.815 275.388 417.039 276.707C416.49 277.637 416.868 278.981 417.493 281.209C417.953 282.85 418.524 284.891 418.956 287.577C420.64 298.075 416.774 304.064 415.798 305.376ZM423.954 312.297C423.806 312.297 423.658 312.291 423.509 312.28C420.721 312.074 417.988 309.955 414.908 305.615L414.715 305.342L414.931 305.087C414.98 305.026 419.918 299.01 418.105 287.714C417.682 285.078 417.117 283.062 416.662 281.442C415.999 279.077 415.561 277.516 416.295 276.27C417.226 274.688 419.742 273.859 426.831 272.171C434.379 270.373 436.902 261.868 439.129 254.365C441.227 247.298 443.213 240.632 449.086 240.839C454.483 241.045 462.68 232.588 469.911 225.133C476.622 218.215 482.954 211.698 487.005 211.826C487.977 211.862 488.797 212.269 489.443 213.038C493.053 217.337 489.685 223.86 486.429 230.167C483.65 235.547 481.026 240.63 482.714 243.982C484.837 248.194 485.135 252.006 483.573 255.002C481.727 258.549 477.422 260.837 470.777 261.799C464.701 262.681 464.046 269.306 463.35 276.321C462.539 284.508 461.619 293.786 451.424 294.668C443.854 295.324 438.751 300.638 434.249 305.327C430.668 309.056 427.556 312.297 423.954 312.297Z" fill="white"/>
</mask>
<g mask="url(#mask3)">
<path fill-rule="evenodd" clip-rule="evenodd" d="M415.798 305.376C418.603 309.262 421.149 311.24 423.573 311.42C426.962 311.671 430.05 308.454 433.626 304.729C438.234 299.93 443.456 294.492 451.35 293.809C460.831 292.988 461.675 284.472 462.492 276.237C463.221 268.876 463.909 261.923 470.653 260.946C477.008 260.025 481.097 257.892 482.808 254.604C484.235 251.864 483.937 248.325 481.944 244.37C480.056 240.626 482.779 235.352 485.662 229.77C488.79 223.715 492.023 217.452 488.783 213.592C488.295 213.01 487.703 212.715 486.974 212.688C483.314 212.567 477.103 218.957 470.531 225.733C462.912 233.587 455.037 241.704 449.274 241.705L449.054 241.702C443.846 241.508 442.042 247.581 439.956 254.61C437.663 262.338 435.064 271.097 427.03 273.01C420.619 274.537 417.815 275.388 417.039 276.707C416.49 277.637 416.868 278.981 417.493 281.209C417.953 282.85 418.524 284.891 418.956 287.577C420.64 298.075 416.774 304.064 415.798 305.376ZM423.954 312.297C423.806 312.297 423.658 312.291 423.509 312.28C420.721 312.074 417.988 309.955 414.908 305.615L414.715 305.342L414.931 305.087C414.98 305.026 419.918 299.01 418.105 287.714C417.682 285.078 417.117 283.062 416.662 281.442C415.999 279.077 415.561 277.516 416.295 276.27C417.226 274.688 419.742 273.859 426.831 272.171C434.379 270.373 436.902 261.868 439.129 254.365C441.227 247.298 443.213 240.632 449.086 240.839C454.483 241.045 462.68 232.588 469.911 225.133C476.622 218.215 482.954 211.698 487.005 211.826C487.977 211.862 488.797 212.269 489.443 213.038C493.053 217.337 489.685 223.86 486.429 230.167C483.65 235.547 481.026 240.63 482.714 243.982C484.837 248.194 485.135 252.006 483.573 255.002C481.727 258.549 477.422 260.837 470.777 261.799C464.701 262.681 464.046 269.306 463.35 276.321C462.539 284.508 461.619 293.786 451.424 294.668C443.854 295.324 438.751 300.638 434.249 305.327C430.668 309.056 427.556 312.297 423.954 312.297Z" fill="url(#paint3_linear)"/>
</g>
<mask id="mask4" mask-type="alpha" maskUnits="userSpaceOnUse" x="397" y="191" width="50" height="119">
<path d="M406.283 192.558C405.609 192.558 405.103 192.717 404.725 193.036C403.138 194.387 403.261 198.992 403.486 207.354C403.56 210.128 403.644 213.272 403.686 216.91C403.782 225.174 406.275 230.446 408.095 234.297C410.6 239.599 412.113 242.798 403.929 247.514C400.722 249.364 398.866 251.491 398.258 254.019C397.078 258.925 400.87 264.768 404.539 270.42C405.963 272.616 407.436 274.883 408.604 277.078C410.119 279.923 411.653 284.293 413.277 288.92C416.434 297.912 420.011 308.104 424.031 308.47C425.565 308.606 427.18 307.217 428.828 304.332C432.692 297.571 432.472 291.729 432.218 284.962C431.88 275.917 431.495 265.665 441.071 250.531C444.916 244.45 446.25 239.66 445.144 235.887C443.79 231.269 439.026 229.046 434.823 227.085C431.711 225.633 429.021 224.378 428.476 222.369C428.207 221.376 428.479 220.311 429.306 219.112C431.913 215.338 432.776 212.495 431.947 210.421C430.753 207.431 425.899 206.045 421.307 205.084C415.524 203.873 413.555 200.195 411.972 197.242C410.787 195.031 409.764 193.121 407.472 192.686C407.027 192.601 406.632 192.558 406.283 192.558ZM424.255 309.342C424.155 309.342 424.054 309.338 423.953 309.328C419.38 308.911 415.864 298.894 412.464 289.206C410.851 284.611 409.327 280.27 407.842 277.484C406.692 275.323 405.229 273.069 403.814 270.889C400.047 265.085 396.152 259.083 397.42 253.817C398.087 251.046 400.075 248.741 403.499 246.767C410.993 242.448 409.84 240.01 407.314 234.666C405.46 230.744 402.922 225.373 402.823 216.921C402.782 213.288 402.698 210.148 402.623 207.376C402.384 198.468 402.265 193.998 404.167 192.38C404.954 191.71 406.056 191.538 407.633 191.838C410.331 192.351 411.497 194.53 412.733 196.835C414.308 199.777 416.094 203.111 421.483 204.239C426.541 205.297 431.406 206.74 432.748 210.101C433.692 212.464 432.8 215.572 430.016 219.603C429.341 220.579 429.11 221.41 429.309 222.143C429.75 223.766 432.269 224.941 435.188 226.303C439.34 228.241 444.508 230.653 445.972 235.646C447.152 239.671 445.786 244.691 441.799 250.991C432.367 265.9 432.746 276.011 433.08 284.931C433.329 291.541 433.563 297.784 429.577 304.76C427.818 307.839 426.073 309.341 424.255 309.342Z" fill="white"/>
</mask>
<g mask="url(#mask4)">
<path fill-rule="evenodd" clip-rule="evenodd" d="M406.283 192.558C405.609 192.558 405.103 192.717 404.725 193.036C403.138 194.387 403.261 198.992 403.486 207.354C403.56 210.128 403.644 213.272 403.686 216.91C403.782 225.174 406.275 230.446 408.095 234.297C410.6 239.599 412.113 242.798 403.929 247.514C400.722 249.364 398.866 251.491 398.258 254.019C397.078 258.925 400.87 264.768 404.539 270.42C405.963 272.616 407.436 274.883 408.604 277.078C410.119 279.923 411.653 284.293 413.277 288.92C416.434 297.912 420.011 308.104 424.031 308.47C425.565 308.606 427.18 307.217 428.828 304.332C432.692 297.571 432.472 291.729 432.218 284.962C431.88 275.917 431.495 265.665 441.071 250.531C444.916 244.45 446.25 239.66 445.144 235.887C443.79 231.269 439.026 229.046 434.823 227.085C431.711 225.633 429.021 224.378 428.476 222.369C428.207 221.376 428.479 220.311 429.306 219.112C431.913 215.338 432.776 212.495 431.947 210.421C430.753 207.431 425.899 206.045 421.307 205.084C415.524 203.873 413.555 200.195 411.972 197.242C410.787 195.031 409.764 193.121 407.472 192.686C407.027 192.601 406.632 192.558 406.283 192.558ZM424.255 309.342C424.155 309.342 424.054 309.338 423.953 309.328C419.38 308.911 415.864 298.894 412.464 289.206C410.851 284.611 409.327 280.27 407.842 277.484C406.692 275.323 405.229 273.069 403.814 270.889C400.047 265.085 396.152 259.083 397.42 253.817C398.087 251.046 400.075 248.741 403.499 246.767C410.993 242.448 409.84 240.01 407.314 234.666C405.46 230.744 402.922 225.373 402.823 216.921C402.782 213.288 402.698 210.148 402.623 207.376C402.384 198.468 402.265 193.998 404.167 192.38C404.954 191.71 406.056 191.538 407.633 191.838C410.331 192.351 411.497 194.53 412.733 196.835C414.308 199.777 416.094 203.111 421.483 204.239C426.541 205.297 431.406 206.74 432.748 210.101C433.692 212.464 432.8 215.572 430.016 219.603C429.341 220.579 429.11 221.41 429.309 222.143C429.75 223.766 432.269 224.941 435.188 226.303C439.34 228.241 444.508 230.653 445.972 235.646C447.152 239.671 445.786 244.691 441.799 250.991C432.367 265.9 432.746 276.011 433.08 284.931C433.329 291.541 433.563 297.784 429.577 304.76C427.818 307.839 426.073 309.341 424.255 309.342Z" fill="url(#paint4_linear)"/>
</g>
<mask id="mask5" mask-type="alpha" maskUnits="userSpaceOnUse" x="410" y="207" width="16" height="108">
<path d="M424.356 314.689L423.534 314.429C428.143 299.858 419.804 267.166 417.32 259.21C416.098 255.298 417.227 249.408 418.32 243.713C419.73 236.358 421.189 228.75 417.469 225.899C410.484 220.544 410.853 208.155 410.871 207.63L411.733 207.663C411.729 207.786 411.364 220.132 417.994 225.215C422.137 228.39 420.627 236.262 419.166 243.875C418.095 249.466 416.986 255.247 418.142 258.953C421.217 268.792 428.955 300.153 424.356 314.689Z" fill="white"/>
</mask>
<g mask="url(#mask5)">
<path fill-rule="evenodd" clip-rule="evenodd" d="M424.356 314.689L423.534 314.429C428.143 299.858 419.804 267.166 417.32 259.21C416.098 255.298 417.227 249.408 418.32 243.713C419.73 236.358 421.189 228.75 417.469 225.899C410.484 220.544 410.853 208.155 410.871 207.63L411.733 207.663C411.729 207.786 411.364 220.132 417.994 225.215C422.137 228.39 420.627 236.262 419.166 243.875C418.095 249.466 416.986 255.247 418.142 258.953C421.217 268.792 428.955 300.153 424.356 314.689Z" fill="url(#paint5_linear)"/>
</g>
<mask id="mask6" mask-type="alpha" maskUnits="userSpaceOnUse" x="377" y="216" width="49" height="96">
<path d="M418.166 311.317C414.796 311.317 411.669 299.433 407.387 293.984C402.335 287.555 400.268 277.45 394.298 270.103C388.328 262.755 371.565 260.459 378.914 248.748C380.536 246.164 381.565 243.792 382.176 241.589C383.402 241.005 384.25 239.755 384.25 238.307V216.991C384.515 216.941 384.786 216.916 385.058 216.916C386.833 216.916 388.659 217.973 389.476 220.046C395.446 235.2 407.106 232.639 405.766 239.266C402.73 254.284 411.979 256.325 421.177 262.985C430.374 269.644 421.177 276.186 420.718 286.519C420.259 296.852 424.149 304.317 420.016 310.058C419.386 310.932 418.772 311.317 418.166 311.317Z" fill="white"/>
</mask>
<g mask="url(#mask6)">
<path fill-rule="evenodd" clip-rule="evenodd" d="M418.166 311.317C414.796 311.317 411.669 299.433 407.387 293.984C402.335 287.555 400.268 277.45 394.298 270.103C388.328 262.755 371.565 260.459 378.914 248.748C380.536 246.164 381.565 243.792 382.176 241.589C383.402 241.005 384.25 239.755 384.25 238.307V216.991C384.515 216.941 384.786 216.916 385.058 216.916C386.833 216.916 388.659 217.973 389.476 220.046C395.446 235.2 407.106 232.639 405.766 239.266C402.73 254.284 411.979 256.325 421.177 262.985C430.374 269.644 421.177 276.186 420.718 286.519C420.259 296.852 424.149 304.317 420.016 310.058C419.386 310.932 418.772 311.317 418.166 311.317Z" fill="url(#paint6_linear)"/>
</g>
<path fill-rule="evenodd" clip-rule="evenodd" d="M426.716 311.387C426.665 311.082 421.559 280.814 410.126 272.519C398.468 264.06 396.349 256.247 392.277 237.82L393.12 237.634C397.142 255.833 399.229 263.548 410.632 271.821C422.353 280.323 427.36 309.988 427.568 311.246L426.716 311.387Z" fill="white"/>
<mask id="mask7" mask-type="alpha" maskUnits="userSpaceOnUse" x="407" y="183" width="65" height="132">
<path d="M416.407 310.302C416.407 310.302 419.803 301.901 413.621 289.96C407.438 278.017 402.434 279.855 417.338 270.668C432.241 261.482 417.431 232.545 430.118 228.871C442.805 225.197 453.828 178.362 463.474 184.326C473.12 190.289 460.259 213.255 467.148 220.144C474.038 227.035 474.957 235.802 460.719 242.899C446.479 249.999 470.824 277.099 451.532 285.366C432.241 293.634 437.774 326.052 416.407 310.302Z" fill="white"/>
</mask>
<g mask="url(#mask7)">
<path fill-rule="evenodd" clip-rule="evenodd" d="M416.407 310.302C416.407 310.302 419.803 301.901 413.621 289.96C407.438 278.017 402.434 279.855 417.338 270.668C432.241 261.482 417.431 232.545 430.118 228.871C442.805 225.197 453.828 178.362 463.474 184.326C473.12 190.289 460.259 213.255 467.148 220.144C474.038 227.035 474.957 235.802 460.719 242.899C446.479 249.999 470.824 277.099 451.532 285.366C432.241 293.634 437.774 326.052 416.407 310.302Z" fill="url(#paint7_linear)"/>
</g>
<path fill-rule="evenodd" clip-rule="evenodd" d="M422.298 319.212C422.276 319.105 420.202 308.348 426.756 294.449C433.432 280.289 436.628 264.81 435.306 253.041C434.588 246.668 438.67 244.176 442.62 241.764C446.507 239.39 450.526 236.936 450.305 230.657C450.105 224.984 452.505 211.686 452.608 211.123L453.457 211.278C453.432 211.414 450.969 225.046 451.167 230.627C451.406 237.41 447.168 239.998 443.069 242.5C439.179 244.875 435.507 247.118 436.163 252.944C437.503 264.866 434.279 280.518 427.536 294.816C421.112 308.441 423.122 318.937 423.144 319.041L422.298 319.212Z" fill="white"/>
<path fill-rule="evenodd" clip-rule="evenodd" d="M437.878 259.855C442.21 255.832 447.939 255.252 446.746 261.22C445.553 267.188 441.459 268.895 443.507 272.646C445.553 276.398 448.963 280.149 443.165 284.755C437.367 289.359 434.127 289.87 432.421 298.569C430.715 307.265 431.057 313.205 423.553 313.576C416.049 313.946 418.948 303.001 421.336 298.056C421.336 298.056 424.917 292.413 422.529 285.002C420.141 277.592 415.537 273.59 425.258 271.072C434.979 268.553 434.958 262.568 437.878 259.855Z" fill="white"/>
<mask id="mask8" mask-type="alpha" maskUnits="userSpaceOnUse" x="424" y="263" width="18" height="57">
<path d="M424.091 319.136C424.066 318.072 423.551 293.018 428.238 288.801C433.023 284.493 433.942 276.881 434.064 272.729C434.225 267.316 441.215 264.103 441.514 263.97L441.868 264.756C441.8 264.787 435.07 267.882 434.926 272.753C434.772 277.995 433.587 285.146 428.814 289.442C424.42 293.397 424.947 318.86 424.953 319.117L424.091 319.136Z" fill="white"/>
</mask>
<g mask="url(#mask8)">
<path fill-rule="evenodd" clip-rule="evenodd" d="M424.091 319.136C424.066 318.072 423.551 293.018 428.238 288.801C433.023 284.493 433.942 276.881 434.064 272.729C434.225 267.316 441.215 264.103 441.514 263.97L441.868 264.756C441.8 264.787 435.07 267.882 434.926 272.753C434.772 277.995 433.587 285.146 428.814 289.442C424.42 293.397 424.947 318.86 424.953 319.117L424.091 319.136Z" fill="url(#paint8_linear)"/>
</g>
<mask id="mask9" mask-type="alpha" maskUnits="userSpaceOnUse" x="408" y="308" width="34" height="31">
<path d="M441.697 308.911L433.923 338.402H416.551L408.779 308.911H441.697Z" fill="white"/>
</mask>
<g mask="url(#mask9)">
<path fill-rule="evenodd" clip-rule="evenodd" d="M441.697 308.911L433.923 338.402H416.551L408.779 308.911H441.697Z" fill="url(#paint9_linear)"/>
</g>
<mask id="mask10" mask-type="alpha" maskUnits="userSpaceOnUse" x="408" y="308" width="34" height="31">
<path d="M441.697 308.911C441.697 308.911 424.585 312.124 424.585 338.402H416.551L408.779 308.911H441.697Z" fill="white"/>
</mask>
<g mask="url(#mask10)">
<path fill-rule="evenodd" clip-rule="evenodd" d="M441.697 308.911C441.697 308.911 424.585 312.124 424.585 338.402H416.551L408.779 308.911H441.697Z" fill="url(#paint10_linear)"/>
</g>
<path fill-rule="evenodd" clip-rule="evenodd" d="M112.587 234.434H135.466V231.843H112.587V234.434Z" fill="#1487E3"/>
<path fill-rule="evenodd" clip-rule="evenodd" d="M107.815 160.369H71.2998V113.671H72.1626V159.506H107.815V160.369Z" fill="#78C2FF"/>
<path fill-rule="evenodd" clip-rule="evenodd" d="M262.352 129.598H261.489V81.4458H307.959V40.9495H308.822V82.3085H262.352V129.598Z" fill="#78C2FF"/>
<path fill-rule="evenodd" clip-rule="evenodd" d="M412.474 183.238H364.124V182.374H411.61V154.3H412.474V183.238Z" fill="#78C2FF"/>
<path fill-rule="evenodd" clip-rule="evenodd" d="M50.9944 222.255C50.9944 222.255 49.9596 236.782 52.7969 238.52C54.5749 239.61 61.6643 243.283 61.4543 243.972C61.2443 244.661 57.451 250.101 57.451 250.101C57.451 250.101 43.8334 241.133 43.3943 238.308C42.9652 235.547 44.0643 217.038 45.9364 216.185C47.3388 215.546 48.0784 216.074 49.8465 217.386C52.3252 219.227 50.9944 222.255 50.9944 222.255Z" fill="#FF7E55"/>
<path fill-rule="evenodd" clip-rule="evenodd" d="M49.4058 327.972C49.4058 327.972 48.9821 330.912 48.9305 331.353C48.8771 331.795 44.2193 331.093 44.2193 331.093L43.8418 327.594C43.8418 327.594 48.8246 327.558 49.4058 327.972Z" fill="#424773"/>
<path fill-rule="evenodd" clip-rule="evenodd" d="M49.0008 330.979C49.0008 330.979 50.4746 332.75 51.9032 333.523C53.3309 334.294 55.5724 334.6 56.418 335.4C57.0264 335.977 58.6369 338.459 52.708 338.41C46.7792 338.36 43.922 338.761 43.2874 337.808C42.6519 336.857 44.2063 330.781 44.2063 330.781C44.2063 330.781 45.6095 331.285 49.0008 330.979Z" fill="#292C47"/>
<path fill-rule="evenodd" clip-rule="evenodd" d="M72.733 327.972C72.733 327.972 72.3084 330.912 72.2559 331.353C72.2025 331.795 67.5456 331.093 67.5456 331.093L67.1689 327.594C67.1689 327.594 72.1518 327.558 72.733 327.972Z" fill="#424773"/>
<path fill-rule="evenodd" clip-rule="evenodd" d="M72.3265 330.979C72.3265 330.979 73.8013 332.75 75.2289 333.523C76.6566 334.294 81.9092 334.929 82.7529 335.728C83.3622 336.305 84.3753 338.628 76.0347 338.41C70.1076 338.255 67.2487 338.761 66.6122 337.808C65.9776 336.857 67.532 330.781 67.532 330.781C67.532 330.781 68.8547 331.319 72.3265 330.979Z" fill="#292C47"/>
<path fill-rule="evenodd" clip-rule="evenodd" d="M51.0973 252.444C51.0973 252.444 46.721 259.398 47.0469 265.683C47.3737 271.97 46.6576 278.684 45.9995 285.25C45.2671 292.57 43.27 307.804 43.1613 311.718C43.0518 315.634 43.3044 330.368 43.3044 330.368L50.8954 330.311C50.8954 330.311 53.5905 300.547 54.8968 297.455C56.2023 294.363 61.5626 272.002 61.7808 269.529C61.9981 267.056 51.0973 252.444 51.0973 252.444Z" fill="#292C47"/>
<path fill-rule="evenodd" clip-rule="evenodd" d="M74.1353 253.386C74.1353 253.386 75.8645 270.474 76.2999 274.321C76.7345 278.168 76.4375 294.837 76.6539 297.243C76.873 299.646 75.2 325.077 74.7881 329.92L66.4438 329.867C66.4438 329.867 65.8681 309.295 65.8681 299.301C65.8681 289.305 63.3033 277.67 60.3647 271.075C57.4261 264.48 50.6996 264.324 48.8936 252.089C48.8936 252.089 71.6901 249.506 74.1353 253.386Z" fill="#292C47"/>
<path fill-rule="evenodd" clip-rule="evenodd" d="M55.7225 193.817C55.7225 193.817 60.9371 190.333 64.599 194.065C68.261 197.796 70.0607 206.569 67.4317 208.321C64.8018 210.072 60.3405 210.531 58.2229 208.154C56.1054 205.78 53.8449 202.156 53.2899 199.511C52.7332 196.863 54.3998 194.931 55.7225 193.817Z" fill="#EEA886"/>
<path fill-rule="evenodd" clip-rule="evenodd" d="M65.6709 208.912C65.6709 208.912 65.603 212.577 66.0068 213.359C66.4115 214.14 58.3968 214.16 58.3968 214.16C58.3968 214.16 57.7459 209.91 56.5119 206.32C55.278 202.728 65.6709 208.912 65.6709 208.912Z" fill="#EEA886"/>
<path fill-rule="evenodd" clip-rule="evenodd" d="M56.6792 206.26C56.6792 206.26 57.427 207.022 59.5436 206.159C61.6602 205.296 63.6519 201.74 64.4929 201.204C65.3367 200.666 65.2172 200.125 65.2172 200.125L65.9903 200.829L66.9789 200.66C66.9789 200.66 65.4734 198.255 66.5633 196.872C67.6533 195.489 63.1766 188.733 56.7082 192.858C56.7082 192.858 51.6466 195.627 52.5682 198.658C53.4916 201.691 55.1058 205.013 56.6792 206.26Z" fill="#754836"/>
<path fill-rule="evenodd" clip-rule="evenodd" d="M66.4722 213.264C66.4722 213.264 66.4477 211.772 65.7706 211.628C65.0943 211.485 58.3018 210.832 57.4707 211.159V212.898C57.4707 212.898 59.0722 213.883 66.4722 213.264Z" fill="#E2D2CA"/>
<path fill-rule="evenodd" clip-rule="evenodd" d="M64.828 199.039C64.5835 198.551 62.9214 197.385 62.791 199.084C62.6607 200.783 64.4251 202.61 65.086 202.263C65.7478 201.916 65.449 200.274 64.828 199.039Z" fill="#EEA886"/>
<path fill-rule="evenodd" clip-rule="evenodd" d="M54.1988 194.714C54.1988 194.714 46.7409 196.714 56.3815 205.972L54.1988 194.714Z" fill="#754836"/>
<path fill-rule="evenodd" clip-rule="evenodd" d="M120.859 234.365L113.259 234.295C113.915 233.913 114.975 233.227 114.741 232.914C114.406 232.469 112.254 233.447 111.379 233.537C110.577 233.618 109.233 233.515 108.212 233.887L105.812 234.91L108.012 236.946C108.012 236.946 111.988 237.517 113.151 237.598C115.043 237.731 120.832 235.478 120.928 235.136C121.1 234.52 120.859 234.365 120.859 234.365Z" fill="#EEA886"/>
<path fill-rule="evenodd" clip-rule="evenodd" d="M76.3697 215.332C71.5363 214.483 66.4484 213.264 66.4484 213.264L57.447 212.896C57.447 212.896 49.186 214.715 45.9324 216.185C45.6237 216.325 45.6237 223.555 44.7754 225.451L47.4732 231.142C47.4732 231.142 49.0312 242.415 49.3544 247.427C49.5029 249.73 46.1415 269.01 46.1415 269.01C46.1415 269.01 49.7428 270.07 55.8871 270.747C62.0305 271.425 77.3809 270.503 77.4769 269.778C77.5747 269.052 74.5048 242.759 74.3681 241.397C74.1598 239.308 74.9719 229.652 74.9719 229.652C76.1298 231.205 82.8218 237.038 86.0891 238.891C88.413 240.209 94.1137 239.404 95.7931 239.234C99.427 238.861 109.467 238.143 109.663 237.786C109.82 237.572 109.086 233.911 108.666 233.771C108.298 233.649 95.3377 233.009 92.0867 233.176C90.7677 233.246 86.4648 228.44 86.4648 228.44C86.4648 228.44 79.0367 216.53 76.3697 215.332Z" fill="#FF7E55"/>
<path fill-rule="evenodd" clip-rule="evenodd" d="M21.0342 178.946H44.8275V199.823L41.1954 196.192H21.0342V178.946Z" fill="#FFCB55"/>
<path fill-rule="evenodd" clip-rule="evenodd" d="M381.839 123.291H403.414V101.716H381.839V123.291ZM381.067 124.063H404.184V100.946H381.067V124.063Z" fill="#6AAFE8"/>
<path fill-rule="evenodd" clip-rule="evenodd" d="M409.572 108.651H460.944V104.542H409.572V108.651ZM408.804 109.421H461.714V103.77H408.804V109.421Z" fill="#6AAFE8"/>
<path fill-rule="evenodd" clip-rule="evenodd" d="M381.839 134.93H460.949V130.821H381.839V134.93ZM381.067 135.701H461.719V130.051H381.067V135.701Z" fill="#6AAFE8"/>
<path fill-rule="evenodd" clip-rule="evenodd" d="M381.839 145.782H431.668V141.673H381.839V145.782ZM381.067 146.554H432.438V140.902H381.067V146.554Z" fill="#6AAFE8"/>
<path fill-rule="evenodd" clip-rule="evenodd" d="M409.572 119.43H443.863V115.321H409.572V119.43ZM408.804 120.201H444.634V114.549H408.804V120.201Z" fill="#6AAFE8"/>
<path fill-rule="evenodd" clip-rule="evenodd" d="M372.654 158.072H470.13V89.4264H372.654V158.072ZM371.884 158.842H470.901V88.656H371.884V158.842Z" fill="#6AAFE8"/>
<path fill-rule="evenodd" clip-rule="evenodd" d="M336.967 57.2225H329.559V56.3589H336.104V49.8198H336.967V57.2225Z" fill="#6AAFE8"/>
<path fill-rule="evenodd" clip-rule="evenodd" d="M287.145 57.2225H279.735V49.8198H280.6V56.3589H287.145V57.2225Z" fill="#6AAFE8"/>
<path fill-rule="evenodd" clip-rule="evenodd" d="M280.601 7.40815H279.737V0H287.141V0.86276H280.601V7.40815Z" fill="#6AAFE8"/>
<path fill-rule="evenodd" clip-rule="evenodd" d="M336.967 7.40528H336.104V0.866229H329.559V0.00256348H336.967V7.40528Z" fill="#6AAFE8"/>
<path fill-rule="evenodd" clip-rule="evenodd" d="M336.114 38.7577H336.977V18.4679H336.114V38.7577Z" fill="#6AAFE8"/>
<path fill-rule="evenodd" clip-rule="evenodd" d="M279.735 38.7577H280.6V18.4679H279.735V38.7577Z" fill="#6AAFE8"/>
<path fill-rule="evenodd" clip-rule="evenodd" d="M71.7201 108.624C70.4473 108.624 69.4116 109.659 69.4116 110.931C69.4116 112.204 70.4473 113.239 71.7201 113.239C72.9921 113.239 74.0268 112.204 74.0268 110.931C74.0268 109.659 72.9921 108.624 71.7201 108.624ZM71.7201 114.102C69.9711 114.102 68.5488 112.68 68.5488 110.931C68.5488 109.183 69.9711 107.761 71.7201 107.761C73.4683 107.761 74.8905 109.183 74.8905 110.931C74.8905 112.68 73.4683 114.102 71.7201 114.102Z" fill="#78C2FF"/>
<path fill-rule="evenodd" clip-rule="evenodd" d="M308.396 35.9029C307.124 35.9029 306.088 36.9386 306.088 38.2106C306.088 39.4825 307.124 40.5182 308.396 40.5182C309.669 40.5182 310.704 39.4825 310.704 38.2106C310.704 36.9386 309.669 35.9029 308.396 35.9029ZM308.396 41.3819C306.648 41.3819 305.226 39.9587 305.226 38.2106C305.226 36.4624 306.648 35.0402 308.396 35.0402C310.144 35.0402 311.567 36.4624 311.567 38.2106C311.567 39.9587 310.144 41.3819 308.396 41.3819Z" fill="#78C2FF"/>
<path fill-rule="evenodd" clip-rule="evenodd" d="M412.053 149.402C410.781 149.402 409.745 150.438 409.745 151.71C409.745 152.982 410.781 154.018 412.053 154.018C413.325 154.018 414.361 152.982 414.361 151.71C414.361 150.438 413.325 149.402 412.053 149.402ZM412.053 154.881C410.305 154.881 408.882 153.458 408.882 151.71C408.882 149.962 410.305 148.539 412.053 148.539C413.801 148.539 415.224 149.962 415.224 151.71C415.224 153.458 413.801 154.881 412.053 154.881Z" fill="#78C2FF"/>
<path fill-rule="evenodd" clip-rule="evenodd" d="M71.8462 25.1896H91.8851V5.15053H71.8462V25.1896ZM70.9834 26.0532H92.7488V4.28687H70.9834V26.0532Z" fill="#A1D4FF"/>
<path fill-rule="evenodd" clip-rule="evenodd" d="M81.4424 20.3616H82.3051V10.2167H81.4424V20.3616Z" fill="#A1D4FF"/>
<path fill-rule="evenodd" clip-rule="evenodd" d="M76.7881 15.7232H86.9321V14.8595H76.7881V15.7232Z" fill="#A1D4FF"/>
<path fill-rule="evenodd" clip-rule="evenodd" d="M394.187 51.4437H423.571V30.9602H394.187V51.4437ZM393.322 52.3074H424.435V30.0974H393.322V52.3074Z" fill="#A1D4FF"/>
<path fill-rule="evenodd" clip-rule="evenodd" d="M408.88 43.5512L393.481 30.8633L394.031 30.1979L408.88 42.4331L423.73 30.1979L424.279 30.8633L408.88 43.5512Z" fill="#A1D4FF"/>
<path fill-rule="evenodd" clip-rule="evenodd" d="M423.689 52.1729L412.522 40.4002L413.15 39.8054L424.316 51.579L423.689 52.1729Z" fill="#A1D4FF"/>
<path fill-rule="evenodd" clip-rule="evenodd" d="M394.068 52.1729L393.441 51.579L404.607 39.8054L405.234 40.4002L394.068 52.1729Z" fill="#A1D4FF"/>
<path fill-rule="evenodd" clip-rule="evenodd" d="M147.346 67.2869C146.749 67.2869 146.16 67.5666 145.787 68.089C145.491 68.5045 145.376 69.0106 145.46 69.514C145.545 70.0173 145.821 70.4582 146.237 70.7533C146.652 71.0494 147.157 71.1652 147.661 71.081C148.164 70.9959 148.605 70.7198 148.9 70.3043C149.196 69.8888 149.313 69.3827 149.228 68.8793C149.143 68.3769 148.867 67.936 148.452 67.6409C148.116 67.4019 147.729 67.2869 147.346 67.2869ZM147.338 71.7555C146.811 71.7555 146.298 71.5925 145.861 71.2811C144.711 70.4636 144.441 68.863 145.26 67.7142C146.077 66.5645 147.679 66.2947 148.827 67.1131C149.383 67.5087 149.754 68.098 149.867 68.7725C149.98 69.4461 149.824 70.1232 149.428 70.68C149.032 71.2368 148.443 71.6061 147.768 71.7193C147.625 71.7437 147.481 71.7555 147.338 71.7555ZM145.738 72.8319L145.927 72.9043C146.27 73.0365 146.63 73.1189 147.001 73.1506L147.202 73.1678L147.479 73.8929L148.754 73.6784L148.779 72.9025L148.964 72.8192C149.302 72.669 149.615 72.4725 149.897 72.2362L150.052 72.105L150.761 72.4218L151.51 71.3689L150.978 70.8031L151.051 70.613C151.184 70.2708 151.265 69.9096 151.298 69.5402L151.315 69.3383L152.04 69.0613L151.826 67.7866L151.049 67.7613L150.966 67.5766C150.816 67.2398 150.62 66.9257 150.383 66.6432L150.252 66.4884L150.568 65.7805L149.516 65.0309L148.95 65.5614L148.76 65.4889C148.416 65.3577 148.056 65.2753 147.688 65.2436L147.487 65.2255L147.208 64.5004L145.934 64.7149L145.909 65.4917L145.723 65.574C145.386 65.7252 145.072 65.9208 144.79 66.158L144.636 66.2883L143.927 65.9724L143.177 67.0253L143.709 67.5911L143.636 67.7803C143.504 68.1225 143.421 68.4837 143.389 68.8531L143.372 69.055L142.647 69.3329L142.862 70.6067L143.639 70.632L143.721 70.8167C143.871 71.1544 144.068 71.4685 144.305 71.7501L144.436 71.9049L144.12 72.6137L145.172 73.3633L145.738 72.8319ZM147.064 74.6199L146.74 73.7734C146.45 73.7354 146.166 73.6702 145.889 73.5788L145.228 74.198L143.311 72.8337L143.682 72.0072C143.502 71.7754 143.348 71.5274 143.217 71.2666L142.311 71.2377L141.921 68.9174L142.767 68.5933C142.804 68.3026 142.871 68.0184 142.963 67.7423L142.343 67.0814L143.707 65.1649L144.534 65.5342C144.765 65.3568 145.013 65.2011 145.274 65.0707L145.303 64.1645L147.623 63.7743L147.947 64.6198C148.236 64.6579 148.522 64.7231 148.799 64.8154L149.459 64.1953L151.377 65.5596L151.007 66.387C151.185 66.6179 151.339 66.8659 151.47 67.1276L152.376 67.1556L152.766 69.4759L151.921 69.8C151.882 70.0906 151.817 70.3758 151.724 70.6519L152.346 71.3119L150.98 73.2293L150.154 72.86C149.923 73.0374 149.676 73.1922 149.414 73.3235L149.384 74.2288L147.064 74.6199Z" fill="#A1D4FF"/>
<path fill-rule="evenodd" clip-rule="evenodd" d="M129.546 60.448C128.069 60.448 126.612 61.1379 125.693 62.4306C124.96 63.4591 124.673 64.7102 124.882 65.9541C125.092 67.1971 125.773 68.2853 126.801 69.0168C128.923 70.5268 131.878 70.0289 133.388 67.9069C134.118 66.8802 134.406 65.6282 134.197 64.3843C133.987 63.1404 133.306 62.0531 132.278 61.3216C131.449 60.7314 130.493 60.448 129.546 60.448ZM129.532 70.7531C128.412 70.7531 127.281 70.4173 126.3 69.7202C123.792 67.934 123.203 64.4395 124.988 61.93C126.775 59.4205 130.268 58.832 132.779 60.6182C135.288 62.4035 135.877 65.8989 134.091 68.4075C133.003 69.9375 131.279 70.7531 129.532 70.7531ZM125.906 73.9199L126.159 74.0159C126.979 74.3309 127.841 74.5274 128.719 74.6034L128.989 74.627L129.652 76.3561L133.1 75.7749L133.159 73.9244L133.405 73.814C134.212 73.4546 134.961 72.9856 135.632 72.4207L135.839 72.2469L137.53 73.001L139.557 70.1511L138.291 68.8022L138.387 68.5496C138.701 67.7303 138.898 66.8685 138.974 65.9894L138.997 65.7196L140.727 65.0569L140.145 61.6086L138.295 61.5498L138.184 61.3035C137.825 60.4969 137.355 59.7473 136.791 59.0774L136.617 58.8701L137.371 57.1798L134.523 55.1519L133.172 56.4185L132.921 56.3216C132.1 56.0075 131.24 55.8101 130.36 55.735L130.09 55.7114L129.429 53.9823L125.98 54.5626L125.921 56.4139L125.674 56.5244C124.868 56.8838 124.118 57.3528 123.447 57.9177L123.24 58.0915L121.55 57.3374L119.523 60.1864L120.79 61.5362L120.692 61.7888C120.378 62.6081 120.181 63.4699 120.105 64.349L120.082 64.6188L118.352 65.2806L118.934 68.7298L120.785 68.7877L120.895 69.0349C121.254 69.8406 121.723 70.5902 122.289 71.2619L122.462 71.4692L121.708 73.1586L124.557 75.1865L125.906 73.9199ZM129.098 77.3248L128.374 75.4363C127.599 75.3494 126.838 75.1756 126.106 74.9176L124.634 76.3L120.631 73.4519L121.455 71.6069C120.972 70.9994 120.557 70.3376 120.221 69.6342L118.199 69.5699L117.384 64.7265L119.272 64.0041C119.359 63.2291 119.534 62.4678 119.792 61.7354L118.41 60.2624L121.256 56.2609L123.102 57.0848C123.709 56.6004 124.372 56.1867 125.075 55.8499L125.139 53.8293L129.982 53.0127L130.705 54.9012C131.479 54.989 132.24 55.1628 132.974 55.4217L134.447 54.0384L138.448 56.8865L137.624 58.7306C138.108 59.339 138.522 59.9999 138.859 60.7042L140.879 60.7685L141.696 65.6119L139.807 66.3343C139.72 67.1093 139.546 67.8697 139.287 68.603L140.671 70.076L137.822 74.0774L135.978 73.2536C135.37 73.738 134.709 74.1517 134.004 74.4885L133.941 76.5091L129.098 77.3248Z" fill="#A1D4FF"/>
<path fill-rule="evenodd" clip-rule="evenodd" d="M16.1072 79.6278C8.4601 79.6278 2.23973 73.4056 2.23973 65.7584C2.23973 58.1113 8.4601 51.89 16.1072 51.89C23.7553 51.89 29.9765 58.1113 29.9765 65.7584H29.1129C29.1129 58.5875 23.2782 52.7537 16.1072 52.7537C8.93629 52.7537 3.10249 58.5875 3.10249 65.7584C3.10249 72.9294 8.93629 78.7641 16.1072 78.7641V79.6278ZM16.1072 81.8666C7.22616 81.8666 0 74.6404 0 65.7584H0.862758C0.862758 74.1652 7.70145 81.003 16.1072 81.003C24.5139 81.003 31.3526 74.1652 31.3526 65.7584C31.3526 57.3526 24.5139 50.5139 16.1072 50.5139V49.6503C24.9892 49.6503 32.2154 56.8765 32.2154 65.7584C32.2154 74.6404 24.9892 81.8666 16.1072 81.8666Z" fill="#78C2FF"/>
<path fill-rule="evenodd" clip-rule="evenodd" d="M14.1208 71.0959L8.31055 65.2856L8.92163 64.6754L14.1208 69.8746L23.2671 60.7283L23.8773 61.3384L14.1208 71.0959Z" fill="#78C2FF"/>
<mask id="mask11" mask-type="alpha" maskUnits="userSpaceOnUse" x="84" y="263" width="300" height="101">
<path d="M356.288 263.262H111.564L84.7832 363.36H383.068L356.288 263.262Z" fill="white"/>
</mask>
<g mask="url(#mask11)">
<path fill-rule="evenodd" clip-rule="evenodd" d="M356.288 263.262H111.564L84.7832 363.36H383.068L356.288 263.262Z" fill="url(#paint11_linear)"/>
</g>
<path fill-rule="evenodd" clip-rule="evenodd" d="M120.804 280.825H135.839C136.468 280.825 136.942 281.314 136.824 281.841L135.369 288.382C135.278 288.785 134.864 289.076 134.384 289.076H119.09C118.448 289.076 117.971 288.569 118.112 288.034L119.825 281.494C119.927 281.104 120.333 280.825 120.804 280.825Z" fill="white"/>
<path fill-rule="evenodd" clip-rule="evenodd" d="M142.742 280.825H154.108L152.596 289.076H141.013L142.742 280.825Z" fill="white"/>
<path fill-rule="evenodd" clip-rule="evenodd" d="M159.784 280.825H171.15L169.961 289.076L158.377 289.088L159.784 280.825Z" fill="white"/>
<path fill-rule="evenodd" clip-rule="evenodd" d="M176.847 280.825H188.214L187.349 289.076H175.766L176.847 280.825Z" fill="white"/>
<path fill-rule="evenodd" clip-rule="evenodd" d="M193.905 280.825H205.272L204.731 289.076H193.148L193.905 280.825Z" fill="white"/>
<path fill-rule="evenodd" clip-rule="evenodd" d="M210.946 280.825H222.314L222.099 289.076L210.515 289.088L210.946 280.825Z" fill="white"/>
<path fill-rule="evenodd" clip-rule="evenodd" d="M347.393 280.825H330.343L332.18 289.076H349.554L347.393 280.825Z" fill="white"/>
<path fill-rule="evenodd" clip-rule="evenodd" d="M324.644 280.825H313.277L314.791 289.076H326.374L324.644 280.825Z" fill="white"/>
<path fill-rule="evenodd" clip-rule="evenodd" d="M307.613 280.825H296.245L297.434 289.076L309.019 289.088L307.613 280.825Z" fill="white"/>
<path fill-rule="evenodd" clip-rule="evenodd" d="M290.546 280.825H279.178L280.042 289.076H291.626L290.546 280.825Z" fill="white"/>
<path fill-rule="evenodd" clip-rule="evenodd" d="M273.508 280.825H262.14L262.681 289.076H274.264L273.508 280.825Z" fill="white"/>
<path fill-rule="evenodd" clip-rule="evenodd" d="M256.449 280.825H245.081L245.298 289.076L256.882 289.088L256.449 280.825Z" fill="white"/>
<path fill-rule="evenodd" clip-rule="evenodd" d="M227.986 280.825H239.354L239.542 289.076H227.986V280.825Z" fill="white"/>
<path fill-rule="evenodd" clip-rule="evenodd" d="M115.823 295.224H139.576L138.222 303.737H114.02L115.823 295.224Z" fill="white"/>
<path fill-rule="evenodd" clip-rule="evenodd" d="M351.099 295.224H321.738L323.411 303.737H353.329L351.099 295.224Z" fill="white"/>
<path fill-rule="evenodd" clip-rule="evenodd" d="M315.858 295.224H304.114L305.452 303.737H317.419L315.858 295.224Z" fill="white"/>
<path fill-rule="evenodd" clip-rule="evenodd" d="M298.239 295.224H286.494L287.498 303.737H299.464L298.239 295.224Z" fill="white"/>
<path fill-rule="evenodd" clip-rule="evenodd" d="M280.642 295.224H268.897L269.566 303.737H281.533L280.642 295.224Z" fill="white"/>
<path fill-rule="evenodd" clip-rule="evenodd" d="M263.016 295.224H251.271L251.606 303.737H263.573L263.016 295.224Z" fill="white"/>
<path fill-rule="evenodd" clip-rule="evenodd" d="M112.258 310.395H136.541L134.77 318.85H110.043L112.258 310.395Z" fill="white"/>
<path fill-rule="evenodd" clip-rule="evenodd" d="M142.622 310.395H154.763L153.324 318.85H140.961L142.622 310.395Z" fill="white"/>
<path fill-rule="evenodd" clip-rule="evenodd" d="M160.845 310.395H251.899L252.237 318.85H159.516L160.845 310.395Z" fill="white"/>
<path fill-rule="evenodd" clip-rule="evenodd" d="M257.967 310.395H270.107L270.771 318.85H258.409L257.967 310.395Z" fill="white"/>
<path fill-rule="evenodd" clip-rule="evenodd" d="M276.18 310.395H288.321L289.317 318.85H276.954L276.18 310.395Z" fill="white"/>
<path fill-rule="evenodd" clip-rule="evenodd" d="M294.393 310.395H306.533L307.863 318.85H295.5L294.393 310.395Z" fill="white"/>
<path fill-rule="evenodd" clip-rule="evenodd" d="M312.605 310.395H324.747L326.408 318.85H314.045L312.605 310.395Z" fill="white"/>
<path fill-rule="evenodd" clip-rule="evenodd" d="M330.819 310.395H355.101L357.316 318.85H332.591L330.819 310.395Z" fill="white"/>
<path fill-rule="evenodd" clip-rule="evenodd" d="M245.421 295.224H233.772V303.737H245.645L245.421 295.224Z" fill="white"/>
<path fill-rule="evenodd" clip-rule="evenodd" d="M227.814 295.224H216.07L215.734 303.737H227.702L227.814 295.224Z" fill="white"/>
<path fill-rule="evenodd" clip-rule="evenodd" d="M210.177 295.224H198.435L197.765 303.737H209.732L210.177 295.224Z" fill="white"/>
<path fill-rule="evenodd" clip-rule="evenodd" d="M192.576 295.224H180.832L179.827 303.737H191.795L192.576 295.224Z" fill="white"/>
<path fill-rule="evenodd" clip-rule="evenodd" d="M174.965 295.224H163.222L161.883 303.737H173.85L174.965 295.224Z" fill="white"/>
<path fill-rule="evenodd" clip-rule="evenodd" d="M157.339 295.224H145.595L143.923 303.737H155.89L157.339 295.224Z" fill="white"/>
<path fill-rule="evenodd" clip-rule="evenodd" d="M121.366 275.639L123.295 268.272H128.814L127.014 275.639H121.366Z" fill="white"/>
<path fill-rule="evenodd" clip-rule="evenodd" d="M134.334 268.272H145.371L143.827 275.639H132.597L134.334 268.272Z" fill="white"/>
<path fill-rule="evenodd" clip-rule="evenodd" d="M150.909 268.272H161.947L160.693 275.639H149.462L150.909 268.272Z" fill="white"/>
<path fill-rule="evenodd" clip-rule="evenodd" d="M167.461 268.272H178.498L177.533 275.639H166.303L167.461 268.272Z" fill="white"/>
<path fill-rule="evenodd" clip-rule="evenodd" d="M184.012 268.272H195.05L194.375 275.639H183.144L184.012 268.272Z" fill="white"/>
<path fill-rule="evenodd" clip-rule="evenodd" d="M200.565 268.272H211.603L211.218 275.639H199.986L200.565 268.272Z" fill="white"/>
<path fill-rule="evenodd" clip-rule="evenodd" d="M217.116 268.272H228.154L228.057 275.639H216.827L217.116 268.272Z" fill="white"/>
<path fill-rule="evenodd" clip-rule="evenodd" d="M233.671 268.272H244.709L244.902 275.639H233.671V268.272Z" fill="white"/>
<path fill-rule="evenodd" clip-rule="evenodd" d="M250.244 268.272H261.283L261.765 275.639H250.534L250.244 268.272Z" fill="white"/>
<path fill-rule="evenodd" clip-rule="evenodd" d="M266.784 268.272H277.823L278.595 275.639H267.364L266.784 268.272Z" fill="white"/>
<path fill-rule="evenodd" clip-rule="evenodd" d="M283.356 268.272H294.395L295.456 275.639H284.225L283.356 268.272Z" fill="white"/>
<path fill-rule="evenodd" clip-rule="evenodd" d="M299.897 268.272H310.936L312.287 275.639H301.055L299.897 268.272Z" fill="white"/>
<path fill-rule="evenodd" clip-rule="evenodd" d="M316.47 268.272H327.507L329.149 275.639H317.917L316.47 268.272Z" fill="white"/>
<path fill-rule="evenodd" clip-rule="evenodd" d="M333.02 268.272H344.057L345.987 275.639H334.756L333.02 268.272Z" fill="white"/>
<mask id="mask12" mask-type="alpha" maskUnits="userSpaceOnUse" x="84" y="363" width="300" height="9">
<path d="M375.276 371.153H92.5752C88.2723 371.153 84.7832 367.664 84.7832 363.36H383.068C383.068 367.664 379.579 371.153 375.276 371.153Z" fill="white"/>
</mask>
<g mask="url(#mask12)">
<path fill-rule="evenodd" clip-rule="evenodd" d="M375.276 371.153H92.5752C88.2723 371.153 84.7832 367.664 84.7832 363.36H383.068C383.068 367.664 379.579 371.153 375.276 371.153Z" fill="url(#paint12_linear)"/>
</g>
<path fill-rule="evenodd" clip-rule="evenodd" d="M268.585 331.015C268.293 329.252 266.769 327.96 264.982 327.96H202.835C201.049 327.96 199.526 329.252 199.234 331.015L195.352 354.51C194.984 356.734 196.7 358.754 198.952 358.754H268.866C271.119 358.754 272.834 356.734 272.467 354.51L268.585 331.015Z" fill="#4D78EB"/>
<path fill-rule="evenodd" clip-rule="evenodd" d="M135.441 131.411H160.739V128.821H135.441V131.411Z" fill="#E0E0E0"/>
<path fill-rule="evenodd" clip-rule="evenodd" d="M167.834 150.916H186.099V148.327H167.834V150.916Z" fill="#E0E0E0"/>
<path fill-rule="evenodd" clip-rule="evenodd" d="M188.943 150.916H201.063V148.327H188.943V150.916Z" fill="#1487E3"/>
<path fill-rule="evenodd" clip-rule="evenodd" d="M135.742 199.964H147.862V197.373H135.742V199.964Z" fill="#1487E3"/>
<path fill-rule="evenodd" clip-rule="evenodd" d="M203.449 150.916H232.712V148.327H203.449V150.916Z" fill="#E0E0E0"/>
<path fill-rule="evenodd" clip-rule="evenodd" d="M135.742 190.14H154.545V187.55H135.742V190.14Z" fill="#E0E0E0"/>
<path fill-rule="evenodd" clip-rule="evenodd" d="M161.968 209.715H173.447V207.126H161.968V209.715Z" fill="#E0E0E0"/>
<path fill-rule="evenodd" clip-rule="evenodd" d="M135.742 209.715H158.485V207.126H135.742V209.715Z" fill="#1487E3"/>
<path fill-rule="evenodd" clip-rule="evenodd" d="M135.742 219.468H148.286V216.877H135.742V219.468Z" fill="#E0E0E0"/>
<path fill-rule="evenodd" clip-rule="evenodd" d="M165.669 131.411H183.628V128.821H165.669V131.411Z" fill="#78C2FF"/>
<path fill-rule="evenodd" clip-rule="evenodd" d="M165.669 160.668H183.628V158.078H165.669V160.668Z" fill="#1487E3"/>
<path fill-rule="evenodd" clip-rule="evenodd" d="M156.705 170.42H164.378V167.829H156.705V170.42Z" fill="#E0E0E0"/>
<path fill-rule="evenodd" clip-rule="evenodd" d="M149.033 180.315H166.268V177.726H149.033V180.315Z" fill="#78C2FF"/>
<path fill-rule="evenodd" clip-rule="evenodd" d="M168.858 180.315H192.651V177.726H168.858V180.315Z" fill="#1487E3"/>
<path fill-rule="evenodd" clip-rule="evenodd" d="M135.742 170.491H153.701V167.901H135.742V170.491Z" fill="#1487E3"/>
<path fill-rule="evenodd" clip-rule="evenodd" d="M135.742 180.315H146.398V177.726H135.742V180.315Z" fill="#1487E3"/>
<path fill-rule="evenodd" clip-rule="evenodd" d="M167.975 170.491H178.028V167.901H167.975V170.491Z" fill="#FF8761"/>
<path fill-rule="evenodd" clip-rule="evenodd" d="M136.059 229.219H146.11V226.63H136.059V229.219Z" fill="#FF8761"/>
<path fill-rule="evenodd" clip-rule="evenodd" d="M135.676 150.916H153.633V148.327H135.676V150.916Z" fill="#78C2FF"/>
<path fill-rule="evenodd" clip-rule="evenodd" d="M151.553 199.964H169.511V197.373H151.553V199.964Z" fill="#78C2FF"/>
<path fill-rule="evenodd" clip-rule="evenodd" d="M151.771 219.468H169.728V216.877H151.771V219.468Z" fill="#78C2FF"/>
<path fill-rule="evenodd" clip-rule="evenodd" d="M183.676 219.468H201.633V216.877H183.676V219.468Z" fill="#78C2FF"/>
<path fill-rule="evenodd" clip-rule="evenodd" d="M135.676 160.668H161.275V158.078H135.676V160.668Z" fill="#78C2FF"/>
<path fill-rule="evenodd" clip-rule="evenodd" d="M255.631 131.411H273.589V128.821H255.631V131.411Z" fill="#78C2FF"/>
<path fill-rule="evenodd" clip-rule="evenodd" d="M191.672 229.219H209.63V226.63H191.672V229.219Z" fill="#78C2FF"/>
<path fill-rule="evenodd" clip-rule="evenodd" d="M279.172 131.411H291.194V128.821H279.172V131.411Z" fill="#78C2FF"/>
<path fill-rule="evenodd" clip-rule="evenodd" d="M319.851 141.163H331.871V138.574H319.851V141.163Z" fill="#78C2FF"/>
<path fill-rule="evenodd" clip-rule="evenodd" d="M188.468 131.411H211.349V128.821H188.468V131.411Z" fill="#1487E3"/>
<path fill-rule="evenodd" clip-rule="evenodd" d="M277.619 141.163H300.498V138.574H277.619V141.163Z" fill="#1487E3"/>
<path fill-rule="evenodd" clip-rule="evenodd" d="M249.542 150.916H272.422V148.327H249.542V150.916Z" fill="#1487E3"/>
<path fill-rule="evenodd" clip-rule="evenodd" d="M219.757 160.668H242.637V158.078H219.757V160.668Z" fill="#1487E3"/>
<path fill-rule="evenodd" clip-rule="evenodd" d="M275.31 150.916H291.574V148.327H275.31V150.916Z" fill="#78C2FF"/>
<path fill-rule="evenodd" clip-rule="evenodd" d="M228.271 131.411H251.149V128.821H228.271V131.411Z" fill="#FF8761"/>
<path fill-rule="evenodd" clip-rule="evenodd" d="M202.168 160.668H215.583V158.078H202.168V160.668Z" fill="#FF8761"/>
<path fill-rule="evenodd" clip-rule="evenodd" d="M191.672 200.108H205.087V197.517H191.672V200.108Z" fill="#FF8761"/>
<path fill-rule="evenodd" clip-rule="evenodd" d="M215.579 131.411H223.955V128.821H215.579V131.411Z" fill="#E0E0E0"/>
<path fill-rule="evenodd" clip-rule="evenodd" d="M188.468 160.668H196.842V158.078H188.468V160.668Z" fill="#E0E0E0"/>
<path fill-rule="evenodd" clip-rule="evenodd" d="M306.008 141.163H314.384V138.574H306.008V141.163Z" fill="#E0E0E0"/>
<path fill-rule="evenodd" clip-rule="evenodd" d="M135.441 141.163H148.544V138.574H135.441V141.163Z" fill="#1487E3"/>
<path fill-rule="evenodd" clip-rule="evenodd" d="M170.403 190.211H180.746V187.62H170.403V190.211Z" fill="#1487E3"/>
<path fill-rule="evenodd" clip-rule="evenodd" d="M151.771 141.163H156V138.574H151.771V141.163Z" fill="#1487E3"/>
<path fill-rule="evenodd" clip-rule="evenodd" d="M238.629 141.163H273.596V138.574H238.629V141.163Z" fill="#E0E0E0"/>
<path fill-rule="evenodd" clip-rule="evenodd" d="M205.086 219.468H240.053V216.877H205.086V219.468Z" fill="#E0E0E0"/>
<path fill-rule="evenodd" clip-rule="evenodd" d="M159.122 141.163H163.439V138.574H159.122V141.163Z" fill="#FF8761"/>
<path fill-rule="evenodd" clip-rule="evenodd" d="M223.954 141.163H235.394V138.574H223.954V141.163Z" fill="#1487E3"/>
<path fill-rule="evenodd" clip-rule="evenodd" d="M235.398 150.916H246.839V148.327H235.398V150.916Z" fill="#FF8761"/>
<path fill-rule="evenodd" clip-rule="evenodd" d="M176.562 229.219H188.001V226.63H176.562V229.219Z" fill="#FF8761"/>
<path fill-rule="evenodd" clip-rule="evenodd" d="M196.588 141.163H220.929V138.574H196.588V141.163Z" fill="#1487E3"/>
<path fill-rule="evenodd" clip-rule="evenodd" d="M173.94 200.108H188.161V197.517H173.94V200.108Z" fill="#1487E3"/>
<path fill-rule="evenodd" clip-rule="evenodd" d="M173.022 219.468H180.134V216.877H173.022V219.468Z" fill="#1487E3"/>
<path fill-rule="evenodd" clip-rule="evenodd" d="M184.745 141.163H193.121V138.574H184.745V141.163Z" fill="#78C2FF"/>
<path fill-rule="evenodd" clip-rule="evenodd" d="M156.562 150.916H164.936V148.327H156.562V150.916Z" fill="#FF8761"/>
<path fill-rule="evenodd" clip-rule="evenodd" d="M158.238 190.211H166.612V187.62H158.238V190.211Z" fill="#FF8761"/>
<path fill-rule="evenodd" clip-rule="evenodd" d="M166.963 141.163H181.555V138.574H166.963V141.163Z" fill="#1487E3"/>
<mask id="mask13" mask-type="alpha" maskUnits="userSpaceOnUse" x="356" y="161" width="29" height="81">
<path d="M380.625 241.941H356.292V161.319H380.625C382.632 161.319 384.26 162.946 384.26 164.953V182.375H364.135V183.238H384.26V216.991C382.182 217.379 380.409 219.292 380.761 222.801C381.297 228.17 384.344 233.817 382.186 241.589C381.713 241.815 381.183 241.941 380.625 241.941Z" fill="white"/>
</mask>
<g mask="url(#mask13)">
<path fill-rule="evenodd" clip-rule="evenodd" d="M356.292 241.941H384.344V161.319H356.292V241.941Z" fill="#FDFDFD"/>
</g>
<path fill-rule="evenodd" clip-rule="evenodd" d="M347.203 241.941H356.291V161.319H347.203V241.941Z" fill="url(#paint13_linear)"/>
<mask id="mask14" mask-type="alpha" maskUnits="userSpaceOnUse" x="271" y="161" width="77" height="81">
<path d="M347.198 241.941H274.803C272.796 241.941 271.169 240.314 271.169 238.307V164.953C271.169 162.946 272.796 161.319 274.803 161.319H347.198V241.941Z" fill="white"/>
</mask>
<g mask="url(#mask14)">
<path fill-rule="evenodd" clip-rule="evenodd" d="M347.198 241.941H274.803C272.796 241.941 271.169 240.314 271.169 238.307V164.953C271.169 162.946 272.796 161.319 274.803 161.319H347.198V241.941Z" fill="url(#paint14_linear)"/>
</g>
<mask id="mask15" mask-type="alpha" maskUnits="userSpaceOnUse" x="380" y="216" width="5" height="26">
<path d="M382.189 241.589C384.348 233.817 381.3 228.17 380.764 222.801C380.413 219.292 382.186 217.379 384.263 216.991V238.306C384.263 239.755 383.416 241.005 382.189 241.589Z" fill="white"/>
</mask>
<g mask="url(#mask15)">
<path fill-rule="evenodd" clip-rule="evenodd" d="M382.189 241.589C384.348 233.817 381.3 228.17 380.764 222.801C380.413 219.292 382.186 217.379 384.263 216.991V238.306C384.263 239.755 383.416 241.005 382.189 241.589Z" fill="url(#paint15_linear)"/>
</g>
<path fill-rule="evenodd" clip-rule="evenodd" d="M364.124 183.238H384.249V182.375H364.124V183.238Z" fill="#DFF0FF"/>
<path fill-rule="evenodd" clip-rule="evenodd" d="M372.05 208.413H353.831C353.06 208.413 352.436 207.788 352.436 207.02V204.205C352.436 203.436 353.06 202.811 353.831 202.811H372.05C372.821 202.811 373.445 203.436 373.445 204.205V207.02C373.445 207.788 372.821 208.413 372.05 208.413Z" fill="#4AAFFF"/>
<path fill-rule="evenodd" clip-rule="evenodd" d="M372.05 218.902H353.831C353.06 218.902 352.436 218.278 352.436 217.508V214.694C352.436 213.925 353.06 213.3 353.831 213.3H372.05C372.821 213.3 373.445 213.925 373.445 214.694V217.508C373.445 218.278 372.821 218.902 372.05 218.902Z" fill="#4AAFFF"/>
<path fill-rule="evenodd" clip-rule="evenodd" d="M372.05 229.391H353.831C353.06 229.391 352.436 228.768 352.436 227.997V225.184C352.436 224.413 353.06 223.789 353.831 223.789H372.05C372.821 223.789 373.445 224.413 373.445 225.184V227.997C373.445 228.768 372.821 229.391 372.05 229.391Z" fill="#4AAFFF"/>
<path fill-rule="evenodd" clip-rule="evenodd" d="M320.756 222.862C311.329 226.234 301.168 223.191 295.044 215.992C293.584 214.276 292.353 212.324 291.417 210.165C291.21 209.69 291.017 209.202 290.84 208.707C289.058 203.725 289.068 198.538 290.536 193.853C292.653 187.087 297.806 181.361 304.994 178.792C307.367 177.943 309.786 177.502 312.174 177.428C322.042 177.131 331.406 183.148 334.91 192.945C339.263 205.116 332.925 218.51 320.756 222.862ZM342.265 190.315C337.592 177.248 325.104 169.224 311.942 169.619C308.755 169.715 305.53 170.304 302.364 171.435C292.778 174.865 285.903 182.502 283.079 191.523C281.121 197.776 281.109 204.693 283.485 211.338C283.721 211.999 283.978 212.648 284.254 213.283C285.503 216.161 287.144 218.765 289.092 221.053C297.26 230.656 310.813 234.714 323.386 230.219C339.619 224.411 348.071 206.548 342.265 190.315Z" fill="#4AAFFF"/>
<path fill-rule="evenodd" clip-rule="evenodd" d="M290.535 193.852L283.078 191.523C285.903 182.502 292.778 174.865 302.364 171.435C305.53 170.303 308.754 169.715 311.941 169.619L312.174 177.428C309.786 177.502 307.367 177.942 304.994 178.792C297.806 181.361 292.653 187.087 290.535 193.852Z" fill="#1A598C"/>
<path fill-rule="evenodd" clip-rule="evenodd" d="M291.417 210.165L284.254 213.283C283.978 212.648 283.721 211.999 283.485 211.338C281.109 204.693 281.121 197.776 283.079 191.523L290.536 193.852C289.068 198.537 289.058 203.725 290.84 208.707C291.017 209.202 291.21 209.69 291.417 210.165Z" fill="#2273B5"/>
<path fill-rule="evenodd" clip-rule="evenodd" d="M289.11 221.053C287.163 218.765 285.522 216.161 284.272 213.283L291.436 210.165C292.372 212.324 293.603 214.276 295.063 215.992L289.11 221.053Z" fill="#3788CC"/>
<path fill-rule="evenodd" clip-rule="evenodd" d="M323.299 219.339C323.299 219.339 321.788 216.693 324.185 209.602C326.503 202.744 334.532 203.365 337.082 207.759C339.634 212.152 338.772 214.882 335.016 219.843C331.26 224.804 324.858 221.607 323.299 219.339Z" fill="#EEA886"/>
<path fill-rule="evenodd" clip-rule="evenodd" d="M341.947 341.341C341.947 341.341 342.345 344.252 342.394 344.691C342.443 345.128 346.813 344.433 346.813 344.433L347.167 340.966C347.167 340.966 342.494 340.931 341.947 341.341Z" fill="#EEA886"/>
<path fill-rule="evenodd" clip-rule="evenodd" d="M342.348 344.322C342.348 344.322 340.963 346.077 339.625 346.841C338.286 347.607 336.182 347.909 335.39 348.701C334.818 349.272 333.308 351.733 338.87 351.683C344.43 351.635 347.111 352.031 347.707 351.088C348.303 350.143 346.845 344.125 346.845 344.125C346.845 344.125 345.485 344.509 342.348 344.322Z" fill="#414773"/>
<path fill-rule="evenodd" clip-rule="evenodd" d="M311.697 341.341C311.697 341.341 312.096 344.252 312.144 344.691C312.194 345.128 316.563 344.433 316.563 344.433L316.917 340.966C316.917 340.966 312.244 340.931 311.697 341.341Z" fill="#EEA886"/>
<path fill-rule="evenodd" clip-rule="evenodd" d="M312.103 344.322C312.103 344.322 310.718 346.077 309.379 346.841C308.04 347.607 303.113 348.234 302.321 349.026C301.749 349.599 300.799 351.899 308.623 351.683C314.183 351.53 316.865 352.031 317.462 351.088C318.057 350.143 316.599 344.125 316.599 344.125C316.599 344.125 314.872 344.432 312.103 344.322Z" fill="#414773"/>
<path fill-rule="evenodd" clip-rule="evenodd" d="M340.486 268.83C340.486 268.83 342.727 275.79 342.432 281.79C342.137 287.789 343.59 294.355 344.184 300.622C344.847 307.609 347.558 324.149 347.654 327.887C347.754 331.623 347.234 343.558 347.234 343.558L341.808 343.688C341.808 343.688 337.252 314.772 336.071 311.822C334.891 308.871 329.038 287.837 328.841 285.476C328.645 283.115 340.486 268.83 340.486 268.83Z" fill="#2D314F"/>
<path fill-rule="evenodd" clip-rule="evenodd" d="M317.993 268.102C317.993 268.102 314.699 286.509 314.304 290.182C313.912 293.854 313.648 307.951 313.452 310.246C313.256 312.54 312.141 340.277 311.092 343.685H317.142C317.142 343.685 323.354 323.523 323.354 313.983C323.354 304.443 327.467 293.243 330.122 286.95C332.778 280.654 338.857 280.506 340.489 268.827C340.489 268.827 320.202 264.398 317.993 268.102Z" fill="#2D314F"/>
<path fill-rule="evenodd" clip-rule="evenodd" d="M325.503 221.211C325.503 221.211 326.186 223.198 325.503 224.616C324.821 226.032 334.222 225.182 334.222 225.182C334.222 225.182 333.798 222.253 335.026 219.843C336.254 217.433 325.503 221.211 325.503 221.211Z" fill="#EEA886"/>
<path fill-rule="evenodd" clip-rule="evenodd" d="M340.911 270.347C340.911 270.347 337.529 273.821 317.676 269.806L317.979 268.104L340.548 268.955L340.911 270.347Z" fill="#2B3B57"/>
<path fill-rule="evenodd" clip-rule="evenodd" d="M324.073 225.075C324.073 225.075 320.6 225.429 319.608 225.619C318.617 225.807 311.938 224.424 310.568 224.282C309.197 224.141 303.355 220.139 303.166 219.665C302.978 219.194 299.613 210.673 299.423 208.83C299.234 206.985 296.145 207.938 296.41 209.208C296.905 211.584 297.541 217.349 297.891 219.02C298.267 220.825 299.277 224.911 299.843 225.414C300.41 225.917 305.671 229.918 310.82 231.618C315.971 233.319 319.847 235.824 319.847 235.824H345.227C345.227 235.824 355.1 221.713 355.312 219.586C355.523 217.461 348.417 203.33 346.999 201.557C345.581 199.786 343.532 202.136 343.532 202.136C343.532 202.136 347.779 214.598 348.345 216.37C348.913 218.142 343.406 225.925 341.893 225.95C340.381 225.973 336.5 225.476 334.775 225.406C333.05 225.334 331.23 224.578 331.23 224.578L324.073 225.075Z" fill="#EEA886"/>
<path fill-rule="evenodd" clip-rule="evenodd" d="M313.147 234.501C313.147 234.501 316.255 236.566 316.539 240.109C316.822 243.653 317.956 249.252 318.523 251.165C319.091 253.079 318.027 266.969 317.885 267.961C317.743 268.954 337.525 271.31 340.562 268.954C340.562 268.954 341.413 255.983 341.767 252.299C342.122 248.614 343.822 239.685 344.39 238.48C344.956 237.274 351.83 227.633 352.114 226.362C352.114 226.362 348.557 220.692 346.006 220.621C346.006 220.621 341.954 225.37 340.633 225.581C339.312 225.794 331.215 224.31 331.213 224.298C331.213 224.298 330.329 225.503 325.631 224.084C325.631 224.084 320.035 224.715 319.125 224.831C318.022 224.973 310.361 223.87 310.361 223.87C310.361 223.87 307.286 229.061 307.825 231.681L313.147 234.501Z" fill="#FFC655"/>
<path fill-rule="evenodd" clip-rule="evenodd" d="M299.594 209.937C299.594 209.937 298.9 206.652 299.737 205.709C300.213 205.173 301.354 203.751 301.459 203.543C301.564 203.334 302.79 202.628 302.79 202.289C302.79 201.949 301.59 201.532 300.546 202.498C299.501 203.464 298.849 203.673 298.432 203.568C298.013 203.464 297.414 199.992 297.361 199.131C297.309 198.269 296.976 195.998 296.438 196.155C295.899 196.311 295.925 197.303 295.925 197.303C295.925 197.303 295.299 195.58 294.881 195.92C294.463 196.259 294.516 197.095 294.516 197.095C294.516 197.095 293.732 196.128 293.524 196.833C293.314 197.539 293.524 198.164 293.524 198.164C293.524 198.164 292.713 197.721 292.663 198.817C292.609 199.913 292.897 203.124 293.471 204.273C294.045 205.422 296.195 208.426 296.451 209.599C296.707 210.773 299.594 209.937 299.594 209.937Z" fill="#EEA886"/>
<path fill-rule="evenodd" clip-rule="evenodd" d="M344.222 204.169C344.222 204.169 341.861 200.199 341.057 199.845C340.254 199.49 339.121 199.289 338.129 198.58C337.137 197.872 335.826 197.282 335.896 197.046C335.967 196.81 337.137 196.904 338.389 197.447C339.641 197.99 340.189 197.728 340.308 197.444C340.426 197.161 339.641 195.159 339.262 194.687C338.884 194.214 336.191 191.505 336.64 191.103C337.09 190.702 338.838 192.192 339.121 192.498C339.121 192.498 337.727 189.569 338.271 189.427C338.813 189.285 339.829 190.324 339.829 190.324C339.829 190.324 339.712 187.821 342.405 191.884C342.405 191.884 341.837 190.537 342.664 190.987C343.491 191.435 344.295 193.963 344.555 195.239C344.814 196.514 345.993 200.578 346.998 201.557C348.003 202.538 344.222 204.169 344.222 204.169Z" fill="#EEA886"/>
<path fill-rule="evenodd" clip-rule="evenodd" d="M335.026 219.843C335.026 219.843 333.782 219.953 331.136 219.04C328.49 218.126 328.292 213.5 327.721 214.047C326.553 215.166 325.451 214.394 325.01 213.732C325.01 213.732 326.301 212.032 325.702 211.212C325.104 210.393 324.13 209.796 324.13 209.796C324.13 209.796 325.99 200.827 334.459 204.913C344.381 209.701 335.026 219.843 335.026 219.843Z" fill="#353A3D"/>
<path fill-rule="evenodd" clip-rule="evenodd" d="M325.508 224.616L325.807 223.318C325.807 223.318 331.211 223.209 334.16 223.636L334.471 225.186C334.471 225.186 330.694 226.899 325.508 224.616Z" fill="#D4D8E8"/>
<path fill-rule="evenodd" clip-rule="evenodd" d="M326.834 212.913C327.325 212.098 329.14 211.548 329.354 213.858C329.52 215.651 326.109 217.607 326.078 215.938C326.047 214.268 326.508 213.456 326.834 212.913Z" fill="#EEA886"/>
<path fill-rule="evenodd" clip-rule="evenodd" d="M299.474 209.192C299.474 209.192 297.524 209.239 296.578 210.093C296.578 210.093 296.517 210.637 296.736 211.063C296.736 211.063 298.426 210.275 299.723 210.127C299.723 210.127 299.701 209.418 299.474 209.192Z" fill="#E55353"/>
<path fill-rule="evenodd" clip-rule="evenodd" d="M297.176 209.677C296.997 210.103 297.197 210.596 297.622 210.776C298.049 210.955 298.541 210.756 298.721 210.329C298.902 209.902 298.702 209.411 298.275 209.23C297.849 209.05 297.356 209.25 297.176 209.677Z" fill="#353A3D"/>
<path fill-rule="evenodd" clip-rule="evenodd" d="M249.265 140.368C249.265 140.368 252.053 145.093 253.229 145.866C254.828 146.913 253.826 147.972 253.067 147.973C252.309 147.974 248.434 148.251 247.58 147.283C246.726 146.314 246.304 143.41 245.509 142.65C244.715 141.891 243.896 138.872 245.896 138.139C247.665 137.489 249.265 140.368 249.265 140.368Z" fill="#6069A8"/>
<path fill-rule="evenodd" clip-rule="evenodd" d="M248.06 138.291C248.06 138.291 251.253 143.824 251.802 144.643C252.352 145.46 250.766 145.458 249.783 145.07C248.8 144.682 246.328 140.713 245.973 139.99C245.549 139.128 245.897 138.14 245.897 138.14L248.06 138.291Z" fill="#202338"/>
<path fill-rule="evenodd" clip-rule="evenodd" d="M244.833 141.268L245.57 146.941L245.961 146.958L245.839 142.877L244.833 141.268Z" fill="#6069A8"/>
<path fill-rule="evenodd" clip-rule="evenodd" d="M221.626 140.368C221.626 140.368 224.414 145.094 225.59 145.866C227.189 146.914 226.188 147.973 225.429 147.974C224.671 147.975 220.795 148.252 219.942 147.283C219.088 146.314 218.665 143.41 217.871 142.651C217.077 141.892 216.23 138.795 218.257 138.139C220.036 137.564 221.626 140.368 221.626 140.368Z" fill="#6069A8"/>
<path fill-rule="evenodd" clip-rule="evenodd" d="M220.596 138.302C220.596 138.302 223.621 143.824 224.172 144.643C224.721 145.46 223.134 145.458 222.152 145.07C221.169 144.682 218.697 140.713 218.342 139.99C217.919 139.128 218.266 138.14 218.266 138.14L220.596 138.302Z" fill="#202338"/>
<path fill-rule="evenodd" clip-rule="evenodd" d="M217.192 141.268L217.929 146.941L218.32 146.958L218.199 142.877L217.192 141.268Z" fill="#6069A8"/>
<path fill-rule="evenodd" clip-rule="evenodd" d="M209.25 97.3625L234.475 108.856C234.475 108.856 237.291 109.772 237.607 112.898C238.592 122.658 245.891 138.139 245.891 138.139C248.233 139.284 248.054 138.291 248.054 138.291C246.579 133.552 244.781 114.025 244.141 106.174C244.005 104.511 243.921 103.372 243.902 103.008C243.89 102.76 243.619 102.437 243.152 102.058C239.69 99.251 225.447 93.4398 225.447 93.4398C214.753 93.1682 209.25 97.3625 209.25 97.3625Z" fill="#202338"/>
<path fill-rule="evenodd" clip-rule="evenodd" d="M204.497 102.298C205.277 109.116 215.011 108.336 215.011 108.336H226.807C226.807 108.336 223.709 115.23 222.512 121.046C221.242 127.218 218.249 138.139 218.249 138.139C218.249 138.139 218.445 138.51 220.58 138.301C220.58 138.301 229.839 119.847 233.384 115.207C234.147 114.208 236.332 108.788 236.709 105.555C236.836 104.468 236.757 103.628 236.351 103.288C235.941 102.944 235.001 102.298 233.747 101.507C230.051 99.1765 223.635 95.5897 220.059 94.7867C215.271 93.7103 207.698 91.6932 207.698 91.6932C207.698 91.6932 203.717 95.4802 204.497 102.298Z" fill="#202338"/>
<path fill-rule="evenodd" clip-rule="evenodd" d="M212.543 49.7783C212.543 49.7783 210.778 46.4259 211.638 42.8563C212.499 39.2867 215.81 35.7297 220.661 37.3638C225.51 38.997 229.43 42.764 226.524 47.1212C223.617 51.4767 229.155 53.4439 227.743 55.5171C226.332 57.5902 226.867 59.7548 227.465 60.2373C228.063 60.719 229.99 62.4381 229.777 64.4742C229.565 66.5093 220.368 58.5417 220.368 58.5417C220.368 58.5417 215.358 48.4765 212.543 49.7783Z" fill="#464240"/>
<path fill-rule="evenodd" clip-rule="evenodd" d="M227.308 92.6221C227.308 92.6221 226.579 96.1709 207.738 91.6896C207.738 91.6896 214.054 89.592 227.308 92.6221Z" fill="#EB4747"/>
<path fill-rule="evenodd" clip-rule="evenodd" d="M207.542 92.686C207.249 93.2437 206.957 93.8013 206.666 94.359C213.553 94.5591 220.44 94.7601 227.326 94.961C226.238 91.3126 226.591 86.3733 226.782 82.6235C227.015 78.0435 229.543 74.8595 229.275 70.2271C230.637 70.448 230.872 70.4896 232.237 70.6978C230.15 64.7527 229.435 61.8068 222.953 59.5181C220.842 58.7731 219.456 58.6255 217.171 58.8138C209.663 59.4321 207.399 59.5209 203.712 66.3243C209.484 67.2441 208.534 69.3163 210.284 75.0587C211.138 77.8588 212.03 80.984 211.572 83.9371C211.121 86.8449 207.542 90.0343 207.542 92.686Z" fill="#325BB3"/>
<path fill-rule="evenodd" clip-rule="evenodd" d="M219.519 60.9596C216.447 60.3793 217.1 58.67 217.1 58.67C217.1 58.67 217.242 57.7059 217.298 56.4864C217.313 56.175 217.32 55.8455 217.318 55.5114C217.317 55.0053 217.293 54.4875 217.235 54.0004C216.983 51.9381 222.812 53.1685 222.812 53.1685C222.812 53.1685 222.476 57.3419 223.28 58.5922C224.083 59.8433 222.593 61.5399 219.519 60.9596Z" fill="#EEA886"/>
<path fill-rule="evenodd" clip-rule="evenodd" d="M213.654 58.6582C213.654 58.6582 219.852 65.8147 222.143 67.4732C222.143 67.4732 224.776 65.095 223.154 58.814C223.154 58.814 220.161 57.3148 213.654 58.6582Z" fill="#EEA886"/>
<path fill-rule="evenodd" clip-rule="evenodd" d="M213.827 41.4343C213.827 41.4343 210.607 47.6366 213.799 53.5111C216.992 59.3848 223.264 50.9527 223.669 49.9632C224.076 48.9737 226.226 43.378 221.949 41.6769C217.67 39.9768 214.738 39.7513 213.827 41.4343Z" fill="#EEA886"/>
<path fill-rule="evenodd" clip-rule="evenodd" d="M214.901 43.6352C214.901 43.6352 212.685 46.5458 212.423 48.6959C212.423 48.6959 211.541 44.6301 214.035 40.7246C216.528 36.8182 222.87 40.539 223.72 42.0989C224.568 43.6597 227.058 45.0348 222.876 51.7414C222.876 51.7414 215.357 46.5168 214.901 43.6352Z" fill="#464240"/>
<path fill-rule="evenodd" clip-rule="evenodd" d="M220.03 54.1296C220.03 54.1296 219.472 55.3509 217.289 56.4862C217.304 56.1747 217.311 55.8452 217.309 55.5111C217.309 55.5111 218.787 55.3328 220.03 54.1296Z" fill="#A77860"/>
<path fill-rule="evenodd" clip-rule="evenodd" d="M187.518 87.1054C187.518 87.1054 185.988 87.7862 185.261 87.4775C184.537 87.1688 183.414 87.109 183.061 87.1081C182.588 87.1072 181.107 86.5785 181.131 87.1579C181.157 87.7364 183.537 88.1402 184.024 88.3212C184.511 88.5014 182.567 89.5715 182.387 90.0467C182.206 90.522 184.4 93.6417 185.638 92.7527C186.875 91.8637 187.545 90.0893 187.797 89.977C188.05 89.8639 188.727 89.3659 188.727 89.3659L187.518 87.1054Z" fill="#EEA886"/>
<path fill-rule="evenodd" clip-rule="evenodd" d="M182.601 89.7704C182.601 89.7704 179.013 92.7452 178.957 93.1472C178.901 93.5491 179.09 93.7374 179.438 93.4731C179.785 93.2087 182.997 90.7001 182.997 90.7001C182.997 90.7001 179.401 94.946 179.28 95.2611C179.209 95.4458 179.554 95.8296 179.755 95.7056C179.956 95.5816 183.779 91.5837 183.779 91.5837C183.779 91.5837 180.429 95.5553 180.412 95.8523C180.396 96.1121 180.798 96.3927 181.069 96.1157C181.34 95.8387 184.673 92.3351 184.673 92.3351C184.673 92.3351 182.433 95.3842 182.57 95.6522C182.655 95.8169 182.939 96.161 183.49 95.3552C184.041 94.5495 185.557 92.7932 185.557 92.7932L182.601 89.7704Z" fill="#EEA886"/>
<path fill-rule="evenodd" clip-rule="evenodd" d="M225.576 108.336H215.011C215.011 108.336 205.278 109.116 204.498 102.299C203.717 95.4802 207.698 91.6932 207.698 91.6932C207.698 91.6932 212.84 93.063 217.33 94.1466C219.577 93.6695 222.286 93.359 225.449 93.4396C225.449 93.4396 244.478 99.727 243.905 103.038C243.905 103.038 235.945 98.7818 225.576 108.336Z" fill="#FF7E55"/>
<path fill-rule="evenodd" clip-rule="evenodd" d="M218.707 96.53L238.85 96.233L228.68 101.398L218.707 96.53Z" fill="#5E5853"/>
<path fill-rule="evenodd" clip-rule="evenodd" d="M224.971 93.9557C224.971 93.9557 220.439 95.7101 214.884 94.1231L214.624 92.0491L226.062 92.6855L224.971 93.9557Z" fill="#325BB3"/>
<path fill-rule="evenodd" clip-rule="evenodd" d="M228.68 101.398L218.707 97.5341V96.5302L229.468 100.412L228.68 101.398Z" fill="#91887F"/>
<path fill-rule="evenodd" clip-rule="evenodd" d="M224.885 94.9152C224.833 95.6593 225.585 96.1962 226.272 95.9029L227.441 95.4041C227.792 95.2538 227.997 94.8835 227.936 94.5051C227.449 91.4587 226.404 79.5982 227.932 77.5622C228.496 76.8108 228.848 76.1508 229.046 75.575C230.054 78.1742 231.309 81.5229 231.808 83.3236L241.325 95.9844L244.516 96.7937C240.533 87.1992 237.335 82.1159 237.335 82.1159C236.712 80.4438 234.926 75.3804 233.344 70.872C232.346 68.0248 231.429 65.3994 230.936 63.9889C230.686 63.2737 230.194 62.6699 229.543 62.2824C228.069 61.4006 225.613 60.0119 223.385 58.9309L223.359 58.9183L223.146 58.815L223.142 58.8141L223.141 58.8132C227.375 65.221 225.723 83.3173 224.888 94.8898L224.885 94.9152Z" fill="#EDDAD3"/>
<path fill-rule="evenodd" clip-rule="evenodd" d="M209.164 59.3602C207.807 59.5693 204.443 62.8357 202.658 66.1319C200.619 69.8944 198.543 74.1774 196.988 75.5861C194.128 78.178 186.121 87.337 185.741 87.1152C185.594 87.0301 187.936 89.8501 188.234 89.9814C188.383 90.0475 201.393 78.7737 202.642 77.0563C203.828 75.4276 206.996 68.5935 207.944 68.7437L207.945 68.7492L207.947 68.7519C208.02 68.9067 209.171 71.4054 210.264 75.0583L210.318 75.2403C211.071 77.7878 211.001 80.5535 210.593 83.6614C210.286 86.0071 208.535 89.842 207.479 91.7087C207.352 91.9333 207.384 92.3606 207.522 92.6856C207.604 92.8793 207.723 93.0368 207.868 93.0902L211.687 94.5052L212.585 94.8384C213.232 95.0774 213.91 94.9525 214.416 94.5849C214.831 94.2834 215.131 93.819 215.204 93.2568C216.053 86.7241 217.128 80.0493 217.984 77.5352C221.742 66.5022 216.516 58.2123 216.516 58.2123C216.516 58.2123 210.354 58.9157 209.164 59.3602Z" fill="#EDDAD3"/>
<path fill-rule="evenodd" clip-rule="evenodd" d="M228.688 101.397L234.68 85.0374L253.995 85.3524L248.285 100.429L228.688 101.397Z" fill="#6E6760"/>
<path fill-rule="evenodd" clip-rule="evenodd" d="M240.855 92.2745C240.266 93.4532 240.444 94.7361 241.253 95.1407C242.063 95.5454 243.196 94.918 243.785 93.7402C244.375 92.5624 244.197 91.2787 243.387 90.874C242.58 90.4693 241.445 91.0967 240.855 92.2745Z" fill="#807066"/>
<path fill-rule="evenodd" clip-rule="evenodd" d="M220.484 47.61C220.484 47.61 221.721 49.5347 220.579 51.1968C219.435 52.8581 220.867 54.4903 221.114 56.2466C221.363 58.0029 216.343 62.6771 221.926 65.0282C227.508 67.3792 229.285 63.4928 227.86 61.3535C226.436 59.2143 225.425 57.4788 225.305 54.4297C225.185 51.3797 224.181 46.6259 220.484 47.61Z" fill="#464240"/>
<path fill-rule="evenodd" clip-rule="evenodd" d="M180.051 24.5101H203.843V45.3884L200.212 41.7563H180.051V24.5101Z" fill="#78C2FF"/>
<defs>
<linearGradient id="paint0_linear" x1="104.07" y1="198.775" x2="376.051" y2="198.775" gradientUnits="userSpaceOnUse">
<stop stop-color="#40D4E6"/>
<stop offset="1" stop-color="#5477FF"/>
</linearGradient>
<linearGradient id="paint1_linear" x1="120.12" y1="186.735" x2="347.198" y2="186.735" gradientUnits="userSpaceOnUse">
<stop stop-color="#404A60"/>
<stop offset="1" stop-color="#2E3D5C"/>
</linearGradient>
<linearGradient id="paint2_linear" x1="419.776" y1="270.579" x2="478.203" y2="270.579" gradientUnits="userSpaceOnUse">
<stop stop-color="#2F76A0"/>
<stop offset="1" stop-color="#629C38"/>
</linearGradient>
<linearGradient id="paint3_linear" x1="414.715" y1="262.06" x2="490.999" y2="262.06" gradientUnits="userSpaceOnUse">
<stop stop-color="#2F76A0"/>
<stop offset="1" stop-color="#629C38"/>
</linearGradient>
<linearGradient id="paint4_linear" x1="397.176" y1="250.518" x2="446.382" y2="250.518" gradientUnits="userSpaceOnUse">
<stop stop-color="#2F76A0"/>
<stop offset="1" stop-color="#629C38"/>
</linearGradient>
<linearGradient id="paint5_linear" x1="410.862" y1="261.159" x2="425.781" y2="261.159" gradientUnits="userSpaceOnUse">
<stop stop-color="#2F76A0"/>
<stop offset="1" stop-color="#629C38"/>
</linearGradient>
<linearGradient id="paint6_linear" x1="377.084" y1="264.116" x2="425.248" y2="264.116" gradientUnits="userSpaceOnUse">
<stop stop-color="#2F76A0"/>
<stop offset="1" stop-color="#629C38"/>
</linearGradient>
<linearGradient id="paint7_linear" x1="432.39" y1="373.241" x2="471.01" y2="223.055" gradientUnits="userSpaceOnUse">
<stop stop-color="#2F76A0"/>
<stop offset="1" stop-color="#629C38"/>
</linearGradient>
<linearGradient id="paint8_linear" x1="424.062" y1="291.553" x2="441.868" y2="291.553" gradientUnits="userSpaceOnUse">
<stop stop-color="#2F76A0"/>
<stop offset="1" stop-color="#629C38"/>
</linearGradient>
<linearGradient id="paint9_linear" x1="408.779" y1="323.656" x2="441.697" y2="323.656" gradientUnits="userSpaceOnUse">
<stop stop-color="#FF9240"/>
<stop offset="1" stop-color="#FFCE45"/>
</linearGradient>
<linearGradient id="paint10_linear" x1="408.779" y1="323.656" x2="441.697" y2="323.656" gradientUnits="userSpaceOnUse">
<stop stop-color="#C87331"/>
<stop offset="1" stop-color="#FFCE45"/>
</linearGradient>
<linearGradient id="paint11_linear" x1="233.926" y1="253.586" x2="233.926" y2="404.388" gradientUnits="userSpaceOnUse">
<stop stop-color="#40D4E6"/>
<stop offset="1" stop-color="#5477FF"/>
</linearGradient>
<linearGradient id="paint12_linear" x1="-53.4675" y1="367.257" x2="244.818" y2="367.257" gradientUnits="userSpaceOnUse">
<stop stop-color="#40D4E6"/>
<stop offset="1" stop-color="#5477FF"/>
</linearGradient>
<linearGradient id="paint13_linear" x1="104.086" y1="198.775" x2="376.066" y2="198.775" gradientUnits="userSpaceOnUse">
<stop stop-color="#D1F5F8"/>
<stop offset="1" stop-color="#D5DEFF"/>
</linearGradient>
<linearGradient id="paint14_linear" x1="120.12" y1="186.735" x2="347.198" y2="186.735" gradientUnits="userSpaceOnUse">
<stop stop-color="#D1D3D9"/>
<stop offset="1" stop-color="#CDD1D7"/>
</linearGradient>
<linearGradient id="paint15_linear" x1="377.098" y1="264.116" x2="425.262" y2="264.116" gradientUnits="userSpaceOnUse">
<stop stop-color="#CDDEE9"/>
<stop offset="1" stop-color="#DAE7CF"/>
</linearGradient>
</defs>
</svg>
