<svg width="422" height="422" viewBox="0 0 422 422" fill="none" xmlns="http://www.w3.org/2000/svg">
<path fill-rule="evenodd" clip-rule="evenodd" d="M368.701 374.989H53.1291C39.111 374.989 27.7466 363.609 27.7466 349.569V78.3868C27.7466 64.3474 39.111 52.9666 53.1291 52.9666H368.701C382.72 52.9666 394.084 64.3474 394.084 78.3868V349.569C394.084 363.609 382.72 374.989 368.701 374.989ZM49.7333 200.965H83.5591L95.6272 151.548H64.6294L47.5959 200.965H49.7333Z" fill="#E2E3EB"/>
<path fill-rule="evenodd" clip-rule="evenodd" d="M360.381 39.3125C360.381 36.1391 362.951 33.5661 366.121 33.5661C369.289 33.5661 371.859 36.1391 371.859 39.3125C371.859 42.4859 369.289 45.06 366.121 45.06C362.951 45.06 360.381 42.4859 360.381 39.3125Z" fill="#4BBAFB"/>
<path fill-rule="evenodd" clip-rule="evenodd" d="M344.985 39.3125C344.985 36.1391 347.556 33.5661 350.726 33.5661C353.893 33.5661 356.464 36.1391 356.464 39.3125C356.464 42.4859 353.893 45.06 350.726 45.06C347.556 45.06 344.985 42.4859 344.985 39.3125Z" fill="#4BBAFB"/>
<path fill-rule="evenodd" clip-rule="evenodd" d="M329.592 39.3125C329.592 36.1391 332.16 33.5661 335.33 33.5661C338.499 33.5661 341.068 36.1391 341.068 39.3125C341.068 42.4859 338.499 45.06 335.33 45.06C332.16 45.06 329.592 42.4859 329.592 39.3125Z" fill="#4BBAFB"/>
<path fill-rule="evenodd" clip-rule="evenodd" d="M11.3755 226.857C11.3755 223.682 13.9448 221.11 17.1136 221.11C20.2835 221.11 22.8528 223.682 22.8528 226.857C22.8528 230.031 20.2835 232.603 17.1136 232.603C13.9448 232.603 11.3755 230.031 11.3755 226.857Z" fill="#E8E9EF"/>
<path fill-rule="evenodd" clip-rule="evenodd" d="M11.3755 242.581C11.3755 239.408 13.9448 236.835 17.1136 236.835C20.2835 236.835 22.8528 239.408 22.8528 242.581C22.8528 245.755 20.2835 248.328 17.1136 248.328C13.9448 248.328 11.3755 245.755 11.3755 242.581Z" fill="#E8E9EF"/>
<path fill-rule="evenodd" clip-rule="evenodd" d="M11.3755 258.306C11.3755 255.133 13.9448 252.56 17.1136 252.56C20.2835 252.56 22.8528 255.133 22.8528 258.306C22.8528 261.481 20.2835 264.054 17.1136 264.054C13.9448 264.054 11.3755 261.481 11.3755 258.306Z" fill="#E8E9EF"/>
<path fill-rule="evenodd" clip-rule="evenodd" d="M238.252 402.415C238.252 407.527 234.916 411.67 230.799 411.67C226.682 411.67 223.344 407.527 223.344 402.415C223.344 397.304 226.682 393.162 230.799 393.162C234.916 393.162 238.252 397.304 238.252 402.415Z" fill="#1C2142"/>
<path fill-rule="evenodd" clip-rule="evenodd" d="M316.16 402.415C316.16 407.527 312.823 411.67 308.706 411.67C304.589 411.67 301.251 407.527 301.251 402.415C301.251 397.304 304.589 393.162 308.706 393.162C312.823 393.162 316.16 397.304 316.16 402.415Z" fill="#1C2142"/>
<path fill-rule="evenodd" clip-rule="evenodd" d="M309.605 382.383H287.361C281.173 382.383 276.156 377.359 276.156 371.162V282.803H261.855V371.162C261.855 377.359 256.838 382.383 250.648 382.383H227.722C224.359 382.383 221.632 385.114 221.632 388.483V400.714C221.632 401.466 222.242 402.076 222.995 402.076H228.539C229.291 402.076 229.9 401.466 229.9 400.714V395.868C229.9 392.499 232.627 389.769 235.99 389.769H303.513C306.877 389.769 309.605 392.499 309.605 395.868V400.714C309.605 401.466 310.214 402.076 310.966 402.076H316.511C317.262 402.076 317.872 401.466 317.872 400.714V388.483C317.872 385.114 315.145 382.383 311.781 382.383H309.605Z" fill="#FFFFFE"/>
<path fill-rule="evenodd" clip-rule="evenodd" d="M277.167 292.969H259.724C258.557 292.969 257.608 292.021 257.608 290.851V285.243C257.608 284.072 258.557 283.124 259.724 283.124H277.167C278.337 283.124 279.284 284.072 279.284 285.243V290.851C279.284 292.021 278.337 292.969 277.167 292.969Z" fill="#334D8F"/>
<path fill-rule="evenodd" clip-rule="evenodd" d="M340.168 272.535V281.536C340.168 283.775 338.36 285.586 336.124 285.586H212.056L212.176 272.535H340.168Z" fill="#272E59"/>
<path fill-rule="evenodd" clip-rule="evenodd" d="M368.031 121.361L340.168 272.535H307.23C307.23 272.535 316.558 269.329 317.874 248.1C318.542 237.376 317.161 222.052 311.505 200.219H313.138C319.474 200.219 324.615 195.071 324.615 188.726V108.65C324.615 107.41 324.461 106.224 324.187 105.072H354.484C363.099 105.072 369.588 112.887 368.031 121.361Z" fill="#272E59"/>
<path fill-rule="evenodd" clip-rule="evenodd" d="M355.185 121.361L327.322 272.535H307.23C307.23 272.535 316.558 269.329 317.874 248.1C318.542 237.376 317.161 222.052 311.505 200.219H313.138C319.474 200.219 324.615 195.071 324.615 188.726V108.65C324.615 107.41 324.461 106.224 324.187 105.072H341.637C350.253 105.072 356.741 112.887 355.185 121.361Z" fill="#A09DC2"/>
<path fill-rule="evenodd" clip-rule="evenodd" d="M311.571 93.7435C311.571 93.7435 303.766 67.2914 303.766 38.801C303.766 10.3094 292.702 0.587219 280.735 0.587219H255.303C241.373 0.587219 229.882 11.4708 229.067 25.3971C228.385 37.0381 227.349 49.9085 225.869 57.1159C222.707 72.4912 216.182 102.123 210.526 117.72C204.869 133.317 209.385 146.657 223.159 146.884C223.159 146.884 222.03 175.148 259.511 167.461C295.055 160.17 319.023 149.436 315.247 106.496C314.855 102.049 313.618 97.7105 311.571 93.7435Z" fill="#1C2142"/>
<path fill-rule="evenodd" clip-rule="evenodd" d="M241.95 32.7099C239.633 32.7099 237.306 32.3224 235.543 31.1556C233.787 29.9942 232.798 28.2061 232.601 25.8384C231.714 15.1777 240.394 8.45543 240.764 8.17443C241.005 7.99111 241.349 8.04051 241.532 8.2798C241.715 8.52129 241.668 8.86597 241.427 9.04928C241.34 9.11405 232.858 15.698 233.693 25.7473C233.864 27.7901 234.666 29.2599 236.147 30.2401C240.878 33.3674 250.711 30.1589 250.81 30.126C251.096 30.0294 251.408 30.1863 251.502 30.4739C251.598 30.7615 251.442 31.0722 251.155 31.1677C250.875 31.2599 246.43 32.7099 241.95 32.7099Z" fill="#282F5A"/>
<path fill-rule="evenodd" clip-rule="evenodd" d="M278.763 29.1754C278.47 29.1754 278.225 28.9416 278.215 28.6441C278.212 28.5387 277.856 18.0679 276.914 14.5794C276.835 14.2863 277.007 13.9856 277.299 13.9065C277.596 13.8253 277.894 14.001 277.972 14.2929C278.946 17.9043 279.297 28.1732 279.311 28.6079C279.321 28.9108 279.084 29.1644 278.782 29.1743L278.763 29.1754Z" fill="#282F5A"/>
<path fill-rule="evenodd" clip-rule="evenodd" d="M321.259 99.1858C276.626 122.797 243.381 113.608 231.894 109.01C233.308 107.836 234.81 106.748 236.399 105.794C242.756 101.985 251.537 96.6611 256.83 93.1924C260.985 90.4702 262.431 85.9367 262.782 81.8314C263.188 77.0564 262.103 72.8743 262.103 72.8743H258.388C247.524 72.8743 238.723 64.0598 238.723 53.1818V28.6265H278.763L284.211 76.9137C285.286 86.4307 293.32 93.6096 302.878 93.6096H309.597C314.31 93.6096 318.508 95.783 321.259 99.1858Z" fill="#FAE0C5"/>
<path fill-rule="evenodd" clip-rule="evenodd" d="M277.541 229.143C285.197 233.093 297.888 250.527 317.872 248.098C318.537 237.374 317.161 222.055 311.505 200.217H313.137C319.472 200.217 324.613 195.069 324.613 188.724V108.647C324.613 105.06 323.354 101.766 321.257 99.1803C276.628 122.798 243.378 113.612 231.898 109.012C228.785 111.608 226.111 114.71 224.024 118.22L196.457 164.629C194.747 167.495 191.667 169.25 188.335 169.25H185.638V195.266H193.004C197.191 195.266 201.181 193.433 203.91 190.261L234.886 154.223C234.886 154.223 242.503 180.389 233.409 222.173L233.411 222.179C233.411 222.179 268.715 224.589 277.541 229.143Z" fill="url(#paint0_linear)"/>
<path fill-rule="evenodd" clip-rule="evenodd" d="M198.112 398.689C198.112 398.689 196.136 401.091 192.721 404.039C195.076 405.366 197.725 407.465 199.711 410.741C199.711 410.741 205.995 404.279 214.614 403.768C213.636 401.058 212.453 398.479 211.079 396.515L211.263 375.655H194.901L198.112 398.689Z" fill="#FAE0C5"/>
<path fill-rule="evenodd" clip-rule="evenodd" d="M199.711 410.741C197.725 407.466 195.076 405.366 192.721 404.039C187.993 408.12 180.502 413.247 171.641 414.495C171.641 414.495 167.026 414.123 164.922 417.251C164.209 418.316 164.922 419.765 166.182 419.984C172.211 420.993 190.406 423.344 215.189 419.974C216.736 419.753 217.853 418.381 217.71 416.833C217.443 413.903 216.364 408.625 214.614 403.769C205.995 404.279 199.711 410.741 199.711 410.741Z" fill="url(#paint1_linear)"/>
<path fill-rule="evenodd" clip-rule="evenodd" d="M177.512 253.517C164.942 256.999 172.698 295.836 172.698 295.836L172.695 295.851C172.775 296.477 178.566 341.93 176.705 345.385C174.842 348.864 171.893 356.636 180.717 362.532C180.717 362.532 176.705 377.262 190.889 375.649H194.9L194.901 375.655H211.263L212.175 272.531H237.544C221.969 265.574 187.176 250.841 177.512 253.517Z" fill="url(#paint2_linear)"/>
<path fill-rule="evenodd" clip-rule="evenodd" d="M277.541 229.143C268.715 224.589 233.411 222.179 233.411 222.179L233.409 222.173L233.408 222.182C233.408 222.182 192.226 213.071 182.865 222.182C173.504 231.28 135.787 273.608 132.576 285.385C130.504 292.993 132.576 297.977 132.576 297.977C132.576 297.977 125.331 300.853 123.215 305.211C118.677 314.562 127.72 321.782 127.762 321.817H127.765C127.765 321.817 133.257 322.958 140.575 331.934L172.693 295.836L172.695 295.851L172.698 295.836C172.698 295.836 164.942 256.999 177.512 253.517C187.176 250.841 221.969 265.574 237.544 272.531H307.229C307.229 272.531 316.556 269.33 317.872 248.098C297.888 250.527 285.197 233.093 277.541 229.143Z" fill="url(#paint3_linear)"/>
<path fill-rule="evenodd" clip-rule="evenodd" d="M127.765 321.817H127.762L127.764 321.819L115.466 344.047C115.466 344.047 112.913 343.407 109.125 342.316C110.54 345.23 111.9 348.962 111.183 351.548C111.183 351.548 116.664 350.84 122.451 355.183C123.143 353.632 123.847 351.909 124.553 349.941L140.576 331.934C133.257 322.958 127.765 321.817 127.765 321.817Z" fill="#FAE0C5"/>
<path fill-rule="evenodd" clip-rule="evenodd" d="M111.183 351.548C111.9 348.962 110.54 345.23 109.125 342.316C101.507 340.125 88.869 336.103 81.7827 331.742C80.8291 331.149 79.6014 331.335 78.889 332.213C78.5492 332.62 78.3848 333.114 78.3848 333.619C78.3848 334.113 78.5492 334.607 78.878 335.012C83.0651 340.139 98.0818 357.889 110.994 364.781C113.372 366.054 116.343 365.452 117.932 363.266C119.209 361.515 120.789 358.907 122.451 355.183C116.664 350.84 111.183 351.548 111.183 351.548Z" fill="url(#paint4_linear)"/>
<path fill-rule="evenodd" clip-rule="evenodd" d="M273.491 72.8743C273.491 72.8743 268.076 81.8863 262.782 81.8314C263.188 77.0565 262.103 72.8743 262.103 72.8743H273.491Z" fill="#F5C192"/>
<path fill-rule="evenodd" clip-rule="evenodd" d="M234.891 154.775C234.664 154.775 234.451 154.632 234.372 154.405C234.312 154.227 228.378 136.482 238.29 119.85C238.444 119.587 238.782 119.504 239.041 119.66C239.3 119.815 239.387 120.152 239.231 120.412C229.587 136.595 235.35 153.875 235.409 154.047C235.508 154.334 235.356 154.646 235.069 154.745L234.891 154.775Z" fill="#E88194"/>
<path fill-rule="evenodd" clip-rule="evenodd" d="M247.585 184.694C247.316 184.694 247.081 184.496 247.043 184.221C247.002 183.921 247.21 183.644 247.511 183.602L304.781 175.636L301.333 117.752C301.316 117.45 301.546 117.19 301.849 117.173C302.148 117.151 302.41 117.384 302.427 117.687L305.904 176.078C305.922 176.363 305.716 176.614 305.432 176.654L247.66 184.689L247.585 184.694Z" fill="#E88194"/>
<path fill-rule="evenodd" clip-rule="evenodd" d="M247.586 200.616C247.397 200.616 247.223 200.52 247.122 200.361L245.903 198.422C245.741 198.165 245.819 197.826 246.074 197.665C246.332 197.504 246.669 197.579 246.83 197.836L247.887 199.519L310.09 199.357C310.392 199.357 310.638 199.602 310.638 199.904C310.639 200.208 310.395 200.454 310.091 200.455L247.587 200.616H247.586Z" fill="#E88194"/>
<path fill-rule="evenodd" clip-rule="evenodd" d="M255.829 55.69C255.829 55.69 250.885 53.5539 250.11 54.8162C249.334 56.0786 252.534 57.6318 256.797 57.6318C261.062 57.6318 264.358 55.0105 263.486 53.5539C262.613 52.0984 255.829 55.69 255.829 55.69Z" fill="#FFFFFE"/>
<path fill-rule="evenodd" clip-rule="evenodd" d="M257.168 61.2673C255.495 61.2673 254.299 60.6834 254.226 60.646C253.956 60.511 253.847 60.1828 253.98 59.9117C254.115 59.6384 254.445 59.5308 254.715 59.6636C254.737 59.6757 257.051 60.7887 259.578 59.6548C259.852 59.5308 260.178 59.6537 260.303 59.9303C260.427 60.207 260.303 60.5319 260.026 60.6559C259.006 61.1136 258.025 61.2673 257.168 61.2673Z" fill="#F5C192"/>
<path fill-rule="evenodd" clip-rule="evenodd" d="M255.005 51.241C253.922 51.241 253.067 50.7657 252.64 50.3618C252.531 50.2586 252.469 50.1137 252.469 49.9622V36.374C252.469 33.6276 249.883 32.9316 249.857 32.9261C249.564 32.8504 249.388 32.5518 249.462 32.2577C249.537 31.9646 249.832 31.7857 250.129 31.8625C251.317 32.1676 253.565 33.5024 253.565 36.374V49.6966C254.004 49.9974 255.236 50.6154 256.825 49.5122C257.073 49.3399 257.415 49.4013 257.588 49.6494C257.76 49.8986 257.699 50.2411 257.45 50.4134C256.574 51.0226 255.738 51.241 255.005 51.241Z" fill="#F5C192"/>
<path fill-rule="evenodd" clip-rule="evenodd" d="M262.928 38.3487C261.651 38.3487 260.612 39.3893 260.612 40.6692C260.612 41.948 261.651 42.9886 262.928 42.9886C264.206 42.9886 265.245 41.948 265.245 40.6692C265.245 39.3893 264.206 38.3487 262.928 38.3487Z" fill="#1C2142"/>
<path fill-rule="evenodd" clip-rule="evenodd" d="M245.273 38.3487C243.995 38.3487 242.955 39.3893 242.955 40.6692C242.955 41.948 243.995 42.9886 245.273 42.9886C246.55 42.9886 247.589 41.948 247.589 40.6692C247.589 39.3893 246.55 38.3487 245.273 38.3487Z" fill="#1C2142"/>
<path fill-rule="evenodd" clip-rule="evenodd" d="M273.491 46.1884C273.491 48.2587 271.816 49.937 269.749 49.937C267.682 49.937 266.006 48.2587 266.006 46.1884C266.006 44.1182 267.682 42.4398 269.749 42.4398C271.816 42.4398 273.491 44.1182 273.491 46.1884Z" fill="#F1B29D"/>
<path fill-rule="evenodd" clip-rule="evenodd" d="M245.278 46.1895C245.278 48.2641 243.6 49.9326 241.529 49.9326C240.411 49.9326 239.402 49.4376 238.723 48.6593V43.7087C239.402 42.9294 240.411 42.4354 241.529 42.4354C243.6 42.4354 245.278 44.1138 245.278 46.1895Z" fill="#F1B29D"/>
<path fill-rule="evenodd" clip-rule="evenodd" d="M268.719 33.5244L268.566 33.5024C262.014 31.5892 259.481 33.3949 259.456 33.4124C259.213 33.5914 258.87 33.5453 258.691 33.306C258.509 33.0667 258.55 32.7275 258.788 32.5431C258.903 32.4531 261.71 30.3587 268.872 32.4487C269.164 32.5343 269.33 32.8383 269.246 33.1303C269.175 33.3696 268.957 33.5244 268.719 33.5244Z" fill="#1C2142"/>
<path fill-rule="evenodd" clip-rule="evenodd" d="M240.61 33.5244C240.41 33.5244 240.216 33.4136 240.12 33.2215C239.986 32.9503 240.094 32.621 240.365 32.4849C244.009 30.6595 248.161 31.9437 248.338 31.9997C248.625 32.0919 248.785 32.3993 248.694 32.6891C248.603 32.9778 248.295 33.138 248.007 33.0458C247.968 33.0348 244.096 31.845 240.855 33.4673L240.61 33.5244Z" fill="#1C2142"/>
<path fill-rule="evenodd" clip-rule="evenodd" d="M271.24 24.0866C266.286 24.0866 262.257 20.0515 262.257 15.0921C262.257 10.1328 266.286 6.09769 271.24 6.09769C276.191 6.09769 280.22 10.1328 280.22 15.0921C280.22 20.0515 276.191 24.0866 271.24 24.0866ZM246.463 24.0866C241.511 24.0866 237.483 20.0515 237.483 15.0921C237.483 10.1328 241.511 6.09769 246.463 6.09769C251.416 6.09769 255.445 10.1328 255.445 15.0921C255.445 20.0515 251.416 24.0866 246.463 24.0866ZM297.77 20.1744L279.872 9.91434C278.109 6.97693 274.904 5 271.24 5C267.883 5 264.914 6.65751 263.081 9.19097C258.42 7.02084 255.579 8.31172 254.509 9.03949C252.668 6.59274 249.752 5 246.463 5C240.907 5 236.387 9.52796 236.387 15.0921C236.387 20.6563 240.907 25.1843 246.463 25.1843C252.019 25.1843 256.541 20.6563 256.541 15.0921C256.541 13.2118 256.016 11.4566 255.118 9.94837C255.947 9.38087 258.355 8.25244 262.478 10.1218C261.645 11.5916 261.161 13.2853 261.161 15.0921C261.161 20.6563 265.682 25.1843 271.24 25.1843C276.796 25.1843 281.316 20.6563 281.316 15.0921C281.316 13.8836 281.092 12.7288 280.7 11.6542L297.226 21.1272L297.498 21.1997C297.686 21.1997 297.872 21.0998 297.972 20.923C298.124 20.6596 298.033 20.3248 297.77 20.1744Z" fill="white"/>
<path fill-rule="evenodd" clip-rule="evenodd" d="M366.228 195.9L366.185 195.894V186.034L366.228 186.028C368.3 186.028 369.985 188.242 369.985 190.963C369.985 193.686 368.3 195.9 366.228 195.9ZM366.228 183.833L366.185 183.835V179.955C366.185 179.446 365.774 179.034 365.266 179.034H346.544C346.037 179.034 345.625 179.446 345.625 179.955V202.886C345.625 203.395 346.037 203.807 346.544 203.807H365.266C365.774 203.807 366.185 203.395 366.185 202.886V198.093L366.228 198.095C369.509 198.095 372.178 194.896 372.178 190.963C372.178 187.031 369.509 183.833 366.228 183.833Z" fill="#F9FAF9"/>
<path fill-rule="evenodd" clip-rule="evenodd" d="M352.36 218.132H345.321L278.637 415.089H285.581L348.84 228.247L412.099 415.089H419.044L352.36 218.132Z" fill="#1C2142"/>
<path fill-rule="evenodd" clip-rule="evenodd" d="M69.4713 218.132L2.7876 415.089H9.73251L72.9909 228.247L136.249 415.089H143.194L76.5105 218.132H69.4713Z" fill="#1C2142"/>
<path fill-rule="evenodd" clip-rule="evenodd" d="M93.4901 151.548L81.422 200.965H47.5962L64.6296 151.548H93.4901Z" fill="#525C99"/>
<path fill-rule="evenodd" clip-rule="evenodd" d="M95.6273 151.548L83.5592 200.965H49.7334L66.7778 151.548H95.6273Z" fill="#FFFFFE"/>
<path fill-rule="evenodd" clip-rule="evenodd" d="M91.7164 198.13H36.5429C35.495 198.13 34.6455 198.982 34.6455 200.031V201.906C34.6455 202.956 35.495 203.807 36.5429 203.807H91.7164C92.7642 203.807 93.6137 202.956 93.6137 201.906V200.031C93.6137 198.982 92.7642 198.13 91.7164 198.13Z" fill="#6C72A7"/>
<path fill-rule="evenodd" clip-rule="evenodd" d="M62.7332 163.282L60.9355 162.261L64.6294 151.548H66.7778L62.7332 163.282Z" fill="#445292"/>
<path fill-rule="evenodd" clip-rule="evenodd" d="M89.0837 178.364L87.1984 177.288L62.7334 163.282L66.778 151.548H95.6275L89.0837 178.364Z" fill="#C5C5D9"/>
<path fill-rule="evenodd" clip-rule="evenodd" d="M151.119 159.016H28.0293C26.2493 159.016 24.5317 157.572 24.193 155.789L9.13252 76.613C8.9692 75.7579 9.15225 74.9368 9.64111 74.3309L10.0554 73.8194C10.5443 73.2146 11.2995 72.8743 12.1545 72.8743H135.244C137.024 72.8743 138.741 74.3188 139.08 76.1015L154.142 155.276C154.305 156.133 154.121 156.954 153.632 157.56L153.218 158.071C152.729 158.676 151.973 159.016 151.119 159.016Z" fill="#6C72A7"/>
<path fill-rule="evenodd" clip-rule="evenodd" d="M151.174 156.613H29.9718C28.1918 156.613 26.4742 155.169 26.1355 153.386L11.4334 76.1015C11.0947 74.3188 12.2632 72.8743 14.0432 72.8743H135.244C137.024 72.8743 138.742 74.3188 139.08 76.1015L153.782 153.386C154.121 155.169 152.954 156.613 151.174 156.613Z" fill="#FFFFFE"/>
<path fill-rule="evenodd" clip-rule="evenodd" d="M149.453 153.788H30.6165C29.984 153.788 29.3735 153.273 29.2529 152.64L14.8348 76.8479C14.7142 76.2145 15.1296 75.7008 15.7621 75.7008H134.599C135.232 75.7008 135.842 76.2145 135.963 76.8479L150.38 152.64C150.501 153.273 150.086 153.788 149.453 153.788Z" fill="#4D406C"/>
<path fill-rule="evenodd" clip-rule="evenodd" d="M20.1977 83.6513H22.0073C22.5072 83.6513 22.8349 83.2463 22.7395 82.7457C22.6442 82.2452 22.1619 81.8401 21.6632 81.8401H19.8524C19.3526 81.8401 19.0259 82.2452 19.1202 82.7457C19.2156 83.2463 19.6979 83.6513 20.1977 83.6513Z" fill="#5B7BB0"/>
<path fill-rule="evenodd" clip-rule="evenodd" d="M38.2956 83.6513H56.3934C56.8921 83.6513 57.2209 83.2463 57.1256 82.7457C57.0302 82.2452 56.5479 81.8401 56.0481 81.8401H37.9503C37.4516 81.8401 37.1228 82.2452 37.2181 82.7457C37.3135 83.2463 37.7958 83.6513 38.2956 83.6513Z" fill="#292245"/>
<path fill-rule="evenodd" clip-rule="evenodd" d="M60.0129 83.6513H61.8225C62.3224 83.6513 62.6501 83.2463 62.5547 82.7457C62.4605 82.2452 61.9771 81.8401 61.4784 81.8401H59.6676C59.1689 81.8401 58.84 82.2452 58.9354 82.7457C59.0308 83.2463 59.5131 83.6513 60.0129 83.6513Z" fill="#665896"/>
<path fill-rule="evenodd" clip-rule="evenodd" d="M78.1106 83.6513H84.046C84.5458 83.6513 84.8735 83.2463 84.7782 82.7457C84.6828 82.2452 84.2016 81.8401 83.7007 81.8401H77.7653C77.2655 81.8401 76.9377 82.2452 77.0331 82.7457C77.1285 83.2463 77.6107 83.6513 78.1106 83.6513Z" fill="#665896"/>
<path fill-rule="evenodd" clip-rule="evenodd" d="M65.4416 83.6513H74.491C74.9908 83.6513 75.3186 83.2463 75.2232 82.7457C75.1279 82.2452 74.6456 81.8401 74.1457 81.8401H65.0974C64.5976 81.8401 64.2688 82.2452 64.3641 82.7457C64.4595 83.2463 64.9418 83.6513 65.4416 83.6513Z" fill="#695C8A"/>
<path fill-rule="evenodd" clip-rule="evenodd" d="M25.6271 83.6513H34.6765C35.1763 83.6513 35.504 83.2463 35.4087 82.7457C35.3133 82.2452 34.831 81.8401 34.3312 81.8401H25.2829C24.7831 81.8401 24.4553 82.2452 24.5507 82.7457C24.646 83.2463 25.1272 83.6513 25.6271 83.6513Z" fill="#695C8A"/>
<path fill-rule="evenodd" clip-rule="evenodd" d="M48.2023 88.164C48.107 87.6634 47.6247 87.2584 47.1259 87.2584H27.2185C26.7187 87.2584 26.3898 87.6634 26.4852 88.164C26.5806 88.6645 27.0629 89.0706 27.5627 89.0706H47.4701C47.9699 89.0706 48.2977 88.6645 48.2023 88.164Z" fill="#695C8A"/>
<path fill-rule="evenodd" clip-rule="evenodd" d="M23.598 87.2584H20.884C20.3842 87.2584 20.0554 87.6634 20.1507 88.164C20.2461 88.6645 20.7284 89.0706 21.2282 89.0706H23.9433C24.4431 89.0706 24.7708 88.6645 24.6755 88.164C24.5801 87.6634 24.0978 87.2584 23.598 87.2584Z" fill="#E3648D"/>
<path fill-rule="evenodd" clip-rule="evenodd" d="M68.8431 87.2584H50.7453C50.2455 87.2584 49.9177 87.6634 50.0131 88.164C50.1084 88.6645 50.5896 89.0706 51.0906 89.0706H69.1872C69.687 89.0706 70.0148 88.6645 69.9194 88.164C69.8252 87.6634 69.3418 87.2584 68.8431 87.2584Z" fill="#695C8A"/>
<path fill-rule="evenodd" clip-rule="evenodd" d="M75.5218 89.0706C76.0216 89.0706 76.3493 88.6645 76.254 88.164C76.1597 87.6634 75.6763 87.2584 75.1776 87.2584H72.4626C71.9627 87.2584 71.635 87.6634 71.7304 88.164C71.8246 88.6645 72.3069 89.0706 72.8067 89.0706H75.5218Z" fill="#665896"/>
<path fill-rule="evenodd" clip-rule="evenodd" d="M84.732 87.2584H78.7955C78.2968 87.2584 77.968 87.6634 78.0633 88.164C78.1587 88.6645 78.641 89.0706 79.1408 89.0706H85.0762C85.576 89.0706 85.9038 88.6645 85.8095 88.164C85.7141 87.6634 85.2308 87.2584 84.732 87.2584Z" fill="#695C8A"/>
<path fill-rule="evenodd" clip-rule="evenodd" d="M63.8841 94.4888C64.3828 94.4888 64.7117 94.0826 64.6163 93.5832C64.5209 93.0827 64.0387 92.6765 63.5388 92.6765H61.7292C61.2293 92.6765 60.9016 93.0827 60.997 93.5832C61.0923 94.0826 61.5746 94.4888 62.0733 94.4888H63.8841Z" fill="#665896"/>
<path fill-rule="evenodd" clip-rule="evenodd" d="M22.2595 94.4888H24.0692C24.569 94.4888 24.8967 94.0826 24.8014 93.5832C24.706 93.0827 24.2237 92.6765 23.7239 92.6765H21.9142C21.4144 92.6765 21.0867 93.0827 21.182 93.5832C21.2774 94.0826 21.7597 94.4888 22.2595 94.4888Z" fill="#F8EE61"/>
<path fill-rule="evenodd" clip-rule="evenodd" d="M66.4261 93.5832C66.5215 94.0826 67.0038 94.4888 67.5036 94.4888H76.5519C77.0518 94.4888 77.3795 94.0826 77.2841 93.5832C77.1899 93.0827 76.7076 92.6765 76.2078 92.6765H67.1583C66.6596 92.6765 66.3308 93.0827 66.4261 93.5832Z" fill="#5B7BB0"/>
<path fill-rule="evenodd" clip-rule="evenodd" d="M27.6889 94.4888H36.7372C37.237 94.4888 37.5659 94.0826 37.4705 93.5832C37.3752 93.0827 36.8929 92.6765 36.393 92.6765H27.3436C26.8438 92.6765 26.5171 93.0827 26.6114 93.5832C26.7068 94.0826 27.1891 94.4888 27.6889 94.4888Z" fill="#5B7BB0"/>
<path fill-rule="evenodd" clip-rule="evenodd" d="M85.7622 92.6765H79.8268C79.327 92.6765 78.9993 93.0827 79.0946 93.5832C79.19 94.0826 79.6723 94.4888 80.171 94.4888H86.1075C86.6062 94.4888 86.9351 94.0826 86.8397 93.5832C86.7443 93.0827 86.262 92.6765 85.7622 92.6765Z" fill="#5B7BB0"/>
<path fill-rule="evenodd" clip-rule="evenodd" d="M40.3565 94.4888H58.4543C58.9541 94.4888 59.283 94.0826 59.1876 93.5832C59.0922 93.0827 58.61 92.6765 58.1101 92.6765H40.0124C39.5125 92.6765 39.1848 93.0827 39.2802 93.5832C39.3744 94.0826 39.8567 94.4888 40.3565 94.4888Z" fill="#665896"/>
<path fill-rule="evenodd" clip-rule="evenodd" d="M86.794 98.0958H80.8575C80.3588 98.0958 80.03 98.5008 80.1253 99.0014C80.2207 99.5019 80.703 99.9081 81.2028 99.9081H87.1382C87.638 99.9081 87.9658 99.5019 87.8704 99.0014C87.7762 98.5008 87.2928 98.0958 86.794 98.0958Z" fill="#695C8A"/>
<path fill-rule="evenodd" clip-rule="evenodd" d="M77.2378 98.0958H74.5228C74.024 98.0958 73.6963 98.5008 73.7906 99.0014C73.8859 99.5019 74.3682 99.9081 74.868 99.9081H77.5831C78.0818 99.9081 78.4107 99.5019 78.3153 99.0014C78.2199 98.5008 77.7376 98.0958 77.2378 98.0958Z" fill="#292245"/>
<path fill-rule="evenodd" clip-rule="evenodd" d="M71.9812 99.0014C71.8859 98.5008 71.4036 98.0958 70.9037 98.0958H52.806C52.3072 98.0958 51.9795 98.5008 52.0738 99.0014C52.1691 99.5019 52.6514 99.9081 53.1512 99.9081H71.249C71.7488 99.9081 72.0766 99.5019 71.9812 99.0014Z" fill="#695C8A"/>
<path fill-rule="evenodd" clip-rule="evenodd" d="M28.5468 99.0014C28.6421 99.5019 29.1244 99.9081 29.6242 99.9081H49.5317C50.0315 99.9081 50.3592 99.5019 50.2639 99.0014C50.1685 98.5008 49.6862 98.0958 49.1864 98.0958H29.2801C28.7791 98.0958 28.4514 98.5008 28.5468 99.0014Z" fill="#695C8A"/>
<path fill-rule="evenodd" clip-rule="evenodd" d="M25.66 98.0958H22.946C22.4462 98.0958 22.1174 98.5008 22.2127 99.0014C22.3081 99.5019 22.7904 99.9081 23.2902 99.9081H26.0053C26.5051 99.9081 26.8328 99.5019 26.7375 99.0014C26.6421 98.5008 26.1598 98.0958 25.66 98.0958Z" fill="#5B7BB0"/>
<path fill-rule="evenodd" clip-rule="evenodd" d="M87.8243 103.514H85.5082C85.0084 103.514 84.6807 103.92 84.7749 104.421C84.8703 104.92 85.3526 105.326 85.8524 105.326H88.1696C88.6683 105.326 88.9971 104.92 88.9018 104.421C88.8064 103.92 88.3241 103.514 87.8243 103.514Z" fill="#5B7BB0"/>
<path fill-rule="evenodd" clip-rule="evenodd" d="M68.4879 104.421C68.3925 103.92 67.9102 103.514 67.4104 103.514H65.6007C65.1009 103.514 64.7732 103.92 64.8685 104.421C64.9639 104.92 65.4462 105.326 65.946 105.326H67.7557C68.2555 105.326 68.5821 104.92 68.4879 104.421Z" fill="#5B7BB0"/>
<path fill-rule="evenodd" clip-rule="evenodd" d="M61.9812 103.514H43.8835C43.3836 103.514 43.0559 103.92 43.1513 104.421C43.2466 104.92 43.7289 105.326 44.2276 105.326H62.3254C62.8252 105.326 63.153 104.92 63.0576 104.421C62.9633 103.92 62.4811 103.514 61.9812 103.514Z" fill="#695C8A"/>
<path fill-rule="evenodd" clip-rule="evenodd" d="M82.9665 104.421C82.8712 103.92 82.3889 103.514 81.889 103.514H71.0299C70.5301 103.514 70.2024 103.92 70.2977 104.421C70.3931 104.92 70.8754 105.326 71.3752 105.326H82.2332C82.733 105.326 83.0608 104.92 82.9665 104.421Z" fill="#695C8A"/>
<path fill-rule="evenodd" clip-rule="evenodd" d="M29.7502 105.326H40.6093C41.108 105.326 41.4358 104.92 41.3415 104.421C41.2451 103.92 40.7639 103.514 40.264 103.514H29.4049C28.9051 103.514 28.5774 103.92 28.6727 104.421C28.7681 104.92 29.2504 105.326 29.7502 105.326Z" fill="#665896"/>
<path fill-rule="evenodd" clip-rule="evenodd" d="M24.3215 105.326H26.1301C26.631 105.326 26.9587 104.92 26.8634 104.421C26.768 103.92 26.2857 103.514 25.7859 103.514H23.9762C23.4764 103.514 23.1487 103.92 23.244 104.421C23.3394 104.92 23.8217 105.326 24.3215 105.326Z" fill="#E3648D"/>
<path fill-rule="evenodd" clip-rule="evenodd" d="M25.3517 110.746H27.1614C27.6612 110.746 27.989 110.339 27.8936 109.839C27.7982 109.338 27.316 108.933 26.8161 108.933H25.0065C24.5077 108.933 24.1789 109.338 24.2743 109.839C24.3696 110.339 24.8519 110.746 25.3517 110.746Z" fill="#F8EE61"/>
<path fill-rule="evenodd" clip-rule="evenodd" d="M30.7809 110.746H39.8304C40.3302 110.746 40.6579 110.339 40.5626 109.839C40.4672 109.338 39.9849 108.933 39.4851 108.933H30.4368C29.9369 108.933 29.6081 109.338 29.7035 109.839C29.7988 110.339 30.2811 110.746 30.7809 110.746Z" fill="#292245"/>
<path fill-rule="evenodd" clip-rule="evenodd" d="M79.2998 108.933H70.2504C69.7505 108.933 69.4239 109.338 69.5182 109.839C69.6135 110.339 70.0958 110.746 70.5956 110.746H79.644C80.1438 110.746 80.4726 110.339 80.3773 109.839C80.2819 109.338 79.7996 108.933 79.2998 108.933Z" fill="#695C8A"/>
<path fill-rule="evenodd" clip-rule="evenodd" d="M88.8545 108.933H82.9191C82.4193 108.933 82.0915 109.338 82.1869 109.839C82.2823 110.339 82.7635 110.746 83.2644 110.746H89.1998C89.6996 110.746 90.0273 110.339 89.932 109.839C89.8366 109.338 89.3543 108.933 88.8545 108.933Z" fill="#695C8A"/>
<path fill-rule="evenodd" clip-rule="evenodd" d="M65.1667 110.746H66.9764C67.4762 110.746 67.8039 110.339 67.7086 109.839C67.6132 109.338 67.1309 108.933 66.6311 108.933H64.8214C64.3216 108.933 63.9939 109.338 64.0893 109.839C64.1846 110.339 64.6669 110.746 65.1667 110.746Z" fill="#5B7BB0"/>
<path fill-rule="evenodd" clip-rule="evenodd" d="M43.4494 110.746H61.5472C62.047 110.746 62.3748 110.339 62.2794 109.839C62.184 109.338 61.7018 108.933 61.2019 108.933H43.1042C42.6043 108.933 42.2766 109.338 42.372 109.839C42.4673 110.339 42.9496 110.746 43.4494 110.746Z" fill="#695C8A"/>
<path fill-rule="evenodd" clip-rule="evenodd" d="M31.639 115.257C31.7344 115.758 32.2167 116.164 32.7165 116.164H52.6239C53.1237 116.164 53.4515 115.758 53.3561 115.257C53.2608 114.756 52.7796 114.351 52.2787 114.351H32.3712C31.8725 114.351 31.5437 114.756 31.639 115.257Z" fill="#695C8A"/>
<path fill-rule="evenodd" clip-rule="evenodd" d="M28.7517 114.351H26.0367C25.5379 114.351 25.2102 114.756 25.3056 115.257C25.4009 115.758 25.8821 116.164 26.3819 116.164H29.097C29.5968 116.164 29.9245 115.758 29.8292 115.257C29.7338 114.756 29.2515 114.351 28.7517 114.351Z" fill="#E3648D"/>
<path fill-rule="evenodd" clip-rule="evenodd" d="M75.0733 115.257C74.9779 114.756 74.4968 114.351 73.9958 114.351H55.8992C55.3993 114.351 55.0705 114.756 55.1659 115.257C55.2612 115.758 55.7435 116.164 56.2433 116.164H74.3411C74.8409 116.164 75.1687 115.758 75.0733 115.257Z" fill="#695C8A"/>
<path fill-rule="evenodd" clip-rule="evenodd" d="M80.6757 116.164C81.1755 116.164 81.5032 115.758 81.4079 115.257C81.3125 114.756 80.8302 114.351 80.3304 114.351H77.6165C77.1166 114.351 76.7878 114.756 76.8832 115.257C76.9785 115.758 77.4608 116.164 77.9606 116.164H80.6757Z" fill="#292245"/>
<path fill-rule="evenodd" clip-rule="evenodd" d="M89.8859 114.351H83.9505C83.4496 114.351 83.1218 114.756 83.2172 115.257C83.3125 115.758 83.7948 116.164 84.2947 116.164H90.2301C90.7299 116.164 91.0576 115.758 90.9623 115.257C90.868 114.756 90.3857 114.351 89.8859 114.351Z" fill="#695C8A"/>
<path fill-rule="evenodd" clip-rule="evenodd" d="M69.7701 120.676C69.6747 120.176 69.1925 119.771 68.6926 119.771H66.883C66.3831 119.771 66.0554 120.176 66.1508 120.676C66.2461 121.177 66.7284 121.583 67.2282 121.583H69.0379C69.5377 121.583 69.8655 121.177 69.7701 120.676Z" fill="#665896"/>
<path fill-rule="evenodd" clip-rule="evenodd" d="M90.9163 119.771H84.9809C84.4811 119.771 84.1533 120.176 84.2476 120.676C84.343 121.177 84.8253 121.583 85.3251 121.583H91.2605C91.7603 121.583 92.0891 121.177 91.9938 120.676C91.8984 120.176 91.4161 119.771 90.9163 119.771Z" fill="#292245"/>
<path fill-rule="evenodd" clip-rule="evenodd" d="M45.5114 121.583H63.6081C64.1079 121.583 64.4357 121.177 64.3414 120.676C64.2461 120.176 63.7638 119.771 63.2639 119.771H45.1662C44.6664 119.771 44.3386 120.176 44.434 120.676C44.5293 121.177 45.0116 121.583 45.5114 121.583Z" fill="#5B7BB0"/>
<path fill-rule="evenodd" clip-rule="evenodd" d="M32.8425 121.583H41.8908C42.3907 121.583 42.7184 121.177 42.6241 120.676C42.5288 120.176 42.0454 119.771 41.5467 119.771H32.4983C31.9974 119.771 31.6697 120.176 31.765 120.676C31.8604 121.177 32.3427 121.583 32.8425 121.583Z" fill="#695C8A"/>
<path fill-rule="evenodd" clip-rule="evenodd" d="M27.4138 121.583H29.2235C29.7233 121.583 30.051 121.177 29.9557 120.676C29.8603 120.176 29.378 119.771 28.8782 119.771H27.0685C26.5687 119.771 26.241 120.176 26.3363 120.676C26.4317 121.177 26.914 121.583 27.4138 121.583Z" fill="#F8EE61"/>
<path fill-rule="evenodd" clip-rule="evenodd" d="M72.6574 121.583H81.7058C82.2056 121.583 82.5344 121.177 82.4391 120.676C82.3437 120.176 81.8614 119.771 81.3616 119.771H72.3122C71.8123 119.771 71.4846 120.176 71.58 120.676C71.6753 121.177 72.1576 121.583 72.6574 121.583Z" fill="#665896"/>
<path fill-rule="evenodd" clip-rule="evenodd" d="M44.7318 127.001C45.2316 127.001 45.5593 126.596 45.464 126.094C45.3686 125.594 44.8863 125.189 44.3865 125.189H33.5274C33.0287 125.189 32.7009 125.594 32.7963 126.094C32.8916 126.596 33.3728 127.001 33.8727 127.001H44.7318Z" fill="#665896"/>
<path fill-rule="evenodd" clip-rule="evenodd" d="M91.9466 125.189H89.6316C89.1318 125.189 88.8029 125.594 88.8983 126.094C88.9937 126.596 89.4759 127.001 89.9758 127.001H92.2918C92.7917 127.001 93.1194 126.596 93.024 126.094C92.9287 125.594 92.4464 125.189 91.9466 125.189Z" fill="#665896"/>
<path fill-rule="evenodd" clip-rule="evenodd" d="M70.0686 127.001H71.8782C72.3781 127.001 72.7058 126.596 72.6104 126.094C72.5151 125.594 72.0328 125.189 71.533 125.189H69.7244C69.2235 125.189 68.8957 125.594 68.9911 126.094C69.0865 126.596 69.5688 127.001 70.0686 127.001Z" fill="#5B7BB0"/>
<path fill-rule="evenodd" clip-rule="evenodd" d="M48.3513 127.001H66.4491C66.9489 127.001 67.2766 126.596 67.1813 126.094C67.0859 125.594 66.6036 125.189 66.1038 125.189H48.0071C47.5062 125.189 47.1785 125.594 47.2738 126.094C47.3692 126.596 47.8515 127.001 48.3513 127.001Z" fill="#695C8A"/>
<path fill-rule="evenodd" clip-rule="evenodd" d="M28.444 127.001H30.2537C30.7535 127.001 31.0813 126.596 30.9859 126.094C30.8916 125.594 30.4082 125.189 29.9095 125.189H28.0988C27.6 125.189 27.2712 125.594 27.3666 126.094C27.4619 126.596 27.9442 127.001 28.444 127.001Z" fill="#E3648D"/>
<path fill-rule="evenodd" clip-rule="evenodd" d="M75.4977 127.001H86.3568C86.8566 127.001 87.1843 126.596 87.089 126.094C86.9936 125.594 86.5113 125.189 86.0115 125.189H75.1535C74.6537 125.189 74.3259 125.594 74.4213 126.094C74.5155 126.596 74.9989 127.001 75.4977 127.001Z" fill="#695C8A"/>
<path fill-rule="evenodd" clip-rule="evenodd" d="M92.9781 130.607H87.0427C86.5429 130.607 86.2141 131.013 86.3094 131.514C86.4048 132.014 86.8871 132.419 87.3869 132.419H93.3223C93.8221 132.419 94.151 132.014 94.0556 131.514C93.9602 131.013 93.4779 130.607 92.9781 130.607Z" fill="#665896"/>
<path fill-rule="evenodd" clip-rule="evenodd" d="M83.4232 130.607H80.7082C80.2083 130.607 79.8806 131.013 79.976 131.514C80.0702 132.014 80.5525 132.419 81.0523 132.419H83.7674C84.2672 132.419 84.595 132.014 84.4996 131.514C84.4053 131.013 83.9219 130.607 83.4232 130.607Z" fill="#5B7BB0"/>
<path fill-rule="evenodd" clip-rule="evenodd" d="M55.3717 130.607H35.4643C34.9645 130.607 34.6367 131.013 34.731 131.514C34.8264 132.014 35.3086 132.419 35.8085 132.419H55.7159C56.2157 132.419 56.5435 132.014 56.4481 131.514C56.3538 131.013 55.8705 130.607 55.3717 130.607Z" fill="#292245"/>
<path fill-rule="evenodd" clip-rule="evenodd" d="M77.0891 130.607H58.9914C58.4915 130.607 58.1638 131.013 58.2592 131.514C58.3534 132.014 58.8357 132.419 59.3355 132.419H77.4333C77.9331 132.419 78.2609 132.014 78.1666 131.514C78.0713 131.013 77.5879 130.607 77.0891 130.607Z" fill="#695C8A"/>
<path fill-rule="evenodd" clip-rule="evenodd" d="M100.161 83.6513H118.259C118.759 83.6513 119.086 83.2463 118.991 82.7457C118.896 82.2452 118.413 81.8401 117.914 81.8401H99.8168C99.317 81.8401 98.9893 82.2452 99.0835 82.7457C99.1789 83.2463 99.6612 83.6513 100.161 83.6513Z" fill="#292245"/>
<path fill-rule="evenodd" clip-rule="evenodd" d="M121.878 83.6513H123.688C124.188 83.6513 124.515 83.2463 124.42 82.7457C124.325 82.2452 123.843 81.8401 123.344 81.8401H121.534C121.034 81.8401 120.706 82.2452 120.802 82.7457C120.896 83.2463 121.378 83.6513 121.878 83.6513Z" fill="#665896"/>
<path fill-rule="evenodd" clip-rule="evenodd" d="M127.308 83.6513H132.613C133.112 83.6513 133.439 83.2463 133.344 82.7457C133.25 82.2452 132.768 81.8401 132.268 81.8401H126.963C126.463 81.8401 126.135 82.2452 126.23 82.7457C126.326 83.2463 126.808 83.6513 127.308 83.6513Z" fill="#695C8A"/>
<path fill-rule="evenodd" clip-rule="evenodd" d="M87.4923 83.6513H96.5417C97.0415 83.6513 97.3693 83.2463 97.2739 82.7457C97.1786 82.2452 96.6963 81.8401 96.1964 81.8401H87.1481C86.6483 81.8401 86.3206 82.2452 86.4159 82.7457C86.5102 83.2463 86.9936 83.6513 87.4923 83.6513Z" fill="#695C8A"/>
<path fill-rule="evenodd" clip-rule="evenodd" d="M109.02 88.164C108.924 87.6634 108.442 87.2584 107.942 87.2584H88.0348C87.535 87.2584 87.2073 87.6634 87.3026 88.164C87.398 88.6645 87.8792 89.0706 88.3801 89.0706H108.286C108.786 89.0706 109.115 88.6645 109.02 88.164Z" fill="#695C8A"/>
<path fill-rule="evenodd" clip-rule="evenodd" d="M133.298 87.2584H111.561C111.062 87.2584 110.734 87.6634 110.828 88.164C110.924 88.6645 111.407 89.0706 111.906 89.0706H133.642C134.142 89.0706 134.471 88.6645 134.376 88.164C134.28 87.6634 133.798 87.2584 133.298 87.2584Z" fill="#695C8A"/>
<path fill-rule="evenodd" clip-rule="evenodd" d="M125.749 94.4888C126.249 94.4888 126.577 94.0826 126.482 93.5832C126.386 93.0827 125.904 92.6765 125.404 92.6765H123.594C123.095 92.6765 122.767 93.0827 122.862 93.5832C122.958 94.0826 123.44 94.4888 123.94 94.4888H125.749Z" fill="#665896"/>
<path fill-rule="evenodd" clip-rule="evenodd" d="M128.291 93.5832C128.386 94.0826 128.869 94.4888 129.369 94.4888H134.221C134.721 94.4888 135.049 94.0826 134.953 93.5832C134.859 93.0827 134.376 92.6765 133.877 92.6765H129.024C128.525 92.6765 128.197 93.0827 128.291 93.5832Z" fill="#5B7BB0"/>
<path fill-rule="evenodd" clip-rule="evenodd" d="M89.5539 94.4888H98.6033C99.1031 94.4888 99.4309 94.0826 99.3355 93.5832C99.2402 93.0827 98.7579 92.6765 98.258 92.6765H89.2097C88.7099 92.6765 88.3811 93.0827 88.4764 93.5832C88.5718 94.0826 89.0541 94.4888 89.5539 94.4888Z" fill="#5B7BB0"/>
<path fill-rule="evenodd" clip-rule="evenodd" d="M102.223 94.4888H120.321C120.82 94.4888 121.148 94.0826 121.053 93.5832C120.957 93.0827 120.475 92.6765 119.975 92.6765H101.878C101.378 92.6765 101.05 93.0827 101.145 93.5832C101.241 94.0826 101.723 94.4888 102.223 94.4888Z" fill="#665896"/>
<path fill-rule="evenodd" clip-rule="evenodd" d="M136.109 99.0014C136.015 98.5008 135.532 98.0958 135.032 98.0958H114.672C114.172 98.0958 113.845 98.5008 113.939 99.0014C114.034 99.5019 114.517 99.9081 115.016 99.9081H135.377C135.876 99.9081 136.204 99.5019 136.109 99.0014Z" fill="#695C8A"/>
<path fill-rule="evenodd" clip-rule="evenodd" d="M90.413 99.0014C90.5072 99.5019 90.9895 99.9081 91.4894 99.9081H111.397C111.897 99.9081 112.224 99.5019 112.129 99.0014C112.035 98.5008 111.552 98.0958 111.053 98.0958H91.1452C90.6454 98.0958 90.3176 98.5008 90.413 99.0014Z" fill="#695C8A"/>
<path fill-rule="evenodd" clip-rule="evenodd" d="M130.353 104.421C130.258 103.92 129.775 103.514 129.277 103.514H127.466C126.966 103.514 126.638 103.92 126.734 104.421C126.829 104.92 127.311 105.326 127.811 105.326H129.621C130.121 105.326 130.448 104.92 130.353 104.421Z" fill="#5B7BB0"/>
<path fill-rule="evenodd" clip-rule="evenodd" d="M123.846 103.514H105.749C105.249 103.514 104.921 103.92 105.016 104.421C105.112 104.92 105.594 105.326 106.094 105.326H124.191C124.69 105.326 125.019 104.92 124.924 104.421C124.829 103.92 124.346 103.514 123.846 103.514Z" fill="#695C8A"/>
<path fill-rule="evenodd" clip-rule="evenodd" d="M137.592 104.421C137.498 103.92 137.015 103.514 136.516 103.514H132.895C132.396 103.514 132.068 103.92 132.163 104.421C132.258 104.92 132.741 105.326 133.24 105.326H136.86C137.36 105.326 137.687 104.92 137.592 104.421Z" fill="#695C8A"/>
<path fill-rule="evenodd" clip-rule="evenodd" d="M91.6154 105.326H102.473C102.973 105.326 103.302 104.92 103.207 104.421C103.111 103.92 102.629 103.514 102.129 103.514H91.2712C90.7714 103.514 90.4426 103.92 90.5379 104.421C90.6333 104.92 91.1156 105.326 91.6154 105.326Z" fill="#665896"/>
<path fill-rule="evenodd" clip-rule="evenodd" d="M92.6472 110.746H101.696C102.195 110.746 102.523 110.339 102.428 109.839C102.333 109.338 101.85 108.933 101.351 108.933H92.3019C91.8021 108.933 91.4744 109.338 91.5697 109.839C91.6651 110.339 92.1474 110.746 92.6472 110.746Z" fill="#292245"/>
<path fill-rule="evenodd" clip-rule="evenodd" d="M136.825 108.933H132.117C131.617 108.933 131.288 109.338 131.384 109.839C131.479 110.339 131.961 110.746 132.461 110.746H137.17C137.67 110.746 137.998 110.339 137.902 109.839C137.807 109.338 137.325 108.933 136.825 108.933Z" fill="#695C8A"/>
<path fill-rule="evenodd" clip-rule="evenodd" d="M127.032 110.746H128.842C129.341 110.746 129.669 110.339 129.575 109.839C129.48 109.338 128.997 108.933 128.497 108.933H126.688C126.188 108.933 125.859 109.338 125.954 109.839C126.05 110.339 126.532 110.746 127.032 110.746Z" fill="#5B7BB0"/>
<path fill-rule="evenodd" clip-rule="evenodd" d="M105.315 110.746H123.412C123.912 110.746 124.24 110.339 124.145 109.839C124.049 109.338 123.567 108.933 123.067 108.933H104.969C104.471 108.933 104.142 109.338 104.237 109.839C104.333 110.339 104.815 110.746 105.315 110.746Z" fill="#695C8A"/>
<path fill-rule="evenodd" clip-rule="evenodd" d="M93.5044 115.257C93.5998 115.758 94.0832 116.164 94.5819 116.164H114.489C114.989 116.164 115.317 115.758 115.223 115.257C115.127 114.756 114.644 114.351 114.145 114.351H94.2377C93.7379 114.351 93.4102 114.756 93.5044 115.257Z" fill="#695C8A"/>
<path fill-rule="evenodd" clip-rule="evenodd" d="M139.654 115.257C139.558 114.756 139.076 114.351 138.576 114.351H117.764C117.264 114.351 116.937 114.756 117.032 115.257C117.127 115.758 117.61 116.164 118.11 116.164H138.921C139.421 116.164 139.749 115.758 139.654 115.257Z" fill="#695C8A"/>
<path fill-rule="evenodd" clip-rule="evenodd" d="M131.635 120.676C131.54 120.176 131.059 119.771 130.558 119.771H128.748C128.249 119.771 127.921 120.176 128.016 120.676C128.111 121.177 128.594 121.583 129.093 121.583H130.903C131.403 121.583 131.731 121.177 131.635 120.676Z" fill="#665896"/>
<path fill-rule="evenodd" clip-rule="evenodd" d="M107.377 121.583H125.474C125.973 121.583 126.302 121.177 126.207 120.676C126.111 120.176 125.629 119.771 125.129 119.771H107.031C106.533 119.771 106.204 120.176 106.299 120.676C106.395 121.177 106.877 121.583 107.377 121.583Z" fill="#5B7BB0"/>
<path fill-rule="evenodd" clip-rule="evenodd" d="M94.7076 121.583H103.757C104.256 121.583 104.585 121.177 104.489 120.676C104.394 120.176 103.912 119.771 103.412 119.771H94.3634C93.8636 119.771 93.5359 120.176 93.6312 120.676C93.7255 121.177 94.2078 121.583 94.7076 121.583Z" fill="#695C8A"/>
<path fill-rule="evenodd" clip-rule="evenodd" d="M134.523 121.583H139.952C140.451 121.583 140.78 121.177 140.685 120.676C140.59 120.176 140.107 119.771 139.607 119.771H134.178C133.679 119.771 133.35 120.176 133.445 120.676C133.541 121.177 134.023 121.583 134.523 121.583Z" fill="#665896"/>
<path fill-rule="evenodd" clip-rule="evenodd" d="M106.597 127.001C107.097 127.001 107.425 126.596 107.33 126.094C107.235 125.594 106.752 125.189 106.253 125.189H95.3937C94.8939 125.189 94.5662 125.594 94.6615 126.094C94.7558 126.596 95.2392 127.001 95.7379 127.001H106.597Z" fill="#665896"/>
<path fill-rule="evenodd" clip-rule="evenodd" d="M131.933 127.001H133.743C134.243 127.001 134.572 126.596 134.476 126.094C134.381 125.594 133.899 125.189 133.399 125.189H131.589C131.089 125.189 130.762 125.594 130.856 126.094C130.951 126.596 131.434 127.001 131.933 127.001Z" fill="#5B7BB0"/>
<path fill-rule="evenodd" clip-rule="evenodd" d="M110.217 127.001H128.314C128.814 127.001 129.142 126.596 129.048 126.094C128.952 125.594 128.47 125.189 127.97 125.189H109.872C109.373 125.189 109.045 125.594 109.139 126.094C109.235 126.596 109.717 127.001 110.217 127.001Z" fill="#695C8A"/>
<path fill-rule="evenodd" clip-rule="evenodd" d="M137.362 127.001H141.311C141.81 127.001 142.138 126.596 142.044 126.094C141.949 125.594 141.466 125.189 140.966 125.189H137.018C136.518 125.189 136.191 125.594 136.286 126.094C136.38 126.596 136.863 127.001 137.362 127.001Z" fill="#695C8A"/>
<path fill-rule="evenodd" clip-rule="evenodd" d="M142.121 130.607H141.525C141.025 130.607 140.697 131.013 140.792 131.514C140.887 132.014 141.37 132.419 141.869 132.419H142.466C142.966 132.419 143.294 132.014 143.198 131.514C143.103 131.013 142.621 130.607 142.121 130.607Z" fill="#5B7BB0"/>
<path fill-rule="evenodd" clip-rule="evenodd" d="M117.237 130.607H97.3298C96.8299 130.607 96.5022 131.013 96.5976 131.514C96.6929 132.014 97.1741 132.419 97.675 132.419H117.582C118.081 132.419 118.409 132.014 118.315 131.514C118.219 131.013 117.737 130.607 117.237 130.607Z" fill="#292245"/>
<path fill-rule="evenodd" clip-rule="evenodd" d="M138.954 130.607H120.857C120.357 130.607 120.029 131.013 120.124 131.514C120.22 132.014 120.702 132.419 121.201 132.419H139.3C139.798 132.419 140.126 132.014 140.032 131.514C139.936 131.013 139.454 130.607 138.954 130.607Z" fill="#695C8A"/>
<path fill-rule="evenodd" clip-rule="evenodd" d="M31.8438 130.607H29.1298C28.63 130.607 28.3023 131.013 28.3965 131.514C28.4919 132.014 28.9753 132.419 29.474 132.419H32.189C32.6889 132.419 33.0166 132.014 32.9212 131.514C32.8259 131.013 32.3436 130.607 31.8438 130.607Z" fill="#5B7BB0"/>
<path fill-rule="evenodd" clip-rule="evenodd" d="M30.3097 136.811H32.1193C32.6192 136.811 32.948 136.405 32.8526 135.904C32.7573 135.404 32.275 134.999 31.7752 134.999H29.9655C29.4657 134.999 29.1379 135.404 29.2333 135.904C29.3276 136.405 29.8098 136.811 30.3097 136.811Z" fill="#5B7BB0"/>
<path fill-rule="evenodd" clip-rule="evenodd" d="M48.4071 136.811H66.5049C67.0047 136.811 67.3324 136.405 67.2371 135.904C67.1428 135.404 66.6605 134.999 66.1607 134.999H48.0629C47.5631 134.999 47.2354 135.404 47.3296 135.904C47.425 136.405 47.9084 136.811 48.4071 136.811Z" fill="#292245"/>
<path fill-rule="evenodd" clip-rule="evenodd" d="M70.1244 136.811H71.9352C72.4339 136.811 72.7616 136.405 72.6674 135.904C72.572 135.404 72.0897 134.999 71.5899 134.999H69.7802C69.2804 134.999 68.9527 135.404 69.0469 135.904C69.1423 136.405 69.6257 136.811 70.1244 136.811Z" fill="#665896"/>
<path fill-rule="evenodd" clip-rule="evenodd" d="M88.2223 136.811H94.1577C94.6586 136.811 94.9852 136.405 94.8899 135.904C94.7956 135.404 94.3133 134.999 93.8135 134.999H87.8781C87.3783 134.999 87.0505 135.404 87.1459 135.904C87.2402 136.405 87.7224 136.811 88.2223 136.811Z" fill="#665896"/>
<path fill-rule="evenodd" clip-rule="evenodd" d="M75.5544 136.811H84.6028C85.1026 136.811 85.4303 136.405 85.335 135.904C85.2396 135.404 84.7573 134.999 84.2575 134.999H75.2091C74.7093 134.999 74.3816 135.404 74.4769 135.904C74.5723 136.405 75.0546 136.811 75.5544 136.811Z" fill="#695C8A"/>
<path fill-rule="evenodd" clip-rule="evenodd" d="M35.7395 136.811H44.7878C45.2876 136.811 45.6154 136.405 45.52 135.904C45.4257 135.404 44.9435 134.999 44.4425 134.999H35.3942C34.8944 134.999 34.5666 135.404 34.662 135.904C34.7574 136.405 35.2397 136.811 35.7395 136.811Z" fill="#695C8A"/>
<path fill-rule="evenodd" clip-rule="evenodd" d="M58.3151 141.324C58.2198 140.823 57.7375 140.417 57.2377 140.417H37.3302C36.8304 140.417 36.5027 140.823 36.598 141.324C36.6934 141.824 37.1757 142.229 37.6755 142.229H57.5819C58.0817 142.229 58.4105 141.824 58.3151 141.324Z" fill="#695C8A"/>
<path fill-rule="evenodd" clip-rule="evenodd" d="M33.7108 140.417H30.9958C30.4959 140.417 30.1682 140.823 30.2636 141.324C30.3589 141.824 30.8412 142.229 31.341 142.229H34.055C34.5548 142.229 34.8826 141.824 34.7883 141.324C34.6929 140.823 34.2106 140.417 33.7108 140.417Z" fill="#E3648D"/>
<path fill-rule="evenodd" clip-rule="evenodd" d="M78.9544 140.417H60.8566C60.3568 140.417 60.029 140.823 60.1244 141.324C60.2198 141.824 60.7021 142.229 61.2019 142.229H79.2997C79.7984 142.229 80.1272 141.824 80.0318 141.324C79.9365 140.823 79.4542 140.417 78.9544 140.417Z" fill="#695C8A"/>
<path fill-rule="evenodd" clip-rule="evenodd" d="M85.6331 142.229C86.1329 142.229 86.4617 141.824 86.3664 141.324C86.271 140.823 85.7887 140.417 85.2889 140.417H82.5739C82.0751 140.417 81.7463 140.823 81.8417 141.324C81.937 141.824 82.4193 142.229 82.9191 142.229H85.6331Z" fill="#665896"/>
<path fill-rule="evenodd" clip-rule="evenodd" d="M94.8438 140.417H88.9084C88.4085 140.417 88.0808 140.823 88.1762 141.324C88.2704 141.824 88.7538 142.229 89.2525 142.229H95.189C95.6878 142.229 96.0166 141.824 95.9212 141.324C95.8259 140.823 95.3436 140.417 94.8438 140.417Z" fill="#695C8A"/>
<path fill-rule="evenodd" clip-rule="evenodd" d="M73.9959 147.649C74.4957 147.649 74.8234 147.243 74.7281 146.742C74.6338 146.241 74.1515 145.835 73.6517 145.835H71.842C71.3422 145.835 71.0134 146.241 71.1087 146.742C71.2041 147.243 71.6864 147.649 72.1862 147.649H73.9959Z" fill="#665896"/>
<path fill-rule="evenodd" clip-rule="evenodd" d="M32.3713 147.649H34.1809C34.6808 147.649 35.0096 147.243 34.9142 146.742C34.8189 146.241 34.3366 145.835 33.8368 145.835H32.0271C31.5273 145.835 31.1984 146.241 31.2938 146.742C31.3892 147.243 31.8714 147.649 32.3713 147.649Z" fill="#F8EE61"/>
<path fill-rule="evenodd" clip-rule="evenodd" d="M76.5376 146.742C76.633 147.243 77.1164 147.649 77.6151 147.649H86.6645C87.1644 147.649 87.4921 147.243 87.3967 146.742C87.3014 146.241 86.8191 145.835 86.3193 145.835H77.2709C76.7711 145.835 76.4434 146.241 76.5376 146.742Z" fill="#5B7BB0"/>
<path fill-rule="evenodd" clip-rule="evenodd" d="M37.8004 147.649H46.8498C47.3496 147.649 47.6774 147.243 47.582 146.742C47.4867 146.241 47.0044 145.835 46.5046 145.835H37.4562C36.9564 145.835 36.6287 146.241 36.724 146.742C36.8194 147.243 37.3006 147.649 37.8004 147.649Z" fill="#5B7BB0"/>
<path fill-rule="evenodd" clip-rule="evenodd" d="M95.874 145.835H89.9386C89.4388 145.835 89.1111 146.241 89.2064 146.742C89.3018 147.243 89.7841 147.649 90.2839 147.649H96.2193C96.7191 147.649 97.0469 147.243 96.9515 146.742C96.8561 146.241 96.3739 145.835 95.874 145.835Z" fill="#5B7BB0"/>
<path fill-rule="evenodd" clip-rule="evenodd" d="M50.4689 147.649H68.5667C69.0665 147.649 69.3943 147.243 69.2989 146.742C69.2035 146.241 68.7212 145.835 68.2214 145.835H50.1248C49.6249 145.835 49.2961 146.241 49.3915 146.742C49.4868 147.243 49.9691 147.649 50.4689 147.649Z" fill="#665896"/>
<path fill-rule="evenodd" clip-rule="evenodd" d="M110.274 136.811H128.37C128.87 136.811 129.199 136.405 129.104 135.904C129.008 135.404 128.526 134.999 128.026 134.999H109.928C109.429 134.999 109.101 135.404 109.196 135.904C109.292 136.405 109.774 136.811 110.274 136.811Z" fill="#292245"/>
<path fill-rule="evenodd" clip-rule="evenodd" d="M131.99 136.811H133.8C134.3 136.811 134.628 136.405 134.532 135.904C134.437 135.404 133.955 134.999 133.455 134.999H131.645C131.145 134.999 130.818 135.404 130.913 135.904C131.008 136.405 131.491 136.811 131.99 136.811Z" fill="#665896"/>
<path fill-rule="evenodd" clip-rule="evenodd" d="M137.42 136.811H143.301C143.801 136.811 144.129 136.405 144.034 135.904C143.939 135.404 143.456 134.999 142.957 134.999H137.074C136.575 134.999 136.247 135.404 136.342 135.904C136.438 136.405 136.92 136.811 137.42 136.811Z" fill="#695C8A"/>
<path fill-rule="evenodd" clip-rule="evenodd" d="M97.6047 136.811H106.653C107.153 136.811 107.482 136.405 107.386 135.904C107.291 135.404 106.809 134.999 106.309 134.999H97.2605C96.7607 134.999 96.4318 135.404 96.5272 135.904C96.6226 136.405 97.1048 136.811 97.6047 136.811Z" fill="#695C8A"/>
<path fill-rule="evenodd" clip-rule="evenodd" d="M119.131 141.324C119.036 140.823 118.553 140.417 118.054 140.417H98.1461C97.6474 140.417 97.3186 140.823 97.4139 141.324C97.5093 141.824 97.9916 142.229 98.4914 142.229H118.399C118.899 142.229 119.226 141.824 119.131 141.324Z" fill="#695C8A"/>
<path fill-rule="evenodd" clip-rule="evenodd" d="M143.863 140.417H121.674C121.173 140.417 120.845 140.823 120.941 141.324C121.036 141.824 121.518 142.229 122.018 142.229H144.208C144.708 142.229 145.035 141.824 144.94 141.324C144.845 140.823 144.362 140.417 143.863 140.417Z" fill="#695C8A"/>
<path fill-rule="evenodd" clip-rule="evenodd" d="M135.861 147.649C136.361 147.649 136.69 147.243 136.594 146.742C136.499 146.241 136.017 145.835 135.517 145.835H133.707C133.207 145.835 132.88 146.241 132.975 146.742C133.069 147.243 133.552 147.649 134.051 147.649H135.861Z" fill="#665896"/>
<path fill-rule="evenodd" clip-rule="evenodd" d="M138.404 146.742C138.5 147.243 138.982 147.649 139.482 147.649H145.363C145.862 147.649 146.191 147.243 146.096 146.742C146 146.241 145.518 145.835 145.018 145.835H139.136C138.637 145.835 138.309 146.241 138.404 146.742Z" fill="#5B7BB0"/>
<path fill-rule="evenodd" clip-rule="evenodd" d="M99.6667 147.649H108.715C109.215 147.649 109.543 147.243 109.447 146.742C109.353 146.241 108.87 145.835 108.371 145.835H99.3214C98.8216 145.835 98.4939 146.241 98.5893 146.742C98.6846 147.243 99.1669 147.649 99.6667 147.649Z" fill="#5B7BB0"/>
<path fill-rule="evenodd" clip-rule="evenodd" d="M112.335 147.649H130.432C130.932 147.649 131.259 147.243 131.165 146.742C131.07 146.241 130.586 145.835 130.088 145.835H111.99C111.49 145.835 111.162 146.241 111.258 146.742C111.353 147.243 111.834 147.649 112.335 147.649Z" fill="#665896"/>
<path fill-rule="evenodd" clip-rule="evenodd" d="M394.481 218.341H27.3509C26.1474 218.341 25.1719 217.364 25.1719 216.16C25.1719 214.954 26.1474 213.977 27.3509 213.977H394.481C395.684 213.977 396.659 214.954 396.659 216.16C396.659 217.364 395.684 218.341 394.481 218.341Z" fill="#525C99"/>
<path fill-rule="evenodd" clip-rule="evenodd" d="M419.653 214.974H2.17796C0.974436 214.974 0 213.997 0 212.792V205.988C0 204.784 0.974436 203.807 2.17796 203.807H419.653C420.856 203.807 421.832 204.784 421.832 205.988V212.792C421.832 213.997 420.856 214.974 419.653 214.974Z" fill="#1C2142"/>
<path fill-rule="evenodd" clip-rule="evenodd" d="M246.377 184.146C246.377 184.146 237.54 181.225 232.265 179.508C226.989 177.791 218.548 180.96 212.481 185.452C212.481 185.452 208.261 189.017 209.711 190.206C211.162 191.395 218.152 185.715 224.219 185.055C224.219 185.055 210.107 194.037 211.558 197.206C212.04 198.262 213.798 198.025 215.924 197.244C215.604 197.825 215.506 198.328 215.803 198.659C216.553 199.492 220.624 198.018 224.319 196.432C223.601 196.957 223.131 197.496 223.165 197.998C223.296 199.98 234.639 194.829 234.639 194.829C234.639 194.829 241.893 199.583 246.904 196.546C246.904 196.546 248.883 188.254 246.377 184.146Z" fill="#FAE0C5"/>
<path fill-rule="evenodd" clip-rule="evenodd" d="M241.585 198.13H80.9046C79.5827 198.13 78.5107 199.205 78.5107 200.53V201.409C78.5107 202.733 79.5827 203.807 80.9046 203.807H241.585C242.909 203.807 243.981 202.733 243.981 201.409V200.53C243.981 199.205 242.909 198.13 241.585 198.13Z" fill="#A09DC2"/>
<path fill-rule="evenodd" clip-rule="evenodd" d="M194.409 115.882L210.843 193.795C211.349 196.187 209.818 198.13 207.44 198.13H80.9276C78.5381 198.13 76.1869 196.187 75.6827 193.795L59.2488 115.882C58.7446 113.489 60.277 111.557 62.6665 111.557H189.179C191.557 111.557 193.905 113.489 194.409 115.882Z" fill="#6C72A7"/>
<path fill-rule="evenodd" clip-rule="evenodd" d="M190.432 115.882L206.864 193.795C207.37 196.187 205.849 198.13 203.461 198.13H80.9276C78.5381 198.13 76.1869 196.187 75.6827 193.795L59.2488 115.882C58.7446 113.489 60.277 111.557 62.6665 111.557H185.2C187.589 111.557 189.926 113.489 190.432 115.882Z" fill="#9193BC"/>
<path fill-rule="evenodd" clip-rule="evenodd" d="M129.1 150.088C126.464 150.088 124.319 152.236 124.319 154.877C124.319 157.517 126.464 159.665 129.1 159.665C131.738 159.665 133.883 157.517 133.883 154.877C133.883 152.236 131.738 150.088 129.1 150.088ZM129.1 162.958C124.65 162.958 121.031 159.334 121.031 154.877C121.031 150.42 124.65 146.795 129.1 146.795C133.55 146.795 137.171 150.42 137.171 154.877C137.171 159.334 133.55 162.958 129.1 162.958Z" fill="#FFFFFE"/>
<defs>
<linearGradient id="paint0_linear" x1="265.826" y1="46.5001" x2="159.389" y2="165.276" gradientUnits="userSpaceOnUse">
<stop stop-color="#FF0037"/>
<stop offset="1" stop-color="#E13879"/>
</linearGradient>
<linearGradient id="paint1_linear" x1="164.639" y1="403.769" x2="164.639" y2="421.725" gradientUnits="userSpaceOnUse">
<stop stop-color="#F6114B"/>
<stop offset="1" stop-color="#E72B6A"/>
</linearGradient>
<linearGradient id="paint2_linear" x1="240.409" y1="147.8" x2="108.45" y2="206.509" gradientUnits="userSpaceOnUse">
<stop stop-color="#68D9EF"/>
<stop offset="1" stop-color="#4BBAFB"/>
</linearGradient>
<linearGradient id="paint3_linear" x1="326.222" y1="120.281" x2="170.09" y2="338.387" gradientUnits="userSpaceOnUse">
<stop stop-color="#68D9EF"/>
<stop offset="1" stop-color="#4BBAFB"/>
</linearGradient>
<linearGradient id="paint4_linear" x1="78.3848" y1="331.398" x2="78.3848" y2="365.441" gradientUnits="userSpaceOnUse">
<stop stop-color="#F6114B"/>
<stop offset="1" stop-color="#E72B6A"/>
</linearGradient>
</defs>
</svg>
