<svg width="496" height="338" viewBox="0 0 496 338" fill="none" xmlns="http://www.w3.org/2000/svg">
<path opacity="0.29255" fill-rule="evenodd" clip-rule="evenodd" d="M299.048 301.353C295.944 301.353 292.84 300.549 290.057 298.943L132.621 208.034C130.136 206.599 130.136 203.013 132.621 201.579L146.09 193.803L299.193 282.408L432.672 202.793L448.033 211.663C450.517 213.096 450.516 216.683 448.033 218.117L308.04 298.943C305.258 300.549 302.153 301.353 299.048 301.353Z" fill="#8595AC"/>
<path fill-rule="evenodd" clip-rule="evenodd" d="M286.099 60.2999C286.109 50.1695 278.976 46.0416 270.198 51.0994L120.997 137.076C118.583 138.465 116.624 141.852 116.622 144.636C116.619 147.422 118.574 148.553 120.988 147.163L270.188 61.1881C274.148 58.9066 277.364 60.7666 277.36 65.3363L277.345 82.0253C280.241 81.8445 283.146 81.8422 286.081 81.8931L286.099 60.2999Z" fill="#D4EAF2"/>
<path fill-rule="evenodd" clip-rule="evenodd" d="M120.933 177.17L270.134 122.795C278.911 117.736 286.06 105.379 286.069 95.2474L286.081 81.8931C283.146 81.8422 280.241 81.8445 277.345 82.0253L277.33 100.284C277.325 104.854 274.102 110.426 270.143 112.707L120.942 167.083C118.528 168.474 116.57 171.86 116.567 174.646C116.565 177.43 118.519 178.561 120.933 177.17Z" fill="#2FA6E7"/>
<path fill-rule="evenodd" clip-rule="evenodd" d="M117.697 177.371L299.193 282.408L452.858 190.754L465.05 172.556L463.785 179.003L460.508 162.124L175.267 173.005L125.011 169.766L117.697 177.371Z" fill="url(#paint0_linear)"/>
<path fill-rule="evenodd" clip-rule="evenodd" d="M123.715 145.674L123.667 168.018L299.082 269.518L303.822 248.222L123.715 145.674Z" fill="#2FA6E7"/>
<path fill-rule="evenodd" clip-rule="evenodd" d="M462.789 154.94L281.58 50.087L118.202 145.11L117.865 147.444L299.34 252.451L462.789 154.94Z" fill="#D4EAF2"/>
<path fill-rule="evenodd" clip-rule="evenodd" d="M405.019 208.785L447.625 183.508C451.214 180.985 454.029 175.885 454.033 171.624L454.064 168.276C454.066 165.57 452.934 163.824 451.19 163.315L367.319 209.98L299.02 246.926L299.082 269.518L405.019 208.785Z" fill="#FFFFFE"/>
<path fill-rule="evenodd" clip-rule="evenodd" d="M305.145 248.988L121.269 142.593L117.782 140.575C117.069 141.884 116.623 143.324 116.622 144.637C116.621 146.006 117.095 146.97 117.864 147.436L117.865 147.444L117.893 147.46L117.907 147.468L299.34 252.451L305.145 248.988Z" fill="url(#paint1_linear)"/>
<path fill-rule="evenodd" clip-rule="evenodd" d="M296.93 281.099L299.193 282.408L299.611 281.686L298.201 280.578L296.93 281.099Z" fill="#FFFFFE"/>
<path fill-rule="evenodd" clip-rule="evenodd" d="M296.99 251.087L299.308 252.429L298.727 251.163L296.99 251.087Z" fill="#FFFFFE"/>
<path fill-rule="evenodd" clip-rule="evenodd" d="M302.471 242.082L451.672 156.106C460.449 151.048 467.583 155.175 467.574 165.306L467.543 168.654C467.534 178.786 460.385 191.143 451.607 196.202L302.406 282.177C299.993 283.566 298.038 282.435 298.041 279.651C298.044 276.866 300.002 273.48 302.415 272.089L451.616 186.113C455.575 183.833 458.799 178.259 458.803 173.69L458.834 170.343C458.838 165.773 455.622 163.912 451.663 166.193L302.462 252.168C300.048 253.559 298.094 252.428 298.096 249.643C298.099 246.857 300.057 243.472 302.471 242.082Z" fill="#D4EAF2"/>
<path fill-rule="evenodd" clip-rule="evenodd" d="M236.021 158.726L313.552 114.049L380.794 152.956L303.263 197.634L236.021 158.726Z" fill="#FFFFFE"/>
<path fill-rule="evenodd" clip-rule="evenodd" d="M298.042 279.651C298.044 276.865 300.002 273.48 302.415 272.089L451.616 186.113C455.575 183.833 458.799 178.259 458.803 173.69L458.834 170.343C458.837 167.352 457.453 165.53 455.391 165.263C456.055 166.137 456.445 167.382 456.444 168.96L456.413 172.307C456.408 176.876 453.185 182.448 449.226 184.731L300.024 270.706C297.611 272.096 295.652 275.482 295.651 278.268C295.649 280.379 296.773 281.534 298.367 281.365C298.159 280.897 298.04 280.324 298.042 279.651Z" fill="#FFFFFE"/>
<path fill-rule="evenodd" clip-rule="evenodd" d="M298.096 249.643C298.099 246.857 300.057 243.472 302.471 242.082L451.672 156.106C455.452 153.927 458.923 153.462 461.654 154.437C458.737 151.949 454.278 151.842 449.281 154.723L300.08 240.698C297.668 242.087 295.707 245.474 295.705 248.26C295.703 250.369 296.828 251.524 298.422 251.358C298.213 250.889 298.096 250.317 298.096 249.643Z" fill="#FFFFFE"/>
<path opacity="0.29255" fill-rule="evenodd" clip-rule="evenodd" d="M46.6026 198.675C45.0163 198.675 43.5034 198.355 42.3713 197.702L1.68576 174.208C-0.811188 172.768 -0.498222 170.248 2.38513 168.583L41.6708 145.899C43.2481 144.988 45.2671 144.521 47.1822 144.521C48.7673 144.521 50.2813 144.842 51.4134 145.495L92.099 168.988C94.5959 170.43 94.2818 172.949 91.3996 174.613L52.1139 197.299C50.5367 198.209 48.5165 198.675 46.6026 198.675Z" fill="#8595AC"/>
<path fill-rule="evenodd" clip-rule="evenodd" d="M93.7712 157.629V143.589L62.2927 143.572L51.4135 137.289C48.9165 135.847 44.5542 136.028 41.6709 137.694L31.5192 143.555L0.0125111 143.538V157.977C-0.0586688 158.952 0.485914 159.895 1.6858 160.586L42.3714 184.08C44.8694 185.523 49.2306 185.342 52.114 183.677L91.3997 160.992C93.0628 160.031 93.865 158.788 93.7712 157.629Z" fill="url(#paint2_linear)"/>
<path fill-rule="evenodd" clip-rule="evenodd" d="M46.893 136.323C45.0649 136.368 43.169 136.828 41.6709 137.694L31.5192 143.555L0.0125111 143.538V157.977C-0.0586688 158.952 0.485914 159.895 1.6858 160.586L42.3714 184.08C43.5713 184.774 45.2027 185.088 46.893 185.046V136.323Z" fill="url(#paint3_linear)"/>
<path fill-rule="evenodd" clip-rule="evenodd" d="M3.57829 143.538H0.0125111V157.977C-0.0586688 158.952 0.485914 159.895 1.6858 160.586L3.57829 161.68V143.538Z" fill="#41AAE0"/>
<path fill-rule="evenodd" clip-rule="evenodd" d="M42.9985 184.388C45.152 185.31 48.2681 185.259 50.7865 184.298V167.903H42.9985V184.388Z" fill="#41AAE0"/>
<path fill-rule="evenodd" clip-rule="evenodd" d="M42.3713 169.693L1.68576 146.2C-0.811188 144.758 -0.498222 142.24 2.38513 140.574L41.6708 117.889C44.5542 116.225 48.9165 116.043 51.4134 117.486L92.099 140.98C94.5959 142.42 94.2818 144.94 91.3996 146.604L52.1139 169.289C49.2306 170.954 44.8694 171.135 42.3713 169.693Z" fill="#D4EAF2"/>
<path fill-rule="evenodd" clip-rule="evenodd" d="M91.3994 143.841L52.1137 166.526C49.2304 168.191 44.8692 168.372 42.3711 166.93L1.68557 143.437C1.12856 143.114 0.719561 142.738 0.43936 142.331C-0.418189 143.712 -0.0295234 145.209 1.68557 146.199L42.3711 169.693C44.8692 171.135 49.2304 170.954 52.1137 169.289L91.3994 146.604C93.6399 145.311 94.3201 143.503 93.3439 142.084C92.953 142.714 92.3022 143.32 91.3994 143.841Z" fill="#FFFFFE"/>
<path fill-rule="evenodd" clip-rule="evenodd" d="M78.8066 161.335C78.8066 162.383 78.071 163.658 77.1638 164.181C76.2554 164.705 75.521 164.28 75.521 163.233C75.521 162.184 76.2554 160.911 77.1638 160.386C78.071 159.862 78.8066 160.287 78.8066 161.335Z" fill="#D4EAF2"/>
<path fill-rule="evenodd" clip-rule="evenodd" d="M84.0938 158.281C84.0938 159.33 83.3583 160.604 82.4499 161.129C81.5427 161.653 80.8071 161.228 80.8071 160.18C80.8071 159.131 81.5427 157.856 82.4499 157.333C83.3583 156.809 84.0938 157.234 84.0938 158.281Z" fill="#D4EAF2"/>
<path fill-rule="evenodd" clip-rule="evenodd" d="M89.3816 155.229C89.3816 156.276 88.6449 157.551 87.7377 158.075C86.8304 158.6 86.0938 158.175 86.0938 157.126C86.0938 156.079 86.8304 154.804 87.7377 154.28C88.6449 153.755 89.3816 154.18 89.3816 155.229Z" fill="#D4EAF2"/>
<path fill-rule="evenodd" clip-rule="evenodd" d="M44.7777 155.127L25.7376 144.133C24.5694 143.459 24.7163 142.28 26.0664 141.502L44.4501 130.885C45.798 130.107 47.8396 130.023 49.0078 130.697L68.0468 141.692C69.215 142.365 69.0693 143.544 67.7203 144.323L49.3366 154.939C47.9865 155.718 45.946 155.802 44.7777 155.127Z" fill="url(#paint4_linear)"/>
<path fill-rule="evenodd" clip-rule="evenodd" d="M46.6003 145.922L43.9655 144.401C43.8039 144.307 43.8243 144.146 44.0107 144.037L46.5551 142.568C46.7415 142.46 47.024 142.45 47.1855 142.542L49.8192 144.063C49.9808 144.156 49.9604 144.32 49.774 144.428L47.2307 145.896C47.0443 146.004 46.7619 146.016 46.6003 145.922Z" fill="#D4EAF2"/>
<path fill-rule="evenodd" clip-rule="evenodd" d="M25.7376 144.133L25.7919 144.165C25.8811 144.102 25.9636 144.036 26.0664 143.976L44.4501 133.362C45.798 132.583 47.8396 132.498 49.0078 133.172L67.9925 144.136C69.0704 143.364 69.1269 142.314 68.0468 141.692L49.0078 130.697C47.8396 130.023 45.798 130.107 44.4501 130.885L26.0664 141.502C24.7163 142.28 24.5694 143.459 25.7376 144.133Z" fill="#208CCA"/>
<path opacity="0.29255" fill-rule="evenodd" clip-rule="evenodd" d="M406.724 336.332C405.138 336.332 403.624 336.012 402.493 335.358L361.806 311.865C359.31 310.423 359.624 307.906 362.506 306.24L401.792 283.555C403.369 282.644 405.389 282.178 407.303 282.178C408.889 282.178 410.403 282.498 411.534 283.151L452.22 306.644C454.717 308.088 454.404 310.605 451.519 312.271L412.235 334.954C410.657 335.865 408.638 336.332 406.724 336.332Z" fill="#8595AC"/>
<path fill-rule="evenodd" clip-rule="evenodd" d="M453.893 295.287V281.247L422.415 281.228L411.534 274.946C409.037 273.504 404.676 273.685 401.792 275.349L391.64 281.21L360.135 281.193V295.634C360.063 296.609 360.608 297.55 361.807 298.244L402.493 321.738C404.99 323.179 409.352 322.998 412.235 321.333L451.521 298.649C453.184 297.688 453.986 296.444 453.893 295.287Z" fill="url(#paint5_linear)"/>
<path fill-rule="evenodd" clip-rule="evenodd" d="M407.014 273.979C405.187 274.024 403.29 274.485 401.792 275.349L391.64 281.21L360.135 281.193V295.634C360.063 296.609 360.608 297.55 361.807 298.244L402.493 321.738C403.692 322.429 405.325 322.744 407.014 322.703V273.979Z" fill="url(#paint6_linear)"/>
<path fill-rule="evenodd" clip-rule="evenodd" d="M363.7 281.196L360.135 281.193V295.634C360.063 296.609 360.608 297.55 361.807 298.244L363.7 299.337V281.196Z" fill="#7CD2FF"/>
<path fill-rule="evenodd" clip-rule="evenodd" d="M403.12 322.044C405.274 322.967 408.389 322.916 410.907 321.955V305.56H403.12V322.044Z" fill="#7CD2FF"/>
<path fill-rule="evenodd" clip-rule="evenodd" d="M402.493 307.35L361.806 283.856C359.31 282.415 359.624 279.895 362.506 278.232L401.792 255.547C404.676 253.881 409.037 253.701 411.534 255.142L452.22 278.635C454.717 280.078 454.404 282.596 451.52 284.261L412.235 306.946C409.351 308.611 404.99 308.791 402.493 307.35Z" fill="#D4EAF2"/>
<path fill-rule="evenodd" clip-rule="evenodd" d="M451.52 281.497L412.235 304.183C409.351 305.848 404.99 306.029 402.493 304.587L361.807 281.093C361.251 280.772 360.842 280.396 360.561 279.987C359.703 281.369 360.093 282.866 361.807 283.856L402.493 307.35C404.99 308.791 409.351 308.611 412.235 306.946L451.52 284.261C453.761 282.968 454.441 281.161 453.466 279.741C453.075 280.371 452.423 280.977 451.52 281.497Z" fill="#FFFFFE"/>
<path fill-rule="evenodd" clip-rule="evenodd" d="M438.928 298.992C438.928 300.04 438.193 301.313 437.284 301.837C436.377 302.362 435.642 301.937 435.642 300.889C435.642 299.842 436.377 298.567 437.284 298.043C438.193 297.519 438.928 297.943 438.928 298.992Z" fill="#D4EAF2"/>
<path fill-rule="evenodd" clip-rule="evenodd" d="M444.216 295.939C444.216 296.986 443.479 298.261 442.572 298.785C441.665 299.31 440.929 298.885 440.929 297.836C440.929 296.789 441.665 295.514 442.572 294.99C443.479 294.465 444.216 294.89 444.216 295.939Z" fill="#D4EAF2"/>
<path fill-rule="evenodd" clip-rule="evenodd" d="M449.501 292.886C449.501 293.933 448.767 295.208 447.859 295.732C446.952 296.256 446.216 295.832 446.216 294.783C446.216 293.734 446.952 292.461 447.859 291.938C448.767 291.413 449.501 291.838 449.501 292.886Z" fill="#D4EAF2"/>
<path fill-rule="evenodd" clip-rule="evenodd" d="M404.899 292.785L385.86 281.79C384.692 281.116 384.837 279.938 386.186 279.158L404.571 268.543C405.92 267.763 407.962 267.679 409.13 268.354L428.169 279.347C429.337 280.023 429.19 281.201 427.841 281.98L409.458 292.595C408.109 293.374 406.067 293.459 404.899 292.785Z" fill="url(#paint7_linear)"/>
<path fill-rule="evenodd" clip-rule="evenodd" d="M406.721 283.579L404.088 282.058C403.926 281.964 403.946 281.801 404.133 281.694L406.676 280.225C406.862 280.118 407.145 280.106 407.308 280.199L409.941 281.72C410.102 281.814 410.083 281.977 409.896 282.085L407.353 283.553C407.166 283.66 406.884 283.673 406.721 283.579Z" fill="#D4EAF2"/>
<path opacity="0.29255" fill-rule="evenodd" clip-rule="evenodd" d="M230.112 332.596C228.057 332.596 226.002 332.143 224.433 331.238L77.9196 246.602C74.782 244.792 74.782 241.855 77.9196 240.044C79.4878 239.138 81.5441 238.685 83.5993 238.685C85.6545 238.685 87.7097 239.138 89.2779 240.043L235.792 324.678C238.929 326.489 238.929 329.425 235.792 331.238C234.224 332.143 232.168 332.596 230.112 332.596Z" fill="#8595AC"/>
<path fill-rule="evenodd" clip-rule="evenodd" d="M63.2566 206.772C63.382 206.557 63.6328 206.447 63.8757 206.5L71.8547 208.23L68.7126 213.577L63.3198 207.446C63.156 207.259 63.13 206.987 63.2566 206.772Z" fill="#5589BB"/>
<path fill-rule="evenodd" clip-rule="evenodd" d="M66.4019 210.716C66.411 209.565 67.2301 208.172 68.2312 207.604C68.6944 207.341 69.1102 207.31 69.4288 207.455C78.6483 207.382 87.7153 209.808 95.6648 214.482L96.2399 214.821L86.3301 231.681L83.4049 229.741C77.2111 225.632 71.9901 220.221 68.1103 213.88L66.8573 211.835C66.5737 211.628 66.3974 211.249 66.4019 210.716Z" fill="url(#paint8_linear)"/>
<path fill-rule="evenodd" clip-rule="evenodd" d="M84.3401 227.188C84.374 222.778 87.5116 217.441 91.3474 215.266C95.1832 213.091 98.2643 214.902 98.2304 219.312C98.1954 223.722 95.0589 229.06 91.2231 231.235C87.3873 233.41 84.3051 231.599 84.3401 227.188Z" fill="#D4EAF2"/>
<path fill-rule="evenodd" clip-rule="evenodd" d="M145.146 268.328L86.3301 231.68L96.2399 214.821L156.856 248.404L145.146 268.328Z" fill="#D4EAF2"/>
<path fill-rule="evenodd" clip-rule="evenodd" d="M142.794 263.021C142.834 257.809 146.541 251.502 151.074 248.932C155.606 246.362 159.248 248.501 159.207 253.712C159.166 258.923 155.459 265.231 150.928 267.801C146.395 270.371 142.753 268.23 142.794 263.021Z" fill="#D4EAF2"/>
<path fill-rule="evenodd" clip-rule="evenodd" d="M146.149 264.993C146.19 259.782 149.897 253.474 154.429 250.904C158.962 248.334 162.603 250.474 162.562 255.686C162.522 260.895 158.815 267.203 154.282 269.772C149.75 272.343 146.109 270.203 146.149 264.993Z" fill="#D4EAF2"/>
<path fill-rule="evenodd" clip-rule="evenodd" d="M226.313 316.045L148.5 270.3L160.211 250.376L238.023 296.121L226.313 316.045Z" fill="#D4EAF2"/>
<path fill-rule="evenodd" clip-rule="evenodd" d="M223.96 310.736C224.001 305.526 227.709 299.218 232.241 296.648C236.773 294.078 240.415 296.219 240.375 301.428C240.334 306.639 236.626 312.946 232.094 315.517C227.562 318.087 223.92 315.948 223.96 310.736Z" fill="#D4EAF2"/>
<path fill-rule="evenodd" clip-rule="evenodd" d="M226.898 309.071C227.077 305.995 229.582 302.164 232.492 300.513C235.402 298.864 237.615 300.019 237.437 303.095C237.257 306.17 234.752 310.002 231.843 311.651C228.933 313.302 226.719 312.146 226.898 309.071Z" fill="#3B6397"/>
<path fill-rule="evenodd" clip-rule="evenodd" d="M142.203 262.672C142.243 257.462 145.95 251.155 150.483 248.584C152.308 247.548 153.984 247.29 155.338 247.677C153.866 246.137 151.454 245.957 148.706 247.514C144.174 250.085 140.467 256.392 140.427 261.602C140.402 264.715 141.697 266.719 143.704 267.291C142.748 266.291 142.187 264.726 142.203 262.672Z" fill="#FFFFFE"/>
<path fill-rule="evenodd" clip-rule="evenodd" d="M142.203 262.672C142.244 257.462 145.951 251.155 150.484 248.583C152.75 247.299 154.793 247.192 156.265 248.057L160.674 250.65L158.572 254.223C158.189 258.962 155.018 264.358 151.064 266.997L148.963 270.573L144.555 267.98C143.083 267.116 142.183 265.279 142.203 262.672Z" fill="url(#paint9_linear)"/>
<path fill-rule="evenodd" clip-rule="evenodd" d="M146.612 265.264C146.652 260.053 150.359 253.747 154.892 251.175C159.424 248.605 163.066 250.746 163.025 255.957C162.984 261.168 159.277 267.475 154.745 270.046C150.212 272.616 146.571 270.474 146.612 265.264Z" fill="#D4EAF2"/>
<path fill-rule="evenodd" clip-rule="evenodd" d="M229.547 309.093C229.563 306.846 231.163 304.125 233.119 303.015C235.075 301.906 236.645 302.83 236.627 305.078C236.611 307.326 235.012 310.047 233.056 311.155C231.1 312.265 229.53 311.342 229.547 309.093Z" fill="#DA3685"/>
<path fill-rule="evenodd" clip-rule="evenodd" d="M229.547 309.093C229.563 306.846 231.163 304.125 233.119 303.015C234.096 302.46 234.978 302.414 235.614 302.788L252.106 312.483C254.48 313.879 255.272 316.934 253.878 319.307C252.482 321.681 249.427 322.475 247.055 321.08L230.561 311.385C229.926 311.011 229.538 310.218 229.547 309.093Z" fill="url(#paint10_linear)"/>
<path fill-rule="evenodd" clip-rule="evenodd" d="M211.216 278.749L213.689 277.347C215.108 276.542 216.987 276.742 218.979 277.913L227.454 282.895C229.054 283.836 230.344 286.11 230.329 287.967L230.297 292.21C230.291 292.921 230.639 293.738 231.15 294.341L230.831 296.306L232.945 295.096L232.94 295.092C233.245 294.938 233.44 294.582 233.444 294.061L233.477 289.818C233.508 285.948 230.819 281.205 227.483 279.243L219.007 274.261C216.176 272.595 213.503 272.31 211.481 273.455L209.01 274.859C207.589 275.663 205.71 275.463 203.718 274.291L169.556 254.208C169.115 253.948 168.716 253.928 168.426 254.098V254.095L166.319 255.304L168.124 255.998C168.375 256.757 168.904 257.494 169.528 257.86L203.691 277.945C206.524 279.609 209.196 279.895 211.216 278.749Z" fill="url(#paint11_linear)"/>
<path fill-rule="evenodd" clip-rule="evenodd" d="M211.548 278.572C212.969 277.767 214.847 277.967 216.839 279.138L225.314 284.121C226.914 285.061 228.203 287.335 228.189 289.193L228.156 293.435C228.148 294.443 228.847 295.674 229.715 296.186C230.585 296.698 231.296 296.294 231.303 295.286L231.337 291.044C231.367 287.173 228.677 282.43 225.342 280.468L216.866 275.486C214.035 273.821 211.363 273.535 209.341 274.681L206.869 276.084C205.449 276.889 203.569 276.689 201.578 275.517L167.415 255.434C166.546 254.923 165.836 255.325 165.827 256.335C165.819 257.342 166.518 258.575 167.387 259.086L201.55 279.17C204.383 280.834 207.055 281.12 209.076 279.975L211.548 278.572Z" fill="#5589BB"/>
<path fill-rule="evenodd" clip-rule="evenodd" d="M228.295 289.892L228.262 294.134L228.275 294.221C228.196 293.954 228.153 293.687 228.156 293.435L228.189 289.192C228.191 289.072 228.17 288.945 228.16 288.822C228.241 289.185 228.298 289.546 228.295 289.892Z" fill="#FFFFFE"/>
<path fill-rule="evenodd" clip-rule="evenodd" d="M415.56 127.612L323.338 74.2498L415.56 127.612Z" fill="#8595AC"/>
<path fill-rule="evenodd" clip-rule="evenodd" d="M376.235 150.319L313.552 114.05L296.841 123.679L266.525 106.173L322.576 73.8091L415.56 127.612L376.235 150.319Z" fill="#DBE0E6"/>
<path fill-rule="evenodd" clip-rule="evenodd" d="M359.606 159.922L296.841 123.679L313.552 114.049L376.235 150.319L359.606 159.922Z" fill="#DBE0E6"/>
<path fill-rule="evenodd" clip-rule="evenodd" d="M443.335 75.2419L431.077 68.1624L476.275 42.064C478.41 40.8311 478.41 38.8254 476.275 37.5937L430.102 10.9313C427.967 9.69851 424.494 9.69851 422.358 10.9313L377.16 37.0298L364.901 29.9515L410.1 3.85189C418.992 -1.28396 433.466 -1.28396 442.36 3.85189L488.533 30.5142C497.427 35.6512 497.427 44.0064 488.534 49.1423L443.335 75.2419Z" fill="url(#paint12_linear)"/>
<path fill-rule="evenodd" clip-rule="evenodd" d="M463.116 78.3584C463.116 71.8033 459.132 64.1893 454.216 61.3508L372.325 14.0648C370.124 12.7936 368.113 12.7032 366.56 13.5721L366.555 13.5687L268.779 70.3953L363.333 141.654L459.661 85.7362C459.958 85.6006 460.246 85.4435 460.513 85.2435L460.514 85.2424C462.121 84.0242 463.116 81.6332 463.116 78.3584Z" fill="#D4EAF2"/>
<path fill-rule="evenodd" clip-rule="evenodd" d="M363.333 141.654L459.661 85.7362C459.958 85.6006 460.246 85.4435 460.513 85.2435L460.514 85.2424C462.121 84.0243 463.116 81.6332 463.116 78.3584C463.116 75.2283 462.202 71.8643 460.717 68.8868L350.912 132.292L363.333 141.654Z" fill="url(#paint13_linear)"/>
<path fill-rule="evenodd" clip-rule="evenodd" d="M357.176 141.402L275.284 94.1151C270.369 91.2766 266.384 83.6626 266.384 77.1075C266.384 70.5546 270.369 67.5421 275.284 70.3784L357.176 117.665C362.089 120.504 366.075 128.118 366.075 134.673C366.075 141.227 362.089 144.24 357.176 141.402Z" fill="url(#paint14_linear)"/>
<path fill-rule="evenodd" clip-rule="evenodd" d="M358.161 117.218L276.269 69.9309C274.009 68.6269 271.953 68.5704 270.382 69.515C271.788 69.0879 273.472 69.3331 275.284 70.3784L357.176 117.665C362.089 120.504 366.075 128.118 366.075 134.672V134.673C366.075 138.215 364.905 140.708 363.061 141.818C365.469 141.085 367.061 138.363 367.061 134.224V134.223C367.061 127.67 363.074 120.055 358.161 117.218Z" fill="#FFFFFE"/>
<path fill-rule="evenodd" clip-rule="evenodd" d="M344.909 125.455L335.063 119.774C334.084 119.208 333.29 117.69 333.29 116.384C333.29 115.078 334.084 114.478 335.063 115.043L344.909 120.723C345.888 121.288 346.683 122.807 346.683 124.113C346.683 125.42 345.888 126.021 344.909 125.455Z" fill="#FFFFFE"/>
<path fill-rule="evenodd" clip-rule="evenodd" d="M356.013 58.2218C358.983 56.4647 358.954 53.6668 355.948 51.9729C352.942 50.279 348.096 50.3299 345.128 52.087C342.157 53.8431 342.187 56.6398 345.192 58.3348C348.199 60.0287 353.042 59.9778 356.013 58.2218Z" fill="#2FA6E7"/>
<path fill-rule="evenodd" clip-rule="evenodd" d="M372.503 67.5138C375.473 65.7567 375.444 62.9599 372.436 61.2661C369.431 59.5722 364.586 59.6231 361.616 61.3791C358.647 63.1362 358.676 65.9341 361.683 67.628C364.688 69.3218 369.533 69.271 372.503 67.5138Z" fill="#FFFFFE"/>
<path fill-rule="evenodd" clip-rule="evenodd" d="M388.993 76.8069C391.962 75.0509 391.933 72.2542 388.926 70.5592C385.921 68.8642 381.076 68.915 378.106 70.6722C375.135 72.4293 375.165 75.2261 378.172 76.9199C381.178 78.6138 386.022 78.5629 388.993 76.8069Z" fill="#FFFFFE"/>
<path fill-rule="evenodd" clip-rule="evenodd" d="M173.608 212.143C173.608 212.143 169.372 210.007 166.77 213.188C164.168 216.37 160.45 223.88 160.334 228.956C160.219 234.032 164.35 233.688 166.805 232.487C169.261 231.286 176.435 220.88 176.868 218.84C177.302 216.8 176.357 214.043 175.666 213.503C174.976 212.964 173.608 212.143 173.608 212.143Z" fill="#4BBAFB"/>
<path fill-rule="evenodd" clip-rule="evenodd" d="M174.533 211.122L174.729 215.512C174.77 216.446 174.301 217.335 173.488 217.795C172.749 218.215 171.673 218.537 170.22 218.304C167.03 217.79 166.744 216.878 166.517 212.491C166.289 208.102 174.533 211.122 174.533 211.122Z" fill="#D4EAF2"/>
<path fill-rule="evenodd" clip-rule="evenodd" d="M158.101 203.704C158.101 203.704 153.865 201.566 151.263 204.747C148.661 207.93 144.942 215.44 144.828 220.516C144.712 225.591 148.843 225.248 151.298 224.047C153.754 222.846 160.927 212.439 161.362 210.399C161.796 208.36 160.849 205.603 160.159 205.064C159.469 204.524 158.101 203.704 158.101 203.704Z" fill="#4BBAFB"/>
<path fill-rule="evenodd" clip-rule="evenodd" d="M159.025 202.681L159.222 207.071C159.264 208.004 158.795 208.894 157.981 209.356C157.242 209.775 156.167 210.097 154.714 209.863C151.523 209.35 151.237 208.438 151.009 204.049C150.782 199.661 159.025 202.681 159.025 202.681Z" fill="#D4EAF2"/>
<path fill-rule="evenodd" clip-rule="evenodd" d="M196.827 122.091C195.573 101.686 174.733 125.092 174.733 125.092L160.469 139.074L147.625 153.187C145.117 155.943 143.949 159.664 144.435 163.359L149.63 202.929C149.887 204.883 151.559 206.324 153.529 206.308C154.086 206.304 154.724 206.253 155.455 206.14C160.089 205.417 159.747 201.01 159.747 201.01L158.798 164.001L185.772 147.738C185.772 147.738 198.08 142.495 196.827 122.091Z" fill="#263764"/>
<path fill-rule="evenodd" clip-rule="evenodd" d="M212.334 129.865C211.08 109.461 190.24 132.866 190.24 132.866L175.977 146.849L163.132 160.96C160.624 163.718 159.457 167.439 159.943 171.133L165.138 210.703C165.394 212.657 167.066 214.099 169.038 214.083C169.594 214.078 170.232 214.027 170.962 213.914C175.597 213.191 175.254 208.784 175.254 208.784L174.332 172.84L201.279 155.513C201.279 155.513 213.589 150.269 212.334 129.865Z" fill="#263764"/>
<path fill-rule="evenodd" clip-rule="evenodd" d="M200.005 64.3668C215.805 70.9185 215.488 80.2579 215.488 80.2579C215.488 80.2579 212.393 114.504 213.451 137.374C213.891 146.935 162.66 147.665 170.301 122.158C179.309 92.0823 175.932 67.7353 180.15 64.0628C184.366 60.3914 195.918 62.6718 200.005 64.3668Z" fill="#4BBAFB"/>
<path fill-rule="evenodd" clip-rule="evenodd" d="M205.089 72.6485C204.263 75.8577 200.059 77.5482 195.701 76.425C191.342 75.3029 188.479 71.7909 189.305 68.5828C190.132 65.3747 194.335 63.6842 198.693 64.8075C203.052 65.9296 205.916 69.4405 205.089 72.6485Z" fill="#F3BCA9"/>
<path fill-rule="evenodd" clip-rule="evenodd" d="M198.762 76.4939L195.854 79.6512C195.477 80.0614 195.297 80.6151 195.362 81.1688L197.359 98.4532C197.416 98.938 197.281 99.425 196.985 99.8126L190.73 107.996C190.453 108.359 189.882 108.259 189.744 107.824L186.339 97.1063C186.209 96.6995 186.222 96.2622 186.374 95.8644L192.364 80.1653C192.496 79.8229 192.525 79.4489 192.45 79.0884L191.572 74.9266L198.762 76.4939Z" fill="#FFFFFE"/>
<path fill-rule="evenodd" clip-rule="evenodd" d="M195.994 65.2132C194.913 65.2132 193.88 65.3996 192.957 65.7714C191.412 66.3929 190.376 67.4573 190.037 68.7715C189.698 70.0857 190.092 71.5186 191.143 72.809C192.252 74.1661 193.936 75.1899 195.89 75.6928C197.84 76.1979 199.812 76.1154 201.437 75.46C202.983 74.8396 204.019 73.7729 204.358 72.4598C204.697 71.1468 204.302 69.7128 203.249 68.4235C202.143 67.0664 200.458 66.0414 198.504 65.5386C197.661 65.3216 196.814 65.2132 195.994 65.2132ZM198.398 77.5279C197.45 77.5279 196.477 77.4047 195.512 77.1561C193.25 76.5742 191.282 75.3685 189.973 73.7627C188.61 72.0915 188.113 70.184 188.574 68.3941C189.035 66.6042 190.391 65.1747 192.393 64.3702C194.315 63.5973 196.617 63.4944 198.881 64.0752C201.143 64.6583 203.11 65.8629 204.42 67.4675C205.784 69.141 206.282 71.0473 205.821 72.8373C205.359 74.6272 204.003 76.0578 202.001 76.8623C200.899 77.3053 199.671 77.5279 198.398 77.5279Z" fill="#FFFFFE"/>
<path fill-rule="evenodd" clip-rule="evenodd" d="M193.67 63.6537C193.67 63.6537 193.807 64.2877 193.534 69.2947C193.448 70.8688 198.958 72.3401 200.383 70.9151C201.808 69.4902 201.238 68.0088 201.58 62.6503C201.922 57.293 193.67 63.6537 193.67 63.6537Z" fill="#F3BCA9"/>
<path fill-rule="evenodd" clip-rule="evenodd" d="M201.581 62.6503C201.581 62.6503 200.224 67.6178 193.533 69.523L193.634 65.0086L201.581 62.6503Z" fill="#E09689"/>
<path fill-rule="evenodd" clip-rule="evenodd" d="M205.819 50.0305C207.5 56.5336 203.591 63.169 197.088 64.8515C190.585 66.5318 183.951 62.6232 182.269 56.1189C180.588 49.6146 184.497 42.9793 191 41.2978C197.502 39.6164 204.136 43.5262 205.819 50.0305Z" fill="#F3BCA9"/>
<path fill-rule="evenodd" clip-rule="evenodd" d="M196.837 53.5199C196.837 53.5199 190.141 56.3889 185.504 56.4228C180.868 56.4556 181.89 52.5729 181.89 52.5729L195.653 50.583L196.837 53.5199Z" fill="#E09689"/>
<path fill-rule="evenodd" clip-rule="evenodd" d="M184.122 54.2759C184.122 54.2759 189.956 51.8001 195.073 52.8329C196.275 53.0758 197.391 53.7188 198.164 54.6703C198.418 54.981 198.738 55.2646 199.101 55.3483C200.008 55.5528 201.494 51.7876 203.257 51.7018C205.021 51.617 206.198 52.8645 204.751 55.181C203.306 57.4964 203.795 60.0875 204.461 60.4593C205.125 60.831 213.361 55.0816 207.137 42.7476C200.912 30.4126 183.918 37.3993 181.458 39.9C181.458 39.9 178.867 42.1578 176.759 40.1475C176.759 40.1475 174.398 57.8444 184.122 54.2759Z" fill="#76D6FC"/>
<path fill-rule="evenodd" clip-rule="evenodd" d="M206.625 105.278V114.532C206.625 115.592 206.179 116.603 205.396 117.317L186.389 134.647L188.549 137.951L214.733 120.779C215.905 119.929 216.66 118.623 216.812 117.182L218.603 100.01L206.625 105.278Z" fill="#F3BCA9"/>
<path fill-rule="evenodd" clip-rule="evenodd" d="M214.151 75.6317C214.151 75.6317 219.917 84.3056 222.066 107.134C222.066 107.134 212.216 110.319 206.625 108.51C201.035 106.702 214.151 75.6317 214.151 75.6317Z" fill="#4BBAFB"/>
<path fill-rule="evenodd" clip-rule="evenodd" d="M205.572 86.5984C205.572 86.5984 203.315 98.6803 203.187 104.36C203.151 105.92 204.104 107.33 205.572 107.86V86.5984Z" fill="#BC187A"/>
<path fill-rule="evenodd" clip-rule="evenodd" d="M200.642 146.681L196.441 146.126L169.322 130.467C168.454 129.966 166.935 130.028 165.931 130.607L146.717 141.7L144.177 141.364V143.893L144.179 143.894C144.162 144.226 144.352 144.547 144.762 144.783L175.494 162.529C176.363 163.031 177.882 162.968 178.885 162.389L199.811 150.31C200.376 149.984 200.657 149.563 200.642 149.169V146.681Z" fill="#5589BB"/>
<path fill-rule="evenodd" clip-rule="evenodd" d="M180.266 136.786L178.34 135.674H157.159L146.717 141.699L144.177 141.364V143.893L144.179 143.894C144.162 144.226 144.352 144.547 144.762 144.783L175.494 162.529C175.954 162.795 176.594 162.901 177.244 162.858L180.266 136.786Z" fill="#3B6397"/>
<path fill-rule="evenodd" clip-rule="evenodd" d="M145.303 141.513L144.176 141.364V143.893L144.179 143.894C144.162 144.226 144.352 144.547 144.762 144.783L145.303 145.096V141.513Z" fill="#5589BB"/>
<path fill-rule="evenodd" clip-rule="evenodd" d="M175.803 162.673C176.627 162.985 177.805 162.917 178.685 162.494V158.191H175.803V162.673Z" fill="#5589BB"/>
<path fill-rule="evenodd" clip-rule="evenodd" d="M175.494 160.002L144.762 142.257C143.893 141.754 144.002 140.878 145.006 140.297L165.931 128.219C166.935 127.639 168.454 127.577 169.322 128.078L200.055 145.823C200.924 146.325 200.816 147.203 199.811 147.781L178.885 159.861C177.882 160.44 176.362 160.504 175.494 160.002Z" fill="#FFFFFE"/>
<path fill-rule="evenodd" clip-rule="evenodd" d="M174.974 157.313L149.42 142.556C148.698 142.139 148.788 141.41 149.622 140.929L160.836 134.622C161.671 134.14 162.934 134.087 163.656 134.505L189.211 149.26C189.933 149.677 189.842 150.407 189.007 150.888L177.794 157.195C176.959 157.677 175.697 157.73 174.974 157.313Z" fill="#D4EAF2"/>
<path fill-rule="evenodd" clip-rule="evenodd" d="M167.119 127.636L166.802 129.757C166.531 131.563 166.578 133.404 166.941 135.195L167.319 137.063C167.532 138.117 168.365 138.936 169.424 139.128C170.25 139.278 171.031 138.697 171.125 137.863L171.631 133.328C171.631 133.328 172.791 134.849 173.35 134.849C173.911 134.849 172.724 130.308 171.458 127.739C170.191 125.17 167.119 127.636 167.119 127.636Z" fill="#F3BCA9"/>
<path fill-rule="evenodd" clip-rule="evenodd" d="M177.536 93.9298L174.239 100.457C173.46 102.001 173 103.686 172.89 105.412L171.458 127.739L167.119 127.635L165.151 102.563C165.09 101.788 165.127 101.01 165.263 100.245L167.511 87.5306L177.536 93.9298Z" fill="#F3BCA9"/>
<path fill-rule="evenodd" clip-rule="evenodd" d="M174.452 161.706L171.876 158.342L144.778 142.65C143.909 142.147 143.206 140.8 143.207 139.641L143.231 117.452L141.673 115.418L143.137 114.57L143.138 114.571C143.418 114.392 143.791 114.395 144.201 114.633L174.91 132.416C175.779 132.918 176.482 134.266 176.481 135.426L176.455 159.591C176.454 160.243 176.231 160.696 175.881 160.879L174.452 161.706Z" fill="#263764"/>
<path fill-rule="evenodd" clip-rule="evenodd" d="M155.713 148.983L153.788 147.868L143.22 129.509L143.231 117.452L141.673 115.418L143.137 114.57L143.138 114.571C143.418 114.392 143.791 114.395 144.201 114.633L174.91 132.416C175.37 132.681 175.782 133.184 176.069 133.769L155.713 148.983Z" fill="#3B6397"/>
<path fill-rule="evenodd" clip-rule="evenodd" d="M142.364 116.321L141.673 115.418L143.137 114.57L143.138 114.571C143.418 114.392 143.791 114.395 144.201 114.633L144.743 114.947L142.364 116.321Z" fill="#5589BB"/>
<path fill-rule="evenodd" clip-rule="evenodd" d="M175.19 132.613C175.872 133.171 176.401 134.226 176.473 135.2L173.472 136.932L172.034 134.435L175.19 132.613Z" fill="#2B4876"/>
<path fill-rule="evenodd" clip-rule="evenodd" d="M173.449 133.263L142.739 115.479C141.87 114.977 141.165 115.509 141.164 116.668L141.138 140.833C141.135 141.992 141.839 143.34 142.707 143.843L173.417 161.625C174.287 162.129 174.992 161.596 174.993 160.438L175.019 136.273C175.02 135.113 174.318 133.766 173.449 133.263Z" fill="#5589BB"/>
<path fill-rule="evenodd" clip-rule="evenodd" d="M188.549 137.951L188.057 138.97C187.489 140.146 186.599 141.133 185.49 141.816L182.439 143.697C181.49 144.283 180.289 144.33 179.325 143.77L179.221 143.706C178.252 143.099 178.165 141.706 178.962 140.887L182.15 137.609C182.15 137.609 180.359 138.981 179.856 138.428C179.489 138.024 181.593 136.047 183.21 135.983C184.826 135.917 186.389 134.647 186.389 134.647L188.549 137.951Z" fill="#F3BCA9"/>
<path fill-rule="evenodd" clip-rule="evenodd" d="M180.465 64.0154C180.465 64.0154 168.779 76.7324 164.065 88.3997C164.065 88.3997 168.062 95.6 177.843 98.425C187.625 101.251 180.465 64.0154 180.465 64.0154Z" fill="#4BBAFB"/>
<path fill-rule="evenodd" clip-rule="evenodd" d="M175.643 97.6713L177.537 79.3709L173.074 96.5153C173.869 96.93 174.73 97.3164 175.643 97.6713Z" fill="#BC187A"/>
<path fill-rule="evenodd" clip-rule="evenodd" d="M189.218 61.4502L186.078 60.5869C186.078 60.5869 187.577 62.9452 189.766 63.5464C191.954 64.1487 192.295 62.2955 192.295 62.2955L189.218 61.4502Z" fill="#FFFFFE"/>
<path fill-rule="evenodd" clip-rule="evenodd" d="M205.99 56.4229C205.99 57.3879 205.208 58.1721 204.241 58.1721C203.276 58.1721 202.492 57.3879 202.492 56.4229C202.492 55.4556 203.276 54.6736 204.241 54.6736C205.208 54.6736 205.99 55.4556 205.99 56.4229Z" fill="#FFFFFE"/>
<path fill-rule="evenodd" clip-rule="evenodd" d="M303.822 220.63C295.552 220.63 287.281 218.808 280.971 215.164C268.351 207.877 268.351 196.063 280.97 188.775C282.159 188.089 283.416 187.468 284.73 186.911L303.263 197.634L322.306 186.66C323.841 187.279 325.302 187.984 326.672 188.775C339.291 196.063 339.292 207.878 326.673 215.164C320.363 218.808 312.093 220.63 303.822 220.63Z" fill="#DBE0E6"/>
<path fill-rule="evenodd" clip-rule="evenodd" d="M303.263 197.634L284.73 186.911C290.395 184.509 297.107 183.311 303.821 183.311C310.296 183.311 316.771 184.427 322.306 186.66L303.263 197.634Z" fill="#8596AC"/>
<path fill-rule="evenodd" clip-rule="evenodd" d="M340.586 186.01V175.688H338.637C336.888 172.674 333.973 169.836 329.818 167.436C315.461 159.146 292.182 159.146 277.825 167.436C273.668 169.836 270.754 172.674 269.005 175.688H267.06V185.956H267.062C267.037 191.407 270.622 196.863 277.826 201.023C292.183 209.313 315.462 209.313 329.819 201.023C336.998 196.879 340.587 191.444 340.586 186.01Z" fill="url(#paint15_linear)"/>
<path fill-rule="evenodd" clip-rule="evenodd" d="M329.819 190.699C315.462 198.989 292.183 198.989 277.826 190.699C263.468 182.408 263.468 168.965 277.825 160.676C292.182 152.386 315.461 152.386 329.818 160.677C344.176 168.966 344.177 182.408 329.819 190.699Z" fill="url(#paint16_linear)"/>
<path fill-rule="evenodd" clip-rule="evenodd" d="M329.819 190.699C315.462 198.989 292.182 198.989 277.826 190.699C270.944 186.724 267.399 181.568 267.113 176.361C266.803 182.018 270.348 187.732 277.826 192.049C292.182 200.34 315.462 200.34 329.819 192.049C337.295 187.732 340.841 182.019 340.531 176.362C340.245 181.568 336.699 186.724 329.819 190.699Z" fill="#FFFFFE"/>
<path fill-rule="evenodd" clip-rule="evenodd" d="M286.101 182.715C285.483 182.358 285.131 181.872 285.132 181.36L285.17 167.529C285.172 166.475 286.656 165.62 288.483 165.622C290.312 165.622 291.788 166.479 291.787 167.537L291.755 179.005L325.037 174.929C326.826 174.709 328.581 175.37 328.961 176.402C329.342 177.435 328.198 178.448 326.411 178.667L289.129 183.233C288.15 183.354 287.131 183.212 286.356 182.848L286.101 182.715Z" fill="#FFFFFE"/>
<path opacity="0.29255" fill-rule="evenodd" clip-rule="evenodd" d="M91.2857 337.889L71.8174 326.647L91.2857 315.405L110.754 326.648L91.2857 337.889Z" fill="#8595AC"/>
<path fill-rule="evenodd" clip-rule="evenodd" d="M110.754 312.376L91.2856 323.617V301.133L110.754 289.893V312.376Z" fill="#1290DA"/>
<path fill-rule="evenodd" clip-rule="evenodd" d="M91.2855 301.133L71.8184 289.893L91.2855 278.652L110.754 289.893L91.2855 301.133Z" fill="#4BBAFB"/>
<path fill-rule="evenodd" clip-rule="evenodd" d="M91.2855 323.617L71.8184 312.376V289.893L91.2855 301.133V323.617Z" fill="#4BBAFB"/>
<path fill-rule="evenodd" clip-rule="evenodd" d="M84.2749 311.471L78.8291 308.327V302.039L84.2749 305.182V311.471Z" fill="#FFFFFE"/>
<defs>
<linearGradient id="paint0_linear" x1="117.697" y1="162.124" x2="117.697" y2="282.408" gradientUnits="userSpaceOnUse">
<stop stop-color="#75D5FD"/>
<stop offset="1" stop-color="#5BC5FB"/>
</linearGradient>
<linearGradient id="paint1_linear" x1="116.622" y1="140.575" x2="116.622" y2="252.451" gradientUnits="userSpaceOnUse">
<stop stop-color="#75D5FD"/>
<stop offset="1" stop-color="#5BC5FB"/>
</linearGradient>
<linearGradient id="paint2_linear" x1="0.00634766" y1="136.316" x2="0.00634766" y2="185.054" gradientUnits="userSpaceOnUse">
<stop stop-color="#43C0E7"/>
<stop offset="1" stop-color="#208CCA"/>
</linearGradient>
<linearGradient id="paint3_linear" x1="0.00634766" y1="136.323" x2="0.00634766" y2="185.05" gradientUnits="userSpaceOnUse">
<stop stop-color="#77D7FD"/>
<stop offset="1" stop-color="#56C1FB"/>
</linearGradient>
<linearGradient id="paint4_linear" x1="24.9492" y1="130.242" x2="24.9492" y2="155.583" gradientUnits="userSpaceOnUse">
<stop stop-color="#77D7FD"/>
<stop offset="1" stop-color="#56C1FB"/>
</linearGradient>
<linearGradient id="paint5_linear" x1="360.128" y1="273.972" x2="360.128" y2="322.71" gradientUnits="userSpaceOnUse">
<stop stop-color="#7DDBFD"/>
<stop offset="1" stop-color="#51BEFB"/>
</linearGradient>
<linearGradient id="paint6_linear" x1="360.128" y1="273.979" x2="360.128" y2="322.706" gradientUnits="userSpaceOnUse">
<stop stop-color="#7DDBFD"/>
<stop offset="1" stop-color="#51BEFB"/>
</linearGradient>
<linearGradient id="paint7_linear" x1="385.071" y1="267.898" x2="385.071" y2="293.239" gradientUnits="userSpaceOnUse">
<stop stop-color="#7DDBFD"/>
<stop offset="1" stop-color="#51BEFB"/>
</linearGradient>
<linearGradient id="paint8_linear" x1="66.4019" y1="207.369" x2="66.4019" y2="231.681" gradientUnits="userSpaceOnUse">
<stop stop-color="#82DEFD"/>
<stop offset="1" stop-color="#4BBAFB"/>
</linearGradient>
<linearGradient id="paint9_linear" x1="142.203" y1="247.497" x2="142.203" y2="270.573" gradientUnits="userSpaceOnUse">
<stop stop-color="#82DEFD"/>
<stop offset="1" stop-color="#4BBAFB"/>
</linearGradient>
<linearGradient id="paint10_linear" x1="229.546" y1="302.545" x2="229.546" y2="321.768" gradientUnits="userSpaceOnUse">
<stop stop-color="#82DEFD"/>
<stop offset="1" stop-color="#4BBAFB"/>
</linearGradient>
<linearGradient id="paint11_linear" x1="166.319" y1="259.193" x2="173.113" y2="303.019" gradientUnits="userSpaceOnUse">
<stop stop-color="#2069CB"/>
<stop offset="1" stop-color="#263764"/>
</linearGradient>
<linearGradient id="paint12_linear" x1="364.901" y1="0" x2="364.901" y2="75.2419" gradientUnits="userSpaceOnUse">
<stop stop-color="#82DEFD"/>
<stop offset="1" stop-color="#4BBAFB"/>
</linearGradient>
<linearGradient id="paint13_linear" x1="350.912" y1="77.8373" x2="362.918" y2="153.093" gradientUnits="userSpaceOnUse">
<stop stop-color="#2069CB"/>
<stop offset="1" stop-color="#263764"/>
</linearGradient>
<linearGradient id="paint14_linear" x1="266.384" y1="69.3113" x2="266.384" y2="142.47" gradientUnits="userSpaceOnUse">
<stop stop-color="#82DEFD"/>
<stop offset="1" stop-color="#4BBAFB"/>
</linearGradient>
<linearGradient id="paint15_linear" x1="267.06" y1="166.879" x2="274.401" y2="214.556" gradientUnits="userSpaceOnUse">
<stop stop-color="#2069CB"/>
<stop offset="1" stop-color="#263764"/>
</linearGradient>
<linearGradient id="paint16_linear" x1="267.057" y1="154.458" x2="267.057" y2="196.917" gradientUnits="userSpaceOnUse">
<stop stop-color="#82DEFD"/>
<stop offset="1" stop-color="#4BBAFB"/>
</linearGradient>
</defs>
</svg>
