<svg width="511" height="460" viewBox="0 0 511 460" fill="none" xmlns="http://www.w3.org/2000/svg">
<path fill-rule="evenodd" clip-rule="evenodd" d="M506.272 149.436C506.272 148.312 506.118 147.276 505.809 146.329C505.5 145.381 505.049 144.565 504.454 143.882C503.859 143.199 503.125 142.67 502.255 142.295C501.384 141.92 500.398 141.733 499.296 141.733H495.329V157.206H499.296C500.42 157.206 501.417 157.007 502.288 156.611C503.159 156.214 503.886 155.668 504.47 154.974C505.054 154.28 505.5 153.459 505.809 152.511C506.118 151.563 506.272 150.539 506.272 149.436ZM490.766 161.207V137.733H499.296C501.213 137.733 502.894 138.042 504.338 138.659C505.782 139.276 506.988 140.113 507.958 141.171C508.928 142.229 509.655 143.469 510.14 144.89C510.625 146.312 510.868 147.828 510.868 149.436C510.868 151.221 510.597 152.836 510.057 154.28C509.517 155.723 508.741 156.958 507.727 157.983C506.712 159.007 505.495 159.801 504.074 160.363C502.652 160.925 501.059 161.207 499.296 161.207H490.766Z" fill="white"/>
<mask id="mask0" mask-type="alpha" maskUnits="userSpaceOnUse" x="373" y="97" width="71" height="116">
<path fill-rule="evenodd" clip-rule="evenodd" d="M411.51 197.377C399.124 207.602 386.742 214.792 379.518 211.618C379.091 211.43 378.687 211.209 378.305 210.955C374.097 208.149 372.103 200.957 373.668 187.5C377.834 151.685 399.514 144.261 419.339 131.959C438.919 119.823 429.307 98.213 429.057 97.665C461.385 145.37 432.504 180.036 411.51 197.377Z" fill="white"/>
</mask>
<g mask="url(#mask0)">
<path fill-rule="evenodd" clip-rule="evenodd" d="M411.51 197.377C399.124 207.602 386.742 214.792 379.518 211.618C379.091 211.43 378.687 211.209 378.305 210.955C374.097 208.149 372.103 200.957 373.668 187.5C377.834 151.685 399.514 144.261 419.339 131.959C438.919 119.823 429.307 98.213 429.057 97.665C461.385 145.37 432.504 180.036 411.51 197.377Z" fill="url(#paint0_linear)"/>
</g>
<mask id="mask1" mask-type="alpha" maskUnits="userSpaceOnUse" x="378" y="147" width="49" height="65">
<path fill-rule="evenodd" clip-rule="evenodd" d="M379.518 211.618C379.091 211.43 378.687 211.209 378.305 210.955C380.349 203.891 385.018 190.165 392.281 182.344C395.71 178.655 399.761 175.243 404.044 171.625C412.151 164.797 420.529 157.726 425.778 147.886L426.959 148.512C421.584 158.58 413.106 165.728 404.902 172.644C400.646 176.231 396.628 179.617 393.26 183.25C386.174 190.877 381.507 204.733 379.518 211.618Z" fill="white"/>
</mask>
<g mask="url(#mask1)">
<path fill-rule="evenodd" clip-rule="evenodd" d="M379.518 211.618C379.091 211.43 378.687 211.209 378.305 210.955C380.349 203.891 385.018 190.165 392.281 182.344C395.71 178.655 399.761 175.243 404.044 171.625C412.151 164.797 420.529 157.726 425.778 147.886L426.959 148.512C421.584 158.58 413.106 165.728 404.902 172.644C400.646 176.231 396.628 179.617 393.26 183.25C386.174 190.877 381.507 204.733 379.518 211.618Z" fill="url(#paint1_linear)"/>
</g>
<path fill-rule="evenodd" clip-rule="evenodd" d="M145.192 147.321C132.191 164.23 145.011 215.928 146.98 223.487C147.144 224.091 147.23 224.416 147.23 224.416C147.23 224.416 146.236 223.841 144.523 222.765C133.276 215.639 91.2201 186.414 100.574 152.942C111.357 114.393 89.1581 121.971 73.4481 85.7C57.7291 49.429 93.4291 27.174 93.4291 27.174C134.932 58.687 159.232 129.063 145.192 147.321Z" fill="#609A3E"/>
<path fill-rule="evenodd" clip-rule="evenodd" d="M148.163 189.64C143.482 208.051 153.409 219.195 156.631 222.23C157.221 222.791 157.592 223.073 157.592 223.073C156.787 223.107 155.812 223.045 154.691 222.887C140.736 220.933 104.732 204.516 100.502 180.991C95.9369 155.59 75.1529 169.667 57.9749 148.511C34.6349 119.77 64.5869 96.423 64.5869 96.423C58.1809 108.561 77.7009 138.325 102.34 144.259C126.986 150.199 153.705 167.817 148.163 189.64Z" fill="#609A3E"/>
<path fill-rule="evenodd" clip-rule="evenodd" d="M242.258 367.696H275.752V265.963H242.258V367.696Z" fill="#AEBECC"/>
<path fill-rule="evenodd" clip-rule="evenodd" d="M129.104 314.969H388.905C397.03 314.969 403.616 308.382 403.616 300.258V125.648C403.616 117.524 397.03 110.938 388.905 110.938H129.104C120.98 110.938 114.394 117.524 114.394 125.648V300.258C114.394 308.382 120.98 314.969 129.104 314.969Z" fill="#DEDEDE"/>
<mask id="mask2" mask-type="alpha" maskUnits="userSpaceOnUse" x="125" y="89" width="268" height="194">
<path fill-rule="evenodd" clip-rule="evenodd" d="M392.289 282.996H357.614C357.892 280.938 358.037 278.835 358.037 276.701C358.037 258.05 347.055 241.966 331.204 234.561L338.331 226.434L358.63 227.58L374.811 205.26L373.717 204.467L357.969 226.189L337.749 225.048L329.914 233.983C324.281 231.558 318.073 230.215 311.551 230.215C307.737 230.215 304.029 230.675 300.482 231.541H297.133V232.495C278.517 238.562 265.065 256.06 265.065 276.701C265.065 278.835 265.21 280.938 265.488 282.996H125.721V89.222H392.289V282.996Z" fill="white"/>
</mask>
<g mask="url(#mask2)">
<path fill-rule="evenodd" clip-rule="evenodd" d="M392.289 282.996H357.614C357.892 280.938 358.037 278.835 358.037 276.701C358.037 258.05 347.055 241.966 331.204 234.561L338.331 226.434L358.63 227.58L374.811 205.26L373.717 204.467L357.969 226.189L337.749 225.048L329.914 233.983C324.281 231.558 318.073 230.215 311.551 230.215C307.737 230.215 304.029 230.675 300.482 231.541H297.133V232.495C278.517 238.562 265.065 256.06 265.065 276.701C265.065 278.835 265.21 280.938 265.488 282.996H125.721V89.222H392.289V282.996Z" fill="url(#paint2_linear)"/>
</g>
<path fill-rule="evenodd" clip-rule="evenodd" d="M125.721 112.626H392.289V89.222H125.721V112.626Z" fill="url(#paint3_linear)"/>
<path fill-rule="evenodd" clip-rule="evenodd" d="M249.676 297.625C249.676 302.778 253.853 306.956 259.005 306.956C264.157 306.956 268.334 302.778 268.334 297.625C268.334 292.473 264.157 288.296 259.005 288.296C253.853 288.296 249.676 292.473 249.676 297.625Z" fill="#949494"/>
<path fill-rule="evenodd" clip-rule="evenodd" d="M183.663 371.536H334.347V363.856H183.663V371.536Z" fill="#E3E3E3"/>
<path fill-rule="evenodd" clip-rule="evenodd" d="M171.696 105.346H140.034C138.278 105.346 136.855 103.922 136.855 102.167V99.681C136.855 97.925 138.278 96.502 140.034 96.502H171.696C173.452 96.502 174.875 97.925 174.875 99.681V102.167C174.875 103.922 173.452 105.346 171.696 105.346Z" fill="#F5F7FF"/>
<mask id="mask3" mask-type="alpha" maskUnits="userSpaceOnUse" x="61" y="197" width="42" height="41">
<path fill-rule="evenodd" clip-rule="evenodd" d="M81.7241 235.345C60.9961 224.761 64.0091 204.454 64.0091 204.454C77.6241 204.454 81.7241 200.016 81.7241 200.016C81.7241 200.016 85.8241 204.454 99.4391 204.454C99.4391 204.454 102.453 224.761 81.7241 235.345ZM101.974 202.561C86.4111 202.561 81.7241 197.488 81.7241 197.488C81.7241 197.488 77.0381 202.561 61.4741 202.561C61.4741 202.561 58.0291 225.775 81.7241 237.873C105.419 225.775 101.974 202.561 101.974 202.561Z" fill="white"/>
</mask>
<g mask="url(#mask3)">
<path fill-rule="evenodd" clip-rule="evenodd" d="M81.7241 235.345C60.9961 224.761 64.0091 204.454 64.0091 204.454C77.6241 204.454 81.7241 200.016 81.7241 200.016C81.7241 200.016 85.8241 204.454 99.4391 204.454C99.4391 204.454 102.453 224.761 81.7241 235.345ZM101.974 202.561C86.4111 202.561 81.7241 197.488 81.7241 197.488C81.7241 197.488 77.0381 202.561 61.4741 202.561C61.4741 202.561 58.0291 225.775 81.7241 237.873C105.419 225.775 101.974 202.561 101.974 202.561Z" fill="url(#paint4_linear)"/>
</g>
<mask id="mask4" mask-type="alpha" maskUnits="userSpaceOnUse" x="66" y="204" width="15" height="28">
<path fill-rule="evenodd" clip-rule="evenodd" d="M80.519 204.307V231.053C64.826 223.041 67.108 207.667 67.108 207.667C77.415 207.667 80.519 204.307 80.519 204.307Z" fill="white"/>
</mask>
<g mask="url(#mask4)">
<path fill-rule="evenodd" clip-rule="evenodd" d="M80.519 204.307V231.053C64.826 223.041 67.108 207.667 67.108 207.667C77.415 207.667 80.519 204.307 80.519 204.307Z" fill="url(#paint5_linear)"/>
</g>
<path fill-rule="evenodd" clip-rule="evenodd" d="M443.196 207.575H463.618V204.565C463.618 198.934 459.037 194.354 453.407 194.354C447.776 194.354 443.196 198.934 443.196 204.565V207.575ZM465.938 209.895H440.875V204.565C440.875 197.655 446.497 192.033 453.407 192.033C460.317 192.033 465.938 197.655 465.938 204.565V209.895Z" fill="#FFCA55"/>
<mask id="mask5" mask-type="alpha" maskUnits="userSpaceOnUse" x="437" y="207" width="32" height="32">
<path fill-rule="evenodd" clip-rule="evenodd" d="M454.606 223.589V231.028H452.208V223.589C450.313 223.064 448.919 221.332 448.919 219.27C448.919 216.792 450.928 214.783 453.407 214.783C455.884 214.783 457.893 216.792 457.893 219.27C457.893 221.332 456.5 223.064 454.606 223.589ZM464.616 207.434H442.197C439.843 207.434 437.935 209.342 437.935 211.696V234.116C437.935 236.469 439.843 238.377 442.197 238.377H464.616C466.969 238.377 468.877 236.469 468.877 234.116V211.696C468.877 209.342 466.969 207.434 464.616 207.434Z" fill="white"/>
</mask>
<g mask="url(#mask5)">
<path fill-rule="evenodd" clip-rule="evenodd" d="M454.606 223.589V231.028H452.208V223.589C450.313 223.064 448.919 221.332 448.919 219.27C448.919 216.792 450.928 214.783 453.407 214.783C455.884 214.783 457.893 216.792 457.893 219.27C457.893 221.332 456.5 223.064 454.606 223.589ZM464.616 207.434H442.197C439.843 207.434 437.935 209.342 437.935 211.696V234.116C437.935 236.469 439.843 238.377 442.197 238.377H464.616C466.969 238.377 468.877 236.469 468.877 234.116V211.696C468.877 209.342 466.969 207.434 464.616 207.434Z" fill="url(#paint6_linear)"/>
</g>
<mask id="mask6" mask-type="alpha" maskUnits="userSpaceOnUse" x="246" y="0" width="46" height="46">
<path fill-rule="evenodd" clip-rule="evenodd" d="M291.103 23.061C291.103 23.698 291.076 24.327 291.024 24.951C290.915 26.284 290.687 27.585 290.353 28.842C288.664 35.23 284.235 40.503 278.403 43.334C275.435 44.774 272.103 45.582 268.583 45.582C267.219 45.582 265.884 45.46 264.589 45.227C258.813 44.195 253.801 40.96 250.454 36.423C248.088 33.222 246.553 29.371 246.163 25.187C246.095 24.487 246.063 23.779 246.063 23.061C246.063 15.784 249.514 9.31499 254.867 5.20099C258.665 2.27599 263.421 0.541992 268.583 0.541992C274.838 0.541992 280.498 3.09199 284.58 7.21099V7.21199C288.613 11.281 291.103 16.88 291.103 23.061Z" fill="white"/>
</mask>
<g mask="url(#mask6)">
<path fill-rule="evenodd" clip-rule="evenodd" d="M291.103 23.061C291.103 23.698 291.076 24.327 291.024 24.951C290.915 26.284 290.687 27.585 290.353 28.842C288.664 35.23 284.235 40.503 278.403 43.334C275.435 44.774 272.103 45.582 268.583 45.582C267.219 45.582 265.884 45.46 264.589 45.227C258.813 44.195 253.801 40.96 250.454 36.423C248.088 33.222 246.553 29.371 246.163 25.187C246.095 24.487 246.063 23.779 246.063 23.061C246.063 15.784 249.514 9.31499 254.867 5.20099C258.665 2.27599 263.421 0.541992 268.583 0.541992C274.838 0.541992 280.498 3.09199 284.58 7.21099V7.21199C288.613 11.281 291.103 16.88 291.103 23.061Z" fill="url(#paint7_linear)"/>
</g>
<path fill-rule="evenodd" clip-rule="evenodd" d="M264.709 44.5611C259.106 43.5591 254.246 40.4221 251 36.0211C250.977 35.7791 251.02 35.5511 251.137 35.3421C253.003 32.0311 251.791 32.5901 251.417 30.4441C251.044 28.2981 249.971 29.2321 249.645 27.9251C249.318 26.6201 250.344 26.7221 248.105 25.8761C247.768 25.7491 247.329 25.4871 246.836 25.1231C246.771 24.4441 246.74 23.7571 246.74 23.0611C246.74 16.0031 250.087 9.72806 255.279 5.73706C255.279 5.73706 255.149 7.23806 254.029 9.18506C252.91 11.1331 252.35 10.0401 252.35 12.9181C252.35 15.7971 254.291 16.8441 255.279 18.6531C256.268 20.4621 258.208 21.7821 255.279 22.7081C252.35 23.6341 251.044 25.0541 251.044 26.0221C251.044 26.9931 250.484 26.9931 251.044 28.2981C251.604 29.6051 251.977 28.7331 252.412 29.9781C252.848 31.2221 252.412 31.2221 252.971 31.6571C253.531 32.0921 254.464 33.0881 256.207 32.9631C257.947 32.8381 264.726 31.8181 265.099 35.4081C265.383 38.1331 264.625 42.3401 264.709 44.5611Z" fill="white"/>
<path fill-rule="evenodd" clip-rule="evenodd" d="M258.258 8.21506C257.885 8.70706 256.455 10.8391 256.455 12.1371C256.455 13.4341 255.958 15.9401 257.512 17.3311C259.067 18.7211 261.679 18.0291 261.43 16.4471C261.182 14.8651 263.11 13.9321 263.918 13.6211C264.727 13.3101 264.789 10.1611 264.105 9.18506C263.42 8.21106 260.747 7.63906 259.689 7.73906C258.632 7.83706 258.258 8.21506 258.258 8.21506Z" fill="white"/>
<path fill-rule="evenodd" clip-rule="evenodd" d="M277.259 10.293C276.605 9.45401 275.02 8.33401 274.646 9.64001C274.273 10.947 275.393 10.574 274.646 11.787C273.9 12.998 273.247 13.092 273.154 14.119C273.061 15.145 272.781 15.797 273.713 16.637C274.646 17.477 276.605 16.824 277.259 16.824C277.912 16.824 278.938 17.104 279.404 16.264C279.871 15.424 279.404 13.838 279.404 13.838L277.539 11.133L277.259 10.293Z" fill="white"/>
<path fill-rule="evenodd" clip-rule="evenodd" d="M289.698 28.668C288.06 34.865 283.765 39.979 278.107 42.725C277.966 42.399 277.744 42.106 277.414 41.951C276.48 41.514 276.637 40.551 276.357 39.275C276.078 38 275.58 38.498 275.02 37.627C274.46 36.756 274.335 35.855 274.771 34.984C275.207 34.115 274.833 34.301 276.637 33.398C278.44 32.497 278.596 32.777 279.063 32.558C279.529 32.342 281.55 32.062 283.089 32.279C284.459 32.472 287.222 29.733 289.698 28.668Z" fill="white"/>
<path fill-rule="evenodd" clip-rule="evenodd" d="M290.426 23.061C290.426 23.679 290.399 24.289 290.349 24.893C289.679 24.628 289.185 24.378 289.106 24.194C288.827 23.54 288.92 23.167 288.92 22.608C288.92 22.048 287.054 19.903 287.054 19.903L285.095 21.302C285.095 21.302 285.002 22.669 285.095 23.229C285.188 23.789 286.743 24.626 286.836 25.313C286.929 26 287.302 26.214 287.302 26.214C287.302 26.214 286.461 29.375 286.247 26.931C286.184 26.223 285.593 26.651 285.593 26.185C285.593 25.718 284.194 24.94 284.194 24.94C284.194 24.94 283.976 24.38 282.763 23.354C281.55 22.329 278.845 25.72 278.845 25.72C278.845 25.72 279.3 28.275 278.845 31.564C278.804 31.856 275.039 33.616 273.994 33.616C272.949 33.616 271.288 28.112 271.288 27.552C271.288 26.993 272.408 26.526 273.042 25.72C273.674 24.914 273.247 23.075 273.434 21.489C273.621 19.903 273.9 20.555 273.9 20.276C273.9 19.996 275.207 18.969 276.326 18.086C277.447 17.203 277.072 17.944 278.471 18.08C279.871 18.214 281.177 15.984 282.017 15.453C282.856 14.92 283.229 15.611 283.882 15.453C284.535 15.293 284.442 15.145 285.188 14.787C285.935 14.426 285.375 13.373 285.188 12.246C285.002 11.119 284.909 10.574 284.099 7.68896C288.011 11.635 290.426 17.067 290.426 23.061Z" fill="white"/>
<path fill-rule="evenodd" clip-rule="evenodd" d="M134.129 274.553H143.493V223.512H134.129V274.553Z" fill="#E0E0E0"/>
<path fill-rule="evenodd" clip-rule="evenodd" d="M154.801 274.553H164.165V208.675H154.801V274.553Z" fill="#E0E0E0"/>
<path fill-rule="evenodd" clip-rule="evenodd" d="M175.473 274.553H184.837V233.927H175.473V274.553Z" fill="#E0E0E0"/>
<path fill-rule="evenodd" clip-rule="evenodd" d="M196.146 274.553H205.509V214.239H196.146V274.553Z" fill="#E0E0E0"/>
<path fill-rule="evenodd" clip-rule="evenodd" d="M216.818 274.553H226.182V200.4H216.818V274.553Z" fill="#E0E0E0"/>
<path fill-rule="evenodd" clip-rule="evenodd" d="M237.49 274.553H246.854V226.651H237.49V274.553Z" fill="#E0E0E0"/>
<path fill-rule="evenodd" clip-rule="evenodd" d="M134.129 274.553H143.493V237.604H134.129V274.553Z" fill="#4AAFFF"/>
<path fill-rule="evenodd" clip-rule="evenodd" d="M154.801 274.553H164.165V226.863H154.801V274.553Z" fill="#4AAFFF"/>
<path fill-rule="evenodd" clip-rule="evenodd" d="M175.473 274.553H184.837V245.143H175.473V274.553Z" fill="#4AAFFF"/>
<path fill-rule="evenodd" clip-rule="evenodd" d="M196.146 274.553H205.509V230.891H196.146V274.553Z" fill="#4AAFFF"/>
<path fill-rule="evenodd" clip-rule="evenodd" d="M216.818 274.553H226.182V220.874H216.818V274.553Z" fill="#4AAFFF"/>
<path fill-rule="evenodd" clip-rule="evenodd" d="M237.49 274.553H246.854V239.876H237.49V274.553Z" fill="#4AAFFF"/>
<path fill-rule="evenodd" clip-rule="evenodd" d="M93.9532 302.722C93.9532 302.722 94.4962 303.612 94.5632 304.337C94.6172 304.912 95.1002 305.77 95.3092 306.244C95.5192 306.718 96.1912 308.864 96.2152 309.422C96.2262 309.651 95.7162 311.09 95.7882 311.55C95.8602 312.01 96.1232 312.922 95.7102 312.983C95.2972 313.043 94.8282 312.296 94.8282 312.296C94.8282 312.296 94.8682 312.72 94.5182 312.881C93.8372 313.197 93.4772 312.919 93.4772 312.919C93.4772 312.919 93.2272 313.385 92.9122 313.448C92.2172 313.586 91.8772 313.308 91.8772 313.308C91.8772 313.308 91.5722 313.57 91.0922 313.561C90.4782 313.548 90.2202 313.018 90.2202 313.018C90.2202 313.018 89.4432 313.176 89.2182 312.813C88.9922 312.451 89.0312 312.064 88.9382 311.735C88.8442 311.407 88.9152 308.439 89.9232 306.303C90.9312 304.167 89.6662 302.083 89.6662 302.083L93.9532 302.722Z" fill="#EEA886"/>
<path fill-rule="evenodd" clip-rule="evenodd" d="M94.9379 312.018C94.9379 312.018 95.0069 309.356 94.3059 308.789C93.6049 308.222 93.5259 309.183 93.5259 309.183C93.5259 309.183 93.6209 308.233 92.8549 308.105C92.0889 307.977 92.0569 309.105 92.0569 309.105C92.0569 309.105 91.9319 308.373 91.1269 308.523C90.3229 308.673 90.5149 309.608 90.5149 309.608C90.5149 309.608 89.7469 308.692 89.2479 309.572C88.4069 311.058 89.2179 312.813 89.2179 312.813C89.2179 312.813 89.4549 313.215 90.2199 313.018C90.2199 313.018 90.7319 314.05 91.8769 313.308C91.8769 313.308 93.0499 313.954 93.4769 312.919C93.4769 312.919 94.7699 313.534 94.9379 312.018Z" fill="#DB9C7C"/>
<path fill-rule="evenodd" clip-rule="evenodd" d="M102.984 264.371C102.984 264.371 98.427 279.561 96.887 285.165C96.404 286.921 95.235 303.704 95.029 304.379C94.822 305.055 89.042 305.98 89.042 305.98C89.042 305.98 89.742 284.986 89.807 283.841C89.873 282.696 96.186 259.251 98.022 258.416C99.397 257.789 100.124 258.307 101.857 259.594C104.29 261.4 102.984 264.371 102.984 264.371Z" fill="#323657"/>
<path fill-rule="evenodd" clip-rule="evenodd" d="M127.333 268.44L128.511 268.004C128.511 268.004 127.042 264.557 126.402 264.641C125.663 264.738 124.742 264.981 124.742 264.981L127.333 268.44Z" fill="#EAD8CF"/>
<path fill-rule="evenodd" clip-rule="evenodd" d="M127.603 269.035C127.452 268.922 125.1 264.409 125.1 264.409L120.073 265.092L122.789 270.438L127.603 269.035Z" fill="#DA9B5B"/>
<path fill-rule="evenodd" clip-rule="evenodd" d="M99.2861 368.086C99.2861 368.086 98.8711 370.97 98.8191 371.404C98.7671 371.836 94.1971 371.148 94.1971 371.148L93.8271 367.715C93.8271 367.715 98.7151 367.68 99.2861 368.086Z" fill="#424773"/>
<path fill-rule="evenodd" clip-rule="evenodd" d="M98.8678 371.037C98.8678 371.037 100.315 372.775 101.716 373.532C103.116 374.29 105.317 374.589 106.145 375.374C106.743 375.939 108.322 378.375 102.506 378.327C96.6898 378.277 93.8858 378.67 93.2628 377.737C92.6388 376.802 94.1638 370.841 94.1638 370.841C94.1638 370.841 95.5418 371.337 98.8678 371.037Z" fill="#292C47"/>
<path fill-rule="evenodd" clip-rule="evenodd" d="M132.029 368.086C132.029 368.086 131.613 370.97 131.561 371.404C131.509 371.836 126.94 371.148 126.94 371.148L126.57 367.715C126.57 367.715 131.458 367.68 132.029 368.086Z" fill="#424773"/>
<path fill-rule="evenodd" clip-rule="evenodd" d="M131.61 371.037C131.61 371.037 133.058 372.775 134.458 373.532C135.858 374.29 141.012 374.912 141.84 375.696C142.438 376.261 143.432 378.54 135.248 378.327C129.434 378.175 126.628 378.67 126.005 377.737C125.382 376.802 126.907 370.841 126.907 370.841C126.907 370.841 128.205 371.371 131.61 371.037Z" fill="#292C47"/>
<path fill-rule="evenodd" clip-rule="evenodd" d="M103.07 293.989C103.07 293.989 98.7771 300.811 99.0971 306.977C99.4181 313.144 97.5401 319.876 96.8951 326.318C96.1761 333.5 93.2331 350.5 93.1261 354.342C93.0201 358.184 93.5831 370.451 93.5831 370.451L99.4741 370.585C99.4741 370.585 104.421 340.863 105.703 337.83C106.984 334.797 113.338 313.176 113.552 310.75C113.765 308.324 103.07 293.989 103.07 293.989Z" fill="#292C47"/>
<path fill-rule="evenodd" clip-rule="evenodd" d="M125.673 294.913C125.673 294.913 128.91 311.815 129.336 315.588C129.764 319.363 130.048 333.854 130.262 336.212C130.476 338.571 132.257 367.01 132.825 370.585H125.294C125.294 370.585 119.513 349.86 119.513 340.054C119.513 330.249 115.046 318.736 112.164 312.266C109.281 305.796 102.682 305.643 100.91 293.639C100.91 293.639 123.274 291.106 125.673 294.913Z" fill="#292C47"/>
<path fill-rule="evenodd" clip-rule="evenodd" d="M110.235 236.633C110.235 236.633 115.999 234.481 118.656 238.868C121.313 243.255 121.057 252.038 118.152 253.118C115.248 254.198 110.883 253.633 109.396 250.888C107.909 248.143 106.566 244.174 106.63 241.522C106.695 238.87 108.722 237.399 110.235 236.633Z" fill="#EEA886"/>
<path fill-rule="evenodd" clip-rule="evenodd" d="M117.527 253.319C117.527 253.319 117.287 254.875 117.683 255.641C118.08 256.408 110.217 256.428 110.217 256.428C110.217 256.428 109.578 252.258 108.368 248.736C107.158 245.213 117.527 253.319 117.527 253.319Z" fill="#EEA886"/>
<path fill-rule="evenodd" clip-rule="evenodd" d="M108.368 248.736C108.368 248.736 108.911 249.631 111.126 249.284C113.341 248.937 116.044 245.989 116.969 245.666C117.894 245.342 117.903 244.798 117.903 244.798L118.482 245.645L119.464 245.707C119.464 245.707 118.568 243.071 119.92 241.995C121.271 240.92 118.517 233.461 111.413 235.945C111.413 235.945 105.956 237.449 106.154 240.552C106.353 243.656 107.147 247.191 108.368 248.736Z" fill="#323657"/>
<path fill-rule="evenodd" clip-rule="evenodd" d="M118.15 255.549C118.15 255.549 118.125 254.084 117.461 253.944C116.797 253.804 110.134 253.164 109.319 253.484V255.19C109.319 255.19 110.889 256.156 118.15 255.549Z" fill="#E2D2CA"/>
<path fill-rule="evenodd" clip-rule="evenodd" d="M117.756 243.67C117.631 243.15 116.308 241.663 115.801 243.254C115.294 244.847 116.567 246.99 117.277 246.806C117.986 246.624 118.071 244.99 117.756 243.67Z" fill="#EEA886"/>
<path fill-rule="evenodd" clip-rule="evenodd" d="M144.596 272.853L144.585 272.852L144.596 272.853Z" fill="#323657"/>
<path fill-rule="evenodd" clip-rule="evenodd" d="M108.594 237.151C108.594 237.151 101.246 237.726 108.368 248.736L108.594 237.151Z" fill="#323657"/>
<path fill-rule="evenodd" clip-rule="evenodd" d="M158.671 239.387C158.437 238.651 157.646 238.436 157.646 238.436C157.316 237.938 156.468 237.678 156.468 237.678L156.418 237.578C156.939 237.018 158.455 235.971 158.542 235.773C158.649 235.532 158.623 235.505 158.329 235.345C158.083 235.211 155.612 236.82 154.787 237.365C154.584 237.493 154.42 237.612 154.387 237.639C154.159 237.832 153.697 237.972 153.308 238.381L153.184 238.524C152.775 239.047 151.811 243.237 151.811 243.237L153.532 244.008L155.19 245.416C155.19 245.416 157.126 243.813 157.623 243.309C158.12 242.805 158.347 242.218 158.484 241.97C158.517 241.911 158.577 241.825 158.648 241.728C158.873 241.424 159.214 241.016 159.214 241.016C159.383 240.78 159.483 240.19 159.483 240.19C159.449 239.696 158.671 239.387 158.671 239.387Z" fill="#EFAA88"/>
<path fill-rule="evenodd" clip-rule="evenodd" d="M129.172 257.767C124.603 257.165 118.15 255.549 118.15 255.549L109.319 255.189C109.319 255.189 101.214 256.973 98.0222 258.416C97.7192 258.551 97.7182 265.646 96.8872 267.506L99.5332 273.089C99.5332 273.089 101.062 284.149 101.379 289.067C101.525 291.325 98.2262 310.241 98.2262 310.241C98.2262 310.241 101.761 311.281 107.788 311.946C113.815 312.61 128.875 311.706 128.969 310.994C129.064 310.282 126.053 284.486 125.919 283.15C125.715 281.1 126.626 270.205 126.626 270.205C128.018 269.125 140.236 263.454 143.57 260.499C144.461 259.708 148.227 256.041 149.297 254.775C153.087 250.293 156.194 246.449 156.572 245.62C157.002 245.148 152.454 242.676 152.042 242.539C151.681 242.418 146.557 249.057 144.585 251.193C143.706 252.145 140.051 254.804 140.051 254.804C140.051 254.804 132.03 257.931 129.172 257.767Z" fill="#323657"/>
<path fill-rule="evenodd" clip-rule="evenodd" d="M206.73 187.703H135.096C134.562 187.703 134.129 188.136 134.129 188.67V192.158C134.129 192.692 134.562 193.125 135.096 193.125H206.73C207.264 193.125 207.697 192.692 207.697 192.158V188.67C207.697 188.136 207.264 187.703 206.73 187.703Z" fill="#E0E0E0"/>
<path fill-rule="evenodd" clip-rule="evenodd" d="M180.051 176.174H135.096C134.562 176.174 134.129 176.607 134.129 177.141V180.628C134.129 181.163 134.562 181.595 135.096 181.595H180.051C180.585 181.595 181.018 181.163 181.018 180.628V177.141C181.018 176.607 180.585 176.174 180.051 176.174Z" fill="#E0E0E0"/>
<path fill-rule="evenodd" clip-rule="evenodd" d="M191.75 165.359H135.096C134.562 165.359 134.129 165.792 134.129 166.326V169.813C134.129 170.347 134.562 170.78 135.096 170.78H191.75C192.284 170.78 192.716 170.347 192.716 169.813V166.326C192.716 165.792 192.284 165.359 191.75 165.359Z" fill="#E0E0E0"/>
<path fill-rule="evenodd" clip-rule="evenodd" d="M219.285 154.3H135.096C134.562 154.3 134.129 154.733 134.129 155.267V158.754C134.129 159.289 134.562 159.721 135.096 159.721H219.285C219.818 159.721 220.251 159.289 220.251 158.754V155.267C220.251 154.733 219.818 154.3 219.285 154.3Z" fill="#E0E0E0"/>
<path fill-rule="evenodd" clip-rule="evenodd" d="M164.5 143.814H135.096C134.562 143.814 134.129 144.247 134.129 144.781V148.268C134.129 148.802 134.562 149.235 135.096 149.235H164.5C165.034 149.235 165.467 148.802 165.467 148.268V144.781C165.467 144.247 165.034 143.814 164.5 143.814Z" fill="#E0E0E0"/>
<path fill-rule="evenodd" clip-rule="evenodd" d="M324.433 163.067C320.99 153.441 324.097 143.066 331.448 136.813C333.2 135.323 335.193 134.065 337.397 133.11C337.883 132.899 338.38 132.702 338.887 132.52C343.973 130.701 349.269 130.711 354.054 132.209C360.962 134.372 366.808 139.633 369.432 146.973C370.299 149.396 370.75 151.866 370.824 154.305C371.128 164.38 364.984 173.942 354.98 177.52C342.553 181.963 328.877 175.493 324.433 163.067ZM357.665 185.03C371.007 180.258 379.202 167.506 378.798 154.067C378.701 150.813 378.099 147.52 376.943 144.288C373.441 134.499 365.644 127.479 356.432 124.595C350.048 122.596 342.985 122.584 336.2 125.01C335.525 125.251 334.861 125.514 334.213 125.795C331.274 127.072 328.616 128.747 326.279 130.736C316.474 139.076 312.331 152.915 316.921 165.753C322.85 182.327 341.091 190.957 357.665 185.03Z" fill="#4AAFFF"/>
<path fill-rule="evenodd" clip-rule="evenodd" d="M354.054 132.209L356.432 124.595C365.644 127.479 373.441 134.499 376.943 144.288C378.099 147.52 378.701 150.813 378.798 154.067L370.824 154.305C370.75 151.866 370.299 149.396 369.432 146.973C366.808 139.633 360.962 134.372 354.054 132.209Z" fill="#1A598C"/>
<path fill-rule="evenodd" clip-rule="evenodd" d="M337.397 133.11L334.213 125.795C334.861 125.514 335.525 125.251 336.2 125.01C342.985 122.584 350.048 122.596 356.432 124.595L354.054 132.209C349.269 130.711 343.973 130.701 338.887 132.52C338.38 132.702 337.883 132.899 337.397 133.11Z" fill="#2273B5"/>
<path fill-rule="evenodd" clip-rule="evenodd" d="M326.279 130.736C328.616 128.747 331.274 127.072 334.213 125.795L337.397 133.11C335.193 134.065 333.2 135.323 331.448 136.813L326.279 130.736Z" fill="#5CAEF2"/>
<path fill-rule="evenodd" clip-rule="evenodd" d="M299.51 148.817H281.447C280.512 148.817 279.755 148.059 279.755 147.125V145.924C279.755 144.99 280.512 144.233 281.447 144.233H299.51C300.444 144.233 301.202 144.99 301.202 145.924V147.125C301.202 148.059 300.444 148.817 299.51 148.817Z" fill="#78C2FF"/>
<path fill-rule="evenodd" clip-rule="evenodd" d="M278.487 170.342H260.424C259.49 170.342 258.732 169.584 258.732 168.651V167.45C258.732 166.516 259.49 165.758 260.424 165.758H278.487C279.421 165.758 280.179 166.516 280.179 167.45V168.651C280.179 169.584 279.421 170.342 278.487 170.342Z" fill="#4AAFFF"/>
<path fill-rule="evenodd" clip-rule="evenodd" d="M301.664 192.706H283.6C282.666 192.706 281.909 191.948 281.909 191.014V189.813C281.909 188.879 282.666 188.122 283.6 188.122H301.664C302.597 188.122 303.355 188.879 303.355 189.813V191.014C303.355 191.948 302.597 192.706 301.664 192.706Z" fill="#2273B5"/>
<path fill-rule="evenodd" clip-rule="evenodd" d="M338.169 207.821H320.106C319.171 207.821 318.414 207.063 318.414 206.129V204.928C318.414 203.995 319.171 203.237 320.106 203.237H338.169C339.103 203.237 339.861 203.995 339.861 204.928V206.129C339.861 207.063 339.103 207.821 338.169 207.821Z" fill="#1A598C"/>
<path fill-rule="evenodd" clip-rule="evenodd" d="M267.238 269.838L266.311 268.856L290.293 246.228L314.565 251.487L337.749 225.048L357.969 226.189L373.717 204.467L374.811 205.26L358.63 227.58L338.331 226.434L315.056 252.976L290.703 247.699L267.238 269.838Z" fill="#4AAFFF"/>
<path fill-rule="evenodd" clip-rule="evenodd" d="M318.332 251.469C318.753 253.414 317.518 255.332 315.573 255.753C313.628 256.174 311.71 254.939 311.289 252.995C310.868 251.049 312.103 249.131 314.048 248.71C315.993 248.29 317.911 249.524 318.332 251.469Z" fill="white"/>
<path fill-rule="evenodd" clip-rule="evenodd" d="M314.191 249.371C312.613 249.712 311.608 251.274 311.95 252.851C312.291 254.428 313.852 255.434 315.43 255.092C317.008 254.751 318.013 253.19 317.671 251.612C317.33 250.035 315.769 249.029 314.191 249.371ZM315.716 256.414C313.41 256.913 311.128 255.443 310.629 253.137C310.129 250.832 311.599 248.549 313.905 248.05C316.211 247.55 318.493 249.02 318.992 251.327C319.492 253.632 318.022 255.914 315.716 256.414Z" fill="#4AAFFF"/>
<path fill-rule="evenodd" clip-rule="evenodd" d="M341.554 225.207C341.975 227.151 340.74 229.069 338.795 229.491C336.851 229.912 334.933 228.676 334.511 226.731C334.09 224.787 335.326 222.869 337.27 222.448C339.215 222.027 341.133 223.262 341.554 225.207Z" fill="white"/>
<path fill-rule="evenodd" clip-rule="evenodd" d="M337.413 223.108C335.835 223.45 334.83 225.011 335.171 226.588C335.513 228.167 337.075 229.171 338.652 228.831C340.23 228.489 341.235 226.927 340.894 225.349C340.552 223.772 338.991 222.766 337.413 223.108ZM338.938 230.151C336.632 230.65 334.35 229.18 333.851 226.875C333.352 224.569 334.822 222.287 337.127 221.788C339.433 221.288 341.715 222.757 342.214 225.064C342.713 227.37 341.244 229.651 338.938 230.151Z" fill="#4AAFFF"/>
<path fill-rule="evenodd" clip-rule="evenodd" d="M361.626 226.01C362.047 227.955 360.812 229.873 358.867 230.294C356.922 230.715 355.004 229.48 354.583 227.536C354.162 225.59 355.397 223.672 357.342 223.251C359.287 222.831 361.205 224.065 361.626 226.01Z" fill="white"/>
<path fill-rule="evenodd" clip-rule="evenodd" d="M357.485 223.912C355.908 224.253 354.902 225.815 355.244 227.392C355.585 228.97 357.146 229.975 358.724 229.633C360.302 229.292 361.307 227.731 360.966 226.153C360.624 224.576 359.063 223.57 357.485 223.912ZM359.01 230.955C356.705 231.454 354.422 229.984 353.923 227.678C353.424 225.373 354.894 223.09 357.199 222.591C359.505 222.091 361.787 223.561 362.286 225.868C362.786 228.173 361.316 230.455 359.01 230.955Z" fill="#4AAFFF"/>
<path fill-rule="evenodd" clip-rule="evenodd" d="M294 246.534C294.421 248.479 293.186 250.397 291.241 250.818C289.296 251.239 287.378 250.003 286.957 248.059C286.536 246.114 287.771 244.196 289.716 243.775C291.661 243.354 293.579 244.589 294 246.534Z" fill="white"/>
<path fill-rule="evenodd" clip-rule="evenodd" d="M289.859 244.435C288.281 244.777 287.276 246.338 287.617 247.917C287.959 249.494 289.52 250.5 291.098 250.158C292.675 249.816 293.681 248.254 293.339 246.677C292.998 245.099 291.436 244.094 289.859 244.435ZM291.384 251.478C289.078 251.977 286.796 250.508 286.297 248.202C285.797 245.896 287.267 243.614 289.573 243.115C291.878 242.616 294.161 244.086 294.66 246.391C295.159 248.697 293.69 250.979 291.384 251.478Z" fill="#4AAFFF"/>
<path fill-rule="evenodd" clip-rule="evenodd" d="M286.874 263.53H301.624V260.69H286.874V263.53Z" fill="#E0E0E0"/>
<path fill-rule="evenodd" clip-rule="evenodd" d="M297.133 234.382H311.883V231.541H297.133V234.382Z" fill="#E0E0E0"/>
<path fill-rule="evenodd" clip-rule="evenodd" d="M327.73 254.694H342.48V251.854H327.73V254.694Z" fill="#E0E0E0"/>
<path fill-rule="evenodd" clip-rule="evenodd" d="M340.96 214.804H355.71V211.963H340.96V214.804Z" fill="#E0E0E0"/>
<path fill-rule="evenodd" clip-rule="evenodd" d="M362.384 238.573H377.133V235.733H362.384V238.573Z" fill="#E0E0E0"/>
<path fill-rule="evenodd" clip-rule="evenodd" d="M416.829 273.013C416.829 273.013 411.365 260.635 417.704 261.66C417.704 261.66 419.862 263.444 422.077 267.078C423.753 269.831 427.241 277.115 427.112 279.58C426.983 282.042 425.231 283.88 423.338 287.837C423.338 287.837 419.404 295.182 419.239 296.067L415.08 293.908C415.08 293.908 418.603 286.885 421.086 280.712L416.829 273.013Z" fill="#275070"/>
<mask id="mask7" mask-type="alpha" maskUnits="userSpaceOnUse" x="365" y="281" width="87" height="30">
<path fill-rule="evenodd" clip-rule="evenodd" d="M448.835 310.126L365.121 295.873L367.544 281.64L451.259 295.894L448.835 310.126Z" fill="white"/>
</mask>
<g mask="url(#mask7)">
<path fill-rule="evenodd" clip-rule="evenodd" d="M448.835 310.126L365.121 295.873L367.544 281.64L451.259 295.894L448.835 310.126Z" fill="url(#paint8_linear)"/>
</g>
<path fill-rule="evenodd" clip-rule="evenodd" d="M365.413 294.158L360.941 293.396L362.78 282.593L367.252 283.355L365.413 294.158Z" fill="#2D3038"/>
<path fill-rule="evenodd" clip-rule="evenodd" d="M385.203 377.877H384.171C384.171 377.877 384.515 373.984 383.561 373.946C382.607 373.908 380.24 377.114 378.827 377.611C377.415 378.107 370.163 378.526 370.125 377.19C370.086 375.855 372.911 375.32 373.789 374.939C374.667 374.557 378.942 370.396 379.706 369.9C380.469 369.403 381.771 365.954 381.771 365.954L385.82 365.774C385.82 365.774 386.049 368.999 386.294 370.706C386.386 371.337 386.452 371.913 386.461 372.305C386.5 373.755 385.203 377.877 385.203 377.877Z" fill="#EEA886"/>
<path fill-rule="evenodd" clip-rule="evenodd" d="M411.284 377.108H410.425V373.484C409.709 373.543 407.304 375.82 406.56 376.479C405.816 377.137 404.794 377.108 401.659 377.307C398.525 377.506 398.229 375.629 398.725 374.991C399.221 374.352 400.825 374.073 401.659 373.674C402.494 373.274 405.787 369.561 406.665 368.683C407.542 367.804 408.078 365.289 408.078 365.289L411.742 365.608C411.742 365.608 411.718 367.91 412.135 369.84V369.841L412.139 369.856C412.174 370.021 412.213 370.182 412.256 370.339C412.801 372.346 411.284 377.108 411.284 377.108Z" fill="#EEA886"/>
<path fill-rule="evenodd" clip-rule="evenodd" d="M397.734 294.964C397.734 294.964 396.35 298.239 396.227 299.066C396.105 299.893 392.863 307.73 391.925 313.013C391.364 316.176 389.814 326.078 389.689 327.336C389.474 329.491 388.459 334.247 388.303 336.447C388.216 337.676 382.157 356.559 380.691 366.418C380.691 366.418 384.175 366.934 386.792 366.242C386.792 366.242 392.112 356.053 395.065 341.601C396.844 332.897 398.417 328.256 399.795 324.671C401.173 321.086 408.978 310.933 409.793 309.792C410.607 308.652 415.711 302.348 410.878 295.52C406.045 288.691 397.734 294.964 397.734 294.964Z" fill="#1D3B54"/>
<path fill-rule="evenodd" clip-rule="evenodd" d="M415.183 323.971C414.741 326.911 415.206 330.773 416.129 341.523C417.053 352.272 414.512 365.289 414.512 365.289C411.322 366.38 407.647 365.289 407.647 365.289C407.732 364.533 407.647 339.087 407.647 336.82C407.647 334.552 406.996 331.979 406.829 329.376C406.714 327.602 405.889 324.333 404.96 320.995C404.682 319.995 404.395 318.989 404.115 318.015V318.014C403.958 317.468 403.804 316.932 403.654 316.413C402.347 311.878 400.588 294.368 400.588 294.368C400.588 294.368 410.334 286.517 415.08 293.908C419.825 301.296 417.388 306.671 417.221 307.595C417.053 308.52 415.625 321.032 415.183 323.971Z" fill="#1D3B54"/>
<path fill-rule="evenodd" clip-rule="evenodd" d="M411.142 308.178C411.066 308.346 406.21 319.125 404.96 320.995C404.682 319.995 404.395 318.989 404.115 318.015V318.014C404.115 318.014 410.979 308.416 411.142 308.178Z" fill="#122536"/>
<path fill-rule="evenodd" clip-rule="evenodd" d="M411.284 377.108H410.425V373.484C409.709 373.543 407.304 375.82 406.56 376.479C405.816 377.137 404.794 377.108 401.659 377.307C398.525 377.506 398.229 375.629 398.725 374.991C399.221 374.352 400.825 374.073 401.659 373.674C405.013 373.853 409.105 369.138 411.07 369.148C412.114 369.153 412.104 369.731 412.135 369.84V369.841L412.139 369.856C412.174 370.021 412.213 370.182 412.256 370.339C412.801 372.346 411.284 377.108 411.284 377.108Z" fill="#172F42"/>
<path fill-rule="evenodd" clip-rule="evenodd" d="M385.203 377.877H384.171C384.171 377.877 384.515 373.984 383.561 373.946C382.607 373.908 380.24 377.114 378.827 377.611C377.415 378.107 370.163 378.526 370.125 377.19C370.086 375.855 372.911 375.32 373.789 374.939C376.78 374.932 381.645 371.639 383.153 370.972C384.661 370.304 386.294 370.706 386.294 370.706C386.386 371.337 386.452 371.913 386.461 372.305C386.5 373.755 385.203 377.877 385.203 377.877Z" fill="#172F42"/>
<path fill-rule="evenodd" clip-rule="evenodd" d="M406.339 253.857C406.339 253.857 407.895 257.971 406.685 261.152C406.685 261.152 412.387 260.781 412.603 260.115C412.819 259.45 412.374 253.285 413.159 251.462C413.942 249.641 406.339 253.857 406.339 253.857Z" fill="#EEA886"/>
<path fill-rule="evenodd" clip-rule="evenodd" d="M405.789 259.76C405.789 259.76 402.419 260.959 400.896 261.292C399.374 261.625 396.188 263.133 396.447 268.814C396.706 274.495 397.656 279.421 398.002 281.863C398.348 284.303 398.131 290.517 397.57 293.536C397.57 293.536 405.648 295.577 415.152 293.536C415.152 293.536 413.467 288.387 413.51 287.055C413.553 285.724 419.126 274.761 419.385 273.031C419.644 271.299 420.768 263.666 418.219 261.979C415.67 260.292 413.596 260.514 412.517 259.76C411.437 259.005 407.365 259.218 405.789 259.76Z" fill="#285173"/>
<path fill-rule="evenodd" clip-rule="evenodd" d="M418.791 302.462C404.989 306.125 394.006 302.477 394.006 302.477C395.007 300.418 395.744 298.365 396.278 296.375L396.279 296.374C396.656 294.969 396.932 293.598 397.128 292.28C398.25 284.76 396.787 279.003 396.787 279.003C398.38 265.892 418.219 261.979 419.808 266.135C421.397 270.292 416.729 288.152 416.493 289.683C416.256 291.214 418.791 302.462 418.791 302.462Z" fill="#285173"/>
<path fill-rule="evenodd" clip-rule="evenodd" d="M411.31 237.349C409.017 236.563 402.821 235.726 401.233 245.237C399.646 254.749 403.104 254.912 406.655 254.641C410.207 254.371 415.763 247.951 416.188 246C416.614 244.047 417.85 239.593 411.31 237.349Z" fill="#EEA886"/>
<path fill-rule="evenodd" clip-rule="evenodd" d="M402.51 241.002C402.51 241.002 404.403 245.051 406.886 246.462C406.886 246.462 408.441 250.765 411.81 252.505C411.81 252.505 420.748 246.584 415.561 239.548C410.375 232.512 403.096 238.116 402.51 241.002Z" fill="#FCCCA2"/>
<path fill-rule="evenodd" clip-rule="evenodd" d="M406.667 245.059C406.868 244.564 408.207 243.759 408.808 245.117C409.409 246.474 407.251 248.866 406.66 248.737C406.069 248.608 405.903 246.937 406.667 245.059Z" fill="#EEA886"/>
<path fill-rule="evenodd" clip-rule="evenodd" d="M415.258 240.635C415.454 240.331 421.373 237.591 422.604 243.316C423.834 249.042 417.836 255.699 416.786 258.562C415.735 261.424 417.26 268.134 417.26 268.134C417.26 268.134 413.652 264.722 412.56 261.152C411.361 257.23 410.958 247.342 415.258 240.635Z" fill="#FCCCA2"/>
<path fill-rule="evenodd" clip-rule="evenodd" d="M415.557 240.44C415.557 240.44 413.746 241.874 413.512 244.135C413.512 244.135 413.171 242.372 413.903 241.293C414.633 240.215 415.557 240.44 415.557 240.44Z" fill="#E54242"/>
<path fill-rule="evenodd" clip-rule="evenodd" d="M396.279 296.374C396.656 294.969 396.932 293.598 397.128 292.28C397.128 292.28 398.038 290.344 398.345 289.42C398.652 288.496 400.937 277.129 400.937 277.129C400.937 277.129 403.354 287.804 396.279 296.374Z" fill="#1D3B54"/>
<path fill-rule="evenodd" clip-rule="evenodd" d="M386.119 297.034C386.119 297.034 384.339 298.801 383.763 298.979C383.188 299.157 382.079 298.177 377.992 297.874C377.633 297.847 377.002 298.17 377.151 298.644C377.299 299.118 379.078 300.408 379.839 300.605C380.601 300.801 384.192 302.228 385.942 301.528C387.692 300.828 388.883 298.6 388.883 298.6L386.119 297.034Z" fill="#EEA886"/>
<path fill-rule="evenodd" clip-rule="evenodd" d="M399.943 261.603C399.943 261.603 395.217 263.476 394.937 270.044C394.658 276.613 394.401 280.042 394.144 281.056C393.888 282.07 393.397 286.145 392.208 288.597C391.054 290.976 383.481 298.504 383.481 298.504L387.146 301.951C387.146 301.951 397.704 291.357 398.345 289.42C398.986 287.483 401.625 274.004 401.836 271.732C402.005 269.9 404.421 261.739 399.943 261.603Z" fill="#285173"/>
<path fill-rule="evenodd" clip-rule="evenodd" d="M311.551 323.186C301.747 323.186 292.652 320.151 285.154 314.969H337.948C330.45 320.151 321.356 323.186 311.551 323.186Z" fill="#F8F8F8"/>
<path fill-rule="evenodd" clip-rule="evenodd" d="M337.948 314.969H285.154C274.65 307.71 267.28 296.239 265.488 282.996H268.082C268.815 288.1 270.425 292.922 272.756 297.302H272.757C273.751 292.034 275.096 287.283 276.722 282.996H357.614C355.822 296.239 348.452 307.71 337.948 314.969Z" fill="#DADADA"/>
<mask id="mask8" mask-type="alpha" maskUnits="userSpaceOnUse" x="265" y="230" width="94" height="53">
<path fill-rule="evenodd" clip-rule="evenodd" d="M357.614 282.996H276.722C279.757 274.992 283.772 268.612 288.318 263.53H301.624V260.69H291.048C295.467 256.413 300.271 253.21 305.097 250.818L310.538 251.997C310.517 252.371 310.546 252.754 310.629 253.137C311.063 255.139 312.84 256.511 314.81 256.511C315.109 256.511 315.412 256.479 315.716 256.414C318.022 255.914 319.492 253.632 318.992 251.327C318.842 250.632 318.53 250.013 318.104 249.501L321.807 245.278C327.315 244.223 332.166 243.961 335.627 243.961C339.044 243.961 341.106 244.216 341.106 244.216C337.67 241.088 333.735 238.498 329.435 236.578L331.204 234.561C347.055 241.966 358.037 258.05 358.037 276.701C358.037 278.835 357.892 280.938 357.614 282.996ZM327.73 254.694H342.48V251.854H327.73V254.694ZM268.082 282.996H265.488C265.21 280.938 265.065 278.835 265.065 276.701C265.065 256.06 278.517 238.562 297.133 232.495V234.382H299.768C284.468 238.633 272.53 250.958 268.83 266.479L266.311 268.856L267.238 269.838L268.344 268.795C267.878 271.359 267.634 274.002 267.634 276.701C267.634 278.838 267.787 280.94 268.082 282.996ZM310.826 250.677L307.102 249.87C311.377 247.945 315.633 246.627 319.609 245.735L317.087 248.611C316.417 248.19 315.632 247.953 314.812 247.953C314.513 247.953 314.209 247.984 313.905 248.05C312.452 248.365 311.332 249.387 310.826 250.677ZM328.128 236.02C323.109 233.972 317.628 232.827 311.883 232.785V231.541H300.482C304.029 230.675 307.737 230.215 311.551 230.215C318.073 230.215 324.281 231.558 329.914 233.983L328.128 236.02Z" fill="white"/>
</mask>
<g mask="url(#mask8)">
<path fill-rule="evenodd" clip-rule="evenodd" d="M357.614 282.996H276.722C279.757 274.992 283.772 268.612 288.318 263.53H301.624V260.69H291.048C295.467 256.413 300.271 253.21 305.097 250.818L310.538 251.997C310.517 252.371 310.546 252.754 310.629 253.137C311.063 255.139 312.84 256.511 314.81 256.511C315.109 256.511 315.412 256.479 315.716 256.414C318.022 255.914 319.492 253.632 318.992 251.327C318.842 250.632 318.53 250.013 318.104 249.501L321.807 245.278C327.315 244.223 332.166 243.961 335.627 243.961C339.044 243.961 341.106 244.216 341.106 244.216C337.67 241.088 333.735 238.498 329.435 236.578L331.204 234.561C347.055 241.966 358.037 258.05 358.037 276.701C358.037 278.835 357.892 280.938 357.614 282.996ZM327.73 254.694H342.48V251.854H327.73V254.694ZM268.082 282.996H265.488C265.21 280.938 265.065 278.835 265.065 276.701C265.065 256.06 278.517 238.562 297.133 232.495V234.382H299.768C284.468 238.633 272.53 250.958 268.83 266.479L266.311 268.856L267.238 269.838L268.344 268.795C267.878 271.359 267.634 274.002 267.634 276.701C267.634 278.838 267.787 280.94 268.082 282.996ZM310.826 250.677L307.102 249.87C311.377 247.945 315.633 246.627 319.609 245.735L317.087 248.611C316.417 248.19 315.632 247.953 314.812 247.953C314.513 247.953 314.209 247.984 313.905 248.05C312.452 248.365 311.332 249.387 310.826 250.677ZM328.128 236.02C323.109 233.972 317.628 232.827 311.883 232.785V231.541H300.482C304.029 230.675 307.737 230.215 311.551 230.215C318.073 230.215 324.281 231.558 329.914 233.983L328.128 236.02Z" fill="url(#paint9_linear)"/>
</g>
<path fill-rule="evenodd" clip-rule="evenodd" d="M267.238 269.838L266.311 268.856L268.83 266.479C268.648 267.243 268.486 268.015 268.344 268.795L267.238 269.838ZM310.538 251.997L305.097 250.818C305.765 250.487 306.434 250.171 307.102 249.87L310.826 250.677C310.662 251.094 310.563 251.539 310.538 251.997ZM318.104 249.501C317.813 249.151 317.469 248.851 317.087 248.611L319.609 245.735C320.352 245.568 321.084 245.416 321.807 245.278L318.104 249.501ZM329.435 236.578C329.003 236.385 328.567 236.199 328.128 236.02L329.914 233.983C330.347 234.169 330.777 234.362 331.204 234.561L329.435 236.578Z" fill="#55B0F8"/>
<path fill-rule="evenodd" clip-rule="evenodd" d="M314.81 255.159C313.462 255.159 312.246 254.22 311.95 252.851C311.608 251.274 312.613 249.712 314.191 249.371C314.399 249.326 314.606 249.304 314.811 249.304C316.159 249.304 317.375 250.243 317.671 251.612C318.013 253.19 317.008 254.751 315.43 255.092C315.222 255.137 315.015 255.159 314.81 255.159Z" fill="#F8F8F8"/>
<path fill-rule="evenodd" clip-rule="evenodd" d="M314.81 256.511C312.84 256.511 311.063 255.139 310.629 253.137C310.546 252.754 310.517 252.371 310.538 251.997C310.563 251.539 310.662 251.094 310.826 250.677C311.332 249.387 312.452 248.365 313.905 248.05C314.209 247.984 314.513 247.953 314.812 247.953C315.632 247.953 316.417 248.19 317.087 248.611C317.469 248.851 317.813 249.151 318.104 249.501C318.53 250.013 318.842 250.632 318.992 251.327C319.492 253.632 318.022 255.914 315.716 256.414C315.412 256.479 315.109 256.511 314.81 256.511ZM314.811 249.304C314.606 249.304 314.399 249.326 314.191 249.371C312.613 249.712 311.608 251.274 311.95 252.851C312.246 254.22 313.462 255.159 314.81 255.159C315.015 255.159 315.222 255.137 315.43 255.092C317.008 254.751 318.013 253.19 317.671 251.612C317.375 250.243 316.159 249.304 314.811 249.304Z" fill="#55B0F8"/>
<path fill-rule="evenodd" clip-rule="evenodd" d="M301.624 263.53H288.318C289.209 262.534 290.12 261.588 291.048 260.69H301.624V263.53Z" fill="#DCDCDC"/>
<path fill-rule="evenodd" clip-rule="evenodd" d="M299.768 234.382H297.133V232.495C298.232 232.136 299.348 231.818 300.482 231.541H311.883V232.785C311.772 232.784 311.662 232.784 311.551 232.784C307.47 232.784 303.518 233.341 299.768 234.382Z" fill="#DCDCDC"/>
<path fill-rule="evenodd" clip-rule="evenodd" d="M327.73 254.694H342.48V251.854H327.73V254.694Z" fill="#DCDCDC"/>
<path fill-rule="evenodd" clip-rule="evenodd" d="M272.757 297.302H272.756C270.425 292.922 268.815 288.1 268.082 282.996H276.722C275.096 287.283 273.751 292.034 272.757 297.302Z" fill="#C1C7D3"/>
<mask id="mask9" mask-type="alpha" maskUnits="userSpaceOnUse" x="267" y="232" width="75" height="51">
<path fill-rule="evenodd" clip-rule="evenodd" d="M276.722 282.996H268.082C267.787 280.94 267.634 278.838 267.634 276.701C267.634 274.002 267.878 271.359 268.344 268.795L287.691 250.54C288.454 251.194 289.439 251.575 290.477 251.575C290.776 251.575 291.08 251.544 291.384 251.478C292.953 251.139 294.134 249.974 294.572 248.537L305.097 250.818C300.271 253.21 295.467 256.413 291.048 260.69H286.874V263.53H288.318C283.772 268.612 279.757 274.992 276.722 282.996ZM268.83 266.479C272.53 250.958 284.468 238.633 299.768 234.382H311.883V232.785C317.628 232.827 323.109 233.972 328.128 236.02L319.609 245.735C315.633 246.627 311.377 247.945 307.102 249.87L294.756 247.195C294.75 246.929 294.718 246.66 294.66 246.391C294.226 244.389 292.449 243.017 290.479 243.017C290.18 243.017 289.877 243.049 289.573 243.115C287.267 243.614 285.797 245.896 286.297 248.202C286.4 248.676 286.578 249.115 286.816 249.509L268.83 266.479ZM321.807 245.278L329.435 236.578C333.735 238.498 337.67 241.088 341.106 244.216C341.106 244.216 339.044 243.961 335.627 243.961C332.166 243.961 327.315 244.223 321.807 245.278Z" fill="white"/>
</mask>
<g mask="url(#mask9)">
<path fill-rule="evenodd" clip-rule="evenodd" d="M276.722 282.996H268.082C267.787 280.94 267.634 278.838 267.634 276.701C267.634 274.002 267.878 271.359 268.344 268.795L287.691 250.54C288.454 251.194 289.439 251.575 290.477 251.575C290.776 251.575 291.08 251.544 291.384 251.478C292.953 251.139 294.134 249.974 294.572 248.537L305.097 250.818C300.271 253.21 295.467 256.413 291.048 260.69H286.874V263.53H288.318C283.772 268.612 279.757 274.992 276.722 282.996ZM268.83 266.479C272.53 250.958 284.468 238.633 299.768 234.382H311.883V232.785C317.628 232.827 323.109 233.972 328.128 236.02L319.609 245.735C315.633 246.627 311.377 247.945 307.102 249.87L294.756 247.195C294.75 246.929 294.718 246.66 294.66 246.391C294.226 244.389 292.449 243.017 290.479 243.017C290.18 243.017 289.877 243.049 289.573 243.115C287.267 243.614 285.797 245.896 286.297 248.202C286.4 248.676 286.578 249.115 286.816 249.509L268.83 266.479ZM321.807 245.278L329.435 236.578C333.735 238.498 337.67 241.088 341.106 244.216C341.106 244.216 339.044 243.961 335.627 243.961C332.166 243.961 327.315 244.223 321.807 245.278Z" fill="url(#paint10_linear)"/>
</g>
<path fill-rule="evenodd" clip-rule="evenodd" d="M268.344 268.795C268.486 268.015 268.648 267.243 268.83 266.479L286.816 249.509C287.053 249.901 287.35 250.248 287.691 250.54L268.344 268.795ZM305.097 250.818L294.572 248.537C294.703 248.109 294.767 247.657 294.756 247.195L307.102 249.87C306.434 250.171 305.765 250.487 305.097 250.818ZM319.609 245.735L328.128 236.02C328.567 236.199 329.003 236.385 329.435 236.578L321.807 245.278C321.084 245.416 320.352 245.568 319.609 245.735Z" fill="#64A9E8"/>
<path fill-rule="evenodd" clip-rule="evenodd" d="M290.478 250.224C289.13 250.224 287.914 249.286 287.617 247.917C287.276 246.338 288.281 244.777 289.859 244.435C290.067 244.39 290.274 244.369 290.478 244.369C291.826 244.369 293.043 245.307 293.339 246.677C293.681 248.254 292.675 249.816 291.098 250.158C290.89 250.203 290.682 250.224 290.478 250.224Z" fill="#D6DCE8"/>
<path fill-rule="evenodd" clip-rule="evenodd" d="M290.477 251.575C289.439 251.575 288.454 251.194 287.691 250.54C287.35 250.248 287.053 249.901 286.816 249.509C286.578 249.115 286.4 248.676 286.297 248.202C285.797 245.896 287.267 243.614 289.573 243.115C289.877 243.049 290.18 243.017 290.479 243.017C292.449 243.017 294.226 244.389 294.66 246.391C294.718 246.66 294.75 246.929 294.756 247.195C294.767 247.657 294.703 248.109 294.572 248.537C294.134 249.974 292.953 251.139 291.384 251.478C291.08 251.544 290.776 251.575 290.477 251.575ZM290.478 244.369C290.274 244.369 290.067 244.39 289.859 244.435C288.281 244.777 287.276 246.338 287.617 247.917C287.914 249.286 289.13 250.224 290.478 250.224C290.682 250.224 290.89 250.203 291.098 250.158C292.675 249.816 293.681 248.254 293.339 246.677C293.043 245.307 291.826 244.369 290.478 244.369Z" fill="#64A9E8"/>
<path fill-rule="evenodd" clip-rule="evenodd" d="M288.318 263.53H286.874V260.69H291.048C290.12 261.588 289.209 262.534 288.318 263.53Z" fill="#C2C8D4"/>
<path fill-rule="evenodd" clip-rule="evenodd" d="M311.883 234.382H299.768C303.518 233.341 307.47 232.784 311.551 232.784C311.662 232.784 311.772 232.784 311.883 232.785V234.382Z" fill="#C2C8D4"/>
<path fill-rule="evenodd" clip-rule="evenodd" d="M311.549 320.69C287.255 320.69 267.561 300.998 267.561 276.701C267.561 252.408 287.255 232.713 311.549 232.713C335.843 232.713 355.537 252.408 355.537 276.701C355.537 300.998 335.843 320.69 311.549 320.69ZM311.549 224.159C282.529 224.159 259.004 247.683 259.004 276.701C259.004 305.722 282.529 329.247 311.549 329.247C340.569 329.247 364.093 305.722 364.093 276.701C364.093 247.683 340.569 224.159 311.549 224.159Z" fill="#3F444F"/>
<path fill-rule="evenodd" clip-rule="evenodd" d="M135.276 123.848H165.74V120.729H135.276V123.848Z" fill="#E0E0E0"/>
<path fill-rule="evenodd" clip-rule="evenodd" d="M171.667 123.848H193.293V120.729H171.667V123.848Z" fill="#E0E0E0"/>
<path fill-rule="evenodd" clip-rule="evenodd" d="M171.667 135.592H191.86V132.473H171.667V135.592Z" fill="#E0E0E0"/>
<path fill-rule="evenodd" clip-rule="evenodd" d="M279.998 123.848H301.625V120.729H279.998V123.848Z" fill="#78C2FF"/>
<path fill-rule="evenodd" clip-rule="evenodd" d="M199.116 123.848H226.668V120.729H199.116V123.848Z" fill="#1487E3"/>
<path fill-rule="evenodd" clip-rule="evenodd" d="M247.047 123.848H274.6V120.729H247.047V123.848Z" fill="#FFC055"/>
<path fill-rule="evenodd" clip-rule="evenodd" d="M231.763 123.848H241.849V120.729H231.763V123.848Z" fill="#E0E0E0"/>
<path fill-rule="evenodd" clip-rule="evenodd" d="M135.276 135.592H151.054V132.473H135.276V135.592Z" fill="#78C2FF"/>
<path fill-rule="evenodd" clip-rule="evenodd" d="M154.927 135.592H160.022V132.473H154.927V135.592Z" fill="#1487E3"/>
<path fill-rule="evenodd" clip-rule="evenodd" d="M259.515 135.592H301.625V132.473H259.515V135.592Z" fill="#E0E0E0"/>
<path fill-rule="evenodd" clip-rule="evenodd" d="M163.765 135.592H168.963V132.473H163.765V135.592Z" fill="#FFC455"/>
<path fill-rule="evenodd" clip-rule="evenodd" d="M241.849 135.592H255.625V132.473H241.849V135.592Z" fill="#1487E3"/>
<path fill-rule="evenodd" clip-rule="evenodd" d="M208.889 135.592H238.202V132.473H208.889V135.592Z" fill="#78C2FF"/>
<path fill-rule="evenodd" clip-rule="evenodd" d="M194.645 135.592H204.73V132.473H194.645V135.592Z" fill="#E0E0E0"/>
<path fill-rule="evenodd" clip-rule="evenodd" d="M314.585 18.4199C314.585 18.4199 309.812 20.7549 310.992 27.1089C312.172 33.4609 312.695 34.3169 311.375 36.7989C310.054 39.2819 308.496 49.8719 309.684 51.8779C310.873 53.8849 324.393 43.0579 326.268 33.9739C328.143 24.8899 325.08 20.8499 323.997 19.3449C322.914 17.8389 318.8 16.2819 314.585 18.4199Z" fill="#16202E"/>
<path fill-rule="evenodd" clip-rule="evenodd" d="M315.643 123L316.394 123.905L319.418 121.102L318.746 120.151L315.643 123Z" fill="#EEA987"/>
<path fill-rule="evenodd" clip-rule="evenodd" d="M316.394 123.905C316.394 123.905 315.607 128.689 314.988 129.31C314.37 129.931 311.206 133.25 311.917 134.135C312.627 135.019 319.543 130.168 320.531 128.43C321.52 126.692 323.538 126.386 323.853 124.632C324.168 122.877 319.418 121.102 319.418 121.102L316.394 123.905Z" fill="#3F444F"/>
<path fill-rule="evenodd" clip-rule="evenodd" d="M313.658 78.029C313.658 78.029 294.395 97.509 294.289 99.991C294.183 102.473 315.23 122.913 315.441 123.652L319.125 120.151C319.125 120.151 309.763 106.857 306.912 104.005C304.237 101.331 302.475 99.938 302.475 99.938C302.475 99.938 325.392 91.356 327.082 89.033C328.772 86.709 330.572 82.616 328.671 78.892C326.77 75.168 313.658 78.029 313.658 78.029Z" fill="#DBDFF0"/>
<path fill-rule="evenodd" clip-rule="evenodd" d="M312.48 90.591H287.186C287.186 90.591 288.298 94.075 288.795 97.825C289.292 101.505 290.695 121.219 290.695 121.219L285.679 122.648C286.313 120.431 278.831 90.403 278.497 89.033C277.547 85.095 282.657 84.462 288.067 81.663C293.657 78.778 307.439 75.363 307.439 75.363C327.298 75.303 312.48 90.591 312.48 90.591Z" fill="#DBDFF0"/>
<path fill-rule="evenodd" clip-rule="evenodd" d="M286.395 122.446L286.446 123.652L290.407 122.506L290.233 121.354L286.395 122.446Z" fill="#EEA987"/>
<path fill-rule="evenodd" clip-rule="evenodd" d="M286.446 123.652C286.446 123.652 283.594 127.573 282.762 127.85C281.931 128.127 277.613 129.672 277.851 130.782C278.088 131.891 286.446 130.663 288.11 129.553C289.773 128.445 291.714 129.079 292.784 127.653C293.854 126.226 290.407 122.506 290.407 122.506L286.446 123.652Z" fill="#3F444F"/>
<path fill-rule="evenodd" clip-rule="evenodd" d="M315.261 40.638C315.261 40.638 311.203 41.876 309.777 46.649C309.102 48.907 306.014 59.8 305.142 60.671C304.271 61.543 293.22 68.158 293.22 68.158L294.527 70.495C294.527 70.495 308.232 64.157 308.707 63.524C309.183 62.889 314.166 51.363 314.585 49.66C315.005 47.957 318.884 38.508 315.261 40.638Z" fill="#EEA987"/>
<path fill-rule="evenodd" clip-rule="evenodd" d="M315.278 19.1241C315.278 19.1241 308.346 21.3031 312.109 33.2661C315.872 45.2281 325.339 31.8791 324.349 24.5911C323.358 17.3031 315.278 19.1241 315.278 19.1241Z" fill="#EEA987"/>
<path fill-rule="evenodd" clip-rule="evenodd" d="M322.729 39.322C322.729 39.322 330.018 42.372 331.839 46.095C333.662 49.819 329.978 56.552 329.186 58.889C328.394 61.226 326.928 66.534 327.245 69.188C327.562 71.841 328.512 77.229 328.671 78.892C328.671 78.892 313.421 80.16 307.44 75.367C307.44 75.367 311.401 72.317 311.718 68.752C312.035 65.187 311.084 60.909 310.846 60.434C310.608 59.959 307.281 57.028 308.113 54.215C308.945 51.403 310.212 44.513 312.186 42.603C314.094 40.757 316.589 39.797 316.589 39.797L322.729 39.322Z" fill="#1A598C"/>
<path fill-rule="evenodd" clip-rule="evenodd" d="M327.126 43.996C326.435 44.671 324.472 46.531 326.809 51.719C329.146 56.909 333.543 63.761 333.662 64.711C333.78 65.663 340.263 85.027 340.422 85.423C340.581 85.82 343.24 85.517 343.24 85.517C343.24 85.517 339.366 66.274 338.969 64.067C338.969 64.067 332.394 38.846 327.126 43.996Z" fill="#EEA987"/>
<path fill-rule="evenodd" clip-rule="evenodd" d="M343.115 85.423C343.115 85.423 345.624 87.325 346.125 87.404C346.627 87.483 351.328 88.54 351.777 88.354C352.226 88.169 352.78 89.358 351.301 89.279C349.823 89.2 344.33 89.252 342.851 89.121C341.373 88.988 339.735 91.549 339.181 91.523C338.626 91.497 338.706 90.757 339.498 89.358C340.29 87.959 341.049 87.186 340.422 85.423C339.794 83.661 343.115 85.423 343.115 85.423Z" fill="#EEA987"/>
<path fill-rule="evenodd" clip-rule="evenodd" d="M293.22 68.158C293.22 68.158 291.516 68.435 290.764 67.841C290.011 67.247 287.629 66.34 287.629 66.34L291.001 72.317C291.001 72.317 294.17 71.128 294.527 70.495C294.883 69.861 293.22 68.158 293.22 68.158Z" fill="#EEA987"/>
<path fill-rule="evenodd" clip-rule="evenodd" d="M291.324 72.6L290.5 73.076L284.817 63.231L285.64 62.755L291.324 72.6Z" fill="#434343"/>
<path fill-rule="evenodd" clip-rule="evenodd" d="M287.417 67.735C287.417 67.735 286.68 71.712 290.128 72.43L287.417 67.735Z" fill="#EEA987"/>
<path fill-rule="evenodd" clip-rule="evenodd" d="M322.727 39.325C322.778 42.004 319.585 46.438 316.983 45.437C314.381 44.435 316.589 39.795 316.589 39.795L317.394 39.497C317.377 39.334 317.317 39.136 317.249 38.94C317.069 38.477 316.795 38.024 316.795 38.024C316.795 38.024 323.472 29.165 322.65 32.348C321.836 35.533 322.727 39.325 322.727 39.325Z" fill="#EEA987"/>
<path fill-rule="evenodd" clip-rule="evenodd" d="M311.401 26.105C311.401 26.105 314.845 29.485 320.609 29.908C320.609 29.908 322.56 32.215 322.73 33.235C322.73 33.235 328.137 24.758 321.815 19.503C315.494 14.248 309.077 23.94 311.401 26.105Z" fill="#16202E"/>
<path fill-rule="evenodd" clip-rule="evenodd" d="M320.617 29.617C320.661 28.747 321.198 26.765 322.492 27.32C323.786 27.875 322.413 31.909 321.554 31.661C321.554 31.661 320.511 31.677 320.617 29.617Z" fill="#EEA987"/>
<path fill-rule="evenodd" clip-rule="evenodd" d="M321.066 34.917C321.066 34.917 320.09 38.263 317.249 38.94C317.069 38.477 316.795 38.024 316.795 38.024C316.795 38.024 318.652 38.015 321.066 34.917Z" fill="#A1725B"/>
<path fill-rule="evenodd" clip-rule="evenodd" d="M310.375 81.389L301.695 90.591H298.502L310.375 81.389Z" fill="#B5B9C7"/>
<defs>
<linearGradient id="paint0_linear" x1="373.137" y1="212.376" x2="443.555" y2="212.376" gradientUnits="userSpaceOnUse">
<stop stop-color="#40D4E6"/>
<stop offset="1" stop-color="#5477FF"/>
</linearGradient>
<linearGradient id="paint1_linear" x1="395.838" y1="246.97" x2="448.527" y2="200.798" gradientUnits="userSpaceOnUse">
<stop stop-color="#40D4E6"/>
<stop offset="1" stop-color="#5477FF"/>
</linearGradient>
<linearGradient id="paint2_linear" x1="125.721" y1="282.996" x2="392.288" y2="282.996" gradientUnits="userSpaceOnUse">
<stop stop-color="white"/>
<stop offset="1" stop-color="#F1F5FF"/>
</linearGradient>
<linearGradient id="paint3_linear" x1="435.592" y1="86.3385" x2="103.337" y2="86.3385" gradientUnits="userSpaceOnUse">
<stop stop-color="#FF9F54"/>
<stop offset="1" stop-color="#FFD254"/>
</linearGradient>
<linearGradient id="paint4_linear" x1="61.2989" y1="237.873" x2="102.149" y2="237.873" gradientUnits="userSpaceOnUse">
<stop stop-color="#FF9F54"/>
<stop offset="1" stop-color="#FFD254"/>
</linearGradient>
<linearGradient id="paint5_linear" x1="87.5747" y1="193.915" x2="63.5363" y2="193.915" gradientUnits="userSpaceOnUse">
<stop stop-color="#FF9F54"/>
<stop offset="1" stop-color="#FFD254"/>
</linearGradient>
<linearGradient id="paint6_linear" x1="485.019" y1="195.41" x2="430.03" y2="195.41" gradientUnits="userSpaceOnUse">
<stop stop-color="#FF9F54"/>
<stop offset="1" stop-color="#FFD254"/>
</linearGradient>
<linearGradient id="paint7_linear" x1="291.103" y1="0.541242" x2="246.062" y2="0.541242" gradientUnits="userSpaceOnUse">
<stop stop-color="#FF9F54"/>
<stop offset="1" stop-color="#FFD254"/>
</linearGradient>
<linearGradient id="paint8_linear" x1="451.259" y1="281.64" x2="365.12" y2="281.64" gradientUnits="userSpaceOnUse">
<stop stop-color="#FF9F54"/>
<stop offset="1" stop-color="#FFD254"/>
</linearGradient>
<linearGradient id="paint9_linear" x1="125.721" y1="261.775" x2="392.288" y2="261.775" gradientUnits="userSpaceOnUse">
<stop stop-color="#F8F8F8"/>
<stop offset="1" stop-color="#EBEEF8"/>
</linearGradient>
<linearGradient id="paint10_linear" x1="125.721" y1="277.195" x2="392.288" y2="277.195" gradientUnits="userSpaceOnUse">
<stop stop-color="#D5DCE8"/>
<stop offset="1" stop-color="#CDD4E8"/>
</linearGradient>
</defs>
</svg>
